<svg width="13" height="13" viewBox="0 0 13 13" fill="none" xmlns="http://www.w3.org/2000/svg">
<g id="arrow_bold_down_fff_12">
<path id="Union" d="M9.88722 7.04843C9.81489 6.97824 9.71755 6.93892 9.61615 6.93894L8.5205 6.93911V1.5H4.49219V6.93972L3.39919 6.93989C3.31192 6.93982 3.22703 6.96799 3.15751 7.0201C3.11732 7.0497 3.0836 7.08702 3.05837 7.12981C3.03314 7.1726 3.01693 7.21999 3.0107 7.26912C3.00447 7.31826 3.00835 7.36813 3.02212 7.41574C3.03589 7.46336 3.05925 7.50774 3.09081 7.54621L4.55442 9.33558L6.19784 11.3541C6.21647 11.3781 6.23788 11.3999 6.26164 11.419C6.34396 11.4803 6.44707 11.5078 6.54942 11.4957C6.65176 11.4836 6.7454 11.4328 6.81074 11.3541L8.46383 9.33462L9.9197 7.54526C9.97317 7.47979 10.0025 7.3983 10.0028 7.31419C10.0011 7.21406 9.95954 7.11862 9.88722 7.04843Z" fill="#FF1F55"/>
</g>
</svg>
