<svg width="12" height="12" viewBox="0 0 12 12" fill="none" xmlns="http://www.w3.org/2000/svg">
<g id="arrow_down_fill_fff_12">
<path id="&#237;&#149;&#169;&#236;&#185;&#152;&#234;&#184;&#176; 9" d="M3.59345 6.21583C3.5641 6.18894 3.54058 6.15576 3.52446 6.11853C3.50834 6.08131 3.5 6.04089 3.5 6C3.5 5.95911 3.50834 5.91869 3.52446 5.88146C3.54058 5.84424 3.5641 5.81106 3.59345 5.78417L6.54506 3.07296C6.58447 3.03596 6.63328 3.01177 6.68554 3.00333C6.73781 2.99489 6.79128 3.00257 6.83947 3.02543C6.88765 3.04829 6.92848 3.08535 6.95697 3.1321C6.98547 3.17886 7.00041 3.23329 6.99999 3.28879V8.71121C7.00041 8.76671 6.98547 8.82114 6.95697 8.8679C6.92848 8.91465 6.88765 8.95171 6.83947 8.97457C6.79128 8.99743 6.73781 9.00511 6.68554 8.99667C6.63328 8.98823 6.58447 8.96404 6.54506 8.92704L3.59345 6.21583Z" fill="white"/>
</g>
</svg>
