<svg width="21" height="21" viewBox="0 0 21 21" fill="none" xmlns="http://www.w3.org/2000/svg">
<g id="arrow_right_20">
<path id="Union" d="M2.50391 11.5V9.50004H13.6641V7.3911C13.6652 7.33857 13.6767 7.28678 13.6979 7.2387C13.7191 7.19061 13.7496 7.14718 13.7876 7.11087C13.8255 7.07456 13.8703 7.04609 13.9193 7.02708C13.9683 7.00807 14.0205 6.99891 14.0731 7.0001C14.1641 7.00003 14.2528 7.02911 14.3261 7.0831L16.2911 8.5441L18.5061 10.2001C18.5876 10.2584 18.6426 10.3466 18.6591 10.4454C18.6756 10.5442 18.6522 10.6455 18.5941 10.7271L18.5771 10.7491C18.5559 10.7739 18.5321 10.7964 18.5061 10.8161L16.2921 12.4561L14.3301 13.9171C14.2433 13.981 14.1354 14.0096 14.0284 13.9972C13.9213 13.9848 13.8229 13.9322 13.7531 13.8501C13.696 13.7824 13.6644 13.6967 13.6641 13.6081V11.5H2.50391Z" fill="white"/>
</g>
</svg>
