<svg width="21" height="20" viewBox="0 0 21 20" fill="none" xmlns="http://www.w3.org/2000/svg">
<g id="arrow_diagonal_right_down_20">
<path id="Union" d="M13.2064 13.8979L11.7189 15.3863C11.657 15.4495 11.6188 15.5322 11.6109 15.6203C11.6022 15.7278 11.6346 15.8346 11.7016 15.9191C11.7686 16.0036 11.8653 16.0595 11.9719 16.0753L14.3919 16.4293L17.1169 16.8353C17.1501 16.8395 17.1837 16.8395 17.2169 16.8353H17.2439C17.2929 16.8272 17.3398 16.8095 17.382 16.7833C17.4241 16.757 17.4607 16.7227 17.4896 16.6823C17.5185 16.6419 17.5391 16.5962 17.5503 16.5478C17.5615 16.4994 17.5631 16.4493 17.5549 16.4003L17.1549 13.6633L16.7979 11.2393C16.7841 11.1496 16.7421 11.0666 16.6779 11.0023C16.6416 10.9644 16.5981 10.9339 16.55 10.9127C16.5018 10.8916 16.45 10.8801 16.3974 10.879C16.3449 10.8779 16.2926 10.8871 16.2436 10.9062C16.1946 10.9254 16.1499 10.9539 16.1119 10.9903L14.6201 12.4832L5.26578 3.12891L3.85156 4.54312L13.2064 13.8979Z" fill="white"/>
</g>
</svg>
