<svg width="21" height="21" viewBox="0 0 21 21" fill="none" xmlns="http://www.w3.org/2000/svg">
<g id="arrow_left_20">
<path id="Union" d="M7.2984 6.7387C7.31958 6.78678 7.33109 6.83857 7.33226 6.8911V9.00004H18.4961V11H7.33226V13.1081C7.33187 13.1967 7.30037 13.2824 7.24326 13.3501C7.17341 13.4322 7.07503 13.4848 6.96795 13.4972C6.86088 13.5096 6.75307 13.481 6.66626 13.4171L4.70426 11.9561L2.49026 10.3161C2.46424 10.2964 2.44043 10.2739 2.41926 10.2491L2.40226 10.2271C2.3441 10.1455 2.32069 10.0442 2.3372 9.94539C2.3537 9.84658 2.40875 9.75835 2.49026 9.7001L4.70526 8.0441L6.67026 6.5831C6.74356 6.52911 6.83223 6.50003 6.92326 6.5001C6.97579 6.49891 7.02805 6.50807 7.07703 6.52708C7.12602 6.54609 7.17079 6.57456 7.20877 6.61087C7.24675 6.64718 7.27721 6.69061 7.2984 6.7387Z" fill="white"/>
</g>
</svg>
