<svg width="21" height="20" viewBox="0 0 21 20" fill="none" xmlns="http://www.w3.org/2000/svg">
<g id="arrow_diagonal_left_down_20">
<path id="Union" d="M6.38222 12.477L4.89045 10.9866C4.85252 10.9502 4.80778 10.9216 4.75879 10.9025C4.7098 10.8834 4.65753 10.8741 4.60496 10.8752C4.55239 10.8764 4.50056 10.8878 4.45242 10.909C4.40429 10.9302 4.3608 10.9606 4.32445 10.9986C4.26032 11.0629 4.2183 11.1459 4.20445 11.2356L3.45045 16.3936C3.44229 16.4426 3.44386 16.4927 3.45508 16.5411C3.4663 16.5894 3.48694 16.6351 3.51582 16.6755C3.5447 16.7159 3.58126 16.7502 3.6234 16.7765C3.66555 16.8028 3.71246 16.8205 3.76145 16.8286H3.78845C3.82165 16.8328 3.85525 16.8328 3.88845 16.8286L6.61345 16.4226L9.03345 16.0686C9.1403 16.0529 9.23719 15.9972 9.30443 15.9127C9.37167 15.8282 9.40421 15.7212 9.39545 15.6136C9.38756 15.5255 9.3494 15.4428 9.28745 15.3796L7.79708 13.8906L17.1484 4.53921L15.7342 3.125L6.38222 12.477Z" fill="white"/>
</g>
</svg>
