<svg width="48" height="54" viewBox="0 0 48 54" fill="none" xmlns="http://www.w3.org/2000/svg">
<path d="M24.0024 8C15.3095 7.99939 8.13192 15.0471 8.00187 23.758C7.93548 28.1949 9.67773 32.2229 12.5353 35.1596L22.7554 45.4843C23.4428 46.1719 24.5573 46.1719 25.2445 45.4843L35.4648 35.1596C38.2697 32.2768 40 28.3426 40 24.0022C40 15.2161 32.9198 8.08368 24.1542 8.00073C24.1039 8.00024 24.0525 8 24.0024 8ZM24.0011 0L24.2306 0.00109863C37.3368 0.125122 48 10.892 48 24.0022C48 30.287 45.5845 36.2307 41.1985 40.7385L30.93 51.1124C29.0596 52.9841 26.608 54.0001 24 54.0001C21.3925 54.0001 18.9411 52.9844 17.0975 51.1402L6.84972 40.7876C2.32126 36.1341 -0.0933311 30.0611 0.00276112 23.6383C0.197364 10.6042 10.963 0 24.0011 0Z" fill="#27D4FF" fill-opacity="0.4"/>
<path d="M24.0024 8C15.3096 7.99939 8.13191 15.0471 8.00186 23.758C7.93547 28.1949 9.67772 32.2229 12.5353 35.1596L22.7554 45.4843C23.4428 46.1719 24.5573 46.1719 25.2445 45.4843L35.4648 35.1596C38.2697 32.2768 40 28.3426 40 24.0022C40 15.2161 32.9198 8.08368 24.1542 8.00073C24.1039 8.00024 24.0525 8 24.0024 8ZM24.0012 4H24.0027C24.0654 4 24.1292 4.00031 24.1916 4.00092C26.8701 4.02625 29.4674 4.57343 31.9117 5.62726C34.2721 6.64484 36.3896 8.08984 38.2054 9.92212C40.022 11.7552 41.4482 13.8867 42.4444 16.2574C43.4766 18.7137 44 21.3195 44 24.0022C44 29.2392 41.9869 34.1923 38.3316 37.949L38.3075 37.9736L28.0738 48.3119C26.9858 49.4005 25.539 50 24 50C22.4611 50 21.0145 49.4006 19.9265 48.3123L19.9126 48.2983L9.66853 37.9492C7.85557 36.086 6.44192 33.9258 5.46685 31.5284C4.45455 29.0396 3.9618 26.405 4.00231 23.6981C4.04208 21.0339 4.60354 18.4487 5.67109 16.0145C6.69906 13.6706 8.15055 11.5668 9.98524 9.76141C11.8187 7.95734 13.9445 6.54016 16.3037 5.54938C18.7516 4.5213 21.3414 4 24.0012 4Z" fill="#27D4FF" fill-opacity="0.4"/>
<path d="M39.5001 24.0042V24.0048C39.5044 28.0424 37.9276 31.9213 35.1075 34.8108C35.1071 34.8112 35.1067 34.8116 35.1063 34.812L24.8906 45.1327C24.8903 45.1331 24.8899 45.1334 24.8896 45.1337C24.6534 45.3694 24.3334 45.5017 23.9996 45.5017C23.6658 45.5017 23.3456 45.3693 23.1094 45.1335C23.1092 45.1332 23.1089 45.133 23.1087 45.1327L12.8929 34.812C12.8925 34.8116 12.8921 34.8112 12.8917 34.8108C11.4677 33.3514 10.3466 31.6246 9.5932 29.7298C8.83964 27.8347 8.46879 25.8091 8.50205 23.77C8.57756 19.6785 10.2625 15.7816 13.1917 12.924C16.1209 10.0665 20.0582 8.4785 24.1501 8.50421C28.2348 8.54375 32.1387 10.1941 35.0132 13.0965C37.8878 15.999 39.5003 19.9191 39.5001 24.0042Z" fill="#0068E6" stroke="#27D4FF"/>
<path d="M18.8398 31.2005V16.8005H24.0118C25.4918 16.7047 26.966 17.06 28.2398 17.8195C28.7126 18.1486 29.0937 18.5929 29.3471 19.1103C29.6004 19.6277 29.7177 20.2011 29.6878 20.7765C29.7078 21.4495 29.529 22.1135 29.1738 22.6855C28.8102 23.229 28.2789 23.6388 27.6608 23.8525C28.3489 24.0093 28.9609 24.4007 29.3918 24.9595C29.8036 25.535 30.0145 26.2301 29.9918 26.9375C30.0342 27.5355 29.9349 28.1352 29.7021 28.6877C29.4692 29.2402 29.1094 29.73 28.6518 30.1175C27.4844 30.907 26.0885 31.2878 24.6818 31.2005H18.8398ZM22.3108 22.8005H24.1198C24.6908 22.8471 25.2609 22.7018 25.7398 22.3875C25.9061 22.2371 26.0362 22.051 26.1202 21.8432C26.2042 21.6353 26.24 21.4111 26.2248 21.1875C26.2479 20.9423 26.2123 20.6953 26.121 20.4666C26.0298 20.2379 25.8854 20.0343 25.6998 19.8725C25.1926 19.5637 24.6006 19.4236 24.0088 19.4725H22.3088L22.3108 22.8005ZM22.3108 25.0755V28.5275H24.5858C25.1028 28.5627 25.6152 28.4111 26.0298 28.1005C26.199 27.9493 26.3318 27.7618 26.4183 27.5521C26.5049 27.3425 26.543 27.1159 26.5298 26.8895C26.5642 26.6455 26.5418 26.3969 26.4643 26.163C26.3868 25.9291 26.2564 25.7163 26.0831 25.5411C25.9099 25.3659 25.6985 25.2331 25.4655 25.1531C25.2325 25.073 24.9842 25.0478 24.7398 25.0795L22.3108 25.0755Z" fill="white"/>
</svg>
