<svg width="48" height="54" viewBox="0 0 48 54" fill="none" xmlns="http://www.w3.org/2000/svg">
<path d="M24.0024 8C15.3095 7.99939 8.13192 15.0471 8.00187 23.758C7.93548 28.1949 9.67773 32.2229 12.5353 35.1596L22.7554 45.4843C23.4428 46.1719 24.5573 46.1719 25.2445 45.4843L35.4648 35.1596C38.2697 32.2768 40 28.3426 40 24.0022C40 15.2161 32.9198 8.08368 24.1542 8.00073C24.1039 8.00024 24.0525 8 24.0024 8ZM24.0011 0L24.2306 0.00109863C37.3368 0.125122 48 10.892 48 24.0022C48 30.287 45.5845 36.2307 41.1985 40.7385L30.93 51.1124C29.0596 52.9841 26.608 54.0001 24 54.0001C21.3925 54.0001 18.9411 52.9844 17.0975 51.1402L6.84972 40.7876C2.32126 36.1341 -0.0933311 30.0611 0.00276112 23.6383C0.197364 10.6042 10.963 0 24.0011 0Z" fill="#27D4FF" fill-opacity="0.4"/>
<path d="M24.0024 8C15.3096 7.99939 8.13191 15.0471 8.00186 23.758C7.93547 28.1949 9.67772 32.2229 12.5353 35.1596L22.7554 45.4843C23.4428 46.1719 24.5573 46.1719 25.2445 45.4843L35.4648 35.1596C38.2697 32.2768 40 28.3426 40 24.0022C40 15.2161 32.9198 8.08368 24.1542 8.00073C24.1039 8.00024 24.0525 8 24.0024 8ZM24.0012 4H24.0027C24.0654 4 24.1292 4.00031 24.1916 4.00092C26.8701 4.02625 29.4674 4.57343 31.9117 5.62726C34.2721 6.64484 36.3896 8.08984 38.2054 9.92212C40.022 11.7552 41.4482 13.8867 42.4444 16.2574C43.4766 18.7137 44 21.3195 44 24.0022C44 29.2392 41.9869 34.1923 38.3316 37.949L38.3075 37.9736L28.0738 48.3119C26.9858 49.4005 25.539 50 24 50C22.4611 50 21.0145 49.4006 19.9265 48.3123L19.9126 48.2983L9.66853 37.9492C7.85557 36.086 6.44192 33.9258 5.46685 31.5284C4.45455 29.0396 3.9618 26.405 4.00231 23.6981C4.04208 21.0339 4.60354 18.4487 5.67109 16.0145C6.69906 13.6706 8.15055 11.5668 9.98524 9.76141C11.8187 7.95734 13.9445 6.54016 16.3037 5.54938C18.7516 4.5213 21.3414 4 24.0012 4Z" fill="#27D4FF" fill-opacity="0.4"/>
<path d="M39.5001 24.0042V24.0048C39.5044 28.0424 37.9276 31.9213 35.1075 34.8108C35.1071 34.8112 35.1067 34.8116 35.1063 34.812L24.8906 45.1327C24.8903 45.1331 24.8899 45.1334 24.8896 45.1337C24.6534 45.3694 24.3334 45.5017 23.9996 45.5017C23.6658 45.5017 23.3456 45.3693 23.1094 45.1335C23.1092 45.1332 23.1089 45.133 23.1087 45.1327L12.8929 34.812C12.8925 34.8116 12.8921 34.8112 12.8917 34.8108C11.4677 33.3514 10.3466 31.6246 9.5932 29.7298C8.83964 27.8347 8.46879 25.8091 8.50205 23.77C8.57756 19.6785 10.2625 15.7816 13.1917 12.924C16.1209 10.0665 20.0582 8.4785 24.1501 8.50421C28.2348 8.54375 32.1387 10.1941 35.0132 13.0965C37.8878 15.999 39.5003 19.9191 39.5001 24.0042Z" fill="#F0A800" stroke="#27D4FF"/>
<path d="M19 17.0005H23.7783C24.3552 16.996 24.9319 17.0228 25.5059 17.0806C25.9257 17.1225 26.3418 17.1951 26.751 17.2978C27.0562 17.3732 27.351 17.4858 27.6288 17.6332C27.8582 17.7592 28.0762 17.9049 28.2804 18.0687C28.8496 18.527 29.2949 19.1207 29.5756 19.7956C29.8589 20.4741 30.0032 21.2026 29.9999 21.9379C29.9997 22.3126 29.9635 22.6864 29.8918 23.0541C29.7553 23.7644 29.4834 24.4418 29.0911 25.0493C28.9176 25.32 28.7044 25.563 28.4586 25.7701C28.2168 25.9742 27.9595 26.159 27.6889 26.3227C27.4088 26.488 27.1105 26.6204 26.8001 26.7172C26.4327 26.8303 26.0558 26.9097 25.674 26.9544C25.1823 27.0103 24.6876 27.0364 24.1927 27.0325H22.5692V32H19V17.0005ZM22.5692 23.7559H24.0896C24.2608 23.7559 24.481 23.7459 24.7502 23.7259C25.0159 23.7074 25.2765 23.6437 25.5209 23.5377C25.7746 23.4239 25.9926 23.2433 26.1515 23.0151C26.3455 22.7124 26.4387 22.356 26.4177 21.997C26.4421 21.6417 26.345 21.2887 26.1425 20.9959C25.9683 20.7748 25.7401 20.6024 25.4799 20.4953C25.222 20.3889 24.9485 20.3253 24.6701 20.3071C24.3872 20.2878 24.1473 20.2778 23.9505 20.2771H22.5692V23.7559Z" fill="white"/>
</svg>
