<svg width="48" height="54" viewBox="0 0 48 54" fill="none" xmlns="http://www.w3.org/2000/svg">
<path d="M39.5001 24.0042V24.0048C39.5044 28.0424 37.9276 31.9213 35.1075 34.8108C35.1071 34.8112 35.1067 34.8116 35.1063 34.812L24.8906 45.1327C24.8903 45.1331 24.8899 45.1334 24.8896 45.1337C24.6534 45.3694 24.3334 45.5017 23.9996 45.5017C23.6658 45.5017 23.3456 45.3693 23.1094 45.1335C23.1092 45.1332 23.1089 45.133 23.1087 45.1327L12.8929 34.812C12.8925 34.8116 12.8921 34.8112 12.8917 34.8108C11.4677 33.3514 10.3466 31.6246 9.5932 29.7298C8.83964 27.8347 8.46879 25.8091 8.50205 23.77C8.57756 19.6785 10.2625 15.7816 13.1917 12.924C16.1209 10.0665 20.0582 8.4785 24.1501 8.50421C28.2348 8.54375 32.1387 10.1941 35.0132 13.0965C37.8878 15.999 39.5003 19.9191 39.5001 24.0042Z" fill="#E62222" stroke="#A11818"/>
<path d="M19 17.0005H23.7783C24.3552 16.996 24.9319 17.0228 25.5059 17.0806C25.9257 17.1225 26.3418 17.1951 26.751 17.2978C27.0562 17.3732 27.351 17.4858 27.6288 17.6332C27.8582 17.7592 28.0762 17.9049 28.2804 18.0687C28.8496 18.527 29.2949 19.1207 29.5756 19.7956C29.8589 20.4741 30.0032 21.2026 29.9999 21.9379C29.9997 22.3126 29.9635 22.6864 29.8918 23.0541C29.7553 23.7644 29.4834 24.4418 29.0911 25.0493C28.9176 25.32 28.7044 25.563 28.4586 25.7701C28.2168 25.9742 27.9595 26.159 27.6889 26.3227C27.4088 26.488 27.1105 26.6204 26.8001 26.7172C26.4327 26.8303 26.0558 26.9097 25.674 26.9544C25.1823 27.0103 24.6876 27.0364 24.1927 27.0325H22.5692V32H19V17.0005ZM22.5692 23.7559H24.0896C24.2608 23.7559 24.481 23.7459 24.7502 23.7259C25.0159 23.7074 25.2765 23.6437 25.5209 23.5377C25.7746 23.4239 25.9926 23.2433 26.1515 23.0151C26.3455 22.7124 26.4387 22.356 26.4177 21.997C26.4421 21.6417 26.345 21.2887 26.1425 20.9959C25.9683 20.7748 25.7401 20.6024 25.4799 20.4953C25.222 20.3889 24.9485 20.3253 24.6701 20.3071C24.3872 20.2878 24.1473 20.2778 23.9505 20.2771H22.5692V23.7559Z" fill="white"/>
</svg>
