<svg width="32" height="32" viewBox="0 0 32 32" fill="none" xmlns="http://www.w3.org/2000/svg">
<mask id="mask0_243_8358" style="mask-type:luminance" maskUnits="userSpaceOnUse" x="3" y="11" width="15" height="10">
<path d="M17.999 11.4258H3V20.9998H17.999V11.4258Z" fill="white"/>
</mask>
<g mask="url(#mask0_243_8358)">
<mask id="mask1_243_8358" style="mask-type:luminance" maskUnits="userSpaceOnUse" x="3" y="11" width="15" height="10">
<path d="M17.999 11.4258H3V20.9998H17.999V11.4258Z" fill="white"/>
</mask>
<g mask="url(#mask1_243_8358)">
<path d="M6.331 14.3368C6.45498 14.3422 6.57853 14.3548 6.701 14.3748V14.3618C7.1285 13.3418 7.89608 12.5013 8.87324 11.9833C9.85039 11.4652 10.9768 11.3016 12.061 11.5202C13.1451 11.7388 14.1201 12.3261 14.8202 13.1824C15.5202 14.0386 15.9022 15.1108 15.901 16.2168V16.2468C16.5058 16.3194 17.0601 16.6204 17.4502 17.0883C17.8403 17.5562 18.0367 18.1556 17.9992 18.7636C17.9618 19.3716 17.6933 19.9423 17.2487 20.3588C16.8042 20.7753 16.2172 21.0061 15.608 21.0038H11.144H11.117H11.09H6.352H6.33C5.44683 21.0038 4.59983 20.653 3.97533 20.0285C3.35084 19.404 3 18.557 3 17.6738C3 16.7907 3.35084 15.9437 3.97533 15.3192C4.59983 14.6947 5.44683 14.3438 6.33 14.3438" fill="url(#paint0_linear_243_8358)"/>
</g>
</g>
<path d="M15.6059 16.2148C15.1324 16.2146 14.6695 16.3549 14.2756 16.6178C13.8818 16.8808 13.5748 17.2546 13.3935 17.692C13.2121 18.1294 13.1646 18.6108 13.2568 19.0753C13.3491 19.5397 13.577 19.9664 13.9118 20.3013C14.2465 20.6362 14.6731 20.8643 15.1375 20.9568C15.6019 21.0492 16.0833 21.0019 16.5209 20.8207C16.9584 20.6395 17.3323 20.3327 17.5954 19.939C17.8585 19.5453 17.9989 19.0824 17.9989 18.6088C17.9991 18.2945 17.9373 17.9832 17.8171 17.6928C17.6969 17.4023 17.5206 17.1384 17.2984 16.9161C17.0762 16.6938 16.8123 16.5174 16.5219 16.3971C16.2315 16.2768 15.9203 16.2148 15.6059 16.2148Z" fill="url(#paint1_linear_243_8358)"/>
<mask id="mask2_243_8358" style="mask-type:luminance" maskUnits="userSpaceOnUse" x="11" y="7" width="2" height="2">
<path d="M11.1486 7.80621L11.2887 8.32875C11.326 8.46811 11.4172 8.58691 11.5422 8.65903C11.6671 8.73115 11.8156 8.75068 11.955 8.71332C12.0943 8.67595 12.2131 8.58476 12.2853 8.4598C12.3574 8.33484 12.3769 8.18635 12.3395 8.04699L12.1997 7.52542C12.1625 7.38603 12.0714 7.26714 11.9465 7.1949C11.8847 7.15914 11.8164 7.1359 11.7456 7.12652C11.6747 7.11714 11.6028 7.1218 11.5337 7.14024C11.3943 7.17748 11.2755 7.26856 11.2032 7.39345C11.131 7.51835 11.1113 7.66682 11.1486 7.80621Z" fill="white"/>
</mask>
<g mask="url(#mask2_243_8358)">
<path d="M11.0039 7.28516L12.0548 7.0034L12.4754 8.572L11.4245 8.85375L11.0039 7.28516Z" fill="url(#paint2_linear_243_8358)"/>
</g>
<mask id="mask3_243_8358" style="mask-type:luminance" maskUnits="userSpaceOnUse" x="14" y="20" width="2" height="2">
<path d="M15.8553 21.1235L15.7152 20.6009C15.6779 20.4616 15.5867 20.3428 15.4617 20.2707C15.3368 20.1985 15.1883 20.179 15.0489 20.2164C14.9096 20.2537 14.7908 20.3449 14.7186 20.4699C14.6465 20.5948 14.627 20.7433 14.6644 20.8827L14.8042 21.4043C14.8414 21.5437 14.9325 21.6626 15.0574 21.7348C15.1193 21.7706 15.1875 21.7938 15.2584 21.8032C15.3292 21.8125 15.4012 21.8079 15.4702 21.7894C15.6096 21.7522 15.7284 21.6611 15.8007 21.5362C15.8729 21.4113 15.8926 21.2629 15.8553 21.1235Z" fill="white"/>
</mask>
<g mask="url(#mask3_243_8358)">
<path d="M16 21.6445L14.9491 21.9263L14.5286 20.3577L15.5794 20.0759L16 21.6445Z" fill="url(#paint3_linear_243_8358)"/>
</g>
<mask id="mask4_243_8358" style="mask-type:luminance" maskUnits="userSpaceOnUse" x="19" y="12" width="2" height="2">
<path d="M20.1869 12.1131L19.6625 12.2538C19.5938 12.2722 19.5294 12.3039 19.473 12.3472C19.4166 12.3905 19.3693 12.4445 19.3337 12.5061C19.2982 12.5677 19.2751 12.6357 19.2658 12.7062C19.2566 12.7767 19.2613 12.8483 19.2797 12.917C19.2981 12.9857 19.3299 13.0501 19.3732 13.1065C19.4164 13.1629 19.4704 13.2102 19.532 13.2458C19.5936 13.2813 19.6616 13.3044 19.7321 13.3137C19.8026 13.3229 19.8742 13.3182 19.9429 13.2998L20.4684 13.1589C20.6071 13.1218 20.7253 13.031 20.7971 12.9066C20.8689 12.7822 20.8884 12.6344 20.8512 12.4957C20.814 12.357 20.7232 12.2387 20.5988 12.1669C20.4744 12.0951 20.3266 12.0757 20.1879 12.1129" fill="white"/>
</mask>
<g mask="url(#mask4_243_8358)">
<path d="M20.7115 11.9746L20.9924 13.0226L19.4161 13.4452L19.1346 12.3953L20.7115 11.9746Z" fill="url(#paint4_linear_243_8358)"/>
</g>
<mask id="mask5_243_8358" style="mask-type:luminance" maskUnits="userSpaceOnUse" x="6" y="15" width="2" height="2">
<path d="M6.80134 16.8009L7.32581 16.6603C7.3945 16.6419 7.45888 16.6101 7.51529 16.5668C7.5717 16.5235 7.61903 16.4695 7.65458 16.4079C7.69012 16.3464 7.71319 16.2784 7.72246 16.2079C7.73173 16.1374 7.72702 16.0657 7.70861 15.997C7.69019 15.9284 7.65843 15.864 7.61513 15.8076C7.57183 15.7511 7.51785 15.7038 7.45626 15.6683C7.39467 15.6327 7.32668 15.6097 7.25618 15.6004C7.18567 15.5911 7.11403 15.5958 7.04535 15.6142L6.51991 15.7551C6.38119 15.7923 6.26293 15.8831 6.19114 16.0075C6.11936 16.1319 6.09992 16.2797 6.13711 16.4184C6.1743 16.5571 6.26508 16.6754 6.38946 16.7471C6.51385 16.8189 6.66166 16.8384 6.80037 16.8012" fill="white"/>
</mask>
<g mask="url(#mask5_243_8358)">
<path d="M6.27683 16.9395L5.99584 15.8915L7.57217 15.4689L7.85367 16.5188L6.27683 16.9395Z" fill="url(#paint5_linear_243_8358)"/>
</g>
<mask id="mask6_243_8358" style="mask-type:luminance" maskUnits="userSpaceOnUse" x="18" y="17" width="3" height="2">
<path d="M19.9017 17.5142L19.4315 17.2427C19.3065 17.1708 19.1582 17.1513 19.019 17.1883C18.8797 17.2254 18.7607 17.316 18.688 17.4404C18.6524 17.502 18.6294 17.5699 18.6202 17.6404C18.611 17.7109 18.6158 17.7825 18.6343 17.8511C18.6528 17.9198 18.6847 17.9841 18.7281 18.0403C18.7716 18.0966 18.8257 18.1438 18.8874 18.1791L19.3576 18.4506C19.4824 18.5223 19.6305 18.5419 19.7696 18.505C19.9088 18.4681 20.0277 18.3778 20.1006 18.2537C20.1363 18.1921 20.1595 18.1241 20.1688 18.0535C20.1781 17.983 20.1734 17.9113 20.1549 17.8426C20.1364 17.7738 20.1045 17.7094 20.0611 17.6531C20.0176 17.5967 19.9635 17.5495 19.9017 17.5142Z" fill="white"/>
</mask>
<g mask="url(#mask6_243_8358)">
<path d="M20.3711 17.7852L19.8291 18.7239L18.4175 17.9089L18.9595 16.9702L20.3711 17.7852Z" fill="url(#paint6_linear_243_8358)"/>
</g>
<mask id="mask7_243_8358" style="mask-type:luminance" maskUnits="userSpaceOnUse" x="6" y="10" width="3" height="2">
<path d="M7.10611 11.4116L7.57636 11.6831C7.7013 11.755 7.84957 11.7745 7.98885 11.7374C8.12812 11.7004 8.2471 11.6098 8.31984 11.4854C8.35538 11.4238 8.37842 11.3558 8.38764 11.2854C8.39685 11.2149 8.39206 11.1433 8.37353 11.0746C8.35501 11.006 8.32312 10.9417 8.27969 10.8854C8.23626 10.8292 8.18215 10.782 8.12046 10.7467L7.65021 10.4752C7.52542 10.4035 7.37734 10.3839 7.2382 10.4208C7.09906 10.4576 6.9801 10.548 6.90722 10.6721C6.87152 10.7337 6.84835 10.8017 6.83903 10.8722C6.8297 10.9428 6.83442 11.0145 6.8529 11.0832C6.87138 11.1519 6.90327 11.2163 6.94672 11.2727C6.99018 11.3291 7.04434 11.3763 7.10611 11.4116Z" fill="white"/>
</mask>
<g mask="url(#mask7_243_8358)">
<path d="M6.63672 11.1406L7.17872 10.2019L8.59034 11.0169L8.04834 11.9556L6.63672 11.1406Z" fill="url(#paint7_linear_243_8358)"/>
</g>
<mask id="mask8_243_8358" style="mask-type:luminance" maskUnits="userSpaceOnUse" x="16" y="7" width="2" height="3">
<path d="M16.5683 8.09916L16.2978 8.56768C16.2621 8.62924 16.239 8.69726 16.2296 8.76781C16.2203 8.83837 16.225 8.91007 16.2435 8.97879C16.262 9.04752 16.2939 9.11191 16.3373 9.16827C16.3808 9.22463 16.435 9.27184 16.4967 9.3072C16.6216 9.37809 16.7694 9.39692 16.9081 9.35963C17.0467 9.32234 17.1651 9.23191 17.2376 9.10795L17.5081 8.63943C17.5437 8.57808 17.5668 8.51033 17.5762 8.44004C17.5856 8.36975 17.581 8.2983 17.5628 8.22976C17.5446 8.16123 17.513 8.09696 17.47 8.04062C17.4269 7.98428 17.3732 7.93698 17.3118 7.90141C17.1869 7.82958 17.0386 7.81005 16.8993 7.8471C16.7601 7.88414 16.6411 7.97475 16.5683 8.09916Z" fill="white"/>
</mask>
<g mask="url(#mask8_243_8358)">
<path d="M16.8398 7.62891L17.7812 8.17241L16.9682 9.58056L16.0268 9.03706L16.8398 7.62891Z" fill="url(#paint8_linear_243_8358)"/>
</g>
<mask id="mask9_243_8358" style="mask-type:luminance" maskUnits="userSpaceOnUse" x="9" y="19" width="2" height="3">
<path d="M10.4356 20.8266L10.7061 20.3581C10.7418 20.2965 10.7649 20.2285 10.7743 20.158C10.7836 20.0874 10.7789 20.0157 10.7604 19.947C10.7419 19.8783 10.71 19.8139 10.6666 19.7575C10.6231 19.7012 10.5689 19.6539 10.5072 19.6186C10.3823 19.5477 10.2345 19.5289 10.0958 19.5662C9.95717 19.6034 9.83877 19.6939 9.76629 19.8178L9.49579 20.2864C9.46022 20.3477 9.43708 20.4155 9.42769 20.4857C9.41831 20.556 9.42286 20.6275 9.44108 20.696C9.45931 20.7645 9.49086 20.8288 9.53392 20.8852C9.57699 20.9415 9.63073 20.9888 9.69208 21.0244C9.81702 21.0962 9.96529 21.1157 10.1046 21.0787C10.2438 21.0416 10.3628 20.951 10.4356 20.8266Z" fill="white"/>
</mask>
<g mask="url(#mask9_243_8358)">
<path d="M10.1641 21.2969L9.22269 20.7534L10.0357 19.3452L10.9771 19.8887L10.1641 21.2969Z" fill="url(#paint9_linear_243_8358)"/>
</g>
<path d="M13.5 20C16.5376 20 19 17.5376 19 14.5C19 11.4624 16.5376 9 13.5 9C10.4624 9 8 11.4624 8 14.5C8 17.5376 10.4624 20 13.5 20Z" fill="url(#paint10_radial_243_8358)"/>
<mask id="mask10_243_8358" style="mask-type:luminance" maskUnits="userSpaceOnUse" x="10" y="12" width="19" height="13">
<path d="M29 12.8711H10V24.9991H29V12.8711Z" fill="white"/>
</mask>
<g mask="url(#mask10_243_8358)">
<mask id="mask11_243_8358" style="mask-type:luminance" maskUnits="userSpaceOnUse" x="10" y="12" width="19" height="13">
<path d="M29 12.8711H10V24.9991H29V12.8711Z" fill="white"/>
</mask>
<g mask="url(#mask11_243_8358)">
<path d="M24.7821 16.5608C24.6252 16.5675 24.469 16.5836 24.3141 16.6088L24.3081 16.5918C23.7656 15.3017 22.7935 14.239 21.5568 13.584C20.3201 12.929 18.8948 12.722 17.5228 12.9981C16.1509 13.2742 14.9167 14.0164 14.0296 15.0989C13.1425 16.1813 12.6572 17.5373 12.6561 18.9368V18.9748C11.8906 19.0676 11.1895 19.4493 10.6962 20.0419C10.2028 20.6344 9.95443 21.393 10.0018 22.1626C10.0492 22.9322 10.3888 23.6547 10.9511 24.1822C11.5134 24.7098 12.256 25.0026 13.0271 25.0008H18.6821H18.7161H18.7501H24.7501H24.7781C25.8967 25.0008 26.9696 24.5564 27.7606 23.7654C28.5517 22.9744 28.9961 21.9015 28.9961 20.7828C28.9961 19.6641 28.5517 18.5913 27.7606 17.8002C26.9696 17.0092 25.8967 16.5648 24.7781 16.5648" fill="url(#paint11_linear_243_8358)"/>
</g>
</g>
<path d="M13.031 18.9336C13.6307 18.9334 14.2169 19.111 14.7157 19.444C15.2144 19.777 15.6032 20.2504 15.8328 20.8044C16.0625 21.3583 16.1227 21.9679 16.0059 22.5561C15.8891 23.1443 15.6005 23.6847 15.1767 24.1088C14.7528 24.533 14.2126 24.822 13.6245 24.9391C13.0364 25.0563 12.4267 24.9965 11.8726 24.7672C11.3185 24.5379 10.8449 24.1494 10.5115 23.6509C10.1782 23.1524 10.0002 22.5663 10 21.9666C9.99974 21.5684 10.0779 21.174 10.2301 20.8061C10.3824 20.4381 10.6056 20.1037 10.8871 19.8221C11.1685 19.5404 11.5028 19.317 11.8706 19.1645C12.2385 19.0121 12.6328 18.9336 13.031 18.9336Z" fill="url(#paint12_linear_243_8358)"/>
<defs>
<linearGradient id="paint0_linear_243_8358" x1="7.3961" y1="15.2283" x2="12.9692" y2="24.58" gradientUnits="userSpaceOnUse">
<stop stop-color="#FEFFFF"/>
<stop offset="1" stop-color="#D5D5D5"/>
</linearGradient>
<linearGradient id="paint1_linear_243_8358" x1="16.8642" y1="17.2874" x2="14.5037" y2="19.442" gradientUnits="userSpaceOnUse">
<stop stop-color="white"/>
<stop offset="1" stop-color="#CECECE" stop-opacity="0"/>
</linearGradient>
<linearGradient id="paint2_linear_243_8358" x1="11.5293" y1="7.14428" x2="11.9499" y2="8.71287" gradientUnits="userSpaceOnUse">
<stop stop-color="#FFBE0C"/>
<stop offset="0.442" stop-color="#FFC612"/>
<stop offset="1" stop-color="#FFE596"/>
</linearGradient>
<linearGradient id="paint3_linear_243_8358" x1="15.4746" y1="21.7854" x2="15.054" y2="20.2168" gradientUnits="userSpaceOnUse">
<stop stop-color="#FFBE0C"/>
<stop offset="0.442" stop-color="#FFC612"/>
<stop offset="1" stop-color="#FFE596"/>
</linearGradient>
<linearGradient id="paint4_linear_243_8358" x1="20.8517" y1="12.4976" x2="19.2754" y2="12.9203" gradientUnits="userSpaceOnUse">
<stop stop-color="#FFBE0C"/>
<stop offset="0.442" stop-color="#FFC612"/>
<stop offset="1" stop-color="#FFE596"/>
</linearGradient>
<linearGradient id="paint5_linear_243_8358" x1="6.13659" y1="16.4164" x2="7.71292" y2="15.9938" gradientUnits="userSpaceOnUse">
<stop stop-color="#FFBE0C"/>
<stop offset="0.442" stop-color="#FFC612"/>
<stop offset="1" stop-color="#FFE596"/>
</linearGradient>
<linearGradient id="paint6_linear_243_8358" x1="20.1001" y1="18.2545" x2="18.6885" y2="17.4395" gradientUnits="userSpaceOnUse">
<stop stop-color="#FFBE0C"/>
<stop offset="0.442" stop-color="#FFC612"/>
<stop offset="1" stop-color="#FFE596"/>
</linearGradient>
<linearGradient id="paint7_linear_243_8358" x1="6.90772" y1="10.6712" x2="8.31934" y2="11.4862" gradientUnits="userSpaceOnUse">
<stop stop-color="#FFBE0C"/>
<stop offset="0.442" stop-color="#FFC612"/>
<stop offset="1" stop-color="#FFE596"/>
</linearGradient>
<linearGradient id="paint8_linear_243_8358" x1="17.3105" y1="7.90066" x2="16.4975" y2="9.30881" gradientUnits="userSpaceOnUse">
<stop stop-color="#FFBE0C"/>
<stop offset="0.442" stop-color="#FFC612"/>
<stop offset="1" stop-color="#FFE596"/>
</linearGradient>
<linearGradient id="paint9_linear_243_8358" x1="9.69338" y1="21.0251" x2="10.5064" y2="19.617" gradientUnits="userSpaceOnUse">
<stop stop-color="#FFBE0C"/>
<stop offset="0.442" stop-color="#FFC612"/>
<stop offset="1" stop-color="#FFE596"/>
</linearGradient>
<radialGradient id="paint10_radial_243_8358" cx="0" cy="0" r="1" gradientUnits="userSpaceOnUse" gradientTransform="translate(11.6617 12.2063) rotate(50.9985) scale(6.19215 6.19031)">
<stop stop-color="#FFE596"/>
<stop offset="0.5" stop-color="#FFC612"/>
<stop offset="1" stop-color="#FFBE0C"/>
</radialGradient>
<linearGradient id="paint11_linear_243_8358" x1="23.4291" y1="17.6913" x2="17.5431" y2="29.0845" gradientUnits="userSpaceOnUse">
<stop stop-color="#FEFFFF"/>
<stop offset="1" stop-color="#D5D5D5"/>
</linearGradient>
<linearGradient id="paint12_linear_243_8358" x1="11.4372" y1="20.2919" x2="14.4267" y2="23.0207" gradientUnits="userSpaceOnUse">
<stop stop-color="white"/>
<stop offset="1" stop-color="white" stop-opacity="0.03"/>
</linearGradient>
</defs>
</svg>
