<svg width="32" height="32" viewBox="0 0 32 32" fill="none" xmlns="http://www.w3.org/2000/svg">
<path d="M6.77581 12.2994C6.91621 12.3054 7.05612 12.3198 7.19481 12.3424L7.20181 12.3264C7.6872 11.1718 8.55712 10.2208 9.66392 9.63468C10.7707 9.04855 12.0462 8.86343 13.274 9.11072C14.5018 9.35802 15.6062 10.0225 16.3997 10.9914C17.1933 11.9603 17.6272 13.174 17.6278 14.4264V14.4604C18.3122 14.5441 18.9389 14.8858 19.3798 15.4159C19.8208 15.9461 20.0427 16.6245 20.0003 17.3127C19.958 18.0009 19.6545 18.647 19.1518 19.119C18.6492 19.591 17.9853 19.8533 17.2958 19.8524H6.78181C5.78089 19.8524 4.82095 19.4548 4.11319 18.747C3.40543 18.0392 3.00781 17.0793 3.00781 16.0784C3.00781 15.0775 3.40543 14.1175 4.11319 13.4098C4.82095 12.702 5.78089 12.3044 6.78181 12.3044" fill="url(#paint0_linear_250_3719)"/>
<path d="M24.3414 15.6757C24.1682 15.6831 23.9956 15.7008 23.8244 15.7287L23.8184 15.7097C23.2205 14.2818 22.1465 13.105 20.7791 12.3794C19.4117 11.6537 17.8352 11.424 16.3176 11.7292C14.7999 12.0343 13.4348 12.8556 12.4542 14.0534C11.4736 15.2512 10.938 16.7517 10.9384 18.2997V18.3417C10.092 18.4437 9.31646 18.8653 8.77066 19.5203C8.22486 20.1753 7.95003 21.0141 8.00241 21.8651C8.0548 22.716 8.43045 23.5148 9.05247 24.0979C9.67449 24.681 10.4958 25.0043 11.3484 25.0017H24.3374C25.5739 25.0017 26.7597 24.5105 27.634 23.6362C28.5083 22.7619 28.9994 21.5761 28.9994 20.3397C28.9994 19.1033 28.5083 17.9175 27.634 17.0432C26.7597 16.1689 25.5739 15.6777 24.3374 15.6777" fill="url(#paint1_linear_250_3719)"/>
<path d="M11.35 18.3008C12.0128 18.3006 12.6607 18.4969 13.2119 18.865C13.7631 19.233 14.1927 19.7562 14.4465 20.3685C14.7003 20.9807 14.7669 21.6545 14.6378 22.3045C14.5087 22.9546 14.1897 23.5518 13.7212 24.0206C13.2527 24.4894 12.6557 24.8087 12.0057 24.9382C11.3557 25.0677 10.6819 25.0015 10.0696 24.7481C9.45716 24.4946 8.93368 24.0653 8.5653 23.5143C8.19692 22.9634 8.0002 22.3155 8 21.6528C7.99974 21.2127 8.08619 20.7768 8.25443 20.3702C8.42267 19.9635 8.66938 19.594 8.98048 19.2827C9.29159 18.9714 9.66098 18.7245 10.0675 18.556C10.4741 18.3875 10.9099 18.3008 11.35 18.3008Z" fill="url(#paint2_linear_250_3719)"/>
<defs>
<linearGradient id="paint0_linear_250_3719" x1="10.6234" y1="15.3555" x2="10.4789" y2="23.6765" gradientUnits="userSpaceOnUse">
<stop stop-color="#FEFFFF"/>
<stop offset="1" stop-color="#D5D5D5"/>
</linearGradient>
<linearGradient id="paint1_linear_250_3719" x1="21.3839" y1="15.3555" x2="15.3372" y2="23.865" gradientUnits="userSpaceOnUse">
<stop stop-color="#FEFFFF"/>
<stop offset="1" stop-color="#D5D5D5"/>
</linearGradient>
<linearGradient id="paint2_linear_250_3719" x1="9.58837" y1="19.802" x2="12.8925" y2="22.8179" gradientUnits="userSpaceOnUse">
<stop stop-color="white"/>
<stop offset="1" stop-color="white" stop-opacity="0.03"/>
</linearGradient>
</defs>
</svg>
