<svg width="48" height="48" viewBox="0 0 48 48" fill="none" xmlns="http://www.w3.org/2000/svg">
<path d="M24 8C15.1634 8 8 15.1634 8 24C8 32.8366 15.1634 40 24 40C32.8366 40 40 32.8366 40 24C40 15.1634 32.8366 8 24 8Z" fill="#8972FF"/>
<path d="M8.5 24C8.5 15.4396 15.4396 8.5 24 8.5C32.5604 8.5 39.5 15.4396 39.5 24C39.5 32.5604 32.5604 39.5 24 39.5C15.4396 39.5 8.5 32.5604 8.5 24Z" stroke="black" stroke-opacity="0.3"/>
<path d="M23.25 29.25V27.75C23.25 27.5511 23.329 27.3603 23.4697 27.2197C23.6103 27.079 23.8011 27 24 27V26C23.8011 26 23.6103 25.921 23.4697 25.7803C23.329 25.6397 23.25 25.4489 23.25 25.25V24.75H22.75C22.5511 24.75 22.3603 24.671 22.2197 24.5303C22.079 24.3897 22 24.1989 22 24C22 23.8011 22.079 23.6103 22.2197 23.4697C22.3603 23.329 22.5511 23.25 22.75 23.25H23.25V22.75C23.25 22.5511 23.329 22.3603 23.4697 22.2197C23.6103 22.079 23.8011 22 24 22C24.1989 22 24.3897 22.079 24.5303 22.2197C24.671 22.3603 24.75 22.5511 24.75 22.75V23.25H25.25C25.4489 23.25 25.6397 23.329 25.7803 23.4697C25.921 23.6103 26 23.8011 26 24H27C27 23.8011 27.079 23.6103 27.2197 23.4697C27.3603 23.329 27.5511 23.25 27.75 23.25H29.25C29.4489 23.25 29.6397 23.329 29.7803 23.4697C29.921 23.6103 30 23.8011 30 24H31C31 23.8011 31.079 23.6103 31.2197 23.4697C31.3603 23.329 31.5511 23.25 31.75 23.25H33V20H29C28.7348 20 28.4804 19.8946 28.2929 19.7071C28.1054 19.5196 28 19.2652 28 19V15H24.75V16.25C24.75 16.4489 24.671 16.6397 24.5303 16.7803C24.3897 16.921 24.1989 17 24 17C23.8011 17 23.6103 16.921 23.4697 16.7803C23.329 16.6397 23.25 16.4489 23.25 16.25V15H20V19C20 19.2652 19.8946 19.5196 19.7071 19.7071C19.5196 19.8946 19.2652 20 19 20H15V23.25H16.25C16.4489 23.25 16.6397 23.329 16.7803 23.4697C16.921 23.6103 17 23.8011 17 24C17 24.1989 16.921 24.3897 16.7803 24.5303C16.6397 24.671 16.4489 24.75 16.25 24.75H15V28H19C19.2652 28 19.5196 28.1054 19.7071 28.2929C19.8946 28.4804 20 28.7348 20 29V33H23.25V31.75C23.25 31.5511 23.329 31.3603 23.4697 31.2197C23.6103 31.079 23.8011 31 24 31V30C23.8011 30 23.6103 29.921 23.4697 29.7803C23.329 29.6397 23.25 29.4489 23.25 29.25ZM23.25 18.75C23.25 18.5511 23.329 18.3603 23.4697 18.2197C23.6103 18.079 23.8011 18 24 18C24.1989 18 24.3897 18.079 24.5303 18.2197C24.671 18.3603 24.75 18.5511 24.75 18.75V20.25C24.75 20.4489 24.671 20.6397 24.5303 20.7803C24.3897 20.921 24.1989 21 24 21C23.8011 21 23.6103 20.921 23.4697 20.7803C23.329 20.6397 23.25 20.4489 23.25 20.25V18.75ZM20.25 24.75H18.75C18.5511 24.75 18.3603 24.671 18.2197 24.5303C18.079 24.3897 18 24.1989 18 24C18 23.8011 18.079 23.6103 18.2197 23.4697C18.3603 23.329 18.5511 23.25 18.75 23.25H20.25C20.4489 23.25 20.6397 23.329 20.7803 23.4697C20.921 23.6103 21 23.8011 21 24C21 24.1989 20.921 24.3897 20.7803 24.5303C20.6397 24.671 20.4489 24.75 20.25 24.75Z" fill="white"/>
<path d="M26.0899 31.9336L27.0899 30.7096C27.5883 31.1561 28.2222 31.4223 28.8899 31.4656C29.5479 31.4656 29.8549 31.2156 29.8549 30.8196C29.8549 30.3916 29.4479 30.2526 28.8109 29.9836L27.8649 29.5836C27.4344 29.4443 27.0582 29.1738 26.7892 28.8099C26.5201 28.446 26.3718 28.0071 26.3649 27.5546C26.4135 26.9112 26.7157 26.3134 27.2049 25.8928C27.6942 25.4721 28.3305 25.2631 28.9739 25.3116L29.0539 25.3186C29.9528 25.3172 30.8168 25.6667 31.4619 26.2926L30.5759 27.4076C30.1502 27.0477 29.6124 26.8472 29.0549 26.8406C28.5069 26.8406 28.1689 27.0596 28.1689 27.4576C28.1689 27.8556 28.6369 28.0246 29.2929 28.2836L30.2179 28.6526C30.6511 28.7817 31.0291 29.0509 31.2929 29.4178C31.5568 29.7848 31.6915 30.2289 31.6759 30.6806C31.6759 31.9136 30.6419 32.9986 28.8509 32.9986C27.8295 32.9966 26.8448 32.6173 26.0859 31.9336" fill="white"/>
</svg>
