<svg width="184" height="142" viewBox="0 0 184 142" fill="none" xmlns="http://www.w3.org/2000/svg">
<g id="Subtract">
<mask id="path-1-inside-1_973_7253" fill="white">
<path fill-rule="evenodd" clip-rule="evenodd" d="M163.613 0H0V142H183.789V0H183.613V20L163.613 0Z"/>
</mask>
<path fill-rule="evenodd" clip-rule="evenodd" d="M163.613 0H0V142H183.789V0H183.613V20L163.613 0Z" fill="#27D4FF" fill-opacity="0.12"/>
<path d="M0 0V-1H-1V0H0ZM163.613 0L164.32 -0.707107L164.027 -1H163.613V0ZM0 142H-1V143H0V142ZM183.789 142V143H184.789V142H183.789ZM183.789 0H184.789V-1H183.789V0ZM183.613 0V-1H182.613V0H183.613ZM183.613 20L182.906 20.7071L184.613 22.4142V20H183.613ZM0 1H163.613V-1H0V1ZM1 142V0H-1V142H1ZM183.789 141H0V143H183.789V141ZM182.789 0V142H184.789V0H182.789ZM183.613 1H183.789V-1H183.613V1ZM184.613 20V0H182.613V20H184.613ZM162.906 0.707107L182.906 20.7071L184.32 19.2929L164.32 -0.707107L162.906 0.707107Z" fill="#27D4FF" fill-opacity="0.4" mask="url(#path-1-inside-1_973_7253)"/>
</g>
</svg>
