<svg width="32" height="32" viewBox="0 0 32 32" fill="none" xmlns="http://www.w3.org/2000/svg">
<mask id="mask0_243_8348" style="mask-type:luminance" maskUnits="userSpaceOnUse" x="14" y="13" width="7" height="10">
<path d="M18.8897 13.7664L14.2457 22.0054C14.1592 22.1596 14.1372 22.3418 14.1847 22.5121C14.2321 22.6824 14.345 22.8271 14.4987 22.9144C14.5993 22.9693 14.7121 22.9982 14.8267 22.9984C14.9449 22.999 15.061 22.9679 15.1631 22.9082C15.2651 22.8486 15.3492 22.7627 15.4067 22.6594L20.0517 14.4234L20.0597 14.4094C20.1018 14.3326 20.1283 14.2482 20.1378 14.1612C20.1473 14.0741 20.1395 13.986 20.115 13.9019C20.0904 13.8178 20.0495 13.7394 19.9947 13.6711C19.9398 13.6028 19.872 13.546 19.7952 13.5039C19.7184 13.4618 19.634 13.4353 19.5469 13.4258C19.4598 13.4163 19.3718 13.4241 19.2877 13.4486C19.2036 13.4732 19.1252 13.5141 19.0569 13.5689C18.9886 13.6238 18.9318 13.6916 18.8897 13.7684" fill="white"/>
</mask>
<g mask="url(#mask0_243_8348)">
<path d="M17.7767 27.84L23.1647 17.24L16.5247 8.58203L11.1367 19.182L17.7767 27.84Z" fill="url(#paint0_linear_243_8348)"/>
</g>
<mask id="mask1_243_8348" style="mask-type:luminance" maskUnits="userSpaceOnUse" x="11" y="24" width="4" height="4">
<path d="M12.9161 24.7284L11.5831 26.9994C11.5266 27.1003 11.4967 27.2138 11.4961 27.3294C11.4956 27.4758 11.5433 27.6183 11.6318 27.735C11.7203 27.8516 11.8447 27.9358 11.9859 27.9747C12.127 28.0136 12.2771 28.005 12.4128 27.9502C12.5486 27.8954 12.6625 27.7974 12.7371 27.6714L14.0701 25.4044C14.1597 25.2517 14.185 25.0696 14.1403 24.8982C14.0957 24.7268 13.9848 24.5801 13.8321 24.4904C13.7304 24.43 13.6143 24.3983 13.4961 24.3984C13.3795 24.3984 13.2649 24.4288 13.1637 24.4867C13.0625 24.5446 12.9782 24.6279 12.9191 24.7284" fill="white"/>
</mask>
<g mask="url(#mask1_243_8348)">
<path d="M13.1535 29.8273L15.5595 25.8343L12.5955 22.5703L10.1875 26.5653L13.1535 29.8273Z" fill="url(#paint1_linear_243_8348)"/>
</g>
<path d="M22.1154 9.2571C21.9338 9.26473 21.7528 9.28309 21.5734 9.3121L21.5664 9.2931C20.9357 7.80353 19.8101 6.57731 18.38 5.82156C16.9498 5.06581 15.3026 4.82686 13.7166 5.14507C12.1306 5.46328 10.703 6.31914 9.67505 7.56809C8.64708 8.81704 8.08168 10.3825 8.07438 12.0001V12.0441C7.18807 12.1484 6.37538 12.5882 5.80337 13.2732C5.23136 13.9582 4.94349 14.8363 4.99893 15.727C5.05438 16.6177 5.44893 17.4533 6.10147 18.0621C6.75402 18.6709 7.61498 19.0065 8.50738 19.0001H15.0554H15.0944H15.1334H22.0834H22.1164C23.4077 19.0001 24.6462 18.4871 25.5593 17.574C26.4724 16.6609 26.9854 15.4224 26.9854 14.1311C26.9854 12.8398 26.4724 11.6013 25.5593 10.6882C24.6462 9.77508 23.4077 9.2621 22.1164 9.2621" fill="url(#paint2_linear_243_8348)"/>
<path d="M8.583 12.0006C9.04519 11.9922 9.5045 12.075 9.9347 12.2442C10.3649 12.4133 10.7576 12.6656 11.0903 12.9865C11.423 13.3074 11.6892 13.6907 11.8738 14.1145C12.0584 14.5384 12.1577 14.9944 12.166 15.4566C12.1487 16.3897 11.7615 17.2777 11.0896 17.9254C10.4177 18.5731 9.51609 18.9274 8.583 18.9106C7.64991 18.9274 6.7483 18.5731 6.07641 17.9254C5.40452 17.2777 5.01735 16.3897 5 15.4566C5.00833 14.9944 5.10761 14.5384 5.29219 14.1145C5.47676 13.6907 5.743 13.3074 6.07572 12.9865C6.40843 12.6656 6.8011 12.4133 7.2313 12.2442C7.6615 12.075 8.12081 11.9922 8.583 12.0006Z" fill="url(#paint3_linear_243_8348)"/>
<mask id="mask2_243_8348" style="mask-type:luminance" maskUnits="userSpaceOnUse" x="17" y="16" width="7" height="11">
<path d="M22.6148 16.3316L17.2298 25.6516C17.1861 25.7274 17.1577 25.811 17.1463 25.8978C17.1349 25.9845 17.1407 26.0726 17.1634 26.1571C17.2091 26.3278 17.3208 26.4733 17.4738 26.5616C17.6269 26.6499 17.8087 26.6738 17.9794 26.6281C18.0639 26.6054 18.1431 26.5663 18.2125 26.5131C18.2819 26.4598 18.3401 26.3934 18.3838 26.3176L23.7718 17.0006C23.8529 16.8478 23.8715 16.6695 23.8238 16.5032C23.7761 16.337 23.6657 16.1957 23.5159 16.1092C23.3662 16.0226 23.1887 15.9975 23.0208 16.0392C22.8529 16.0809 22.7077 16.1861 22.6158 16.3326" fill="white"/>
</mask>
<g mask="url(#mask2_243_8348)">
<path d="M21.2009 32.0107L27.2459 20.2437L19.7989 10.6367L13.7539 22.4037L21.2009 32.0107Z" fill="url(#paint4_linear_243_8348)"/>
</g>
<mask id="mask3_243_8348" style="mask-type:luminance" maskUnits="userSpaceOnUse" x="8" y="16" width="6" height="8">
<path d="M11.961 16.344L8.22897 22.744C8.17086 22.8455 8.1404 22.9604 8.14063 23.0773C8.14086 23.1942 8.17177 23.3091 8.23028 23.4103C8.28879 23.5115 8.37285 23.5956 8.47405 23.6542C8.57525 23.7127 8.69005 23.7437 8.80697 23.744C8.92312 23.7437 9.03722 23.7133 9.13815 23.6558C9.23909 23.5984 9.32343 23.5157 9.38297 23.416L13.113 17.016C13.119 17.008 13.124 16.999 13.129 16.991C13.2145 16.8361 13.235 16.6536 13.1861 16.4835C13.1371 16.3135 13.0227 16.1698 12.868 16.084C12.7696 16.0289 12.6587 16 12.546 16C12.4266 15.9999 12.3094 16.0317 12.2065 16.0922C12.1037 16.1527 12.0189 16.2396 11.961 16.344Z" fill="white"/>
</mask>
<g mask="url(#mask3_243_8348)">
<path d="M11.2115 27.6814L15.7925 19.0884L10.1445 12.0664L5.5625 20.6594L11.2115 27.6814Z" fill="url(#paint5_linear_243_8348)"/>
</g>
<defs>
<linearGradient id="paint0_linear_243_8348" x1="11.1367" y1="28.957" x2="23.9953" y2="19.9831" gradientUnits="userSpaceOnUse">
<stop stop-color="#E1F9FF"/>
<stop offset="1" stop-color="#40CBFF"/>
</linearGradient>
<linearGradient id="paint1_linear_243_8348" x1="10.5367" y1="30.0523" x2="15.0091" y2="25.8422" gradientUnits="userSpaceOnUse">
<stop stop-color="#E1F9FF"/>
<stop offset="1" stop-color="#40CBFF"/>
</linearGradient>
<linearGradient id="paint2_linear_243_8348" x1="20.5414" y1="10.5628" x2="14.047" y2="23.5383" gradientUnits="userSpaceOnUse">
<stop stop-color="#FEFFFF"/>
<stop offset="1" stop-color="#D5D5D5"/>
</linearGradient>
<linearGradient id="paint3_linear_243_8348" x1="6.69834" y1="13.5481" x2="10.1146" y2="16.7813" gradientUnits="userSpaceOnUse">
<stop stop-color="white"/>
<stop offset="1" stop-color="white" stop-opacity="0.03"/>
</linearGradient>
<linearGradient id="paint4_linear_243_8348" x1="15.6023" y1="30.1512" x2="27.3131" y2="21.8892" gradientUnits="userSpaceOnUse">
<stop stop-color="#E1F9FF"/>
<stop offset="1" stop-color="#40CBFF"/>
</linearGradient>
<linearGradient id="paint5_linear_243_8348" x1="6.59573" y1="26.682" x2="15.3815" y2="20.3914" gradientUnits="userSpaceOnUse">
<stop stop-color="#E1F9FF"/>
<stop offset="1" stop-color="#40CBFF"/>
</linearGradient>
</defs>
</svg>
