<svg width="32" height="32" viewBox="0 0 32 32" fill="none" xmlns="http://www.w3.org/2000/svg">
<mask id="mask0_243_8352" style="mask-type:luminance" maskUnits="userSpaceOnUse" x="12" y="11" width="8" height="12">
<path d="M17.975 12.3665L12.968 21.2555C12.9216 21.3378 12.8917 21.4285 12.8803 21.5224C12.8688 21.6162 12.876 21.7114 12.9014 21.8025C12.9267 21.8936 12.9698 21.9788 13.028 22.0533C13.0863 22.1277 13.1587 22.19 13.241 22.2365C13.3487 22.2965 13.4698 22.3285 13.593 22.3295C13.7206 22.3295 13.8459 22.2956 13.9561 22.2313C14.0662 22.167 14.1573 22.0746 14.22 21.9635L19.228 13.0725C19.2811 12.9899 19.3167 12.8973 19.3326 12.8005C19.3485 12.7036 19.3445 12.6046 19.3206 12.5094C19.2968 12.4141 19.2538 12.3248 19.1941 12.2469C19.1345 12.1689 19.0595 12.104 18.9738 12.0562C18.8881 12.0083 18.7935 11.9785 18.6959 11.9685C18.5982 11.9586 18.4996 11.9688 18.406 11.9984C18.3125 12.028 18.226 12.0765 18.1518 12.1408C18.0777 12.2052 18.0175 12.284 17.975 12.3725" fill="white"/>
</mask>
<g mask="url(#mask0_243_8352)">
<path d="M16.7722 27.5492L22.5792 16.1192L15.4242 6.78516L9.61719 18.2132L16.7722 27.5492Z" fill="url(#paint0_linear_243_8352)"/>
</g>
<mask id="mask1_243_8352" style="mask-type:luminance" maskUnits="userSpaceOnUse" x="17" y="20" width="8" height="7">
<path d="M21.8657 20.9799L21.4497 21.7249L21.2497 21.1629C21.2376 21.1246 21.2181 21.089 21.1922 21.0582C21.1664 21.0274 21.1347 21.002 21.0991 20.9834C21.0634 20.9648 21.0245 20.9534 20.9844 20.9499C20.9444 20.9464 20.904 20.9508 20.8657 20.9629C20.8273 20.975 20.7917 20.9945 20.7609 21.0203C20.7301 21.0462 20.7047 21.0778 20.6861 21.1135C20.6676 21.1492 20.6562 21.1881 20.6527 21.2282C20.6492 21.2682 20.6536 21.3086 20.6657 21.3469C20.6678 21.3552 20.6708 21.3633 20.6747 21.3709L21.0607 22.4319L20.5607 23.3159L20.0287 22.4039L20.3967 21.3769C20.4102 21.3392 20.4162 21.2991 20.4142 21.2591C20.4123 21.219 20.4024 21.1797 20.3853 21.1435C20.3682 21.1072 20.3441 21.0747 20.3144 21.0477C20.2846 21.0208 20.2499 20.9999 20.2122 20.9864C20.1744 20.9729 20.1344 20.9669 20.0943 20.9689C20.0543 20.9708 20.015 20.9807 19.9787 20.9978C19.9424 21.0149 19.9099 21.039 19.883 21.0687C19.856 21.0984 19.8352 21.1332 19.8217 21.1709L19.6217 21.7149L19.1967 20.9839C19.156 20.9139 19.0891 20.8629 19.0108 20.8422C18.9325 20.8215 18.8492 20.8327 18.7792 20.8734C18.7092 20.9141 18.6582 20.981 18.6375 21.0593C18.6167 21.1376 18.628 21.2209 18.6687 21.2909L19.0987 22.0279L18.5207 21.9229C18.4442 21.9152 18.3676 21.9366 18.3061 21.9828C18.2447 22.0289 18.2029 22.0966 18.189 22.1722C18.1751 22.2478 18.1902 22.3259 18.2313 22.3909C18.2724 22.4558 18.3364 22.503 18.4107 22.5229L19.5037 22.7229L20.0247 23.6129H19.0977L18.3907 22.7809C18.3644 22.7503 18.3324 22.7251 18.2964 22.7068C18.2604 22.6885 18.2211 22.6775 18.1809 22.6744C18.1406 22.6713 18.1001 22.6761 18.0618 22.6887C18.0234 22.7012 17.9878 22.7212 17.9572 22.7474C17.9265 22.7737 17.9013 22.8057 17.883 22.8417C17.8648 22.8777 17.8538 22.917 17.8506 22.9572C17.8475 22.9975 17.8524 23.038 17.8649 23.0763C17.8774 23.1147 17.8974 23.1503 17.9237 23.1809L18.2997 23.6229H17.4487C17.3707 23.6274 17.2973 23.6615 17.2437 23.7183C17.19 23.7751 17.1602 23.8503 17.1602 23.9284C17.1602 24.0065 17.19 24.0817 17.2437 24.1385C17.2973 24.1953 17.3707 24.2294 17.4487 24.2339H18.3007L17.9217 24.6839C17.8954 24.7145 17.8754 24.75 17.8629 24.7883C17.8503 24.8266 17.8454 24.867 17.8485 24.9072C17.8516 24.9475 17.8625 24.9867 17.8807 25.0226C17.8989 25.0586 17.9241 25.0907 17.9547 25.1169C17.9853 25.1432 18.0207 25.1632 18.0591 25.1757C18.0974 25.1883 18.1378 25.1932 18.178 25.1901C18.2182 25.187 18.2574 25.1761 18.2934 25.1579C18.3294 25.1396 18.3614 25.1145 18.3877 25.0839L19.1037 24.2379H20.0497L19.5207 25.1829L18.3907 25.3499C18.314 25.3607 18.2444 25.4003 18.1958 25.4605C18.1472 25.5208 18.1234 25.5973 18.1291 25.6745C18.1348 25.7517 18.1697 25.8238 18.2266 25.8762C18.2835 25.9287 18.3583 25.9575 18.4357 25.9569H18.4807L19.1407 25.8569L18.7557 26.5459C18.7192 26.6163 18.7115 26.6982 18.7342 26.7742C18.7569 26.8502 18.8082 26.9144 18.8773 26.9533C18.9464 26.9922 19.0279 27.0027 19.1047 26.9827C19.1814 26.9627 19.2474 26.9136 19.2887 26.8459L19.6347 26.2269L19.7847 26.6959C19.8047 26.7574 19.8436 26.811 19.8958 26.8491C19.9481 26.8871 20.011 26.9077 20.0757 26.9079C20.124 26.9079 20.1717 26.8966 20.2148 26.8747C20.2579 26.8529 20.2953 26.8213 20.3239 26.7823C20.3525 26.7434 20.3716 26.6983 20.3795 26.6506C20.3875 26.6029 20.3841 26.554 20.3697 26.5079L20.0437 25.4989L20.5717 24.5509L21.0847 25.4289L20.7147 26.4609C20.7011 26.4987 20.6952 26.5387 20.6971 26.5788C20.6991 26.6188 20.7089 26.6581 20.726 26.6944C20.7432 26.7306 20.7673 26.7632 20.797 26.7901C20.8267 26.8171 20.8614 26.8379 20.8992 26.8514C20.9754 26.8787 21.0594 26.8746 21.1326 26.84C21.1689 26.8229 21.2014 26.7988 21.2284 26.7691C21.2553 26.7394 21.2761 26.7047 21.2897 26.6669L21.4897 26.1139L21.9167 26.8429C21.9504 26.9012 22.0024 26.9467 22.0647 26.9723C22.1269 26.9979 22.1959 27.0022 22.2608 26.9845C22.3258 26.9668 22.3831 26.9281 22.4237 26.8745C22.4644 26.8208 22.4862 26.7552 22.4857 26.6879C22.4848 26.6342 22.4704 26.5815 22.4437 26.5349L22.0357 25.8349L22.5747 25.9469C22.5953 25.9518 22.6165 25.9542 22.6377 25.9539C22.7097 25.9491 22.7777 25.919 22.8297 25.8688C22.8816 25.8187 22.9142 25.7519 22.9216 25.6801C22.929 25.6082 22.9108 25.5361 22.8702 25.4764C22.8296 25.4168 22.7692 25.3734 22.6997 25.3539L21.6177 25.1219L21.0907 24.2219H22.2757L22.9637 25.0739C23.0147 25.1376 23.089 25.1783 23.1701 25.1872C23.2512 25.1961 23.3325 25.1725 23.3962 25.1214C23.4598 25.0704 23.5006 24.9961 23.5095 24.915C23.5184 24.8339 23.4947 24.7526 23.4437 24.6889L23.0637 24.2189H23.6937C23.7353 24.2213 23.7769 24.2152 23.816 24.2009C23.8552 24.1866 23.891 24.1645 23.9213 24.1359C23.9515 24.1073 23.9757 24.0728 23.9922 24.0345C24.0087 23.9963 24.0172 23.9551 24.0172 23.9134C24.0172 23.8718 24.0087 23.8305 23.9922 23.7923C23.9757 23.754 23.9515 23.7195 23.9213 23.6909C23.891 23.6623 23.8552 23.6402 23.816 23.6259C23.7769 23.6117 23.7353 23.6055 23.6937 23.6079V23.6039H23.0767L23.4367 23.1789C23.4897 23.1171 23.516 23.0368 23.5098 22.9556C23.5037 22.8744 23.4655 22.799 23.4037 22.7459C23.3419 22.6929 23.2615 22.6665 23.1803 22.6727C23.0991 22.6789 23.0237 22.7171 22.9707 22.7789L22.2707 23.6009H21.0977L21.5887 22.7229L22.6597 22.5229C22.6997 22.5157 22.7379 22.5006 22.7721 22.4785C22.8062 22.4563 22.8356 22.4276 22.8585 22.394C22.8814 22.3603 22.8973 22.3225 22.9054 22.2826C22.9135 22.2427 22.9136 22.2016 22.9056 22.1617C22.8976 22.1218 22.8818 22.0839 22.859 22.0502C22.8362 22.0165 22.8069 21.9877 22.7728 21.9655C22.7387 21.9432 22.7005 21.928 22.6605 21.9207C22.6205 21.9134 22.5794 21.9142 22.5397 21.9229L21.9797 22.0349L22.3987 21.2859C22.4179 21.2505 22.4299 21.2115 22.4337 21.1714C22.4376 21.1313 22.4334 21.0907 22.4212 21.0523C22.4091 21.0138 22.3893 20.9782 22.3631 20.9476C22.3369 20.9169 22.3048 20.8919 22.2687 20.8739C22.2252 20.8509 22.1768 20.8389 22.1277 20.8389C22.0751 20.8389 22.0233 20.8524 21.9775 20.8782C21.9316 20.9039 21.8931 20.941 21.8657 20.9859" fill="white"/>
</mask>
<g mask="url(#mask1_243_8352)">
<path d="M21.2652 30.0645L27.4022 23.2825L19.8752 17.7695L13.7422 24.5515L21.2652 30.0645Z" fill="url(#paint1_linear_243_8352)"/>
</g>
<mask id="mask2_243_8352" style="mask-type:luminance" maskUnits="userSpaceOnUse" x="10" y="23" width="3" height="4">
<path d="M11.537 23.4689L10.1 25.9159C10.0362 26.0252 10.0017 26.1492 10 26.2759C9.9993 26.4338 10.0506 26.5875 10.146 26.7134C10.2414 26.8393 10.3756 26.9302 10.5278 26.9722C10.6801 27.0142 10.8419 27.0049 10.9884 26.9457C11.1348 26.8865 11.2577 26.7808 11.338 26.6449L12.777 24.1979C12.8249 24.1163 12.8562 24.0261 12.8692 23.9325C12.8822 23.8388 12.8767 23.7435 12.8529 23.652C12.829 23.5605 12.7874 23.4745 12.7304 23.3991C12.6734 23.3237 12.6021 23.2602 12.5205 23.2124C12.439 23.1645 12.3488 23.1331 12.2551 23.1201C12.1615 23.1071 12.0661 23.1127 11.9746 23.1365C11.8831 23.1603 11.7972 23.2019 11.7218 23.259C11.6463 23.316 11.5829 23.3873 11.535 23.4689" fill="white"/>
</mask>
<g mask="url(#mask2_243_8352)">
<path d="M11.7937 28.9726L14.3938 24.6626L11.1938 21.1406L8.59375 25.4506L11.7937 28.9726Z" fill="url(#paint2_linear_243_8352)"/>
</g>
<path d="M22.1154 9.2571C21.9338 9.26473 21.7528 9.28309 21.5734 9.3121L21.5664 9.2931C20.9357 7.80353 19.8101 6.57731 18.38 5.82156C16.9498 5.06581 15.3026 4.82686 13.7166 5.14507C12.1306 5.46328 10.703 6.31914 9.67505 7.56809C8.64708 8.81704 8.08168 10.3825 8.07438 12.0001V12.0441C7.18807 12.1484 6.37538 12.5882 5.80337 13.2732C5.23136 13.9582 4.94349 14.8363 4.99893 15.727C5.05438 16.6177 5.44893 17.4533 6.10147 18.0621C6.75402 18.6709 7.61498 19.0065 8.50738 19.0001H15.0554H15.0944H15.1334H22.0834H22.1164C23.4077 19.0001 24.6462 18.4871 25.5593 17.574C26.4724 16.6609 26.9854 15.4224 26.9854 14.1311C26.9854 12.8398 26.4724 11.6013 25.5593 10.6882C24.6462 9.77508 23.4077 9.2621 22.1164 9.2621" fill="url(#paint3_linear_243_8352)"/>
<path d="M8.583 12.0006C9.04519 11.9922 9.5045 12.075 9.9347 12.2442C10.3649 12.4133 10.7576 12.6656 11.0903 12.9865C11.423 13.3074 11.6892 13.6907 11.8738 14.1145C12.0584 14.5384 12.1577 14.9944 12.166 15.4566C12.1487 16.3897 11.7615 17.2777 11.0896 17.9254C10.4177 18.5731 9.51609 18.9274 8.583 18.9106C7.64991 18.9274 6.7483 18.5731 6.07641 17.9254C5.40452 17.2777 5.01735 16.3897 5 15.4566C5.00833 14.9944 5.10761 14.5384 5.29219 14.1145C5.47676 13.6907 5.743 13.3074 6.07572 12.9865C6.40843 12.6656 6.8011 12.4133 7.2313 12.2442C7.6615 12.075 8.12081 11.9922 8.583 12.0006Z" fill="url(#paint4_linear_243_8352)"/>
<mask id="mask3_243_8352" style="mask-type:luminance" maskUnits="userSpaceOnUse" x="7" y="14" width="6" height="10">
<path d="M11.3842 15.1355L7.3622 22.0415C7.2671 22.2062 7.24095 22.4019 7.28947 22.5858C7.33798 22.7697 7.45722 22.9271 7.6212 23.0235C7.73041 23.0885 7.85509 23.1231 7.9822 23.1235C8.10812 23.1227 8.23169 23.0893 8.34087 23.0266C8.45005 22.9638 8.54112 22.8739 8.6052 22.7655L12.6312 15.8605C12.6412 15.8455 12.6502 15.8285 12.6582 15.8135C12.7482 15.6451 12.7677 15.4478 12.7123 15.265C12.6569 15.0823 12.5311 14.929 12.3627 14.839C12.1943 14.7489 11.997 14.7295 11.8143 14.7849C11.6315 14.8403 11.4782 14.9661 11.3882 15.1345" fill="white"/>
</mask>
<g mask="url(#mask3_243_8352)">
<path d="M10.5756 27.3749L15.5216 18.0909L9.42256 10.5039L4.47656 19.7889L10.5756 27.3749Z" fill="url(#paint5_linear_243_8352)"/>
</g>
<defs>
<linearGradient id="paint0_linear_243_8352" x1="6.20818" y1="34.1313" x2="22.6994" y2="23.1782" gradientUnits="userSpaceOnUse">
<stop stop-color="#E1F9FF"/>
<stop offset="1" stop-color="#40CBFF"/>
</linearGradient>
<linearGradient id="paint1_linear_243_8352" x1="17.9768" y1="28.6875" x2="22.0266" y2="19.7141" gradientUnits="userSpaceOnUse">
<stop stop-color="#E1F9FF"/>
<stop offset="1" stop-color="#40CBFF"/>
</linearGradient>
<linearGradient id="paint2_linear_243_8352" x1="9.45215" y1="28.5027" x2="13.7308" y2="24.5775" gradientUnits="userSpaceOnUse">
<stop stop-color="#E1F9FF"/>
<stop offset="1" stop-color="#40CBFF"/>
</linearGradient>
<linearGradient id="paint3_linear_243_8352" x1="20.5414" y1="10.5628" x2="14.047" y2="23.5383" gradientUnits="userSpaceOnUse">
<stop stop-color="#FEFFFF"/>
<stop offset="1" stop-color="#D5D5D5"/>
</linearGradient>
<linearGradient id="paint4_linear_243_8352" x1="6.69834" y1="13.5481" x2="10.1146" y2="16.7813" gradientUnits="userSpaceOnUse">
<stop stop-color="white"/>
<stop offset="1" stop-color="white" stop-opacity="0.03"/>
</linearGradient>
<linearGradient id="paint5_linear_243_8352" x1="6.96169" y1="24.1863" x2="14.8502" y2="18.3404" gradientUnits="userSpaceOnUse">
<stop stop-color="#E1F9FF"/>
<stop offset="1" stop-color="#40CBFF"/>
</linearGradient>
</defs>
</svg>
