<svg width="16" height="16" viewBox="0 0 16 16" fill="none" xmlns="http://www.w3.org/2000/svg">
<g id="filter_shape_16px" opacity="0.6">
<path id="Union" d="M3.2199 3H12.7874C12.8712 3.00156 12.954 3.02584 13.0254 3.07034C13.0969 3.11484 13.1553 3.17793 13.1947 3.2531C13.2341 3.32826 13.2531 3.41277 13.2496 3.49787C13.2461 3.58297 13.2203 3.66557 13.1749 3.73714L8.93593 9.69504V12.8064C8.93643 12.8803 8.92007 12.9533 8.88813 13.0196C8.8562 13.086 8.80955 13.144 8.75187 13.189L7.81131 13.9065C7.73151 13.9669 7.63473 13.9997 7.53522 14C7.47323 14.0002 7.4118 13.988 7.35447 13.9641C7.29715 13.9401 7.24504 13.9048 7.20117 13.8603C7.15729 13.8158 7.1225 13.7629 7.09881 13.7047C7.07512 13.6465 7.06298 13.5841 7.0631 13.521V9.69504L2.82509 3.73714C2.77929 3.66497 2.75347 3.5816 2.75033 3.49578C2.74718 3.40997 2.76685 3.32488 2.80724 3.24945C2.84764 3.17403 2.90728 3.11106 2.97989 3.06717C3.05251 3.02327 3.13542 3.00007 3.2199 3Z" fill="white"/>
</g>
</svg>
