<svg width="13" height="13" viewBox="0 0 13 13" fill="none" xmlns="http://www.w3.org/2000/svg">
<g id="arrow_bold_down_fff_12">
<path id="Union" d="M3.11278 5.95157C3.18511 6.02176 3.28245 6.06108 3.38385 6.06106L4.4795 6.06089V11.5H8.50781V6.06028L9.60081 6.06011C9.68808 6.06018 9.77297 6.03201 9.84249 5.9799C9.88268 5.9503 9.9164 5.91298 9.94163 5.87019C9.96686 5.8274 9.98307 5.78001 9.9893 5.73088C9.99553 5.68174 9.99165 5.63187 9.97788 5.58426C9.96411 5.53664 9.94075 5.49226 9.90919 5.45379L8.44558 3.66442L6.80216 1.6459C6.78353 1.62187 6.76212 1.60008 6.73836 1.58097C6.65604 1.51969 6.55293 1.49223 6.45058 1.50433C6.34824 1.51643 6.2546 1.56716 6.18926 1.6459L4.53617 3.66538L3.0803 5.45474C3.02683 5.52021 2.99751 5.6017 2.99716 5.68581C2.99893 5.78594 3.04046 5.88138 3.11278 5.95157Z" fill="#FF1F55"/>
</g>
</svg>
