<svg width="120" height="120" viewBox="0 0 120 120" fill="none" xmlns="http://www.w3.org/2000/svg">
<g id="info_window_graphic">
<g id="Vector">
<path d="M61.5 115.501C50.8198 115.501 40.3795 112.334 31.4992 106.401C22.619 100.467 15.6976 92.0332 11.6105 82.1659C7.52337 72.2986 6.45399 61.4408 8.53759 50.9657C10.6212 40.4906 15.7642 30.8686 23.3162 23.3165C30.8683 15.7644 40.4901 10.6213 50.9651 8.5377C61.4401 6.45407 72.2977 7.52347 82.1649 11.6106C92.0321 15.6978 100.466 22.6192 106.399 31.4996C112.333 40.38 115.5 50.8204 115.5 61.5007C115.484 75.8177 109.789 89.5435 99.6659 99.6671C89.5425 109.791 75.8167 115.485 61.5 115.501ZM61.5 8.5001C51.0176 8.5001 40.7706 11.6085 32.0548 17.4323C23.339 23.2561 16.5458 31.5337 12.5344 41.2183C8.52294 50.9029 7.47336 61.5595 9.51838 71.8407C11.5634 82.1218 16.6112 91.5656 24.0233 98.9779C31.4355 106.39 40.8792 111.438 51.1602 113.483C61.4412 115.528 72.0977 114.478 81.7822 110.467C91.4667 106.455 99.7442 99.6622 105.568 90.9463C111.392 82.2304 114.5 71.9833 114.5 61.5007C114.484 47.449 108.895 33.9773 98.9591 24.0412C89.0231 14.1051 75.5516 8.51598 61.5 8.5001Z" fill="#0068E6"/>
<path d="M61.6446 110.501C51.9533 110.501 42.4796 107.628 34.4216 102.243C26.3636 96.859 20.0832 89.2062 16.3745 80.2525C12.6658 71.2988 11.6954 61.4464 13.5861 51.9412C15.4768 42.436 20.1435 33.705 26.9963 26.8521C33.8491 19.9993 42.5801 15.3324 52.0851 13.4417C61.5902 11.551 71.4425 12.5214 80.396 16.2301C89.3496 19.9389 97.0024 26.2194 102.387 34.2775C107.771 42.3356 110.645 51.8094 110.645 61.5008C110.63 74.4921 105.463 86.9471 96.2767 96.1334C87.0906 105.32 74.6357 110.487 61.6446 110.501ZM61.6446 13.5002C52.1511 13.5002 42.8707 16.3154 34.9772 21.5897C27.0836 26.8641 20.9313 34.3608 17.2983 43.1317C13.6653 51.9027 12.7148 61.554 14.5669 70.8652C16.4189 80.1764 20.9905 88.7293 27.7034 95.4423C34.4163 102.155 42.9691 106.727 52.2802 108.579C61.5913 110.431 71.2425 109.481 80.0134 105.848C88.7842 102.214 96.2808 96.0621 101.555 88.1685C106.829 80.2748 109.645 70.9944 109.645 61.5008C109.63 48.7746 104.569 36.5738 95.5699 27.575C86.5712 18.5763 74.3706 13.5145 61.6446 13.5002Z" fill="#0068E6"/>
<path d="M63.9904 120.001L63.8164 115.414C64.0234 115.406 64.2294 115.397 64.4364 115.387L64.6714 119.97C64.4434 119.981 64.2154 119.992 63.9874 120.001M67.3874 119.767L66.9374 115.2L67.5654 115.135L68.0654 119.698C67.8404 119.721 67.6154 119.745 67.3904 119.767M70.7674 119.337L70.0564 114.803C70.2624 114.77 70.4694 114.737 70.6764 114.703L71.4424 119.228C71.2184 119.266 70.9934 119.302 70.7684 119.338M74.1234 118.708L73.1364 114.226L73.7564 114.086L74.7894 118.559L74.1234 118.708ZM77.4294 117.88L76.1814 113.464L76.7884 113.289L78.0794 117.689L77.4284 117.876M80.6784 116.857L79.1784 112.519L79.7714 112.312L81.3214 116.633C81.1074 116.709 80.8934 116.785 80.6804 116.859M83.8584 115.654L82.1134 111.414C82.3054 111.334 82.4964 111.253 82.6864 111.173L84.4864 115.394C84.2804 115.483 84.0707 115.571 83.8574 115.658M86.9634 114.265L84.9634 110.133C85.1514 110.043 85.3391 109.951 85.5264 109.857L87.5684 113.965C87.3684 114.066 87.1654 114.166 86.9594 114.265M89.9784 112.694L87.7414 108.687L88.2904 108.377L90.5634 112.36C90.3674 112.472 90.1711 112.583 89.9744 112.693M92.8944 110.95L90.4324 107.079C90.6084 106.967 90.7844 106.852 90.9594 106.738L93.4594 110.582C93.2704 110.707 93.0794 110.83 92.8884 110.95M95.7054 109.039L93.0184 105.315C93.1884 105.191 93.3574 105.068 93.5254 104.945L96.2504 108.636C96.0684 108.771 95.8844 108.905 95.7004 109.036M98.4004 106.967L95.5074 103.407C95.6701 103.273 95.8321 103.14 95.9934 103.007L98.9254 106.535C98.7514 106.679 98.5774 106.824 98.4004 106.967ZM100.999 104.741L97.8994 101.357L98.3624 100.927L101.494 104.28C101.33 104.434 101.163 104.587 100.994 104.741M103.437 102.37L100.155 99.1645C100.301 99.0145 100.445 98.8644 100.589 98.7124L103.91 101.875C103.754 102.04 103.596 102.205 103.436 102.368M105.736 99.8595L102.278 96.8464C102.414 96.6904 102.55 96.5364 102.684 96.3724L106.184 99.3385C106.037 99.5125 105.884 99.6855 105.738 99.8555M107.899 97.2094L104.265 94.4164C104.392 94.2504 104.519 94.0837 104.645 93.9164L108.311 96.6714L107.898 97.2144M109.898 94.4544L106.112 91.8694C106.23 91.6964 106.346 91.5244 106.461 91.3514L110.284 93.8914C110.157 94.0814 110.03 94.2714 109.901 94.4604M111.739 91.5814L107.813 89.2203C107.92 89.0403 108.027 88.8597 108.133 88.6783L112.093 90.9914C111.977 91.1914 111.861 91.3877 111.744 91.5804M113.414 88.5973L109.347 86.4783L109.637 85.9143L113.724 87.9933C113.622 88.1933 113.519 88.3933 113.414 88.5933M114.903 85.5223L110.722 83.6373C110.809 83.4463 110.893 83.2553 110.976 83.0633L115.176 84.8933C115.084 85.1033 114.992 85.3133 114.898 85.5223M116.207 82.3612L111.922 80.7272C111.997 80.5272 112.07 80.3332 112.143 80.1342L116.448 81.7172C116.369 81.9302 116.29 82.1442 116.209 82.3572M117.329 79.1262L112.955 77.7482C113.019 77.5482 113.08 77.3482 113.14 77.1482L117.531 78.4722C117.465 78.6915 117.398 78.9095 117.331 79.1262M118.261 75.8382L113.813 74.7282C113.863 74.5222 113.913 74.3172 113.963 74.1161L118.423 75.1772C118.371 75.3985 118.318 75.6192 118.262 75.8392M118.992 72.5081L114.487 71.6591C114.525 71.4531 114.563 71.2461 114.599 71.0391L119.115 71.8391C119.074 72.0641 119.034 72.2851 118.992 72.5081ZM119.525 69.1421L114.978 68.5551C115.005 68.3481 115.03 68.1421 115.055 67.9351L119.608 68.4641C119.583 68.6921 119.554 68.9181 119.526 69.1441M119.862 65.751L115.288 65.429C115.303 65.2217 115.316 65.0147 115.328 64.808L119.904 65.071C119.891 65.299 119.876 65.527 119.861 65.755M119.999 62.339L115.414 62.285V61.657H119.999V62.339Z" fill="#0068E6"/>
<path d="M61.6726 116.625C54.2943 116.646 46.9887 115.166 40.1998 112.276C33.411 109.386 27.2808 105.145 22.1816 99.8124L24.5376 97.5363C33.7055 107.072 46.1906 112.715 59.4057 113.296C72.6208 113.876 85.5528 109.35 95.5216 100.655L97.6716 103.127C87.6952 111.826 74.908 116.622 61.6716 116.628" fill="#0068E6"/>
<path d="M106.523 39.2492C100.975 28.095 91.4638 19.4128 79.8516 14.9019L81.0316 11.8439C93.4065 16.6487 103.542 25.9 109.454 37.7862L106.523 39.2492Z" fill="#0068E6"/>
<path d="M106.523 39.2492C100.975 28.095 91.4638 19.4128 79.8516 14.9019L81.0316 11.8439C93.4065 16.6487 103.542 25.9 109.454 37.7862L106.523 39.2492Z" fill="#0068E6"/>
<path d="M24.0799 25.3952L21.9219 23.3122C27.6828 17.3513 34.7091 12.7606 42.4819 9.87903L43.5189 12.6941C36.1701 15.4187 29.5271 19.7599 24.0799 25.3952Z" fill="#0068E6"/>
<path d="M118 61.75H117C117.023 53.2512 115.102 44.8597 111.383 37.2177L112.283 36.7817C116.068 44.5596 118.023 53.1002 118 61.75Z" fill="#0068E6"/>
<path d="M105.959 93.8851L103.535 92.1161C110.037 83.2349 113.528 72.5074 113.499 61.5007H116.499C116.53 73.1434 112.836 84.4907 105.959 93.8851Z" fill="#0068E6"/>
<path d="M83.615 7.12309C76.8 4.41305 69.5341 3.01583 62.2 3.00504V0.0150002C62.007 0.0150002 61.818 0 61.625 0C45.3731 0.0274252 29.7876 6.46266 18.2505 17.9093C6.71341 29.3559 0.155567 44.8903 0 61.1417H2.394V61.5007C2.39369 71.4045 4.8621 81.1521 9.576 89.8621L10.291 91.1801L12.928 89.7481L12.212 88.4301C7.73653 80.1598 5.39322 70.9043 5.394 61.5007V61.0397C5.57634 46.2377 11.5776 32.1023 22.0999 21.6902C32.6223 11.2781 46.82 5.42627 61.623 5.40007C61.815 5.40007 62.005 5.36707 62.198 5.36907V4.00505C69.4063 4.01613 76.5476 5.38923 83.246 8.0521L83.615 7.12309Z" fill="#0068E6"/>
</g>
<path id="Vector_2" d="M61.6445 13C71.2369 13 80.6139 15.8445 88.5897 21.1738C96.5655 26.5031 102.782 34.0779 106.453 42.9402C110.124 51.8025 111.084 61.5544 109.213 70.9626C107.341 80.3708 102.722 89.0128 95.9392 95.7957C89.1564 102.579 80.5145 107.198 71.1064 109.069C61.6983 110.941 51.9466 109.98 43.0844 106.309C34.2222 102.638 26.6475 96.422 21.3183 88.4461C15.989 80.4702 13.1445 71.0931 13.1445 61.5006C13.1445 48.6374 18.2543 36.3011 27.3499 27.2055C36.4454 18.1099 48.7815 13 61.6445 13Z" fill="#050A1F" fill-opacity="0.6"/>
</g>
</svg>
