<svg width="201" height="40" viewBox="0 0 201 40" fill="none" xmlns="http://www.w3.org/2000/svg">
<g clip-path="url(#clip0_228_8019)">
<mask id="mask0_228_8019" style="mask-type:luminance" maskUnits="userSpaceOnUse" x="0" y="6" width="201" height="28">
<path d="M200.5 6.25806H0.5V33.7421H200.5V6.25806Z" fill="white"/>
</mask>
<g mask="url(#mask0_228_8019)">
<path d="M57.5969 13.1371C58.2612 13.1371 58.9107 12.9401 59.4631 12.571C60.0155 12.2019 60.446 11.6773 60.7003 11.0635C60.9545 10.4497 61.021 9.7743 60.8914 9.1227C60.7618 8.4711 60.4419 7.87257 59.9721 7.4028C59.5023 6.93302 58.9038 6.6131 58.2522 6.48349C57.6006 6.35388 56.9252 6.4204 56.3114 6.67464C55.6976 6.92888 55.173 7.35942 54.8039 7.91182C54.4348 8.46422 54.2378 9.11366 54.2378 9.77802C54.2378 10.6689 54.5917 11.5233 55.2216 12.1533C55.8516 12.7832 56.706 13.1371 57.5969 13.1371Z" fill="#0068E6"/>
<path d="M60.9559 16.4961H54.239V33.289H60.9559V16.4961Z" fill="#0068E6"/>
</g>
<mask id="mask1_228_8019" style="mask-type:luminance" maskUnits="userSpaceOnUse" x="0" y="6" width="21" height="28">
<path d="M0.5 6.42017V19.854C0.500592 22.212 1.12174 24.5284 2.30103 26.5704C3.48033 28.6123 5.17624 30.308 7.21838 31.4869C9.26052 32.6659 11.577 33.2867 13.935 33.2869C16.293 33.2872 18.6096 32.6668 20.652 31.4882V19.854C20.652 21.6356 19.9443 23.3442 18.6845 24.604C17.4247 25.8638 15.7161 26.5715 13.9345 26.5715C12.1529 26.5715 10.4442 25.8638 9.18444 24.604C7.92465 23.3442 7.21692 21.6356 7.21692 19.854V6.42017H0.5Z" fill="white"/>
</mask>
<g mask="url(#mask1_228_8019)">
<path d="M20.652 6.42017H0.5V33.2891H20.652V6.42017Z" fill="url(#paint0_linear_228_8019)"/>
</g>
<mask id="mask2_228_8019" style="mask-type:luminance" maskUnits="userSpaceOnUse" x="0" y="6" width="201" height="28">
<path d="M200.5 6.25806H0.5V33.7421H200.5V6.25806Z" fill="white"/>
</mask>
<g mask="url(#mask2_228_8019)">
<path d="M40.804 8.21737C38.7612 7.03917 36.4446 6.41895 34.0864 6.41895C31.7283 6.41895 29.4116 7.03917 27.3689 8.21737V6.41902H20.652V33.2892H27.3689V19.8541C27.3689 18.0725 28.0766 16.3639 29.3364 15.1041C30.5962 13.8443 32.3048 13.1366 34.0864 13.1366C35.868 13.1366 37.5767 13.8443 38.8364 15.1041C40.0962 16.3639 40.804 18.0725 40.804 19.8541V33.2892H47.5209V19.8541C47.5214 17.4958 46.9009 15.179 45.7218 13.1367C44.5427 11.0943 42.8465 9.39855 40.804 8.21985" fill="#0068E6"/>
<path d="M87.956 9.54539H79.5324V33.3003H76.0965V9.54539H67.6729V6.66406H87.956V9.54539Z" fill="white"/>
<path d="M99.594 17.5633C98.707 17.5579 97.8219 17.6446 96.9528 17.8219C96.176 17.9784 95.4241 18.2394 94.7175 18.598C94.0159 18.9958 93.3855 19.5078 92.8523 20.1129C92.2799 20.7393 91.8788 21.5028 91.6877 22.3296C91.4584 23.4227 91.3472 24.5372 91.356 25.654V33.3017H88.1046V14.8292H91.356V18.0806C92.1907 17.0281 93.2346 16.1599 94.4217 15.531C96.0147 14.6999 97.7991 14.305 99.594 14.3861V17.5633Z" fill="white"/>
<path d="M117.07 33.3017H113.707V31.1976C113.051 31.7759 112.317 32.2607 111.528 32.6383C110.824 33.0126 110.072 33.2863 109.292 33.4514C108.349 33.6371 107.39 33.7238 106.428 33.7101C105.829 33.6896 105.236 33.5713 104.675 33.3598C104.031 33.1432 103.426 32.8248 102.883 32.4167C102.355 31.993 101.936 31.4483 101.663 30.8288C101.384 30.175 101.246 29.4701 101.256 28.7594C101.224 27.4462 101.671 26.1661 102.512 25.1577C103.324 24.1772 104.402 23.4521 105.617 23.0697C106.423 22.8089 107.251 22.6237 108.092 22.5165C108.875 22.4024 109.665 22.3404 110.456 22.3308H113.707V20.8147C113.693 20.446 113.637 20.0802 113.54 19.7243C113.43 19.2678 113.236 18.8357 112.968 18.4495C112.608 18.0059 112.145 17.6571 111.619 17.4333C110.925 17.1321 110.173 16.9872 109.416 17.0088C108.438 16.9797 107.474 17.2435 106.646 17.7663C106.279 17.9996 105.979 18.3256 105.778 18.7115C105.577 19.0974 105.481 19.5296 105.5 19.9644H101.743C101.731 19.2319 101.882 18.5059 102.186 17.8393C102.522 17.1615 103.014 16.5732 103.621 16.1226C104.376 15.5711 105.22 15.1525 106.115 14.8849C107.182 14.5451 108.296 14.3763 109.416 14.3849C111.479 14.2405 113.517 14.8955 115.11 16.2142C115.736 16.7737 116.234 17.461 116.572 18.2296C116.91 18.9982 117.079 19.8304 117.068 20.6699L117.07 33.3017ZM113.707 26.3187V24.7666C113.14 24.7666 112.463 24.7732 111.675 24.7864C110.71 24.8144 109.747 24.9066 108.794 25.0624C107.807 25.1839 106.86 25.5252 106.023 26.0612C105.614 26.2987 105.274 26.6379 105.035 27.0459C104.796 27.4539 104.668 27.9167 104.661 28.3893C104.625 28.7806 104.687 29.1747 104.842 29.5359C104.996 29.897 105.239 30.2138 105.547 30.4575C106.226 30.9022 107.028 31.1222 107.838 31.0862C108.33 31.064 108.817 30.9893 109.292 30.8634C109.885 30.7281 110.46 30.5297 111.01 30.2718C111.939 29.7572 112.726 29.0213 113.301 28.1294C113.599 27.5739 113.739 26.9479 113.707 26.3187Z" fill="white"/>
<path d="M133.731 9.50832C133.154 9.2975 132.561 9.13683 131.957 9.0281C131.347 8.92656 130.729 8.87729 130.11 8.88081C129.531 8.85214 128.952 8.94663 128.411 9.15805C127.985 9.36998 127.627 9.69609 127.376 10.0999C127.179 10.4701 127.042 10.8696 126.97 11.2832C126.89 11.7836 126.852 12.29 126.859 12.7968V14.8291H132.364V17.4518H126.859V33.3016H123.423V17.4518H120.06V14.8291H123.422V13.4999C123.42 12.6666 123.462 11.8337 123.546 11.0047C123.636 10.1667 123.921 9.36138 124.377 8.65308C124.87 7.92418 125.548 7.33942 126.342 6.95869C127.481 6.45898 128.718 6.21966 129.962 6.25816C130.642 6.25399 131.322 6.30323 131.995 6.40544C132.611 6.50446 133.188 6.60265 133.728 6.70001L133.731 9.50832Z" fill="white"/>
<path d="M147.548 9.50832C146.972 9.2975 146.378 9.13683 145.775 9.0281C145.164 8.92656 144.547 8.87729 143.928 8.88081C143.348 8.85214 142.769 8.94663 142.229 9.15805C141.803 9.36998 141.445 9.69609 141.194 10.0999C140.996 10.4701 140.859 10.8696 140.788 11.2832C140.707 11.7836 140.67 12.29 140.677 12.7968V14.8291H146.182V17.4518H140.677V33.3016H137.241V17.4518H133.879V14.8291H137.241V13.4999C137.239 12.6666 137.28 11.8337 137.364 11.0047C137.455 10.1667 137.739 9.36138 138.196 8.65308C138.689 7.92435 139.366 7.3396 140.159 6.95869C141.299 6.45898 142.536 6.21966 143.779 6.25816C144.46 6.25399 145.14 6.30323 145.813 6.40544C146.428 6.50446 147.006 6.60265 147.546 6.70001L147.548 9.50832Z" fill="white"/>
<path d="M153.495 10.6544H149.468V6.66406H153.495V10.6544ZM153.237 33.304H149.801V14.8291H153.23L153.237 33.304Z" fill="white"/>
<path d="M173.631 20.8875H170.085C170.099 19.8901 169.743 18.9229 169.086 18.172C168.682 17.7579 168.19 17.4386 167.647 17.2372C167.104 17.0358 166.523 16.9573 165.946 17.0074C165.21 16.9937 164.481 17.1437 163.81 17.4466C163.139 17.7495 162.544 18.1977 162.067 18.7587C160.957 20.1543 160.404 21.9122 160.515 23.6921C160.516 24.231 160.56 24.769 160.645 25.3011C160.734 25.8661 160.889 26.4186 161.107 26.9472C161.347 27.6194 161.703 28.2443 162.159 28.7938C162.721 29.4488 163.405 29.9882 164.173 30.3818C164.618 30.5788 165.082 30.7274 165.559 30.8249C166.256 30.9798 166.969 31.0542 167.683 31.0464C168.472 31.0308 169.258 30.9509 170.034 30.8075C171.1 30.6031 172.119 30.2086 173.044 29.6429V32.3398C171.912 32.9394 170.689 33.3512 169.424 33.5589C168.178 33.7568 166.912 33.7942 165.657 33.6703C164.54 33.5631 163.448 33.2764 162.423 32.8213C161.458 32.4216 160.576 31.8453 159.823 31.1219C158.961 30.2316 158.277 29.1836 157.81 28.0351C157.252 26.6445 156.982 25.1553 157.015 23.6574C157 22.4044 157.188 21.1572 157.571 19.9642C157.931 18.8686 158.537 17.8702 159.343 17.0457C160.131 16.199 161.096 15.5363 162.169 15.105C163.395 14.6094 164.708 14.3645 166.03 14.3847C167.027 14.371 168.019 14.5207 168.968 14.8278C169.819 15.1121 170.622 15.5235 171.35 16.0481C172.021 16.5964 172.579 17.2687 172.995 18.0284C173.451 18.9121 173.673 19.8975 173.641 20.8912" fill="white"/>
</g>
<mask id="mask3_228_8019" style="mask-type:luminance" maskUnits="userSpaceOnUse" x="187" y="9" width="6" height="21">
<path d="M187.905 12.2967V27.4113C187.905 28.0794 188.171 28.7202 188.643 29.1927C189.116 29.6651 189.756 29.9306 190.425 29.9306C191.093 29.9306 191.734 29.6651 192.206 29.1927C192.679 28.7202 192.944 28.0794 192.944 27.4113V12.2967C192.944 11.6285 192.679 10.9877 192.206 10.5152C191.734 10.0428 191.093 9.77734 190.425 9.77734C189.756 9.77734 189.116 10.0428 188.643 10.5152C188.171 10.9877 187.905 11.6285 187.905 12.2967Z" fill="white"/>
</mask>
<g mask="url(#mask3_228_8019)">
<path d="M192.944 9.77783H187.905V29.9298H192.944V9.77783Z" fill="url(#paint1_linear_228_8019)"/>
</g>
<mask id="mask4_228_8019" style="mask-type:luminance" maskUnits="userSpaceOnUse" x="0" y="6" width="201" height="28">
<path d="M200.5 6.25806H0.5V33.7421H200.5V6.25806Z" fill="white"/>
</mask>
<g mask="url(#mask4_228_8019)">
<path d="M180.348 19.8541C180.348 19.1861 180.613 18.5455 181.086 18.0732C181.558 17.6008 182.199 17.3354 182.867 17.3354H197.981C198.649 17.3354 199.29 17.6008 199.762 18.0732C200.235 18.5455 200.5 19.1861 200.5 19.8541C200.5 20.5221 200.235 21.1628 199.762 21.6351C199.29 22.1075 198.649 22.3728 197.981 22.3728H182.867C182.199 22.3728 181.558 22.1075 181.086 21.6351C180.613 21.1628 180.348 20.5221 180.348 19.8541Z" fill="#27D4FF"/>
</g>
</g>
<defs>
<linearGradient id="paint0_linear_228_8019" x1="0.5" y1="33.7458" x2="20.6521" y2="33.8063" gradientUnits="userSpaceOnUse">
<stop offset="0.546875" stop-color="#0068E6"/>
<stop offset="1" stop-color="#0032A0"/>
</linearGradient>
<linearGradient id="paint1_linear_228_8019" x1="190.425" y1="9.77783" x2="190.425" y2="29.9298" gradientUnits="userSpaceOnUse">
<stop stop-color="#27D4FF"/>
<stop offset="0.502" stop-color="#0082F0"/>
<stop offset="1" stop-color="#27D4FF"/>
</linearGradient>
<clipPath id="clip0_228_8019">
<rect width="200" height="27.484" fill="white" transform="translate(0.5 6.25806)"/>
</clipPath>
</defs>
</svg>
