<svg width="85" height="28" viewBox="0 0 85 28" fill="none" xmlns="http://www.w3.org/2000/svg">
<g id="&#234;&#183;&#184;&#235;&#163;&#185; 2">
<g id="Clip path group">
<mask id="mask0_63_959" style="mask-type:luminance" maskUnits="userSpaceOnUse" x="0" y="0" width="85" height="28">
<g id="clip-path">
<path id="&#236;&#130;&#172;&#234;&#176;&#129;&#237;&#152;&#149; 2" d="M84.5779 0H0V28H84.5779V0Z" fill="white"/>
</g>
</mask>
<g mask="url(#mask0_63_959)">
<g id="&#234;&#183;&#184;&#235;&#163;&#185; 1">
<path id="&#237;&#140;&#168;&#236;&#138;&#164; 1" fill-rule="evenodd" clip-rule="evenodd" d="M22.8212 16.2324C22.5863 15.8924 22.321 15.5745 22.0285 15.2826L23.0529 14.9309L26.644 12.0584L26.8643 9.50499L26.7724 9.32126L26.7532 9.25508L26.7423 9.21853L26.7329 9.17458L26.6934 9.0516L26.3279 8.09344L22.3698 7.02366L19.6099 6.13464L17.6788 1.68611L15.7388 0.895878L15.4597 0.863281L15.3031 0.883531H14.4541L11.5253 3.92544L10.7218 6.91055L4.70807 7.54472L3.99241 9.09062L3.92969 9.33756L3.94697 10.5605L6.6797 13.9975L8.76938 15.1181C8.41523 15.4455 8.09701 15.8098 7.82011 16.2047C3.15526 17.2804 4.10502 26.699 9.87472 27.5964C11.6563 27.8677 13.4561 28.0021 15.2582 27.9985C17.2973 28.0045 19.3329 27.831 21.3415 27.4799C26.7413 26.5113 27.4194 17.3165 22.8232 16.2324" fill="white"/>
<path id="&#237;&#140;&#168;&#236;&#138;&#164; 2" fill-rule="evenodd" clip-rule="evenodd" d="M12.5195 12.9649C14.3715 12.5095 16.3068 12.5136 18.1569 12.9768L17.4363 10.1364L16.7503 10.125L16.6367 10.973H15.8232L15.7279 10.1388L14.9544 10.125L14.8606 10.973L14.0407 10.9641L13.942 10.1314H13.2461L12.5195 12.9649Z" fill="#FC9200"/>
<path id="&#237;&#140;&#168;&#236;&#138;&#164; 3" fill-rule="evenodd" clip-rule="evenodd" d="M22.8215 16.2332C24.722 18.9817 24.0641 22.3442 24.0641 22.3442C22.9371 22.4861 21.7931 22.3994 20.7003 22.0893C19.6076 21.7791 18.5886 21.2518 17.7042 20.539C16.6328 19.679 15.8072 18.5515 15.3108 17.2704C14.8149 18.5519 13.9897 19.6799 12.9184 20.5405C12.034 21.2533 11.015 21.7806 9.92224 22.0907C8.82951 22.4009 7.68546 22.4876 6.55846 22.3457C6.55846 22.3457 5.89466 18.96 7.81937 16.207C3.15452 17.2827 0 19.3393 0 21.7056C0 24.8206 5.46744 27.4002 12.6531 27.9099V23.7503H13.8089V27.9726C14.0953 27.9835 14.3847 27.9919 14.6752 27.9963V22.0696H15.8309V27.9963C16.1246 27.9921 16.4161 27.9842 16.7056 27.9726V23.7503H17.8603V27.9099C25.049 27.4007 30.5184 24.8206 30.5184 21.7056C30.5184 19.3606 27.4187 17.3188 22.8205 16.2347" fill="#0055A5"/>
<path id="&#237;&#140;&#168;&#236;&#138;&#164; 4" fill-rule="evenodd" clip-rule="evenodd" d="M10.3691 6.04727C8.04709 5.59683 5.64067 6.04826 3.63978 7.30967C3.66195 7.96115 3.76871 8.60698 3.95735 9.23093C5.11395 8.32242 6.51234 7.77438 7.97824 7.65511C9.44415 7.53585 10.9127 7.85063 12.201 8.56022C11.908 7.11219 12.0507 5.60981 12.611 4.2428C13.1713 2.8758 14.1241 1.70548 15.3491 0.87963C14.8143 0.511043 14.2328 0.215238 13.62 0C11.8056 1.5281 10.6429 3.69102 10.3691 6.04727ZM2.59766 10.6089C3.05316 11.7247 3.72721 12.7381 4.58016 13.5896C4.79648 13.8079 5.01627 14.0148 5.24593 14.2124C6.09672 14.9132 7.06306 15.4606 8.10164 15.8299C8.53811 15.2926 9.05193 14.823 9.6263 14.4366C8.29905 14.163 7.07087 13.5344 6.07258 12.618C5.07428 11.7015 4.34325 10.5315 3.95735 9.23241C3.44744 9.63156 2.99052 10.0941 2.59766 10.6089ZM20.3286 6.04727C20.056 3.69042 18.8926 1.52697 17.0767 0C16.4639 0.214856 15.8825 0.510687 15.3481 0.87963C16.5744 1.70431 17.5282 2.87447 18.0887 4.2418C18.6492 5.60914 18.7912 7.1121 18.4967 8.56022C19.7858 7.85064 21.2552 7.53602 22.7218 7.65554C24.1885 7.77507 25.5876 8.32346 26.7448 9.23241C26.9265 8.60697 27.0321 7.96189 27.0594 7.31115C25.0584 6.04994 22.6523 5.59802 20.33 6.04727M26.7448 9.23241C26.372 10.5093 25.6591 11.6608 24.6823 12.5637C23.6578 13.5183 22.3893 14.1711 21.017 14.4499C21.5904 14.8391 22.1029 15.3111 22.5378 15.8506C23.5986 15.4819 24.5854 14.9271 25.4517 14.2124C25.6804 14.0148 25.9042 13.8079 26.117 13.5896C26.9692 12.7365 27.6446 11.7236 28.1045 10.6089C27.708 10.0971 27.2518 9.63497 26.7448 9.23241Z" fill="#D50037"/>
<path id="&#237;&#140;&#168;&#236;&#138;&#164; 5" d="M56.0616 22.026C56.0475 22.2645 56.0831 22.5033 56.166 22.7273C56.249 22.9514 56.3776 23.1557 56.5436 23.3274C56.9167 23.6547 57.4035 23.822 57.8989 23.7932H66.4399V16.9883H56.0616V22.026ZM58.501 18.3406H64.0015V22.4399H58.501V18.3406Z" fill="white"/>
<path id="&#237;&#140;&#168;&#236;&#138;&#164; 6" d="M66.4394 7H64.001V12.7746C63.5683 12.9437 63.1256 13.086 62.6754 13.2009C62.0858 13.3369 61.4822 13.4032 60.8771 13.3984H56.4726V7H54.0401V13.0749C54.0224 13.3029 54.0523 13.5322 54.1282 13.7479C54.2041 13.9637 54.3241 14.1612 54.4807 14.3279C54.8494 14.632 55.3207 14.7829 55.7974 14.7497H60.7685C61.3867 14.7514 62.0011 14.6523 62.5875 14.4564C63.0768 14.2974 63.55 14.0929 64.001 13.8454V16.0847H66.4394V11.0746H69.1657V9.72236H66.4394V7Z" fill="white"/>
<path id="&#236;&#130;&#172;&#234;&#176;&#129;&#237;&#152;&#149; 1" d="M84.5781 7H82.1328V23.794H84.5781V7Z" fill="white"/>
<path id="&#237;&#140;&#168;&#236;&#138;&#164; 7" d="M46.9549 10.1734H43.5352V11.5271H46.9549V16.0858H49.3908V6.99219H46.9549V10.1734Z" fill="white"/>
<path id="&#237;&#140;&#168;&#236;&#138;&#164; 8" d="M44.4903 16.5156C41.7422 16.5156 39.5898 18.2161 39.5898 20.3927C39.5898 22.5693 41.7422 24.2693 44.4903 24.2693C47.2383 24.2693 49.3878 22.5683 49.3878 20.3927C49.3878 18.2171 47.2349 16.5156 44.4883 16.5156M44.4883 22.9264C43.9841 22.941 43.487 22.8047 43.0607 22.5352C42.6343 22.2656 42.2981 21.8749 42.095 21.4132C41.8919 20.9515 41.8313 20.4396 41.9207 19.9432C42.0102 19.4468 42.2457 18.9883 42.5972 18.6265C42.9487 18.2648 43.4002 18.0161 43.8938 17.9123C44.3875 17.8085 44.9008 17.8544 45.3682 18.0441C45.8356 18.2338 46.2358 18.5586 46.5176 18.977C46.7994 19.3953 46.9499 19.8883 46.9499 20.3927C46.9608 20.7223 46.9051 21.0507 46.7862 21.3583C46.6672 21.6659 46.4875 21.9463 46.2577 22.1828C46.0279 22.4194 45.7528 22.6071 45.4488 22.7349C45.1447 22.8626 44.8181 22.9278 44.4883 22.9264Z" fill="white"/>
<path id="&#237;&#140;&#168;&#236;&#138;&#164; 9" d="M42.6586 12.8201C41.7489 11.6782 41.2606 10.2577 41.2757 8.79778V7H38.7796V8.79778C38.7972 10.2571 38.3106 11.6779 37.4021 12.8201C36.609 13.632 35.7057 14.3285 34.7188 14.889L35.8117 15.9573C36.6387 15.4977 37.431 14.9784 38.1824 14.4035C38.9429 13.7801 39.5711 13.0111 40.0301 12.1415C40.4897 13.0108 41.118 13.7798 41.8783 14.4035C42.6294 14.9787 43.4218 15.4981 44.249 15.9573L45.3449 14.889C44.3574 14.3287 43.4536 13.6323 42.6601 12.8201" fill="white"/>
<path id="&#237;&#140;&#168;&#236;&#138;&#164; 10" d="M78.2595 14.9868C77.0391 13.515 76.8647 12.2116 76.8143 10.2647V7H74.3182V10.2647C74.2688 12.2116 74.0959 13.515 72.878 14.9868C72.107 15.799 71.2233 16.4961 70.2539 17.0567L71.3479 18.1245C72.1801 17.6818 72.955 17.1389 73.6554 16.508C75.1464 15.0263 75.5035 14.2386 75.5682 13.9264C75.63 14.2386 75.9885 15.0243 77.4771 16.508C78.1781 17.1391 78.9537 17.6819 79.7866 18.1245L80.8816 17.0567C79.9125 16.4965 79.0294 15.7993 78.2595 14.9868Z" fill="white"/>
</g>
</g>
</g>
</g>
</svg>
