<svg width="188" height="278" viewBox="0 0 188 278" fill="none" xmlns="http://www.w3.org/2000/svg">
<g clip-path="url(#clip0_3448_31547)">
<path d="M65.1445 149.901L54.7255 152.401L54.6885 152.413C54.3665 152.52 46.7555 155.056 41.4095 156.683L40.3145 157.017L44.6714 164.861L57.1094 173.861L63.1484 178.173L69.3074 178.615L71.9545 174.203C71.9545 174.203 72.7984 167.03 72.8094 166.935L74.9445 163.945L75.8265 158.651L71.0265 155.16L65.6484 149.778L65.1445 149.901Z" fill="white" stroke="#0068E6" stroke-width="2" stroke-linejoin="round"/>
<path d="M40.319 157.021C38.248 157.632 37.395 157.831 37.045 157.889C34.437 158.324 30.162 164.017 28.557 166.826L25.548 171.888C21.781 178.17 19.837 181.461 19.599 182.147L19.574 182.218L19.562 182.294C19.442 182.984 19.723 185.105 20.437 189.903C21.0734 193.576 21.5038 197.282 21.726 201.003C21.726 203.953 22.839 204.471 24.807 205.141C25.8274 205.44 26.7956 205.894 27.677 206.488C31.7567 209.358 36.0397 211.928 40.492 214.177C43.456 215.448 50.606 215.777 51.812 214.383L51.86 214.327L51.953 214.174L54.924 210.356L55.132 210.196L55.424 209.822L56.478 207.011L55.61 201.371C55.61 201.371 53.162 196.471 53.075 196.3L56.875 189.543L61.963 185.317C61.939 185.336 63.692 184.285 63.692 184.285L64.179 183.991L63.736 177.798L57.67 173.463L45.27 164.484L41.387 157.457L41.028 156.809L40.319 157.021Z" fill="white" stroke="#0068E6" stroke-width="2" stroke-linejoin="round"/>
<path d="M75.5786 159.988C75.5786 159.988 74.9357 163.842 74.9207 163.927C74.7847 164.119 72.7776 166.927 72.7776 166.927L71.9166 174.248L69.4376 178.348C69.2136 178.333 63.3446 177.913 63.3446 177.913C63.3446 177.913 63.7636 183.782 63.7796 184.004L61.7236 185.238L56.5576 189.543L52.6406 196.505L55.2536 201.731C55.2536 201.731 56.0686 207.09 56.0826 207.187L54.8936 210.356L57.2066 213.13C57.2066 213.277 56.4136 216.051 56.4136 216.051L56.0776 217.229H60.6066L65.2996 214.671L70.4556 211.239H80.6066C80.8826 211.418 86.5756 215.076 86.5756 215.076L92.6346 216.807L99.5576 215.507L107.332 210.754L109.554 206.31L104.389 200.716C104.4 200.585 104.795 196.274 104.804 196.158L107.804 192.736L108.67 184.069L106.925 180.143L103.02 176.237L96.1367 173.656L88.9006 168.97L83.4006 163.887L83.3557 163.846L75.8276 158.532L75.5786 159.988Z" fill="white" stroke="#0068E6" stroke-width="2" stroke-linejoin="round"/>
<path d="M107.91 206.265L107.91 206.265L107.909 206.266L107.908 206.268L107.904 206.277L107.903 206.278L107.877 206.33C106.817 208.45 105.183 210.23 103.16 211.466L101.42 212.529C99.8216 213.506 98.0584 214.182 96.217 214.524L93.8521 214.964C93.0535 215.112 92.2313 215.072 91.451 214.846C88.8884 214.105 85.5507 212.58 83.3048 211.136C82.3075 210.494 81.5037 209.977 81.4712 209.956L81.4703 209.956L81.4696 209.955L81.4655 209.953C81.4654 209.953 81.4653 209.953 81.4652 209.953C81.4652 209.953 81.4652 209.953 81.4652 209.953C81.1561 209.756 80.7971 209.651 80.4305 209.651H75.6074C71.9652 209.651 68.4043 210.728 65.3729 212.747L64.5701 213.282L60.9725 215.24C60.4911 215.502 59.9517 215.639 59.4036 215.639C57.0451 215.639 54.9723 217.202 54.3245 219.47L53.7246 221.57C53.6754 221.742 53.6504 221.921 53.6504 222.1C53.6504 222.3 53.6683 224.561 54.001 226.996C54.1669 228.21 54.4162 229.506 54.7969 230.624C55.1615 231.694 55.7135 232.807 56.6167 233.409L56.6173 233.409C57.71 234.137 61.8294 237.603 65.7788 241.212C67.7408 243.005 69.6319 244.806 71.0539 246.287C71.7664 247.03 72.3473 247.677 72.7574 248.195C72.9629 248.454 73.1136 248.666 73.2142 248.83C73.303 248.975 73.3248 249.039 73.326 249.039C73.3261 249.039 73.3261 249.038 73.326 249.038C73.3542 249.175 73.3969 249.309 73.4533 249.437L73.4534 249.437L73.4542 249.439L73.4542 249.439L73.458 249.448C73.558 249.669 73.6999 249.96 74.0978 250.384C74.4635 250.773 75.0414 251.271 75.9989 251.967C77.9168 253.361 81.4909 255.644 88.2838 259.547C89.9975 260.548 92.1759 259.455 92.3959 257.481L92.8027 253.829L91.8089 253.719L92.8027 253.829C92.8744 253.185 93.1417 252.578 93.5688 252.09L97.084 248.07C98.1868 246.81 99.1417 245.427 99.93 243.948L100.189 243.462C101.489 241.025 103.187 238.823 105.213 236.947L107.96 234.404L107.974 234.391L107.987 234.377L110.597 231.768C113.821 228.545 115.942 224.383 116.656 219.88L116.752 219.273C116.865 218.56 116.921 217.839 116.921 217.117V212.258C116.921 210.157 115.764 208.228 113.91 207.239L110.538 205.44C109.585 204.932 108.401 205.304 107.91 206.265Z" fill="#FFE043" fill-opacity="0.2" stroke="#F5D531" stroke-width="2"/>
<path d="M170.649 163.66C170.575 163.66 170.504 163.666 170.434 163.677C169.967 163.755 164.147 170.501 164.147 170.501L162.631 172.016C162.631 172.016 161.018 173.793 160.961 173.843L154.147 178.953C154.147 178.953 147.983 180.166 147.869 180.19C147.765 180.144 137.235 175.51 137.235 175.51L128.207 171.642H117.808C117.808 171.642 113.175 177.539 113.089 177.648C112.949 177.675 106.08 178.963 106.08 178.963C106.08 178.963 107.827 182.898 107.867 182.987C107.858 183.085 107.035 191.31 107.023 191.43L104.027 194.854L103.586 199.705L108.798 205.353L115.145 208.735V217.176C115.145 217.176 113.889 225.097 113.871 225.217L106.624 232.46C106.624 232.46 100.751 237.916 100.751 237.916L100.636 238.021L97.1993 244.466C97.1945 244.466 91.3877 251.1 91.3877 251.1L91.1969 251.32L90.3477 258.949L90.9684 259.222C93.0721 260.147 106.844 264.13 110.618 263.711C113.359 263.407 120.432 267.519 125.659 271.132L126.045 271.4L126.488 271.244C127.102 271.031 132.52 269.11 133.654 267.599C139.269 260.104 151.686 244.274 154.225 243.186C154.651 243.002 155.945 242.448 155.945 237.287C155.934 235.285 155.769 233.286 155.452 231.307L161.893 224.383C162.676 224.043 169.213 221.17 170.426 216.722C171.692 212.081 171.708 200.184 171.708 200.065C171.708 200.031 171.725 199.999 171.755 199.982L181.96 194.029L180.272 186.427L180.098 186.243C179.407 185.509 177.134 180.613 177.134 176.896L177.186 174.95C177.189 173.907 178.083 169.117 177.303 168.426C175.587 166.819 172.412 163.66 170.649 163.66ZM170.649 160.66C170.649 160.66 170.649 160.66 170.649 160.66C173.245 160.66 175.805 162.884 178.882 165.791C179.042 165.943 179.194 166.087 179.337 166.22C180.558 167.34 180.667 169.031 180.611 170.541C180.57 171.621 180.428 172.815 180.314 173.775C180.262 174.206 180.192 174.794 180.185 174.973C180.185 174.992 180.185 175.01 180.185 175.029L180.134 176.931C180.149 179.567 181.784 183.394 182.363 184.271L182.446 184.359C182.822 184.754 183.083 185.244 183.201 185.776L184.889 193.378C185.172 194.652 184.599 195.963 183.472 196.62L174.693 201.741C174.64 205.298 174.402 213.546 173.32 217.511C172.622 220.072 170.737 222.441 167.717 224.552C166.18 225.626 164.678 226.402 163.678 226.869L158.623 232.303C158.828 233.95 158.936 235.615 158.945 237.271C158.945 237.276 158.945 237.282 158.945 237.287C158.945 242.144 157.889 244.806 155.524 245.891C155.213 246.108 153.408 247.548 147.033 255.356C142.928 260.384 138.671 265.906 136.055 269.398C135.501 270.137 134.437 271.172 131.089 272.652C129.386 273.405 127.797 273.965 127.476 274.076L127.041 274.23C126.133 274.549 125.126 274.414 124.335 273.865L123.949 273.597C121.241 271.725 118.449 270.005 116.093 268.757C112.312 266.755 111.02 266.697 110.927 266.695C110.636 266.727 110.328 266.742 109.985 266.742C107.21 266.742 102.368 265.64 98.7948 264.716C94.9391 263.719 91.0552 262.537 89.7605 261.968L89.14 261.695C87.9395 261.167 87.2211 259.92 87.3662 258.617L88.2153 250.988C88.2826 250.383 88.5325 249.813 88.9317 249.353L89.1225 249.133C89.125 249.13 89.1276 249.127 89.1303 249.124C89.1303 249.124 90.5822 247.466 92.0347 245.807C92.7612 244.977 93.4878 244.148 94.033 243.525C94.3062 243.214 94.534 242.954 94.6936 242.772L94.7169 242.746L97.9894 236.609C98.1479 236.312 98.3554 236.044 98.6031 235.815L98.7138 235.713L104.517 230.323C104.525 230.316 104.533 230.308 104.541 230.301L111.061 223.785C111.335 222.052 111.897 218.503 112.145 216.94V210.536L107.387 208.001C107.09 207.842 106.821 207.635 106.593 207.388L101.381 201.74C100.806 201.116 100.522 200.278 100.599 199.434L101.039 194.583C101.097 193.952 101.352 193.356 101.769 192.879L104.134 190.176C104.301 188.502 104.647 185.038 104.803 183.48C104.345 182.447 103.546 180.649 103.338 180.181C102.966 179.343 102.997 178.38 103.424 177.568C103.851 176.756 104.625 176.184 105.527 176.015C106.885 175.76 109.823 175.209 111.427 174.907C112.435 173.624 114.311 171.237 115.45 169.789C116.018 169.065 116.888 168.642 117.808 168.642H128.207C128.613 168.642 129.015 168.725 129.388 168.885L138.417 172.753C138.426 172.757 138.435 172.76 138.444 172.765C140.43 173.638 146.032 176.104 148.213 177.064C148.985 176.911 150.376 176.637 152.896 176.141L158.95 171.601C159.232 171.295 159.852 170.614 160.409 169.999C160.442 169.963 160.476 169.928 160.51 169.893L161.949 168.456C162.265 168.09 163.556 166.6 164.877 165.121C165.776 164.113 166.518 163.301 167.08 162.71C168.173 161.56 168.845 160.9 169.943 160.718C170.17 160.68 170.409 160.66 170.649 160.66Z" fill="#0068E6"/>
<path d="M162.631 172.017C162.631 172.017 161.018 173.794 160.961 173.844L154.148 178.954C154.148 178.954 147.984 180.167 147.869 180.192L137.236 175.512L128.207 171.644H117.807L113.087 177.649L106.078 178.965C106.078 178.965 107.825 182.9 107.865 182.989C107.855 183.089 107.033 191.312 107.021 191.432L104.021 194.857L103.58 199.708L108.791 205.356L115.138 208.738V217.179C115.138 217.179 113.882 225.1 113.864 225.219L106.617 232.463C106.64 232.44 100.744 237.918 100.744 237.918L100.63 238.023L97.1957 244.467L91.3837 251.101L91.1927 251.321L90.3438 258.95L90.9647 259.223C93.0647 260.148 106.839 264.131 110.615 263.713C113.353 263.413 120.428 267.52 125.656 271.134L126.042 271.402L126.485 271.246C127.1 271.033 132.517 269.112 133.652 267.601C139.266 260.106 151.683 244.276 154.222 243.188C154.648 243.004 155.942 242.45 155.942 237.288C155.93 235.285 155.766 233.286 155.449 231.308L161.89 224.384C162.673 224.044 169.21 221.171 170.423 216.723C171.689 212.082 171.704 200.185 171.704 200.066C171.704 200.05 171.709 200.033 171.717 200.019C171.725 200.004 171.737 199.992 171.751 199.983L181.957 194.03L180.269 186.43L180.094 186.246C178.346 183.424 177.328 180.212 177.13 176.899L177.181 174.953C177.181 173.911 178.081 169.12 177.298 168.429C175.509 166.755 172.137 163.395 170.43 163.681C169.962 163.759 164.142 170.504 164.142 170.504L162.631 172.017Z" fill="#338FFF" fill-opacity="0.4"/>
<path d="M170.65 163.661C170.575 163.661 170.504 163.667 170.435 163.678C169.967 163.756 164.147 170.502 164.147 170.502L162.631 172.016C162.631 172.016 161.018 173.794 160.961 173.844L154.148 178.953C154.148 178.953 147.983 180.167 147.869 180.191C147.765 180.145 137.236 175.511 137.236 175.511L128.207 171.643H117.809C117.809 171.643 113.175 177.54 113.089 177.649C112.949 177.676 106.08 178.964 106.08 178.964C106.08 178.964 107.827 182.899 107.867 182.988C107.858 183.086 107.036 191.311 107.023 191.431L104.027 194.855L103.587 199.706L108.798 205.354L115.145 208.736V217.177C115.145 217.177 113.89 225.098 113.872 225.218L106.624 232.462C106.624 232.462 100.751 237.917 100.751 237.917L100.637 238.022L97.1996 244.467C97.1948 244.467 91.3879 251.101 91.3879 251.101L91.1971 251.321L90.348 258.95L90.9687 259.223C93.0723 260.148 106.843 264.13 110.619 263.712C113.357 263.409 120.432 267.52 125.66 271.133L126.045 271.401L126.488 271.245C127.103 271.032 132.52 269.111 133.655 267.6C139.269 260.105 151.686 244.275 154.225 243.187C154.651 243.003 155.945 242.449 155.945 237.288C155.934 235.286 155.769 233.287 155.452 231.308L161.893 224.384C162.676 224.044 169.213 221.171 170.426 216.723C171.692 212.082 171.708 200.185 171.708 200.066C171.708 200.032 171.726 200 171.755 199.983L181.961 194.03L180.273 186.428L180.098 186.244C179.407 185.51 177.134 180.614 177.134 176.897L177.186 174.951C177.189 173.908 178.083 169.118 177.303 168.427C175.587 166.82 172.413 163.661 170.65 163.661ZM170.65 157.661C174.35 157.661 177.374 160.24 180.942 163.612C184.2 166.523 183.739 170.391 183.293 174.131L183.181 175.137L183.132 177.055C183.134 178.687 184.378 181.828 184.903 182.674C185.655 183.464 185.894 184.062 186.13 185.127L187.818 192.729C188.384 195.277 187.238 197.898 184.984 199.212L177.662 203.483C177.561 207.672 177.238 214.55 176.215 218.302C174.636 224.091 168.869 227.679 165.484 229.333L161.754 233.344C161.874 234.644 161.938 235.948 161.945 237.254C161.945 239.779 161.945 246.395 156.599 248.697C155.238 249.872 146.263 260.776 138.457 271.197C137.889 271.954 136.172 274.241 128.451 276.915C126.642 277.541 124.199 277.422 122.625 276.331C116.417 272.038 111.896 269.875 110.676 269.682C110.896 269.718 110.464 269.743 109.985 269.743C104.357 269.743 90.8664 265.732 88.5529 264.715C86.152 263.659 84.0947 260.893 84.3848 258.286L85.2339 250.657C85.3686 249.447 85.8683 248.307 86.6667 247.387C89.1585 244.54 90.8549 242.601 92.0985 241.282L95.3426 235.199C95.6596 234.604 96.0746 234.067 96.57 233.611C99.3982 230.984 101.187 229.322 102.436 228.271L102.383 228.218L108.251 222.352L109.219 216.238L109.181 212.357L105.976 210.649C105.382 210.333 104.845 209.918 104.388 209.423L99.1769 203.775C98.0265 202.528 97.4577 200.853 97.6112 199.163L98.0519 194.312C98.1665 193.051 98.6774 191.858 99.5114 190.905L101.244 188.924L101.739 183.972L100.596 181.399C99.8519 179.723 99.9153 177.798 100.768 176.174C101.622 174.55 103.171 173.405 104.974 173.067L109.765 172.168L113.091 167.936C114.229 166.488 115.968 165.643 117.809 165.643H128.207C129.019 165.643 129.823 165.808 130.57 166.128L139.599 169.996L148.559 173.94C149.558 173.742 150.749 173.508 151.644 173.331L157.361 169.044L158.188 167.984L159.906 166.258C166.44 158.66 167.137 158.144 169.452 157.759C169.777 157.705 170.32 157.661 170.65 157.661Z" fill="#0068E6" fill-opacity="0.2"/>
<path d="M78.3284 1.03433C76.8364 1.30333 75.8944 3.13432 74.8974 5.07132C74.1424 6.42832 73.8214 7.01735 73.6714 7.32235C73.6784 7.29936 73.6954 7.24032 73.6954 7.24032C73.1061 8.18649 72.3671 9.03079 71.5074 9.74032C70.0804 10.7838 68.4594 11.5318 66.7394 11.9403C64.7966 12.4237 62.9614 13.2662 61.3284 14.4243C60.5744 14.9903 60.6004 16.2134 60.7284 18.0124C60.8364 19.5944 60.9494 21.2263 60.0604 22.1123C58.8044 23.3683 55.0414 27.5823 52.1074 30.8963L51.8984 31.1303L44.6584 38.3683C44.5084 38.3863 37.3464 37.5683 36.1124 39.2133L34.6634 41.2284C33.5338 42.9159 32.3004 44.5317 30.9704 46.0663C30.3704 46.6663 26.9584 47.7113 19.3344 48.6663C17.2024 48.8663 11.3554 49.6663 10.2404 50.8453L10.0684 51.0283L10.0084 51.2733C9.78051 52.5603 9.68201 53.8668 9.71438 55.1733C9.71447 56.9653 9.82071 58.7558 10.0324 60.5353C10.4584 63.9433 13.0224 71.6203 14.7004 72.8783C16.3414 74.1063 18.2114 78.9783 18.2114 82.0103L18.1604 82.8103C17.7534 85.6573 16.5824 91.5524 16.4504 92.2104C16.4478 92.2322 16.438 92.2525 16.4226 92.2682C16.4073 92.2839 16.3871 92.2942 16.3654 92.2973C16.2814 92.3043 8.03941 93.1184 6.76541 94.2054L6.66543 94.2903L6.59439 94.3904C6.20039 94.9834 5.37539 96.7083 4.25039 99.0813C3.30239 101.081 2.32243 103.152 1.88943 103.805C1.24743 104.769 1.00839 107.931 1.00839 109.693C0.974734 110.998 1.13071 112.301 1.4714 113.56C1.8904 114.816 4.01741 117.344 6.97641 120.78C9.47141 123.68 11.1194 125.631 11.2924 126.349L11.3364 126.533L11.4504 126.686C12.2274 127.725 15.5424 127.677 16.5394 127.638L17.1454 127.614L20.1044 120.014L14.1394 109.789C14.1254 109.729 14.1294 109.689 14.1724 109.66C22.4624 104.687 23.9194 104.517 24.0614 104.514C24.2034 104.511 25.5244 104.723 31.5714 111.937L31.8064 112.218L39.0224 113.068L39.2014 113.017C42.223 112.187 45.3136 111.631 48.4354 111.358C52.1444 111.198 55.8558 111.618 59.4354 112.602L59.5804 112.642L67.2044 112.219L69.3214 107.136C70.3814 105.914 72.8144 103.654 74.5484 103.654C77.5184 103.654 79.1424 104.073 79.8104 104.998C80.5194 105.974 80.1164 107.37 79.4004 109.564L78.5004 112.69C77.9702 115.055 76.9372 117.278 75.4714 119.208C73.3274 119.401 69.4604 119.672 68.1254 119.672C66.4554 119.672 60.1014 122.627 60.0374 122.657C56.4144 123.957 53.4524 124.287 52.6584 123.494C51.1281 122.162 49.5257 120.914 47.8584 119.757L47.1804 119.273L40.8234 126.48L40.7354 128.992C40.7073 130.71 40.8859 132.424 41.2674 134.099C41.9944 137.008 45.2064 140.225 46.1754 141.141L46.3424 141.299L46.5654 141.359C46.9924 141.475 57.0214 144.186 58.6344 141.767C60.3344 139.213 64.0754 137.526 64.2344 137.455C64.3344 137.465 64.3544 137.487 64.3614 137.515L66.0724 142.648L65.6274 149.864L70.9924 155.228L75.7024 158.654L82.9834 163.797L88.4834 168.872L88.5434 168.926L95.8434 173.65L103.666 176.582L103.184 168.038L106.763 166.343L110.021 161.479L110.237 154.852L105.825 148.066L99.7764 138.701L96.7694 127.963C96.7694 127.963 95.3024 118.975 95.2794 118.791L98.6564 115.416L101.237 110.253L104.144 107.358L110.56 106.931L117.479 100.438L120.111 90.8943L112.923 78.6073L105.157 72.3954C105.086 72.3234 100.334 67.5083 100.268 67.4433C99.2584 66.9383 97.4144 60.8373 97.4144 60.8373L101.022 58.5823C101.16 58.6033 111.722 62.4443 111.722 62.4443L119.687 64.9613L119.857 65.0154L125.645 64.5703C125.645 64.5703 125.232 59.1883 125.213 58.9493L127.689 57.7104L132.04 53.3614L132.449 49.2754L131.72 49.0563C131.069 48.8623 129.315 47.7563 127.065 41.7563C126.615 40.5563 125.43 40.2803 124.058 39.9563C121.714 39.4053 118.507 38.6564 117.658 32.4084L117.652 32.3564L117.638 32.3053C117.585 32.0983 116.323 27.2294 113.856 26.4054C108.699 24.637 103.98 21.7854 100.015 18.0423C98.6633 16.6643 97.4529 15.1541 96.4024 13.5343C95.5717 12.2816 94.6618 11.0832 93.6784 9.94632C91.7104 7.75632 90.6734 7.58435 88.6994 7.42935L86.4394 7.16134C84.1144 6.74234 83.8744 6.14133 83.4784 5.14633C83.1118 4.13011 82.4874 3.22658 81.6664 2.52432C80.3714 1.34132 79.2784 0.85032 78.3274 1.02432" fill="black" fill-opacity="0.2"/>
<path d="M78.3284 1.03433C76.8364 1.30333 75.8944 3.13432 74.8974 5.07132C74.1424 6.42832 73.8214 7.01735 73.6714 7.32235C73.6784 7.29935 73.6954 7.24032 73.6954 7.24032C73.1061 8.18649 72.3671 9.03079 71.5074 9.74032C70.0804 10.7838 68.4594 11.5318 66.7394 11.9403C64.7966 12.4237 62.9614 13.2662 61.3284 14.4243C60.5744 14.9903 60.6004 16.2134 60.7284 18.0124C60.8364 19.5944 60.9494 21.2263 60.0604 22.1123C58.8044 23.3683 55.0414 27.5823 52.1074 30.8963L51.8984 31.1303L44.6584 38.3683C44.5084 38.3863 37.3464 37.5683 36.1124 39.2133L34.6634 41.2284C33.5338 42.9159 32.3004 44.5317 30.9704 46.0663C30.3704 46.6663 26.9584 47.7113 19.3344 48.6663C17.2024 48.8663 11.3554 49.6663 10.2404 50.8453L10.0684 51.0283L10.0084 51.2733C9.78051 52.5603 9.68201 53.8668 9.71438 55.1733C9.71446 56.9653 9.8207 58.7558 10.0324 60.5353C10.4584 63.9433 13.0224 71.6203 14.7004 72.8783C16.3414 74.1063 18.2114 78.9783 18.2114 82.0103L18.1604 82.8103C17.7534 85.6573 16.5824 91.5524 16.4504 92.2104C16.4478 92.2322 16.438 92.2525 16.4226 92.2682C16.4073 92.2839 16.3871 92.2942 16.3654 92.2973C16.2814 92.3043 8.03941 93.1184 6.76541 94.2054L6.66543 94.2903L6.59439 94.3904C6.20039 94.9834 5.37539 96.7083 4.25039 99.0813C3.30239 101.081 2.32243 103.152 1.88943 103.805C1.24743 104.769 1.00839 107.931 1.00839 109.693C0.974734 110.998 1.13071 112.301 1.4714 113.56C1.8904 114.816 4.01741 117.344 6.97641 120.78C9.47141 123.68 11.1194 125.631 11.2924 126.349L11.3364 126.533L11.4504 126.686C12.2274 127.725 15.5424 127.677 16.5394 127.638L17.1454 127.614L20.1044 120.014L14.1394 109.789C14.1254 109.729 14.1294 109.689 14.1724 109.66C22.4624 104.687 23.9194 104.517 24.0614 104.514C24.2034 104.511 25.5244 104.723 31.5714 111.937L31.8064 112.218L39.0224 113.068L39.2014 113.017C42.223 112.187 45.3136 111.631 48.4354 111.358C52.1444 111.198 55.8558 111.618 59.4354 112.602L59.5804 112.642L67.2044 112.219L69.3214 107.136C70.3814 105.914 72.8144 103.654 74.5484 103.654C77.5184 103.654 79.1424 104.073 79.8104 104.998C80.5194 105.974 80.1164 107.37 79.4004 109.564L78.5004 112.69C77.9702 115.055 76.9372 117.278 75.4714 119.208C73.3274 119.401 69.4604 119.672 68.1254 119.672C66.4554 119.672 60.1014 122.627 60.0374 122.657C56.4144 123.957 53.4524 124.287 52.6584 123.494C51.1281 122.162 49.5257 120.914 47.8584 119.757L47.1804 119.273L40.8234 126.48L40.7354 128.992C40.7073 130.71 40.8859 132.424 41.2674 134.099C41.9944 137.008 45.2064 140.225 46.1754 141.141L46.3424 141.299L46.5654 141.359C46.9924 141.475 57.0214 144.186 58.6344 141.767C60.3344 139.213 64.0754 137.526 64.2344 137.455C64.3344 137.465 64.3544 137.487 64.3614 137.515L66.0724 142.648L65.6274 149.864L70.9924 155.228L75.7024 158.654L82.9834 163.797L88.4834 168.872L88.5434 168.926L95.8434 173.65L103.666 176.582L103.184 168.038L106.763 166.343L110.021 161.479L110.237 154.852L105.825 148.066L99.7764 138.701L96.7694 127.963C96.7694 127.963 95.3024 118.975 95.2794 118.791L98.6564 115.416L101.237 110.253L104.144 107.358L110.56 106.931L117.479 100.438L120.111 90.8943L112.923 78.6073L105.157 72.3954C105.086 72.3234 100.334 67.5083 100.268 67.4433C99.2584 66.9383 97.4144 60.8373 97.4144 60.8373L101.022 58.5823C101.16 58.6033 111.722 62.4443 111.722 62.4443L119.687 64.9613L119.857 65.0154L125.645 64.5703C125.645 64.5703 125.232 59.1883 125.213 58.9493L127.689 57.7104L132.04 53.3614L132.449 49.2754L131.72 49.0563C131.069 48.8623 129.315 47.7563 127.065 41.7563C126.615 40.5563 125.43 40.2803 124.058 39.9563C121.714 39.4053 118.507 38.6564 117.658 32.4084L117.652 32.3564L117.638 32.3053C117.585 32.0983 116.323 27.2294 113.856 26.4054C108.699 24.637 103.98 21.7854 100.015 18.0423C98.6633 16.6643 97.4529 15.1541 96.4024 13.5343C95.5717 12.2816 94.6618 11.0832 93.6784 9.94632C91.7104 7.75632 90.6734 7.58435 88.6994 7.42935L86.4394 7.16134C84.1144 6.74234 83.8744 6.14133 83.4784 5.14633C83.1118 4.13011 82.4874 3.22658 81.6664 2.52432C80.3714 1.34132 79.2784 0.85032 78.3274 1.02432" stroke="#0068E6" stroke-opacity="0.4" stroke-width="2" stroke-linejoin="round"/>
<g filter="url(#filter0_bd_3448_31547)">
<rect x="116" y="203" width="42" height="24" rx="2" fill="#F5F6FA" shape-rendering="crispEdges"/>
<rect x="116.5" y="203.5" width="41" height="23" rx="1.5" stroke="white" shape-rendering="crispEdges"/>
<path d="M128.721 209.588H129.969V220.424H128.721V209.588ZM125.049 211.688V212.72C125.049 213.176 125.113 213.628 125.241 214.076C125.377 214.516 125.569 214.932 125.817 215.324C126.065 215.708 126.361 216.056 126.705 216.368C127.049 216.68 127.433 216.928 127.857 217.112L127.173 218.084C126.541 217.804 125.989 217.388 125.517 216.836C125.053 216.284 124.693 215.656 124.437 214.952C124.197 215.704 123.841 216.384 123.369 216.992C122.905 217.6 122.353 218.056 121.713 218.36L121.005 217.376C121.429 217.184 121.809 216.92 122.145 216.584C122.489 216.248 122.785 215.872 123.033 215.456C123.281 215.032 123.469 214.584 123.597 214.112C123.733 213.64 123.801 213.176 123.801 212.72V211.688H121.389V210.668H127.461V211.688H125.049ZM139.832 209.588L141.068 209.576V215.996H139.832V214.52H137.264C137.008 214.816 136.688 215.048 136.304 215.216C135.928 215.384 135.512 215.464 135.056 215.456C134.656 215.456 134.284 215.392 133.94 215.264C133.596 215.128 133.296 214.944 133.04 214.712C132.792 214.48 132.596 214.204 132.452 213.884C132.308 213.556 132.236 213.2 132.236 212.816C132.236 212.432 132.308 212.08 132.452 211.76C132.596 211.432 132.792 211.152 133.04 210.92C133.296 210.68 133.596 210.496 133.94 210.368C134.284 210.24 134.656 210.176 135.056 210.176C135.512 210.176 135.928 210.26 136.304 210.428C136.688 210.596 137.008 210.824 137.264 211.112H139.832V209.588ZM135.056 214.4C135.536 214.4 135.928 214.256 136.232 213.968C136.544 213.68 136.7 213.296 136.7 212.816C136.7 212.576 136.656 212.36 136.568 212.168C136.488 211.968 136.372 211.8 136.22 211.664C136.076 211.52 135.904 211.412 135.704 211.34C135.504 211.26 135.288 211.22 135.056 211.22C134.824 211.22 134.608 211.26 134.408 211.34C134.208 211.412 134.032 211.52 133.88 211.664C133.736 211.8 133.62 211.968 133.532 212.168C133.452 212.36 133.412 212.576 133.412 212.816C133.412 213.296 133.564 213.68 133.868 213.968C134.18 214.256 134.576 214.4 135.056 214.4ZM137.78 213.512H139.832V212.12H137.792C137.816 212.232 137.836 212.344 137.852 212.456C137.868 212.568 137.876 212.688 137.876 212.816C137.876 212.984 137.844 213.216 137.78 213.512ZM133.76 217.532V216.536H141.068V220.436H139.832V217.532H133.76ZM148.616 214.412V215.276H143.6V210.392H148.616V211.256H150.872V209.588H152.108V215.972H150.872V214.412H148.616ZM147.416 214.292V211.376H144.812V214.292H147.416ZM150.872 212.264H148.616V213.404H150.872V212.264ZM148.496 216.272C149.064 216.272 149.572 216.32 150.02 216.416C150.476 216.504 150.86 216.64 151.172 216.824C151.492 217 151.736 217.216 151.904 217.472C152.072 217.728 152.156 218.02 152.156 218.348C152.156 218.676 152.072 218.968 151.904 219.224C151.736 219.48 151.492 219.696 151.172 219.872C150.86 220.056 150.476 220.192 150.02 220.28C149.572 220.376 149.064 220.424 148.496 220.424C147.936 220.424 147.428 220.376 146.972 220.28C146.524 220.192 146.14 220.056 145.82 219.872C145.508 219.696 145.268 219.48 145.1 219.224C144.932 218.968 144.848 218.676 144.848 218.348C144.848 218.02 144.932 217.728 145.1 217.472C145.268 217.216 145.508 217 145.82 216.824C146.14 216.64 146.524 216.504 146.972 216.416C147.428 216.32 147.936 216.272 148.496 216.272ZM148.496 219.464C149.272 219.464 149.868 219.368 150.284 219.176C150.708 218.984 150.92 218.708 150.92 218.348C150.92 217.988 150.708 217.716 150.284 217.532C149.868 217.34 149.272 217.244 148.496 217.244C147.72 217.244 147.124 217.34 146.708 217.532C146.292 217.716 146.084 217.988 146.084 218.348C146.084 218.708 146.292 218.984 146.708 219.176C147.124 219.368 147.72 219.464 148.496 219.464Z" fill="black"/>
</g>
</g>
<defs>
<filter id="filter0_bd_3448_31547" x="56" y="143" width="162" height="144" filterUnits="userSpaceOnUse" color-interpolation-filters="sRGB">
<feFlood flood-opacity="0" result="BackgroundImageFix"/>
<feGaussianBlur in="BackgroundImageFix" stdDeviation="30"/>
<feComposite in2="SourceAlpha" operator="in" result="effect1_backgroundBlur_3448_31547"/>
<feColorMatrix in="SourceAlpha" type="matrix" values="0 0 0 0 0 0 0 0 0 0 0 0 0 0 0 0 0 0 127 0" result="hardAlpha"/>
<feOffset dy="4"/>
<feGaussianBlur stdDeviation="6"/>
<feComposite in2="hardAlpha" operator="out"/>
<feColorMatrix type="matrix" values="0 0 0 0 0.0156863 0 0 0 0 0.0352941 0 0 0 0 0.101961 0 0 0 0.2 0"/>
<feBlend mode="normal" in2="effect1_backgroundBlur_3448_31547" result="effect2_dropShadow_3448_31547"/>
<feBlend mode="normal" in="SourceGraphic" in2="effect2_dropShadow_3448_31547" result="shape"/>
</filter>
<clipPath id="clip0_3448_31547">
<rect width="187.965" height="277.294" fill="white"/>
</clipPath>
</defs>
</svg>
