<svg width="32" height="51" viewBox="0 0 32 51" fill="none" xmlns="http://www.w3.org/2000/svg">
<path d="M26.0083 19.6833C26.0085 19.3034 25.8671 18.937 25.6116 18.655C25.3561 18.373 25.0047 18.1955 24.6253 18.1568L24.4333 18.1367C24.3859 15.6919 24.3312 13.1919 24.2768 10.6907L24.2474 9.34718C24.2474 7.9383 22.9034 6.21323 20.9043 5.89097C17.6678 5.36917 14.368 5.371 11.1322 5.89639C9.1216 6.21833 7.77216 7.94531 7.77216 9.34654L7.74432 10.7749C7.696 13.2464 7.64832 15.7155 7.60608 18.1326L7.38368 18.1558C7.00403 18.1944 6.65227 18.372 6.39662 18.6542C6.14096 18.9364 5.99962 19.3032 6 19.6833V20.3358L7.57216 20.171C7.44736 27.996 7.38016 36.4817 7.77216 41.0386C7.77824 42.617 8.47424 43.8484 9.65216 44.3957C9.70134 44.5131 9.78184 44.615 9.88495 44.6901C9.98805 44.7653 10.1098 44.811 10.2371 44.8221L12.3565 45.0571L12.3434 45.1208L12.9338 45.116C13.0287 45.1153 13.1224 45.0956 13.2096 45.0582C13.2967 45.0208 13.3755 44.9665 13.4413 44.8983C15.1448 44.9887 16.8519 44.9893 18.5555 44.8999C18.6208 44.9668 18.6987 45.0202 18.7848 45.057C18.8708 45.0938 18.9633 45.1133 19.057 45.1144L19.5418 45.1176V45.0657L21.7542 44.8196L21.7888 44.8154C21.8815 44.8019 21.9707 44.7701 22.051 44.722C22.1314 44.6739 22.2014 44.6105 22.257 44.5353C22.2857 44.4965 22.3105 44.4551 22.3312 44.4116C23.5152 43.8748 24.239 42.6119 24.2461 41.0408C24.6835 36.4805 24.6093 27.9963 24.4701 20.1735L26.008 20.3329L26.0083 19.6833Z" fill="#0068E6"/>
<path d="M15.9768 50.6254C13.9659 50.6254 11.9565 50.5132 9.95823 50.2894C5.52303 49.7925 2.27823 46.0778 2.14191 41.4004C1.63407 35.1813 1.86735 23.2269 2.11407 10.5798L2.13807 9.35457C2.18127 5.08109 5.71183 1.1866 10.2107 0.46686C14.0352 -0.153474 17.935 -0.155626 21.7601 0.460485C26.2456 1.18405 29.7634 5.07216 29.811 9.33544L29.8373 10.5327C30.1137 23.1979 30.3752 35.1695 29.8053 41.4361C29.6549 46.0969 26.4133 49.7947 21.9893 50.29C19.9927 50.5135 17.9852 50.6254 15.9761 50.6254M14.141 38.473C15.3685 38.5268 16.5968 38.5268 17.8261 38.473C18.1365 32.5962 17.931 22.3388 17.7099 12.1742C16.5564 12.0923 15.3985 12.0936 14.2453 12.1784C14.0481 22.3226 13.8648 32.5628 14.141 38.4737" fill="#338FFF" fill-opacity="0.4"/>
<path d="M15.9773 47.756C14.0742 47.7559 12.1725 47.6494 10.2813 47.4373C7.22918 47.0962 5.08326 44.5609 5.01958 41.2459C4.51494 35.202 4.74758 23.2684 4.99398 10.6424L5.01862 9.39445C5.03974 6.47597 7.51462 3.80262 10.6679 3.29804C14.1893 2.72642 17.7803 2.72405 21.3025 3.29102C24.4445 3.79784 26.9079 6.46705 26.9319 9.37915L26.9585 10.5936C27.2346 23.2403 27.4954 35.1909 26.9303 41.2637C26.8596 44.5688 24.7159 47.0968 21.6689 47.4376C19.7791 47.6494 17.879 47.7556 15.9773 47.756ZM11.4193 41.1502C14.4486 41.4601 17.5019 41.4601 20.5313 41.1502C20.5313 41.1333 20.5313 41.1161 20.5313 41.0973L20.5457 40.7923C21.0919 35.1367 20.8212 22.7316 20.5588 10.7342L20.5377 9.72149C20.4668 9.65334 20.3781 9.6065 20.2817 9.58634C17.4363 9.12807 14.5353 9.13043 11.6906 9.59335C11.5869 9.61361 11.4909 9.66229 11.4135 9.73392L11.3937 10.7683C11.1597 22.7564 10.9178 35.1526 11.4071 40.8232L11.4189 41.096C11.4189 41.1147 11.4189 41.1326 11.4189 41.1496" fill="#338FFF" fill-opacity="0.4"/>
<path d="M21.343 44.2878C17.7974 44.6863 14.2166 44.6863 10.671 44.2878C9.28861 44.1316 8.24861 42.9586 8.24861 41.113C7.72701 35.0758 8.00221 22.1472 8.24861 9.45121C8.24861 8.1985 9.50301 6.73542 11.2054 6.46448C14.3894 5.9481 17.6374 5.94491 20.8214 6.45811C22.5174 6.73224 23.7622 8.1985 23.7622 9.44164C24.0374 22.1408 24.3446 35.0758 23.7622 41.113C23.7622 42.9618 22.7222 44.1348 21.3398 44.2878" fill="#CBCBCA"/>
<path d="M16.0084 44.1223C14.322 44.1223 12.6356 44.0234 10.9588 43.8258C9.73956 43.6888 8.95236 42.6241 8.95236 41.1132L8.71876 38.1584V18.1757L9.18596 9.91678C9.18596 8.91589 10.2388 7.63131 11.7492 7.38906C13.1732 7.13724 14.6164 7.00655 16.0596 7.00655C17.4772 7.00655 19.0036 7.09262 20.3604 7.41456C21.8612 7.65681 22.8308 8.90951 22.8308 9.90721L23.298 18.1789V38.1616L23.0644 41.1164C23.0644 42.6273 22.2772 43.6951 21.058 43.829C19.3812 44.0266 17.6948 44.1254 16.0084 44.1254" fill="#F3F3F3"/>
<path d="M8.70938 18.1749V38.1576C13.4518 39.7067 18.5686 39.7067 23.311 38.1576V18.1749C18.4438 16.0074 13.5766 16.0074 8.70938 18.1749Z" fill="#3A4458"/>
<path d="M9.19571 9.69315L12.0021 8.3512C12.1813 8.26513 12.3285 8.13126 12.4341 7.96551C12.5397 7.79975 12.5941 7.60531 12.5941 7.41087C12.5941 7.38856 12.5877 7.36306 12.5781 7.34394C12.5685 7.32162 12.5525 7.30568 12.5365 7.28975C12.5173 7.27381 12.4981 7.26425 12.4757 7.25787C12.4533 7.2515 12.4277 7.2515 12.4053 7.25787L10.9429 7.5575C10.4501 7.6595 10.0053 7.92725 9.68531 8.31613C9.36531 8.70501 9.19251 9.19271 9.19251 9.69634" fill="#637783"/>
<path d="M10.0884 7.93667C9.81323 8.14067 9.58603 8.40524 9.43243 8.70805C9.27883 9.01406 9.19571 9.35208 9.19571 9.69315L10.0884 9.26587V7.93667Z" fill="#FFE045"/>
<path d="M22.8085 9.69011L20.0021 8.34816C19.8229 8.2621 19.6725 8.12822 19.5669 7.96247C19.4613 7.79672 19.4069 7.60228 19.4069 7.40465C19.4069 7.38234 19.4133 7.35684 19.4229 7.33771C19.4325 7.3154 19.4485 7.29946 19.4645 7.28352C19.4837 7.26758 19.5029 7.25802 19.5253 7.25165C19.5477 7.24527 19.5733 7.24527 19.5957 7.25165L21.0581 7.55127C21.5509 7.65328 21.9957 7.92103 22.3157 8.30991C22.6357 8.69879 22.8085 9.18648 22.8085 9.69011Z" fill="#637783"/>
<path d="M21.9156 7.93667C22.1908 8.14067 22.418 8.40524 22.5716 8.70805C22.7252 9.01406 22.8084 9.35194 22.8084 9.693L21.9156 9.26587V7.93667Z" fill="#FFE045"/>
<path d="M12.6457 8.00764L12.0569 17.0252L11.5769 17.1495L12.6489 8.01083L12.6457 8.00764Z" fill="#CBCBCA"/>
<path d="M19.3688 8.00764L20.4376 17.1463L19.9576 17.0252L19.3688 8.00764Z" fill="#CBCBCA"/>
<path d="M18.9461 7.99773C16.9941 7.75548 15.0197 7.75548 13.0677 7.99773L13.0069 7.53554C14.9973 7.2901 17.0101 7.2901 19.0005 7.53554L18.9461 7.99773Z" fill="#637783"/>
<path d="M19.0614 44.7306C19.0006 44.7306 18.9462 44.7083 18.9014 44.6669C18.8598 44.6254 18.8342 44.5712 18.831 44.5107C18.8278 44.4501 18.847 44.3927 18.8854 44.3481C18.9238 44.3035 18.9782 44.2748 19.0358 44.2684L21.647 43.9783C21.679 43.9752 21.711 43.9783 21.7398 43.9815C21.7686 43.9911 21.7974 44.0038 21.823 44.023C21.8486 44.0421 21.8678 44.0644 21.8838 44.0931C21.8998 44.1186 21.9094 44.1505 21.9126 44.1823C21.9158 44.2142 21.9126 44.2461 21.903 44.2748C21.8934 44.3035 21.8806 44.3322 21.8582 44.3577C21.839 44.3832 21.8134 44.4023 21.7846 44.415C21.7558 44.4278 21.727 44.4373 21.695 44.4405L19.0806 44.7306C19.0806 44.7306 19.0646 44.7306 19.055 44.7306" fill="#D51F26"/>
<path d="M12.9301 44.7303C12.9301 44.7303 12.9141 44.7303 12.9045 44.7303L10.2901 44.4402C10.2581 44.4402 10.2293 44.4306 10.2005 44.4147C10.1717 44.4019 10.1493 44.3796 10.1269 44.3573C10.1077 44.335 10.0917 44.3063 10.0821 44.2744C10.0725 44.2458 10.0693 44.2139 10.0725 44.182C10.0757 44.1501 10.0853 44.1214 10.1013 44.0928C10.1173 44.0641 10.1365 44.0418 10.1621 44.0226C10.1877 44.0035 10.2165 43.9908 10.2453 43.9812C10.2741 43.9748 10.3061 43.9716 10.3381 43.978L12.9525 44.2681C13.0101 44.2744 13.0645 44.3031 13.1029 44.3478C13.1413 44.3924 13.1605 44.4498 13.1573 44.5103C13.1541 44.5709 13.1285 44.6251 13.0869 44.6665C13.0453 44.708 12.9877 44.7303 12.9269 44.7303" fill="#D51F26"/>
<path d="M8.56283 19.6642L6.33563 19.8969V19.7758C6.33563 19.5144 6.43483 19.2626 6.61083 19.0682C6.78683 18.8737 7.03003 18.7526 7.28923 18.7239L8.56283 18.59V19.6642Z" fill="#CBCBCA"/>
<path d="M23.4363 18.59L24.7099 18.7239C24.9723 18.7526 25.2123 18.8737 25.3883 19.0682C25.5643 19.2626 25.6635 19.5144 25.6635 19.7758V19.8969L23.4363 19.6642V18.59Z" fill="#CBCBCA"/>
<mask id="mask0_3468_33520" style="mask-type:luminance" maskUnits="userSpaceOnUse" x="8" y="16" width="16" height="24">
<path d="M8.70874 18.1745V38.1572C13.4511 39.7063 18.5679 39.7063 23.3103 38.1572V18.1745C18.4431 16.0069 13.5759 16.0069 8.70874 18.1745Z" fill="white"/>
</mask>
<g mask="url(#mask0_3468_33520)">
<path d="M20.8308 24.5272C20.8308 24.5272 22.2644 20.2878 23.0804 18.0788C20.834 17.078 18.4052 16.5584 15.9444 16.5488V39.3174C18.3188 39.3174 20.8116 38.9062 23.0804 38.2082C22.2676 36.8789 20.8884 34.0994 20.8884 34.0994L20.8276 24.5272H20.8308Z" fill="#53607A"/>
<path d="M11.5858 28.0999H8.29623V28.798H11.5858V28.0999Z" fill="#CBCBCA"/>
<path d="M23.6563 28.0999H20.4275V28.798H23.6563V28.0999Z" fill="#CBCBCA"/>
<path d="M9.0972 17.8444L8.64998 18.0181L10.3645 22.3985L10.8117 22.2249L9.0972 17.8444Z" fill="#CBCBCA"/>
<path d="M10.3973 35.1174L8.42498 38.1705L8.96319 38.5155L10.9355 35.4624L10.3973 35.1174Z" fill="#CBCBCA"/>
<path d="M22.8595 38.603L21.0131 35.4505L21.5539 35.1063L23.3971 38.2588L22.8595 38.603Z" fill="#CBCBCA"/>
<path d="M21.6274 22.3826L21.1794 22.2105L22.9458 17.7989L23.3938 17.9711L21.6274 22.3826Z" fill="#CBCBCA"/>
<path d="M16.002 36.0655C14.0916 36.0592 12.1876 35.8073 10.3412 35.3133V22.2794C12.146 21.575 14.0692 21.2084 16.0084 21.1957C17.9476 21.2084 19.8676 21.5782 21.6756 22.2794V35.3101C19.826 35.8041 17.9188 36.0592 16.0052 36.0623L16.002 36.0655Z" fill="#F9FAFB"/>
</g>
</svg>
