<svg width="92" height="46" viewBox="0 0 92 46" fill="none" xmlns="http://www.w3.org/2000/svg">
<mask id="path-1-inside-1_3448_32057" fill="white">
<path fill-rule="evenodd" clip-rule="evenodd" d="M10 8C8.89543 8 8 8.89543 8 10V30C8 31.1046 8.89543 32 10 32H41.0003L45.4405 37.1271C45.8393 37.5876 46.5536 37.5876 46.9524 37.1271L51.3926 32H82C83.1046 32 84 31.1046 84 30V10C84 8.89543 83.1046 8 82 8H10Z"/>
</mask>
<path fill-rule="evenodd" clip-rule="evenodd" d="M10 8C8.89543 8 8 8.89543 8 10V30C8 31.1046 8.89543 32 10 32H41.0003L45.4405 37.1271C45.8393 37.5876 46.5536 37.5876 46.9524 37.1271L51.3926 32H82C83.1046 32 84 31.1046 84 30V10C84 8.89543 83.1046 8 82 8H10Z" fill="#D60000"/>
<path d="M41.0003 32L41.7562 31.3453L41.4571 31H41.0003V32ZM45.4405 37.1271L46.1964 36.4725L46.1964 36.4725L45.4405 37.1271ZM46.9524 37.1271L46.1964 36.4725L46.1964 36.4725L46.9524 37.1271ZM51.3926 32V31H50.9357L50.6367 31.3453L51.3926 32ZM9 10C9 9.44772 9.44772 9 10 9V7C8.34315 7 7 8.34314 7 10H9ZM9 30V10H7V30H9ZM10 31C9.44772 31 9 30.5523 9 30H7C7 31.6569 8.34315 33 10 33V31ZM41.0003 31H10V33H41.0003V31ZM46.1964 36.4725L41.7562 31.3453L40.2443 32.6547L44.6846 37.7818L46.1964 36.4725ZM46.1964 36.4725H46.1964L44.6846 37.7818C45.4821 38.7027 46.9107 38.7027 47.7083 37.7818L46.1964 36.4725ZM50.6367 31.3453L46.1964 36.4725L47.7083 37.7818L52.1485 32.6547L50.6367 31.3453ZM82 31H51.3926V33H82V31ZM83 30C83 30.5523 82.5523 31 82 31V33C83.6569 33 85 31.6569 85 30H83ZM83 10V30H85V10H83ZM82 9C82.5523 9 83 9.44772 83 10H85C85 8.34315 83.6569 7 82 7V9ZM10 9H82V7H10V9Z" fill="#0068E6" mask="url(#path-1-inside-1_3448_32057)"/>
<g clip-path="url(#clip0_3448_32057)">
<path d="M20 28C24.4183 28 28 24.4183 28 20C28 15.5817 24.4183 12 20 12C15.5817 12 12 15.5817 12 20C12 24.4183 15.5817 28 20 28Z" fill="white"/>
<mask id="mask0_3448_32057" style="mask-type:luminance" maskUnits="userSpaceOnUse" x="14" y="14" width="12" height="12">
<path d="M26 14H14V26H26V14Z" fill="white"/>
</mask>
<g mask="url(#mask0_3448_32057)">
<path d="M17.5039 16.5041H19.8909C20.1791 16.5019 20.4672 16.5153 20.7539 16.5441C20.9636 16.5649 21.1715 16.601 21.3759 16.6521C21.5286 16.6899 21.676 16.7464 21.8149 16.8201C21.9297 16.8829 22.0387 16.9555 22.1409 17.0371C22.4249 17.2663 22.647 17.563 22.7869 17.9001C22.9284 18.239 23.0005 18.6029 22.9989 18.9701C22.9988 19.1571 22.9807 19.3436 22.9449 19.5271C22.8771 19.8831 22.7413 20.2226 22.5449 20.5271C22.4582 20.6623 22.3517 20.7837 22.2289 20.8871C22.1083 20.989 21.9799 21.0813 21.8449 21.1631C21.7051 21.2467 21.5561 21.3138 21.4009 21.3631C21.2176 21.4198 21.0295 21.4596 20.8389 21.4821C20.5933 21.5101 20.3461 21.5231 20.0989 21.5211H19.2889V24.0021H17.5039V16.5041ZM19.2889 19.8781H20.0489C20.1339 19.8781 20.2489 19.8731 20.3789 19.8631C20.5116 19.8539 20.6418 19.8221 20.7639 19.7691C20.8915 19.7114 21.0008 19.6197 21.0799 19.5041C21.1768 19.3531 21.2234 19.1753 21.2129 18.9961C21.2216 18.8208 21.1713 18.6475 21.0699 18.5041C20.983 18.3934 20.869 18.3069 20.7389 18.2531C20.6115 18.2005 20.4764 18.1687 20.3389 18.1591C20.1976 18.1491 20.0776 18.1441 19.9789 18.1441H19.2889V19.8781Z" fill="#E62222"/>
</g>
</g>
<mask id="path-7-outside-2_3448_32057" maskUnits="userSpaceOnUse" x="4" y="4" width="84" height="38" fill="black">
<rect fill="white" x="4" y="4" width="84" height="38"/>
<path fill-rule="evenodd" clip-rule="evenodd" d="M10 8C8.89543 8 8 8.89543 8 10V30C8 31.1046 8.89543 32 10 32H41.0003L45.4405 37.1271C45.8393 37.5876 46.5536 37.5876 46.9524 37.1271L51.3926 32H82C83.1046 32 84 31.1046 84 30V10C84 8.89543 83.1046 8 82 8H10Z"/>
</mask>
<path d="M41.0003 32L44.024 29.3814L42.8277 28H41.0003V32ZM45.4405 37.1271L48.4642 34.5085L48.4642 34.5085L45.4405 37.1271ZM46.9524 37.1271L43.9286 34.5085L43.9286 34.5085L46.9524 37.1271ZM51.3926 32V28H49.5652L48.3689 29.3814L51.3926 32ZM12 10C12 11.1046 11.1046 12 10 12V4C6.68629 4 4 6.68629 4 10H12ZM12 30V10H4V30H12ZM10 28C11.1046 28 12 28.8954 12 30H4C4 33.3137 6.6863 36 10 36V28ZM41.0003 28H10V36H41.0003V28ZM48.4642 34.5085L44.024 29.3814L37.9766 34.6186L42.4168 39.7457L48.4642 34.5085ZM43.9286 34.5085C45.1249 33.1271 47.2679 33.1271 48.4642 34.5085L42.4168 39.7457C44.4106 42.0481 47.9822 42.0481 49.9761 39.7457L43.9286 34.5085ZM48.3689 29.3814L43.9286 34.5085L49.9761 39.7457L54.4163 34.6186L48.3689 29.3814ZM82 28H51.3926V36H82V28ZM80 30C80 28.8954 80.8954 28 82 28V36C85.3137 36 88 33.3137 88 30H80ZM80 10V30H88V10H80ZM82 12C80.8954 12 80 11.1046 80 10H88C88 6.68629 85.3137 4 82 4V12ZM10 12H82V4H10V12Z" fill="#338FFF" fill-opacity="0.4" mask="url(#path-7-outside-2_3448_32057)"/>
<mask id="path-9-outside-3_3448_32057" maskUnits="userSpaceOnUse" x="0" y="0" width="92" height="46" fill="black">
<rect fill="white" width="92" height="46"/>
<path fill-rule="evenodd" clip-rule="evenodd" d="M10 8C8.89543 8 8 8.89543 8 10V30C8 31.1046 8.89543 32 10 32H41.0003L45.4405 37.1271C45.8393 37.5876 46.5536 37.5876 46.9524 37.1271L51.3926 32H82C83.1046 32 84 31.1046 84 30V10C84 8.89543 83.1046 8 82 8H10Z"/>
</mask>
<path d="M41.0003 32L47.0477 26.7628L44.6551 24H41.0003V32ZM45.4405 37.1271L51.4879 31.8899L51.4879 31.8899L45.4405 37.1271ZM46.9524 37.1271L40.9049 31.8899L40.9049 31.8899L46.9524 37.1271ZM51.3926 32V24H47.7378L45.3451 26.7628L51.3926 32ZM16 10C16 13.3137 13.3137 16 10 16V0C4.47716 0 0 4.47715 0 10H16ZM16 30V10H0V30H16ZM10 24C13.3137 24 16 26.6863 16 30H0C0 35.5229 4.47716 40 10 40V24ZM41.0003 24H10V40H41.0003V24ZM51.4879 31.8899L47.0477 26.7628L34.9528 37.2372L39.3931 42.3644L51.4879 31.8899ZM40.9049 31.8899C43.6963 28.6667 48.6965 28.6667 51.4879 31.8899L39.393 42.3643C42.982 46.5085 49.4109 46.5085 52.9998 42.3643L40.9049 31.8899ZM45.3451 26.7628L40.9049 31.8899L52.9998 42.3644L57.44 37.2372L45.3451 26.7628ZM82 24H51.3926V40H82V24ZM76 30C76 26.6863 78.6863 24 82 24V40C87.5228 40 92 35.5229 92 30H76ZM76 10V30H92V10H76ZM82 16C78.6863 16 76 13.3137 76 10H92C92 4.47715 87.5228 0 82 0V16ZM10 16H82V0H10V16Z" fill="#338FFF" fill-opacity="0.4" mask="url(#path-9-outside-3_3448_32057)"/>
<defs>
<clipPath id="clip0_3448_32057">
<rect width="16" height="16" fill="white" transform="translate(12 12)"/>
</clipPath>
</defs>
</svg>
