<svg width="20" height="20" viewBox="0 0 20 20" fill="none" xmlns="http://www.w3.org/2000/svg">
<g id="play_circle_sky_20">
<g id="Vector">
<path fill-rule="evenodd" clip-rule="evenodd" d="M1 10C1 14.9706 5.02944 19 10 19C14.9706 19 19 14.9706 19 10C19 5.02944 14.9706 1 10 1C5.02944 1 1 5.02944 1 10ZM10 20C4.47715 20 0 15.5228 0 10C0 4.47715 4.47715 0 10 0C15.5228 0 20 4.47715 20 10C20 15.5228 15.5228 20 10 20Z" fill="#0068E6"/>
<path d="M13.539 9.61422C13.5952 9.66114 13.6405 9.71986 13.6716 9.78622C13.7026 9.85258 13.7188 9.92495 13.7188 9.99822C13.7188 10.0715 13.7026 10.1439 13.6716 10.2102C13.6405 10.2766 13.5952 10.3353 13.539 10.3822L8.81997 14.3152C8.74691 14.3761 8.658 14.4148 8.56368 14.427C8.46937 14.4391 8.37355 14.424 8.28747 14.3836C8.2014 14.3432 8.12863 14.2791 8.07771 14.1988C8.02678 14.1185 7.99982 14.0253 7.99997 13.9302V6.06622C8.00001 5.97121 8.02711 5.87818 8.07811 5.79802C8.12911 5.71786 8.20189 5.65389 8.28793 5.6136C8.37397 5.57331 8.46971 5.55836 8.56393 5.57051C8.65816 5.58267 8.74697 5.62141 8.81997 5.68222L13.539 9.61422Z" fill="#0068E6"/>
</g>
</g>
</svg>
