<svg width="48" height="48" viewBox="0 0 48 48" fill="none" xmlns="http://www.w3.org/2000/svg">
<circle cx="24" cy="24" r="24" fill="#DB0000" fill-opacity="0.4"/>
<g clip-path="url(#clip0_28_13315)">
<path d="M24 10C16.268 10 10 16.268 10 24C10 31.732 16.268 38 24 38C31.732 38 38 31.732 38 24C38 16.268 31.732 10 24 10Z" fill="#4A4E66" fill-opacity="0.8"/>
<path d="M30.223 24C30.223 23.8234 30.2932 23.654 30.4181 23.5291C30.543 23.4042 30.7124 23.334 30.889 23.334H32V20H29C28.7348 20 28.4804 19.8946 28.2929 19.7071C28.1054 19.5196 28 19.2652 28 19V16H24.667V17.111C24.6705 17.2007 24.6558 17.2902 24.6239 17.3741C24.592 17.458 24.5434 17.5346 24.4812 17.5992C24.419 17.6639 24.3443 17.7154 24.2617 17.7505C24.1791 17.7857 24.0903 17.8038 24.0005 17.8038C23.9107 17.8038 23.8219 17.7857 23.7393 17.7505C23.6567 17.7154 23.5821 17.6639 23.5198 17.5992C23.4576 17.5346 23.409 17.458 23.3771 17.3741C23.3452 17.2902 23.3305 17.2007 23.334 17.111V16H20V19C20 19.2652 19.8946 19.5196 19.7071 19.7071C19.5196 19.8946 19.2652 20 19 20H16V23.334H17.111C17.2007 23.3305 17.2902 23.3452 17.3741 23.3771C17.458 23.409 17.5346 23.4576 17.5992 23.5198C17.6639 23.5821 17.7154 23.6567 17.7505 23.7393C17.7857 23.8219 17.8038 23.9107 17.8038 24.0005C17.8038 24.0903 17.7857 24.1791 17.7505 24.2617C17.7154 24.3443 17.6639 24.419 17.5992 24.4812C17.5346 24.5434 17.458 24.592 17.3741 24.6239C17.2902 24.6558 17.2007 24.6705 17.111 24.667H16V28H19C19.2652 28 19.5196 28.1054 19.7071 28.2929C19.8946 28.4804 20 28.7348 20 29V32H23.334V30.889C23.3407 30.7167 23.4138 30.5537 23.5381 30.4341C23.6623 30.3146 23.8281 30.2478 24.0005 30.2478C24.1729 30.2478 24.3387 30.3146 24.4629 30.4341C24.5872 30.5537 24.6603 30.7167 24.667 30.889V32H28V29C28 28.7348 28.1054 28.4804 28.2929 28.2929C28.4804 28.1054 28.7348 28 29 28H32V24.667H30.889C30.8015 24.667 30.7148 24.6497 30.6339 24.6162C30.553 24.5827 30.4796 24.5335 30.4177 24.4716C30.3559 24.4096 30.3068 24.3361 30.2734 24.2552C30.24 24.1743 30.2229 24.0875 30.223 24ZM23.334 19.334C23.3305 19.2443 23.3452 19.1548 23.3771 19.0709C23.409 18.987 23.4576 18.9104 23.5198 18.8458C23.5821 18.7811 23.6567 18.7296 23.7393 18.6945C23.8219 18.6593 23.9107 18.6412 24.0005 18.6412C24.0903 18.6412 24.1791 18.6593 24.2617 18.6945C24.3443 18.7296 24.419 18.7811 24.4812 18.8458C24.5434 18.9104 24.592 18.987 24.6239 19.0709C24.6558 19.1548 24.6705 19.2443 24.667 19.334V20.667C24.6705 20.7567 24.6558 20.8462 24.6239 20.9301C24.592 21.014 24.5434 21.0906 24.4812 21.1552C24.419 21.2199 24.3443 21.2714 24.2617 21.3065C24.1791 21.3417 24.0903 21.3598 24.0005 21.3598C23.9107 21.3598 23.8219 21.3417 23.7393 21.3065C23.6567 21.2714 23.5821 21.2199 23.5198 21.1552C23.4576 21.0906 23.409 21.014 23.3771 20.9301C23.3452 20.8462 23.3305 20.7567 23.334 20.667V19.334ZM20.667 24.667H19.334C19.2443 24.6705 19.1548 24.6558 19.0709 24.6239C18.987 24.592 18.9104 24.5434 18.8458 24.4812C18.7811 24.419 18.7296 24.3443 18.6945 24.2617C18.6593 24.1791 18.6412 24.0903 18.6412 24.0005C18.6412 23.9107 18.6593 23.8219 18.6945 23.7393C18.7296 23.6567 18.7811 23.5821 18.8458 23.5198C18.9104 23.4576 18.987 23.409 19.0709 23.3771C19.1548 23.3452 19.2443 23.3305 19.334 23.334H20.667C20.7567 23.3305 20.8462 23.3452 20.9301 23.3771C21.014 23.409 21.0906 23.4576 21.1552 23.5198C21.2199 23.5821 21.2714 23.6567 21.3065 23.7393C21.3417 23.8219 21.3598 23.9107 21.3598 24.0005C21.3598 24.0903 21.3417 24.1791 21.3065 24.2617C21.2714 24.3443 21.2199 24.419 21.1552 24.4812C21.0906 24.5434 21.014 24.592 20.9301 24.6239C20.8462 24.6558 20.7567 24.6705 20.667 24.667ZM24.667 28.667C24.6705 28.7567 24.6558 28.8462 24.6239 28.9301C24.592 29.014 24.5434 29.0906 24.4812 29.1552C24.419 29.2199 24.3443 29.2714 24.2617 29.3065C24.1791 29.3417 24.0903 29.3598 24.0005 29.3598C23.9107 29.3598 23.8219 29.3417 23.7393 29.3065C23.6567 29.2714 23.5821 29.2199 23.5198 29.1552C23.4576 29.0906 23.409 29.014 23.3771 28.9301C23.3452 28.8462 23.3305 28.7567 23.334 28.667V27.334C23.3305 27.2443 23.3452 27.1548 23.3771 27.0709C23.409 26.987 23.4576 26.9104 23.5198 26.8458C23.5821 26.7811 23.6567 26.7296 23.7393 26.6945C23.8219 26.6593 23.9107 26.6412 24.0005 26.6412C24.0903 26.6412 24.1791 26.6593 24.2617 26.6945C24.3443 26.7296 24.419 26.7811 24.4812 26.8458C24.5434 26.9104 24.592 26.987 24.6239 27.0709C24.6558 27.1548 24.6705 27.2443 24.667 27.334V28.667ZM25.111 24.667H24.667V25.111C24.6705 25.2007 24.6558 25.2902 24.6239 25.3741C24.592 25.458 24.5434 25.5346 24.4812 25.5992C24.419 25.6639 24.3443 25.7154 24.2617 25.7505C24.1791 25.7857 24.0903 25.8038 24.0005 25.8038C23.9107 25.8038 23.8219 25.7857 23.7393 25.7505C23.6567 25.7154 23.5821 25.6639 23.5198 25.5992C23.4576 25.5346 23.409 25.458 23.3771 25.3741C23.3452 25.2902 23.3305 25.2007 23.334 25.111V24.667H22.889C22.7167 24.6603 22.5537 24.5872 22.4341 24.4629C22.3146 24.3387 22.2478 24.1729 22.2478 24.0005C22.2478 23.8281 22.3146 23.6623 22.4341 23.5381C22.5537 23.4138 22.7167 23.3407 22.889 23.334H23.334V22.889C23.3407 22.7167 23.4138 22.5537 23.5381 22.4341C23.6623 22.3146 23.8281 22.2478 24.0005 22.2478C24.1729 22.2478 24.3387 22.3146 24.4629 22.4341C24.5872 22.5537 24.6603 22.7167 24.667 22.889V23.334H25.111C25.2007 23.3305 25.2902 23.3452 25.3741 23.3771C25.458 23.409 25.5346 23.4576 25.5992 23.5198C25.6639 23.5821 25.7154 23.6567 25.7505 23.7393C25.7857 23.8219 25.8038 23.9107 25.8038 24.0005C25.8038 24.0903 25.7857 24.1791 25.7505 24.2617C25.7154 24.3443 25.6639 24.419 25.5992 24.4812C25.5346 24.5434 25.458 24.592 25.3741 24.6239C25.2902 24.6558 25.2007 24.6705 25.111 24.667ZM28.667 24.667H27.334C27.2443 24.6705 27.1548 24.6558 27.0709 24.6239C26.987 24.592 26.9104 24.5434 26.8458 24.4812C26.7811 24.419 26.7296 24.3443 26.6945 24.2617C26.6593 24.1791 26.6412 24.0903 26.6412 24.0005C26.6412 23.9107 26.6593 23.8219 26.6945 23.7393C26.7296 23.6567 26.7811 23.5821 26.8458 23.5198C26.9104 23.4576 26.987 23.409 27.0709 23.3771C27.1548 23.3452 27.2443 23.3305 27.334 23.334H28.667C28.7567 23.3305 28.8462 23.3452 28.9301 23.3771C29.014 23.409 29.0906 23.4576 29.1552 23.5198C29.2199 23.5821 29.2714 23.6567 29.3065 23.7393C29.3417 23.8219 29.3598 23.9107 29.3598 24.0005C29.3598 24.0903 29.3417 24.1791 29.3065 24.2617C29.2714 24.3443 29.2199 24.419 29.1552 24.4812C29.0906 24.5434 29.014 24.592 28.9301 24.6239C28.8462 24.6558 28.7567 24.6705 28.667 24.667Z" fill="white"/>
</g>
<defs>
<clipPath id="clip0_28_13315">
<rect width="28" height="28" fill="white" transform="translate(10 10)"/>
</clipPath>
</defs>
</svg>
