<svg width="48" height="48" viewBox="0 0 48 48" fill="none" xmlns="http://www.w3.org/2000/svg">
<path d="M24 40C32.8366 40 40 32.8366 40 24C40 15.1634 32.8366 8 24 8C15.1634 8 8 15.1634 8 24C8 32.8366 15.1634 40 24 40Z" fill="#0068E6"/>
<path d="M39.5 24C39.5 32.5604 32.5604 39.5 24 39.5C15.4396 39.5 8.5 32.5604 8.5 24C8.5 15.4396 15.4396 8.5 24 8.5C32.5604 8.5 39.5 15.4396 39.5 24Z" stroke="black" stroke-opacity="0.3"/>
<path fill-rule="evenodd" clip-rule="evenodd" d="M48 24C48 37.2548 37.2548 48 24 48C10.7452 48 0 37.2548 0 24C0 10.7452 10.7452 0 24 0C37.2548 0 48 10.7452 48 24ZM40 24C40 32.8366 32.8366 40 24 40C15.1634 40 8 32.8366 8 24C8 15.1634 15.1634 8 24 8C32.8366 8 40 15.1634 40 24Z" fill="#27D4FF" fill-opacity="0.4"/>
<path fill-rule="evenodd" clip-rule="evenodd" d="M44 24C44 35.0457 35.0457 44 24 44C12.9543 44 4 35.0457 4 24C4 12.9543 12.9543 4 24 4C35.0457 4 44 12.9543 44 24ZM40 24C40 32.8366 32.8366 40 24 40C15.1634 40 8 32.8366 8 24C8 15.1634 15.1634 8 24 8C32.8366 8 40 15.1634 40 24Z" fill="#27D4FF" fill-opacity="0.4"/>
<path fill-rule="evenodd" clip-rule="evenodd" d="M24 39C32.2843 39 39 32.2843 39 24C39 15.7157 32.2843 9 24 9C15.7157 9 9 15.7157 9 24C9 32.2843 15.7157 39 24 39ZM40 24C40 32.8366 32.8366 40 24 40C15.1634 40 8 32.8366 8 24C8 15.1634 15.1634 8 24 8C32.8366 8 40 15.1634 40 24Z" fill="#27D4FF"/>
<path d="M24 24.3867C25.0609 24.3867 26.0783 23.9653 26.8284 23.2151C27.5786 22.465 28 21.4476 28 20.3867H20C20 21.4476 20.4214 22.465 21.1716 23.2151C21.9217 23.9653 22.9391 24.3867 24 24.3867Z" fill="white"/>
<path d="M24 30.0675C21.8232 30.0682 19.7151 29.3052 18.043 27.9115C17.9925 27.8694 17.9509 27.8178 17.9204 27.7596C17.8899 27.7015 17.8712 27.6378 17.8653 27.5724C17.8594 27.507 17.8665 27.4411 17.886 27.3784C17.9056 27.3157 17.9374 27.2574 17.9795 27.207C18.0215 27.1566 18.0732 27.1149 18.1313 27.0845C18.1895 27.054 18.2531 27.0353 18.3186 27.0294C18.384 27.0235 18.4499 27.0305 18.5126 27.0501C18.5753 27.0697 18.6335 27.1014 18.684 27.1435C20.1766 28.3866 22.0575 29.0672 24 29.0672C25.9424 29.0672 27.8234 28.3866 29.316 27.1435C29.3664 27.1014 29.4246 27.0697 29.4873 27.0501C29.55 27.0305 29.6159 27.0235 29.6814 27.0294C29.7468 27.0353 29.8104 27.054 29.8686 27.0845C29.9268 27.1149 29.9784 27.1566 30.0205 27.207C30.0625 27.2574 30.0943 27.3157 30.1139 27.3784C30.1335 27.4411 30.1405 27.507 30.1346 27.5724C30.1287 27.6378 30.11 27.7015 30.0795 27.7596C30.049 27.8178 30.0074 27.8694 29.957 27.9115C28.2848 29.3052 26.1768 30.0682 24 30.0675Z" fill="white"/>
<path d="M24.0004 32.614C20.7613 32.6194 17.6318 31.4412 15.2004 29.301C15.101 29.2132 15.0405 29.0895 15.0322 28.9571C15.024 28.8247 15.0687 28.6944 15.1564 28.595C15.2442 28.4955 15.3679 28.435 15.5003 28.4268C15.6327 28.4185 15.763 28.4632 15.8624 28.551C18.1134 30.5277 21.0067 31.6178 24.0024 31.6178C26.9981 31.6178 29.8915 30.5277 32.1424 28.551C32.2419 28.4632 32.3721 28.4185 32.5045 28.4268C32.6369 28.435 32.7607 28.4955 32.8484 28.595C32.9362 28.6944 32.9809 28.8247 32.9727 28.9571C32.9644 29.0895 32.9039 29.2132 32.8044 29.301C30.372 31.4421 27.2409 32.6203 24.0004 32.614Z" fill="white"/>
<path d="M24.0009 27.5195C22.9001 27.5201 21.8264 27.1779 20.9289 26.5405C20.8208 26.4636 20.7477 26.3469 20.7257 26.2161C20.7037 26.0852 20.7345 25.951 20.8114 25.843C20.8883 25.7349 21.005 25.6618 21.1358 25.6398C21.2666 25.6177 21.4008 25.6486 21.5089 25.7255C22.2372 26.2421 23.108 26.5196 24.0009 26.5196C24.8938 26.5196 25.7646 26.2421 26.4929 25.7255C26.601 25.6486 26.7352 25.6177 26.866 25.6398C26.9968 25.6618 27.1135 25.7349 27.1904 25.843C27.2673 25.951 27.2982 26.0852 27.2761 26.2161C27.2541 26.3469 27.181 26.4636 27.0729 26.5405C26.1754 27.1779 25.1017 27.5201 24.0009 27.5195Z" fill="white"/>
<path d="M28 20.3867H20C20.0036 21.0909 20.1952 21.7814 20.555 22.3867H27.445C27.8048 21.7814 27.9964 21.0909 28 20.3867Z" fill="white"/>
<path d="M16 17.3867V21.3867C16 21.6519 16.1054 21.9063 16.2929 22.0938C16.4804 22.2814 16.7348 22.3867 17 22.3867H19.424C19.145 21.7568 19.0006 21.0756 19 20.3867C19 20.1215 19.1054 19.8671 19.2929 19.6796C19.4804 19.4921 19.7348 19.3867 20 19.3867H28C28.2652 19.3867 28.5196 19.4921 28.7071 19.6796C28.8946 19.8671 29 20.1215 29 20.3867C28.9994 21.0756 28.855 21.7568 28.576 22.3867H31C31.2652 22.3867 31.5196 22.2814 31.7071 22.0938C31.8946 21.9063 32 21.6519 32 21.3867V17.3867H16Z" fill="white"/>
</svg>
