<svg width="32" height="32" viewBox="0 0 32 32" fill="none" xmlns="http://www.w3.org/2000/svg">
<path d="M27 15.8498C26.9723 15.6338 26.8738 15.4316 26.7181 15.2759C26.5324 15.0902 26.2806 14.9859 26.0181 14.9859V14.9909L24.0331 14.9979L25.1891 13.6199C25.3644 13.4251 25.4562 13.1693 25.4448 12.9074C25.4334 12.6456 25.3196 12.3987 25.1281 12.2199C25.0335 12.1321 24.9224 12.064 24.8013 12.0196C24.6802 11.9751 24.5515 11.9552 24.4226 11.961C24.2937 11.9668 24.1672 11.9981 24.0506 12.0532C23.9339 12.1083 23.8294 12.186 23.7431 12.2819C23.7271 12.2999 23.7111 12.3189 23.6961 12.3379L21.4541 15.0049L17.6881 15.0189L19.2681 12.1719L22.7131 11.4789C22.9685 11.4328 23.1957 11.2882 23.3456 11.0762C23.4955 10.8642 23.5561 10.6019 23.5144 10.3456C23.4727 10.0894 23.332 9.85977 23.1226 9.70625C22.9133 9.55274 22.652 9.48762 22.3951 9.52491C22.3784 9.52491 22.3628 9.52909 22.3472 9.5333C22.3412 9.53491 22.3351 9.53652 22.3291 9.53791L20.5291 9.90091L21.8761 7.47891C22.0022 7.24969 22.0334 6.98018 21.9631 6.72817C21.8929 6.47617 21.7266 6.26175 21.5001 6.13091C21.3541 6.04764 21.189 6.00387 21.0211 6.00391C20.8462 6.00432 20.6747 6.05145 20.5242 6.14041C20.3737 6.22938 20.2497 6.35694 20.1651 6.50991L18.8251 8.92591L18.1751 7.10491C18.1322 6.98312 18.0656 6.87103 17.9792 6.77513C17.8927 6.67923 17.7881 6.60141 17.6714 6.54618C17.5547 6.49094 17.4282 6.45938 17.2993 6.45333C17.1703 6.44728 17.0414 6.46685 16.9201 6.51091C16.6746 6.6017 16.475 6.7858 16.3647 7.02312C16.2543 7.26043 16.2423 7.53173 16.3311 7.77791L17.5581 11.2119L15.9681 14.0779L14.2631 11.1289L15.4391 7.79891C15.5258 7.55212 15.5125 7.28115 15.4018 7.0441C15.2911 6.80706 15.092 6.62282 14.8471 6.53091C14.7254 6.48743 14.5964 6.46848 14.4674 6.47515C14.3384 6.48182 14.212 6.51398 14.0955 6.56977C13.979 6.62555 13.8747 6.70386 13.7886 6.80017C13.7026 6.89649 13.6364 7.00889 13.5941 7.13091L12.9691 8.89891L11.6001 6.51991C11.5296 6.41184 11.4383 6.31887 11.3315 6.24642C11.2247 6.17397 11.1046 6.12348 10.9781 6.09789C10.8517 6.0723 10.7214 6.07212 10.5948 6.09736C10.4683 6.1226 10.348 6.17275 10.2411 6.24491C10.0418 6.38095 9.89852 6.58442 9.8375 6.81781C9.77649 7.0512 9.8019 7.29878 9.90906 7.51491L11.2901 9.90691L9.42806 9.56491C9.17283 9.52554 8.91233 9.58745 8.70212 9.73745C8.4919 9.88744 8.34862 10.1136 8.30282 10.3678C8.25703 10.6219 8.31235 10.8839 8.457 11.0978C8.60164 11.3118 8.82414 11.4607 9.07705 11.5129L12.5881 12.1589L14.2541 15.0419L11.2671 15.0539L9.00005 12.3489C8.91983 12.2479 8.82034 12.1637 8.70736 12.1014C8.59438 12.0391 8.47016 11.9998 8.34189 11.9859C8.21362 11.9719 8.08385 11.9836 7.96012 12.0201C7.83638 12.0567 7.72113 12.1175 7.62105 12.1989C7.41929 12.3656 7.29089 12.6047 7.2634 12.8649C7.23592 13.1251 7.31155 13.3858 7.47405 13.5909C7.48359 13.6042 7.49394 13.6169 7.50505 13.6289L8.70505 15.0629L5.97905 15.0709C5.72181 15.0791 5.47783 15.187 5.29875 15.3719C5.11967 15.5567 5.01953 15.804 5.01953 16.0614C5.01953 16.3188 5.11967 16.5661 5.29875 16.7509C5.47783 16.9358 5.72181 17.0437 5.97905 17.0519L8.71505 17.0429L7.50005 18.4989C7.33111 18.7003 7.24825 18.9601 7.26939 19.2221C7.29054 19.4841 7.414 19.7272 7.61305 19.8989C7.71165 19.9831 7.82606 20.0468 7.94957 20.0863C8.07309 20.1257 8.20323 20.1401 8.33239 20.1287C8.46154 20.1172 8.58712 20.0801 8.70176 20.0196C8.81641 19.959 8.91781 19.8762 9.00005 19.7759L11.3001 17.0339L14.3391 17.0229L12.6391 20.0899L9.01805 20.6329C8.7772 20.6758 8.56073 20.8063 8.4103 20.9992C8.25987 21.1921 8.18613 21.4339 8.20326 21.6779C8.22039 21.922 8.32718 22.1511 8.50309 22.3211C8.67899 22.4911 8.91157 22.5901 9.15605 22.5989C9.20466 22.5994 9.25319 22.5954 9.30105 22.5869L11.4231 22.2699L10.1861 24.4989C10.0624 24.7295 10.0341 24.9995 10.1072 25.2507C10.1803 25.502 10.349 25.7146 10.5771 25.8429C10.8021 25.9668 11.0669 25.9969 11.314 25.9264C11.561 25.856 11.7702 25.6908 11.8961 25.4669L13.0091 23.4609L13.4911 24.9809C13.5533 25.1798 13.6773 25.3538 13.8451 25.4775C14.0128 25.6012 14.2156 25.6682 14.4241 25.6689C14.526 25.669 14.6273 25.6528 14.7241 25.6209C14.9726 25.5396 15.1789 25.3632 15.2979 25.1304C15.4169 24.8975 15.4388 24.627 15.3591 24.3779L14.3181 21.0989L16.0001 18.0669L17.6471 20.9149L16.4581 24.2729C16.3699 24.5194 16.3825 24.7907 16.4932 25.0279C16.6038 25.2651 16.8036 25.4491 17.0491 25.5399C17.1708 25.5834 17.2999 25.6024 17.4289 25.5957C17.558 25.589 17.6845 25.5569 17.801 25.5011C17.9176 25.4453 18.022 25.367 18.1082 25.2707C18.1943 25.1744 18.2606 25.062 18.3031 24.9399L18.9381 23.1469L20.3051 25.5079C20.4122 25.6971 20.5793 25.8451 20.78 25.9286C20.9807 26.0121 21.2035 26.0263 21.4131 25.9689C21.6228 25.9115 21.8073 25.7858 21.9375 25.6118C22.0677 25.4377 22.1362 25.2252 22.1321 25.0079C22.1317 24.8324 22.0855 24.6601 21.9981 24.5079L20.6841 22.2349L22.4141 22.5999C22.4799 22.6132 22.5469 22.6196 22.6141 22.6189C22.8574 22.616 23.0911 22.5236 23.2707 22.3594C23.4504 22.1952 23.5633 21.9707 23.588 21.7286C23.6127 21.4865 23.5475 21.2438 23.4048 21.0467C23.262 20.8496 23.0518 20.7119 22.8141 20.6599L19.3521 19.9299L17.6621 17.0049L21.4621 16.9899L23.6741 19.7519C23.7548 19.8531 23.8548 19.9371 23.9683 19.9993C24.0818 20.0614 24.2065 20.1004 24.3352 20.1139C24.4639 20.1274 24.594 20.1151 24.7179 20.0779C24.8418 20.0406 24.9571 19.9791 25.0571 19.8969C25.2607 19.7296 25.3901 19.4887 25.417 19.2265C25.444 18.9644 25.3664 18.7022 25.2011 18.4969L23.9801 16.9739L26.0181 16.9659C26.2806 16.9659 26.5324 16.8616 26.7181 16.6759C26.8738 16.5202 26.9723 16.318 27 16.102V15.8498Z" fill="url(#paint0_radial_243_5482)"/>
<path d="M7.93687 24.841C7.84876 24.688 7.70353 24.5763 7.53308 24.5303C7.36263 24.4844 7.18092 24.508 7.02787 24.596L6.18687 25.081V24.111C6.19377 23.9342 6.13016 23.7619 6.01004 23.6321C5.88993 23.5022 5.72314 23.4254 5.54637 23.4185C5.3696 23.4116 5.19734 23.4752 5.06747 23.5953C4.9376 23.7154 4.86077 23.8822 4.85387 24.059C4.85287 24.0763 4.85287 24.0937 4.85387 24.111V25.082L4.01087 24.601C3.93584 24.5537 3.85214 24.5219 3.76466 24.5073C3.67718 24.4928 3.58767 24.4958 3.50139 24.5163C3.4151 24.5367 3.33375 24.5742 3.26212 24.6265C3.19048 24.6788 3.12999 24.7448 3.08417 24.8207C3.03836 24.8967 3.00815 24.981 2.99531 25.0687C2.98247 25.1565 2.98726 25.2459 3.00939 25.3318C3.03152 25.4176 3.07056 25.4982 3.12421 25.5688C3.17787 25.6394 3.24506 25.6986 3.32187 25.743L3.34387 25.756L4.18487 26.241L3.34387 26.728C3.26718 26.7703 3.19958 26.8274 3.14493 26.8958C3.09029 26.9643 3.04966 27.0429 3.02538 27.1271C3.0011 27.2112 2.99363 27.2994 3.00341 27.3864C3.01319 27.4735 3.04002 27.5578 3.08237 27.6345C3.12472 27.7112 3.18176 27.7788 3.25024 27.8334C3.31872 27.8881 3.39729 27.9287 3.48146 27.953C3.56564 27.9773 3.65377 27.9847 3.74084 27.9749C3.8279 27.9652 3.91218 27.9383 3.98887 27.896L4.01087 27.883L4.85187 27.398V28.369C4.85855 28.5413 4.93169 28.7043 5.05595 28.8238C5.18021 28.9434 5.34594 29.0102 5.51837 29.0102C5.6908 29.0102 5.85653 28.9434 5.98079 28.8238C6.10505 28.7043 6.1782 28.5413 6.18487 28.369V27.398L7.02587 27.883C7.17293 27.9814 7.35306 28.0173 7.52663 27.9829C7.70019 27.9485 7.85298 27.8465 7.95137 27.6995C8.04977 27.5524 8.08571 27.3723 8.0513 27.1987C8.01689 27.0252 7.91493 26.8724 7.76787 26.774C7.74312 26.7578 7.71741 26.7431 7.69087 26.73L6.85087 26.245L7.69187 25.76C7.84501 25.6715 7.95674 25.5258 8.0025 25.355C8.04825 25.1842 8.02429 25.0021 7.93587 24.849" fill="#40CBFF"/>
<path d="M28.9403 3.87032C28.9126 3.82209 28.8757 3.7798 28.8316 3.74585C28.7876 3.7119 28.7373 3.68697 28.6836 3.67248C28.6299 3.65799 28.5739 3.65423 28.5188 3.66141C28.4636 3.66859 28.4104 3.68657 28.3623 3.71432L27.8283 4.02232V3.40732C27.823 3.29856 27.776 3.196 27.6972 3.1209C27.6184 3.0458 27.5136 3.00391 27.4048 3.00391C27.2959 3.00391 27.1912 3.0458 27.1123 3.1209C27.0335 3.196 26.9865 3.29856 26.9813 3.40732V4.02432L26.4473 3.71632C26.3515 3.65665 26.236 3.63745 26.1261 3.66296C26.0162 3.68846 25.9209 3.75658 25.8613 3.85232C25.8016 3.94806 25.7824 4.06359 25.8079 4.17349C25.8334 4.28338 25.9015 4.37865 25.9973 4.43832L26.0183 4.45032L26.5523 4.75832L26.0183 5.06732C25.9263 5.124 25.8594 5.21366 25.8313 5.31799C25.8032 5.42231 25.8159 5.53344 25.867 5.62866C25.9181 5.72389 26.0035 5.79602 26.106 5.83034C26.2085 5.86466 26.3201 5.85857 26.4183 5.81332L26.4393 5.80132L26.9733 5.49332V6.11032C26.9785 6.21908 27.0255 6.32164 27.1043 6.39674C27.1832 6.47184 27.2879 6.51374 27.3968 6.51374C27.5056 6.51374 27.6104 6.47184 27.6892 6.39674C27.768 6.32164 27.815 6.21908 27.8203 6.11032V5.49332L28.3543 5.80132C28.4514 5.85382 28.5651 5.86637 28.6713 5.83633C28.7775 5.80628 28.8678 5.736 28.923 5.64042C28.9783 5.54484 28.994 5.4315 28.967 5.32448C28.9399 5.21746 28.8722 5.12521 28.7783 5.06732L28.2443 4.75832L28.7783 4.45032C28.8756 4.39406 28.9465 4.30147 28.9756 4.1929C29.0047 4.08433 28.9894 3.96867 28.9333 3.87132" fill="#40CBFF"/>
<defs>
<radialGradient id="paint0_radial_243_5482" cx="0" cy="0" r="1" gradientUnits="userSpaceOnUse" gradientTransform="translate(14.8751 15.2904) scale(15.7746 16.2041)">
<stop stop-color="#CCF3FF"/>
<stop offset="0.403" stop-color="#CCF3FF"/>
<stop offset="1" stop-color="#40CBFF"/>
</radialGradient>
</defs>
</svg>
