<svg width="34" height="16" viewBox="0 0 34 16" fill="none" xmlns="http://www.w3.org/2000/svg">
<g id="Clip path group">
<mask id="mask0_4866_45691" style="mask-type:luminance" maskUnits="userSpaceOnUse" x="-1" y="0" width="35" height="16">
<g id="clip-path">
<path id="&#236;&#130;&#172;&#234;&#176;&#129;&#237;&#152;&#149; 40542" d="M34 0H-0.00537109V16H34V0Z" fill="white"/>
</g>
</mask>
<g mask="url(#mask0_4866_45691)">
<g id="&#234;&#183;&#184;&#235;&#163;&#185; 179727">
<path id="&#237;&#140;&#168;&#236;&#138;&#164; 91982" d="M31.4095 3.09415H10.3679C10.3432 3.09515 10.3188 3.08945 10.2971 3.07764C10.2755 3.06584 10.2574 3.04837 10.2449 3.02712C10.2324 3.00586 10.2259 2.98161 10.2261 2.95695C10.2263 2.93228 10.2331 2.90813 10.246 2.88706C12.0219 0.0829013 17.7833 0 17.7833 0H29.0982C29.83 0 30.4799 0.447667 30.7137 1.11292L31.4095 3.09415Z" fill="black"/>
<path id="&#237;&#140;&#168;&#236;&#138;&#164; 91983" d="M16.5278 1.99463C16.5278 1.99463 17.8142 0.899611 21.4036 0.816655C24.993 0.733698 29.3294 0.816655 29.3294 0.816655L30.0971 2.04077L16.5278 1.99463Z" fill="#73101B"/>
<path id="&#237;&#140;&#168;&#236;&#138;&#164; 91984" d="M10.7318 2.68742C10.7286 2.68898 10.7248 2.68935 10.7213 2.68847C10.7178 2.68759 10.7147 2.68551 10.7125 2.68259C10.7104 2.67967 10.7093 2.67609 10.7095 2.67246C10.7097 2.66883 10.7111 2.66539 10.7136 2.66272C11.0442 2.31752 12.8088 0.65341 16.1774 0.570343C16.1901 0.569931 16.2025 0.57367 16.2129 0.580991C16.2233 0.588311 16.231 0.598814 16.2348 0.610903C16.2386 0.622993 16.2384 0.636007 16.2342 0.647968C16.23 0.65993 16.222 0.670185 16.2114 0.677175C15.8517 0.911952 15.1222 1.47303 14.844 1.8672C14.8065 1.92138 14.7577 1.96675 14.7009 2.00016C14.6441 2.03356 14.5807 2.0542 14.5152 2.06063C13.7707 2.128 11.4602 2.35913 10.7318 2.68742Z" fill="#73101B"/>
<path id="&#237;&#140;&#168;&#236;&#138;&#164; 91985" d="M24.526 1.7009H22.5456C22.507 1.7009 22.4699 1.68555 22.4426 1.65822C22.4153 1.63089 22.3999 1.59382 22.3999 1.55516C22.3999 1.51651 22.4153 1.47944 22.4426 1.45211C22.4699 1.42478 22.507 1.40942 22.5456 1.40942H24.526C24.5647 1.40942 24.6018 1.42478 24.6291 1.45211C24.6564 1.47944 24.6718 1.51651 24.6718 1.55516C24.6718 1.59382 24.6564 1.63089 24.6291 1.65822C24.6018 1.68555 24.5647 1.7009 24.526 1.7009Z" fill="#B0B0B0"/>
<path id="&#237;&#140;&#168;&#236;&#138;&#164; 91986" d="M11.3813 3.79674L13.0607 2.77268C13.3307 2.60806 13.6407 2.52098 13.9569 2.521H29.1896C29.3589 2.521 29.5216 2.58704 29.6431 2.70509L30.5743 3.6101L11.3813 3.79674Z" fill="#B0B0B0"/>
<path id="&#237;&#140;&#168;&#236;&#138;&#164; 91987" d="M33.8421 13.3788C33.1728 13.9342 31.569 13.9342 31.569 13.9342H30.1757C30.2273 13.5205 30.1904 13.1006 30.0674 12.7023C29.9444 12.304 29.7381 11.9364 29.4622 11.6239C29.1863 11.3114 28.8471 11.0611 28.4671 10.8897C28.0871 10.7183 27.675 10.6296 27.2581 10.6296C26.8412 10.6296 26.4291 10.7183 26.0491 10.8897C25.6691 11.0611 25.3299 11.3114 25.054 11.6239C24.7781 11.9364 24.5718 12.304 24.4488 12.7023C24.3258 13.1006 24.2889 13.5205 24.3405 13.9342H8.17479C8.22776 13.5083 8.18683 13.0759 8.05487 12.6675C7.92292 12.259 7.70314 11.8844 7.41097 11.57C7.11881 11.2556 6.76134 11.0089 6.36369 10.8474C5.96603 10.6858 5.53782 10.6133 5.10914 10.6349C4.68047 10.6565 4.26171 10.7716 3.8823 10.9723C3.50288 11.173 3.17201 11.4543 2.91291 11.7965C2.65382 12.1387 2.47279 12.5335 2.38254 12.9531C2.29228 13.3728 2.295 13.8071 2.3905 14.2255L0.751814 13.9044C0.600424 13.8747 0.464069 13.7933 0.366076 13.6741C0.268082 13.5549 0.214542 13.4054 0.214614 13.2512V12.7565L0.129502 12.6311C0.0555107 12.5216 0.0102935 12.3952 -0.00197402 12.2637C-0.0142415 12.1321 0.00683611 11.9996 0.0593127 11.8783L1.13316 9.40619C1.20552 9.24015 1.29538 9.0823 1.40121 8.93531L3.68486 8.88447L33.7283 8.21021C33.7465 8.7568 33.5912 9.57642 33.5094 10.2728C33.4681 10.5593 33.4544 10.8491 33.4685 11.1383C33.5055 11.5544 33.9632 12.3083 33.9974 12.7256C34.0112 12.893 33.9715 13.2716 33.8421 13.3788" fill="#D9E460"/>
<path id="&#237;&#140;&#168;&#236;&#138;&#164; 91988" d="M33.5872 7.30327C33.1775 5.52366 32.2021 3.88337 31.8364 3.31003C31.7941 3.24388 31.7358 3.18946 31.667 3.15179C31.5981 3.11412 31.5208 3.09441 31.4423 3.09448H13.8246C12.9605 3.09451 12.1139 3.338 11.3818 3.79704L6.17525 7.06158L2.69213 8.00544C2.68108 8.00843 2.67002 8.01169 2.65952 8.01523C2.15363 8.18171 1.71339 8.50401 1.40186 8.93598L3.68523 8.88481C3.68523 8.88481 5.42787 8.21303 13.9556 7.93315C15.6494 7.8775 17.4612 7.81864 19.2772 7.75994V8.76609H23.7899V7.61481C28.3772 7.46791 32.3339 7.34284 33.5874 7.30327" fill="black"/>
<path id="&#237;&#140;&#168;&#236;&#138;&#164; 91989" d="M24.8276 13.5691C24.8276 13.0883 24.9702 12.6183 25.2373 12.2186C25.5044 11.8188 25.884 11.5072 26.3282 11.3233C26.7723 11.1393 27.2611 11.0911 27.7326 11.1849C28.2041 11.2786 28.6373 11.5101 28.9772 11.8501C29.3172 12.19 29.5487 12.6231 29.6426 13.0947C29.7364 13.5662 29.6883 14.0549 29.5043 14.4991C29.3204 14.9433 29.0088 15.323 28.6091 15.5901C28.2094 15.8572 27.7394 15.9998 27.2586 15.9998C26.9394 15.9998 26.6233 15.937 26.3284 15.8148C26.0335 15.6927 25.7655 15.5136 25.5398 15.2879C25.3141 15.0621 25.135 14.7942 25.0128 14.4993C24.8907 14.2043 24.8278 13.8882 24.8278 13.569" fill="#484848"/>
<path id="&#237;&#140;&#168;&#236;&#138;&#164; 91990" d="M25.6948 13.5699C25.6948 13.2607 25.7864 12.9584 25.9582 12.7013C26.1299 12.4442 26.374 12.2438 26.6597 12.1254C26.9453 12.0071 27.2596 11.9761 27.5629 12.0363C27.8662 12.0966 28.1447 12.2455 28.3634 12.4641C28.5821 12.6827 28.731 12.9612 28.7913 13.2645C28.8517 13.5677 28.8208 13.8821 28.7025 14.1677C28.5842 14.4534 28.3839 14.6976 28.1268 14.8694C27.8697 15.0412 27.5675 15.1329 27.2583 15.1329C26.8437 15.1329 26.446 14.9682 26.1529 14.6751C25.8597 14.3819 25.695 13.9843 25.695 13.5696" fill="#CACACA"/>
<path id="&#237;&#140;&#168;&#236;&#138;&#164; 91991" d="M26.8804 13.5692C26.8804 13.4946 26.9025 13.4217 26.9439 13.3597C26.9854 13.2977 27.0443 13.2494 27.1132 13.2208C27.1821 13.1923 27.2579 13.1848 27.331 13.1994C27.4042 13.2139 27.4714 13.2498 27.5241 13.3026C27.5768 13.3553 27.6128 13.4225 27.6273 13.4957C27.6419 13.5688 27.6344 13.6446 27.6058 13.7135C27.5773 13.7824 27.529 13.8413 27.467 13.8828C27.4049 13.9242 27.332 13.9463 27.2575 13.9463C27.1575 13.9463 27.0615 13.9066 26.9908 13.8359C26.9201 13.7652 26.8804 13.6692 26.8804 13.5692Z" fill="#484848"/>
<path id="&#237;&#140;&#168;&#236;&#138;&#164; 91992" d="M13.9554 7.93252C15.9484 7.8673 18.1044 7.79711 20.2382 7.72803L20.0371 8.5178L3.68506 8.88422C3.68506 8.88422 5.42764 8.21245 13.9554 7.93252Z" fill="#981616"/>
<path id="&#237;&#140;&#168;&#236;&#138;&#164; 91993" d="M33.7286 8.21127L23.4991 8.44063L23.2007 7.63372C28.0355 7.47897 32.28 7.34467 33.5871 7.30322C33.6449 7.55203 33.6886 7.8039 33.7181 8.05762C33.7236 8.10626 33.7269 8.15711 33.7286 8.21127Z" fill="#981616"/>
<path id="&#236;&#130;&#172;&#234;&#176;&#129;&#237;&#152;&#149; 40539" d="M18.6207 4.39917H16.977C16.8438 4.39917 16.7358 4.50715 16.7358 4.64036V6.28401C16.7358 6.41722 16.8438 6.5252 16.977 6.5252H18.6207C18.7539 6.5252 18.8619 6.41722 18.8619 6.28401V4.64036C18.8619 4.50715 18.7539 4.39917 18.6207 4.39917Z" stroke="#979797" stroke-miterlimit="10"/>
<path id="&#237;&#140;&#168;&#236;&#138;&#164; 91994" d="M7.03158 7.55764C7.00834 7.55882 6.98533 7.55256 6.96588 7.53978C6.94644 7.527 6.93157 7.50836 6.92343 7.48656C6.91529 7.46476 6.9143 7.44094 6.92061 7.41854C6.92691 7.39615 6.94019 7.37634 6.95851 7.36199C7.90718 6.62224 11.0827 4.19561 12.1499 4.01112C13.1119 3.84488 14.1918 3.80547 14.6492 3.79619C14.6784 3.79559 14.7075 3.80082 14.7346 3.81159C14.7618 3.82236 14.7865 3.83845 14.8074 3.85891C14.8282 3.87937 14.8448 3.90379 14.8561 3.93073C14.8673 3.95768 14.8731 3.98661 14.8731 4.01582V5.36435C14.8731 5.85124 14.6859 6.3195 14.3502 6.67219C14.0146 7.02487 13.5561 7.23499 13.0698 7.25903L7.03158 7.55764Z" fill="#484848"/>
<path id="&#237;&#140;&#168;&#236;&#138;&#164; 91995" d="M27.0054 12.2905V12.7185L27.2582 13.0128L27.5111 12.7185V12.2905H27.0054Z" fill="#484848"/>
<path id="&#237;&#140;&#168;&#236;&#138;&#164; 91996" d="M26.0229 13.1483L26.3936 13.3622L26.7749 13.2903L26.6464 12.9242L26.2758 12.7102L26.0229 13.1483Z" fill="#484848"/>
<path id="&#237;&#140;&#168;&#236;&#138;&#164; 91997" d="M26.2765 14.4279L26.6471 14.2139L26.7756 13.8477L26.3942 13.7759L26.0239 13.9898L26.2765 14.4279Z" fill="#484848"/>
<path id="&#237;&#140;&#168;&#236;&#138;&#164; 91998" d="M27.5111 14.8488V14.4208L27.2583 14.1265L27.0054 14.4208V14.8488H27.5111Z" fill="#484848"/>
<path id="&#237;&#140;&#168;&#236;&#138;&#164; 91999" d="M28.4917 13.9899L28.1211 13.7759L27.7397 13.8477L27.8682 14.2139L28.2389 14.4279L28.4917 13.9899Z" fill="#484848"/>
<path id="&#237;&#140;&#168;&#236;&#138;&#164; 92000" d="M28.2389 12.7102L27.8682 12.9241L27.7397 13.2903L28.1211 13.3622L28.4914 13.1483L28.2389 12.7102Z" fill="#484848"/>
<path id="&#237;&#140;&#168;&#236;&#138;&#164; 92001" d="M2.82568 13.5691C2.82567 13.0883 2.96823 12.6183 3.23533 12.2186C3.50242 11.8188 3.88206 11.5072 4.32624 11.3232C4.77041 11.1392 5.25917 11.0911 5.73071 11.1849C6.20225 11.2787 6.63539 11.5102 6.97535 11.8501C7.31532 12.1901 7.54683 12.6232 7.64063 13.0948C7.73443 13.5663 7.6863 14.0551 7.50231 14.4992C7.31833 14.9434 7.00677 15.3231 6.60702 15.5902C6.20727 15.8573 5.73729 15.9998 5.25651 15.9998C4.93729 15.9998 4.6212 15.937 4.32628 15.8148C4.03135 15.6927 3.76338 15.5136 3.53766 15.2879C3.31193 15.0621 3.13288 14.7942 3.01072 14.4993C2.88856 14.2043 2.82568 13.8882 2.82568 13.569" fill="#484848"/>
<path id="&#237;&#140;&#168;&#236;&#138;&#164; 92002" d="M3.69385 13.5699C3.6938 13.2607 3.78545 12.9584 3.9572 12.7013C4.12895 12.4442 4.37309 12.2438 4.65874 12.1254C4.9444 12.0071 5.25873 11.9761 5.56199 12.0364C5.86526 12.0967 6.14383 12.2455 6.36248 12.4641C6.58114 12.6828 6.73005 12.9613 6.79039 13.2646C6.85072 13.5678 6.81978 13.8822 6.70146 14.1678C6.58315 14.4535 6.38278 14.6977 6.12569 14.8695C5.8686 15.0413 5.56634 15.1329 5.25714 15.1329C4.84253 15.1329 4.4449 14.9682 4.15173 14.6751C3.85855 14.3819 3.69385 13.9843 3.69385 13.5696" fill="#CACACA"/>
<path id="&#237;&#140;&#168;&#236;&#138;&#164; 92003" d="M4.88037 13.5692C4.88037 13.4946 4.90249 13.4217 4.94392 13.3597C4.98536 13.2977 5.04425 13.2494 5.11316 13.2208C5.18206 13.1923 5.25788 13.1848 5.33103 13.1994C5.40418 13.2139 5.47137 13.2498 5.5241 13.3026C5.57684 13.3553 5.61276 13.4225 5.62731 13.4957C5.64186 13.5688 5.63439 13.6446 5.60585 13.7135C5.57731 13.7824 5.52897 13.8413 5.46696 13.8828C5.40495 13.9242 5.33204 13.9463 5.25746 13.9463C5.15745 13.9463 5.06154 13.9066 4.99082 13.8359C4.9201 13.7652 4.88037 13.6692 4.88037 13.5692Z" fill="#484848"/>
<path id="&#237;&#140;&#168;&#236;&#138;&#164; 92004" d="M5.00439 12.2905V12.7185L5.25724 13.0128L5.51015 12.7185V12.2905H5.00439Z" fill="#484848"/>
<path id="&#237;&#140;&#168;&#236;&#138;&#164; 92005" d="M4.02295 13.1483L4.39357 13.3622L4.77492 13.2903L4.64642 12.9242L4.2758 12.7102L4.02295 13.1483Z" fill="#484848"/>
<path id="&#237;&#140;&#168;&#236;&#138;&#164; 92006" d="M4.27574 14.4279L4.64637 14.2139L4.77486 13.8477L4.39352 13.7759L4.02295 13.9898L4.27574 14.4279Z" fill="#484848"/>
<path id="&#237;&#140;&#168;&#236;&#138;&#164; 92007" d="M5.51015 14.8488V14.4208L5.2573 14.1265L5.00439 14.4208V14.8488H5.51015Z" fill="#484848"/>
<path id="&#237;&#140;&#168;&#236;&#138;&#164; 92008" d="M6.49172 13.9899L6.12109 13.7759L5.73975 13.8477L5.86824 14.2139L6.23887 14.4279L6.49172 13.9899Z" fill="#484848"/>
<path id="&#237;&#140;&#168;&#236;&#138;&#164; 92009" d="M6.23887 12.7102L5.86824 12.9241L5.73975 13.2903L6.12109 13.3622L6.49166 13.1483L6.23887 12.7102Z" fill="#484848"/>
<path id="&#236;&#130;&#172;&#234;&#176;&#129;&#237;&#152;&#149; 40540" d="M26.5621 8.72656H25.2327C25.1147 8.72656 25.019 8.8222 25.019 8.94017V9.63334C25.019 9.75131 25.1147 9.84695 25.2327 9.84695H26.5621C26.6801 9.84695 26.7757 9.75131 26.7757 9.63334V8.94017C26.7757 8.8222 26.6801 8.72656 26.5621 8.72656Z" stroke="#666666" stroke-miterlimit="10"/>
<path id="&#237;&#140;&#168;&#236;&#138;&#164; 92010" d="M24.5383 6.20947H25.1648L25.1165 6.29431H24.4897L24.5383 6.20947Z" fill="#73101B"/>
<path id="&#237;&#140;&#168;&#236;&#138;&#164; 92011" d="M25.8595 4.98755L25.212 6.12341H24.5854L25.1844 5.07255H24.9326V4.98755H25.8595Z" fill="#73101B"/>
<path id="&#237;&#140;&#168;&#236;&#138;&#164; 92012" d="M25.5185 6.20947H26.1451L26.0968 6.29431H25.4702L25.5185 6.20947Z" fill="#73101B"/>
<path id="&#237;&#140;&#168;&#236;&#138;&#164; 92013" d="M26.8419 4.98755L26.1944 6.12341H25.5679L26.1668 5.07255H25.9151V4.98755H26.8419Z" fill="#73101B"/>
<path id="&#237;&#140;&#168;&#236;&#138;&#164; 92014" d="M28.9314 4.56098C28.8098 4.28464 28.2356 4.27 27.6492 4.52826C27.0628 4.78653 26.6858 5.21988 26.8075 5.49622C26.872 5.64267 27.0636 5.71557 27.3167 5.71336L26.9154 6.13953H27.9445L28.8266 4.98941C28.9419 4.83505 28.9852 4.68273 28.9316 4.56098" fill="#73101B"/>
<path id="&#237;&#140;&#168;&#236;&#138;&#164; 92015" d="M28.3048 4.75432C28.3634 4.88746 28.1731 5.10007 27.8798 5.22923C27.5864 5.35839 27.3012 5.35513 27.2425 5.22199C27.1839 5.08885 27.3742 4.87624 27.6676 4.74713C27.9609 4.61803 28.2461 4.62118 28.3048 4.75432Z" fill="black"/>
<path id="&#237;&#140;&#168;&#236;&#138;&#164; 92016" d="M27.8906 6.20947L27.8423 6.29431H26.7642L26.8494 6.20947H27.8906Z" fill="#73101B"/>
<path id="&#237;&#140;&#168;&#236;&#138;&#164; 92017" d="M0.603027 11.1386C0.603027 11.1386 1.52113 8.83907 3.34181 8.52808L3.50054 8.57925C3.53479 8.59031 3.56566 8.60991 3.59025 8.6362C3.61483 8.66249 3.63232 8.6946 3.64106 8.72952C3.6498 8.76443 3.64951 8.801 3.64021 8.83577C3.63091 8.87054 3.61292 8.90238 3.58791 8.92827L1.77354 10.8068C1.68027 10.9034 1.55891 10.9681 1.42673 10.9916L0.603027 11.1386Z" fill="#B0B0B0"/>
<path id="&#237;&#140;&#168;&#236;&#138;&#164; 92018" d="M0.603027 11.1386C0.603027 11.1386 1.52113 8.83907 3.34181 8.52808L3.50054 8.57925C3.53479 8.59031 3.56566 8.60991 3.59025 8.6362C3.61483 8.66249 3.63232 8.6946 3.64106 8.72952C3.6498 8.76443 3.64951 8.801 3.64021 8.83577C3.63091 8.87054 3.61292 8.90238 3.58791 8.92827L1.77354 10.8068C1.68027 10.9034 1.55891 10.9681 1.42673 10.9916L0.603027 11.1386Z" stroke="#F1F1F1" stroke-miterlimit="10"/>
<path id="&#237;&#140;&#168;&#236;&#138;&#164; 92019" d="M0.788474 13.2749H0.214355V12.7798H1.11135V12.952C1.11135 13.0376 1.07733 13.1198 1.01678 13.1803C0.956229 13.2409 0.874105 13.2749 0.788474 13.2749Z" fill="#CACACA"/>
<path id="&#237;&#140;&#168;&#236;&#138;&#164; 92020" d="M0.788474 13.2749H0.214355V12.7798H1.11135V12.952C1.11135 13.0376 1.07733 13.1198 1.01678 13.1803C0.956229 13.2409 0.874105 13.2749 0.788474 13.2749Z" stroke="#B0B0B0" stroke-miterlimit="10"/>
<path id="&#237;&#140;&#168;&#236;&#138;&#164; 92021" d="M7.88556 8.72656C7.88556 8.72656 7.59508 10.6854 8.05137 11.6191C8.50765 12.5528 8.71253 12.2741 8.71253 13.6727L23.1999 13.5693C23.6771 12.5724 23.7577 8.87103 23.7577 8.87103" stroke="#666666" stroke-miterlimit="10"/>
<path id="&#236;&#130;&#172;&#234;&#176;&#129;&#237;&#152;&#149; 40541" d="M14.4833 8.30615H13.3784V9.04077H14.4833V8.30615Z" stroke="#666666" stroke-miterlimit="10"/>
<path id="&#237;&#140;&#168;&#236;&#138;&#164; 92022" d="M32.9743 7.03066C32.9432 7.00466 32.9064 6.9863 32.8668 6.97706C32.8273 6.96781 32.7862 6.96794 32.7467 6.97742C32.7073 6.9869 32.6706 7.00548 32.6396 7.03167C32.6086 7.05786 32.5841 7.09094 32.5682 7.12826C32.4129 7.48827 32.1408 8.192 32.1297 8.72676C32.116 9.3866 32.5236 10.2375 32.9713 10.5384C32.9906 10.5516 33.013 10.5596 33.0362 10.5618C33.0594 10.564 33.0829 10.5603 33.1043 10.5509C33.1257 10.5416 33.1444 10.527 33.1586 10.5085C33.1729 10.49 33.1822 10.4682 33.1857 10.4451C33.26 9.95636 33.4442 8.62424 33.3435 8.04543C33.2534 7.52713 33.1795 7.20459 32.9743 7.03066Z" fill="#73101B"/>
<path id="&#237;&#140;&#168;&#236;&#138;&#164; 92023" d="M8.0415 8.88451L15.9619 8.73584V8.89225L8.0415 9.04092V8.88451Z" fill="#981616"/>
<path id="&#237;&#140;&#168;&#236;&#138;&#164; 92024" d="M19.2758 8.67334V8.82975L17.0972 8.87065V8.71424L19.2758 8.67334Z" fill="#981616"/>
<path id="&#237;&#140;&#168;&#236;&#138;&#164; 92025" d="M15.5625 3.15869C15.5625 3.15869 15.1296 11.5753 15.3561 13.6251" stroke="#666666" stroke-miterlimit="10"/>
<path id="&#237;&#140;&#168;&#236;&#138;&#164; 92026" d="M30.3761 7.12702H16.5016C16.3213 7.12702 16.1484 7.0554 16.0209 6.92791C15.8934 6.80043 15.8218 6.62752 15.8218 6.44723V4.47667C15.8218 4.29637 15.8934 4.12347 16.0209 3.99598C16.1484 3.8685 16.3213 3.79688 16.5016 3.79688H30.3644C30.4838 3.79687 30.6004 3.83309 30.6988 3.90077C30.7972 3.96844 30.8728 4.06438 30.9155 4.1759C30.9155 4.1759 31.5185 4.87603 31.5176 5.74743C31.5176 5.99166 31.2158 6.46624 31.0024 6.79011C30.9341 6.89373 30.8411 6.97875 30.7318 7.03756C30.6224 7.09636 30.5002 7.1271 30.3761 7.12702Z" stroke="#979797" stroke-miterlimit="10"/>
<path id="&#237;&#140;&#168;&#236;&#138;&#164; 92027" d="M23.6694 3.79688C23.6694 3.79688 23.8004 6.63762 23.7576 7.12718" stroke="#666666" stroke-miterlimit="10"/>
<path id="&#237;&#140;&#168;&#236;&#138;&#164; 92028" d="M19.269 8.67581C19.5209 8.696 19.7742 8.68892 20.0245 8.6547C20.1355 8.64547 20.1792 8.56158 20.2272 8.46618C20.3226 8.26766 20.3653 8.06008 20.4579 7.85448C20.4795 7.80159 20.55 7.70526 20.6171 7.76561C20.6275 7.77672 20.6353 7.78991 20.6401 7.8043C20.6612 7.89729 20.671 7.99252 20.6692 8.08788L20.677 8.52355C20.6825 8.65658 20.6896 9.3771 20.9036 9.28387C20.968 9.21799 20.9838 9.10806 21.0041 9.01521C21.0275 8.87395 21.0429 8.73148 21.0503 8.58849C21.0957 7.71863 21.0508 6.84856 21.0742 5.97566C21.0964 5.59951 21.0776 4.66975 21.3847 4.43762C21.4324 4.40391 21.4914 4.39039 21.549 4.39999C21.6066 4.4096 21.658 4.44155 21.6922 4.48891C21.8681 4.75248 21.8797 5.07132 21.9263 5.37131C21.96 5.66324 21.9802 5.95455 21.997 6.24565C22.0665 7.40273 22.0526 8.57064 22.1687 9.72042C22.2052 9.98333 22.224 10.2772 22.3492 10.5095C22.3548 10.5179 22.3611 10.5258 22.3681 10.5331C22.371 10.5359 22.3741 10.5384 22.3775 10.5405C22.3775 10.54 22.3768 10.5402 22.3757 10.5397C22.3795 10.5404 22.3834 10.5409 22.3873 10.5411C22.3955 10.5419 22.4038 10.5415 22.4119 10.54C22.5397 10.4971 22.5632 10.2171 22.5819 10.0928C22.6385 9.52351 22.5911 8.93723 22.6189 8.35924C22.6224 8.20758 22.6425 8.05676 22.6791 7.90953C22.7285 7.6936 22.936 7.54952 23.1074 7.75329C23.2532 7.93633 23.322 8.15121 23.3977 8.36631C23.4053 8.39463 23.4177 8.42142 23.4344 8.44551C23.4618 8.47988 23.498 8.50615 23.5392 8.5215C23.5803 8.53684 23.6249 8.54069 23.6681 8.53261L23.8859 8.52841C26.6427 8.47409 29.4084 8.42617 32.1642 8.36046L32.1656 8.41572C29.41 8.48674 26.6451 8.576 23.8891 8.6584C23.8422 8.65934 23.6574 8.66581 23.6169 8.66669C23.5384 8.6687 23.4616 8.64457 23.3983 8.59809C23.3351 8.55162 23.2891 8.48544 23.2676 8.40998C23.2189 8.27435 22.9476 7.48402 22.8274 7.95092C22.7424 8.36543 22.8015 8.80519 22.8135 9.23092C22.8256 9.59569 22.8533 9.97537 22.7833 10.3449C22.747 10.5645 22.5989 10.8329 22.3296 10.7776C22.006 10.7034 21.9765 10.0156 21.9366 9.74557C21.8302 8.58092 21.8482 7.41942 21.7973 6.25592C21.7742 5.92051 21.754 4.74541 21.5209 4.56911C21.2633 4.60945 21.2376 5.73525 21.2225 5.9808C21.1998 6.55918 21.202 7.14026 21.192 7.72173C21.1716 8.00359 21.2202 9.37318 20.8919 9.39479C20.449 9.4232 20.6429 8.12364 20.5611 7.83265C20.5541 7.81557 20.5575 7.82934 20.5711 7.83017C20.5722 7.83045 20.5733 7.83045 20.5744 7.83017C20.567 7.83527 20.5607 7.84188 20.5559 7.84956C20.4443 8.04814 20.4018 8.2917 20.2953 8.49945C20.2641 8.57237 20.2159 8.63679 20.1548 8.68736C20.0838 8.72124 20.0067 8.74051 19.9282 8.74401C19.7095 8.77165 19.4926 8.78966 19.2738 8.82139L19.2694 8.67614" fill="#981616"/>
<path id="&#237;&#140;&#168;&#236;&#138;&#164; 92029" d="M13.8222 2.52588C13.8222 2.52588 11.2622 2.67107 10.3677 3.09375L11.9614 3.44249L13.8222 2.52588Z" fill="#979797"/>
<path id="&#237;&#140;&#168;&#236;&#138;&#164; 92030" d="M24.3828 7.68213C24.416 7.76962 24.4498 7.85578 24.4836 7.94128C24.5174 8.02678 24.5505 8.11366 24.5844 8.19982H24.5334C24.5227 8.17263 24.5128 8.14544 24.5029 8.11764C24.4923 8.09111 24.4817 8.06325 24.471 8.0354H24.246C24.2354 8.06303 24.2254 8.09111 24.2149 8.11764C24.2043 8.14527 24.1937 8.17263 24.1837 8.19982H24.1333C24.1672 8.11368 24.201 8.0275 24.2347 7.94128C24.2679 7.85578 24.3017 7.76962 24.3355 7.68213H24.3828ZM24.4547 7.99367C24.4388 7.95255 24.4229 7.91215 24.407 7.87103C24.3911 7.82991 24.3745 7.78951 24.3586 7.74773C24.3427 7.78951 24.3268 7.83063 24.3115 7.87103C24.2963 7.91143 24.2797 7.95255 24.2638 7.99367H24.4547Z" fill="black"/>
<path id="&#237;&#140;&#168;&#236;&#138;&#164; 92031" d="M25.0987 7.68213L25.122 8.20048H25.0742L25.0596 7.78156L24.8873 8.11565L24.7136 7.78089L24.6996 8.20048H24.6519L24.6751 7.68213H24.7056L24.8872 8.02352L25.0668 7.68213H25.0987Z" fill="black"/>
<path id="&#237;&#140;&#168;&#236;&#138;&#164; 92032" d="M25.4793 7.92807C25.4949 7.93183 25.5095 7.93859 25.5224 7.94797C25.534 7.95688 25.5441 7.96763 25.5522 7.9798C25.5596 7.9916 25.5654 8.00429 25.5695 8.01755C25.5728 8.03034 25.5747 8.04347 25.5751 8.05668C25.5752 8.07557 25.5714 8.09429 25.564 8.11167C25.5488 8.14577 25.5214 8.17295 25.4871 8.18788C25.4694 8.19584 25.4502 8.19993 25.4308 8.19988H25.1948V7.68213H25.4169C25.4351 7.68234 25.453 7.68594 25.4699 7.69274C25.4857 7.69979 25.5003 7.70943 25.5129 7.72126C25.5248 7.7341 25.5346 7.74863 25.5422 7.76437C25.549 7.78097 25.5526 7.79874 25.5527 7.81671C25.5524 7.82818 25.5506 7.83955 25.5472 7.85053C25.5437 7.86295 25.5388 7.87496 25.5327 7.88634C25.5266 7.89726 25.5187 7.9071 25.5095 7.91547C25.5014 7.92315 25.4908 7.92763 25.4796 7.92807M25.2416 7.72391V7.91149H25.4147C25.4268 7.91149 25.4389 7.90877 25.4498 7.90353C25.4608 7.89878 25.4708 7.8918 25.479 7.88303C25.4872 7.87403 25.4939 7.86372 25.4988 7.85252C25.5037 7.84122 25.5062 7.82902 25.5061 7.81671C25.506 7.80406 25.5038 7.79153 25.4995 7.77962C25.4905 7.75778 25.4734 7.74022 25.4518 7.73054C25.4406 7.72637 25.4287 7.72412 25.4167 7.72391H25.2416ZM25.4306 8.15876C25.4437 8.1589 25.4567 8.15594 25.4684 8.15013C25.4801 8.14478 25.4906 8.13728 25.4995 8.12803C25.5084 8.11852 25.5156 8.10752 25.5207 8.09553C25.5256 8.08307 25.528 8.06982 25.528 8.05646C25.5278 8.04359 25.5255 8.03084 25.5214 8.01865C25.5169 8.00686 25.5109 7.99571 25.5035 7.98549C25.4957 7.97618 25.4865 7.96812 25.4763 7.96162C25.4654 7.9562 25.4534 7.95325 25.4412 7.95299H25.2411V8.15848L25.4306 8.15876Z" fill="black"/>
<path id="&#237;&#140;&#168;&#236;&#138;&#164; 92033" d="M26.011 7.68213V8.03811C26.0113 8.06259 26.0061 8.08683 25.9958 8.10902C25.9859 8.12916 25.9721 8.14718 25.9553 8.16207C25.9379 8.17676 25.9179 8.18801 25.8964 8.19523C25.874 8.20316 25.8504 8.2072 25.8267 8.20717C25.8035 8.20755 25.7804 8.2038 25.7585 8.19612C25.7366 8.1891 25.7163 8.17783 25.6988 8.16296C25.6813 8.14866 25.6672 8.13053 25.6577 8.10996C25.6465 8.08778 25.6408 8.06323 25.6411 8.03838V7.68241H25.6882V8.03838C25.6878 8.05557 25.6914 8.07261 25.6988 8.08812C25.7054 8.10343 25.7156 8.11688 25.7287 8.12725C25.741 8.13932 25.756 8.14838 25.7724 8.15373C25.7897 8.16029 25.8082 8.16344 25.8267 8.16301C25.845 8.16328 25.8633 8.16013 25.8804 8.15373C25.9124 8.14222 25.9385 8.11867 25.9533 8.08812C25.9604 8.0725 25.964 8.05553 25.9639 8.03838V7.68241L26.011 7.68213Z" fill="black"/>
<path id="&#237;&#140;&#168;&#236;&#138;&#164; 92034" d="M26.4207 8.19982H26.0952V7.68213H26.1423V8.1587H26.4207V8.19982Z" fill="black"/>
<path id="&#237;&#140;&#168;&#236;&#138;&#164; 92035" d="M26.7331 7.68213C26.7663 7.76962 26.8001 7.85578 26.8339 7.94128C26.8677 8.02678 26.9008 8.11366 26.9347 8.19982H26.8836C26.873 8.17263 26.8631 8.14544 26.8531 8.11764C26.8425 8.09111 26.8319 8.06325 26.8213 8.0354H26.5966C26.586 8.06303 26.576 8.09111 26.5655 8.11764C26.5548 8.14527 26.5442 8.17263 26.5343 8.19982H26.4839C26.5177 8.11368 26.5516 8.0275 26.5853 7.94128C26.6185 7.85578 26.6523 7.76962 26.6861 7.68213H26.7331ZM26.805 7.99367C26.7891 7.95255 26.7732 7.91215 26.7573 7.87103C26.7414 7.82991 26.7248 7.78951 26.7089 7.74773C26.693 7.78951 26.6771 7.83063 26.6618 7.87103C26.6466 7.91143 26.63 7.95255 26.6141 7.99367H26.805Z" fill="black"/>
<path id="&#237;&#140;&#168;&#236;&#138;&#164; 92036" d="M27.3442 8.19982C27.2944 8.12886 27.2454 8.05795 27.1963 7.98704C27.1473 7.91613 27.0976 7.84583 27.0485 7.77426V8.19982H27.0015V7.68213H27.0402C27.0892 7.75398 27.1389 7.82533 27.1879 7.89557C27.2364 7.96742 27.2854 8.03805 27.3351 8.10968V7.68213H27.3822V8.19982H27.3442Z" fill="black"/>
<path id="&#237;&#140;&#168;&#236;&#138;&#164; 92037" d="M27.8766 8.13535C27.8547 8.157 27.8291 8.17453 27.801 8.18708C27.7712 8.20102 27.7385 8.20805 27.7055 8.20764C27.6721 8.20781 27.639 8.20079 27.6085 8.18706C27.578 8.17333 27.5507 8.1532 27.5287 8.12805C27.507 8.10344 27.4904 8.07485 27.4797 8.04388C27.4679 8.01184 27.462 7.97792 27.4624 7.94379C27.4622 7.90992 27.4678 7.87627 27.479 7.84431C27.4889 7.8134 27.5049 7.78479 27.526 7.76013C27.5473 7.73557 27.5735 7.71571 27.603 7.70183C27.635 7.68669 27.6702 7.67912 27.7057 7.67972C27.7373 7.67966 27.7687 7.68598 27.7978 7.69829C27.8271 7.71153 27.8541 7.72918 27.878 7.75063L27.8462 7.78379C27.8274 7.76518 27.8057 7.74974 27.7819 7.73808C27.7579 7.72731 27.732 7.72167 27.7057 7.7215C27.6786 7.72132 27.6519 7.72721 27.6274 7.73875C27.6035 7.74997 27.5821 7.766 27.5646 7.78583C27.5464 7.80661 27.5324 7.83068 27.5234 7.85674C27.513 7.88449 27.5078 7.91393 27.5082 7.94357C27.5078 7.97317 27.5127 8.0026 27.5228 8.03045C27.5316 8.05625 27.5453 8.08011 27.5632 8.10069C27.5806 8.12138 27.6025 8.13793 27.6271 8.14916C27.6518 8.16039 27.6786 8.16601 27.7057 8.16563C27.732 8.16577 27.758 8.16011 27.7819 8.14905C27.8058 8.1383 27.8274 8.123 27.8455 8.10401L27.8766 8.13535Z" fill="black"/>
<path id="&#237;&#140;&#168;&#236;&#138;&#164; 92038" d="M28.2984 7.72325H28.0036V7.91945H28.2767V7.96051H28.0036V8.15876H28.2985V8.20048H27.9565V7.68213H28.2985L28.2984 7.72325Z" fill="black"/>
<path id="&#237;&#140;&#168;&#236;&#138;&#164; 92039" d="M18.3267 1.62488C18.3267 1.62488 19.7581 1.06475 21.8331 1.2515L21.5219 1.62488H18.3267Z" fill="#DA0000"/>
</g>
</g>
</g>
</svg>
