<svg width="15" height="14" viewBox="0 0 15 14" fill="none" xmlns="http://www.w3.org/2000/svg">
<mask id="mask0_145_2144" style="mask-type:luminance" maskUnits="userSpaceOnUse" x="0" y="0" width="15" height="14">
<path d="M14.4141 0H0.414062V14H14.4141V0Z" fill="white"/>
</mask>
<g mask="url(#mask0_145_2144)">
<path d="M9.84766 11.6638C9.85074 11.7291 9.87959 11.7905 9.92787 11.8346C9.97615 11.8787 10.0399 11.9018 10.1053 11.899C10.1633 11.8994 10.2201 11.8818 10.2677 11.8486L11.5025 10.9722L12.8983 9.97819C12.9234 9.96172 12.9448 9.94028 12.9614 9.91519C12.9779 9.89009 12.989 9.86189 12.9942 9.8323C12.9994 9.80272 12.9985 9.77239 12.9915 9.74318C12.9845 9.71398 12.9716 9.68651 12.9536 9.66249L12.9431 9.64919C12.9297 9.63404 12.9146 9.62042 12.8983 9.60859L11.5032 8.62509L10.2677 7.74869C10.2123 7.71053 10.1451 7.69356 10.0782 7.70089C10.0114 7.70821 9.94943 7.73934 9.90366 7.78859C9.86793 7.82871 9.84802 7.88046 9.84766 7.93419" fill="white"/>
<path d="M4.56016 2.09961H3.16016V9.44121C3.16053 9.7218 3.27216 9.99079 3.47056 10.1892C3.66897 10.3876 3.93796 10.4992 4.21856 10.4996H11.5602V9.09961H4.56016V2.09961Z" fill="white"/>
</g>
</svg>
