<svg width="21" height="20" viewBox="0 0 21 20" fill="none" xmlns="http://www.w3.org/2000/svg">
<g id="arrow_diagonal_left_up_20">
<path id="Union" d="M16.2474 9.0983C16.1984 9.07919 16.1536 9.05061 16.1157 9.0142L14.624 7.52082L5.26968 16.8752L3.85547 15.4609L13.2106 6.1058L11.7227 4.6162C11.6607 4.55302 11.6226 4.47033 11.6147 4.3822C11.6059 4.27471 11.6383 4.1679 11.7053 4.08341C11.7724 3.99892 11.869 3.94308 11.9757 3.9272L14.3957 3.5732L17.1207 3.1672C17.1539 3.16302 17.1875 3.16302 17.2207 3.1672H17.2477C17.2967 3.17533 17.3436 3.19303 17.3857 3.21929C17.4279 3.24555 17.4644 3.27986 17.4933 3.32026C17.5222 3.36066 17.5428 3.40635 17.5541 3.45473C17.5653 3.5031 17.5669 3.55321 17.5587 3.6022L17.1587 6.3412L16.8017 8.7652C16.7878 8.85493 16.7458 8.93793 16.6817 9.0022C16.6453 9.04019 16.6019 9.07064 16.5537 9.0918C16.5056 9.11297 16.4538 9.12444 16.4012 9.12555C16.3486 9.12667 16.2963 9.11741 16.2474 9.0983Z" fill="white"/>
</g>
</svg>
