<svg width="21" height="20" viewBox="0 0 21 20" fill="none" xmlns="http://www.w3.org/2000/svg">
<g id="diagonal_left_up_20">
<path id="Union" d="M4.75879 9.0933C4.80778 9.07419 4.85252 9.04561 4.89045 9.0092L6.38163 7.51835L15.7344 16.8711L17.1486 15.4569L7.79601 6.1043L9.28745 4.6132C9.3494 4.55002 9.38756 4.46733 9.39545 4.3792C9.40342 4.27205 9.37051 4.16587 9.30334 4.082C9.23618 3.99814 9.13975 3.94283 9.03345 3.9272L6.61345 3.5732L3.88845 3.1672C3.85525 3.16302 3.82165 3.16302 3.78845 3.1672H3.76145C3.71246 3.17533 3.66555 3.19303 3.6234 3.21929C3.58126 3.24555 3.5447 3.27986 3.51582 3.32026C3.48694 3.36066 3.4663 3.40635 3.45508 3.45473C3.44386 3.5031 3.44229 3.55321 3.45045 3.6022L4.20445 8.7602C4.2183 8.84993 4.26032 8.93293 4.32445 8.9972C4.3608 9.03519 4.40429 9.06564 4.45242 9.0868C4.50056 9.10797 4.55239 9.11944 4.60496 9.12055C4.65753 9.12167 4.7098 9.11241 4.75879 9.0933Z" fill="white"/>
</g>
</svg>
