<svg width="20" height="20" viewBox="0 0 20 20" fill="none" xmlns="http://www.w3.org/2000/svg">
<g id="arrow_go_20">
<path id="Union" fill-rule="evenodd" clip-rule="evenodd" d="M13.2574 6.96636C13.2094 6.98755 13.1576 6.99906 13.105 7.00023H11.0005V18.1641H8.99875V7.00023H6.88803C6.79943 6.99984 6.71377 6.96834 6.64603 6.91123C6.56393 6.84137 6.51137 6.74299 6.49894 6.63592C6.4865 6.52884 6.51513 6.42104 6.57903 6.33423L8.04003 4.37223L9.68003 2.15823C9.69973 2.13221 9.7222 2.1084 9.74703 2.08723L9.76903 2.07023C9.8506 2.01207 9.95193 1.98866 10.0507 2.00516C10.1496 2.02166 10.2378 2.07672 10.296 2.15823L11.952 4.37323L13.413 6.33823C13.467 6.41153 13.4961 6.50019 13.496 6.59123C13.4972 6.64376 13.4881 6.69601 13.4691 6.745C13.45 6.79399 13.4216 6.83876 13.3853 6.87674C13.349 6.91472 13.3055 6.94517 13.2574 6.96636Z" fill="white"/>
</g>
</svg>
