<svg width="20" height="20" viewBox="0 0 20 20" fill="none" xmlns="http://www.w3.org/2000/svg">
<g id="arrow_down_20">
<path id="Union" d="M6.73479 13.0336C6.78288 13.0124 6.83466 13.0009 6.8872 12.9998H8.99614V1.83594H10.9961V12.9998H13.1042C13.1928 13.0002 13.2785 13.0317 13.3462 13.0888C13.4283 13.1586 13.4809 13.257 13.4933 13.3641C13.5057 13.4712 13.4771 13.579 13.4132 13.6658L11.9522 15.6278L10.3122 17.8418C10.2925 17.8678 10.27 17.8916 10.2452 17.9128L10.2232 17.9298C10.1416 17.9879 10.0403 18.0113 9.94148 17.9948C9.84267 17.9783 9.75444 17.9233 9.6962 17.8418L8.0402 15.6268L6.5792 13.6618C6.52521 13.5885 6.49612 13.4998 6.4962 13.4088C6.495 13.3562 6.50417 13.304 6.52317 13.255C6.54218 13.206 6.57065 13.1612 6.60696 13.1233C6.64327 13.0853 6.68671 13.0548 6.73479 13.0336Z" fill="white"/>
</g>
</svg>
