<svg width="48" height="48" viewBox="0 0 48 48" fill="none" xmlns="http://www.w3.org/2000/svg">
<path d="M24 8C15.1634 8 8 15.1634 8 24C8 32.8366 15.1634 40 24 40C32.8366 40 40 32.8366 40 24C40 15.1634 32.8366 8 24 8Z" fill="#0068E6"/>
<path d="M8.5 24C8.5 15.4396 15.4396 8.5 24 8.5C32.5604 8.5 39.5 15.4396 39.5 24C39.5 32.5604 32.5604 39.5 24 39.5C15.4396 39.5 8.5 32.5604 8.5 24Z" stroke="black" stroke-opacity="0.3"/>
<path d="M32 19H27V17H29C29.1326 17 29.2598 16.9473 29.3536 16.8536C29.4473 16.7598 29.5 16.6326 29.5 16.5C29.5 16.3674 29.4473 16.2402 29.3536 16.1464C29.2598 16.0527 29.1326 16 29 16H19C18.8674 16 18.7402 16.0527 18.6464 16.1464C18.5527 16.2402 18.5 16.3674 18.5 16.5C18.5 16.6326 18.5527 16.7598 18.6464 16.8536C18.7402 16.9473 18.8674 17 19 17H21V19H16C15.7348 19 15.4804 19.1054 15.2929 19.2929C15.1054 19.4804 15 19.7348 15 20V30C15 30.2652 15.1054 30.5196 15.2929 30.7071C15.4804 30.8946 15.7348 31 16 31H32C32.2652 31 32.5196 30.8946 32.7071 30.7071C32.8946 30.5196 33 30.2652 33 30V20C33 19.7348 32.8946 19.4804 32.7071 19.2929C32.5196 19.1054 32.2652 19 32 19ZM22 17H26V19H22V17ZM32 29.5C32 29.6326 31.9473 29.7598 31.8536 29.8536C31.7598 29.9473 31.6326 30 31.5 30H16.5C16.3674 30 16.2402 29.9473 16.1464 29.8536C16.0527 29.7598 16 29.6326 16 29.5V20.5C16 20.3674 16.0527 20.2402 16.1464 20.1464C16.2402 20.0527 16.3674 20 16.5 20H31.5C31.6326 20 31.7598 20.0527 31.8536 20.1464C31.9473 20.2402 32 20.3674 32 20.5V29.5Z" fill="white"/>
<path d="M21.3104 24.4735C21.3645 24.4243 21.4067 24.3634 21.4339 24.2955C21.4611 24.2276 21.4726 24.1545 21.4674 24.0815C21.4749 24.0018 21.4635 23.9214 21.4339 23.847C21.4044 23.7726 21.3576 23.7063 21.2974 23.6535C21.1322 23.5528 20.9393 23.5069 20.7464 23.5225H20.1914V24.6095H20.7814C20.968 24.6244 21.1541 24.5765 21.3104 24.4735Z" fill="white"/>
<path d="M30.5 21H17.5C17.3674 21 17.2402 21.0527 17.1464 21.1464C17.0527 21.2402 17 21.3674 17 21.5V28.5C17 28.6326 17.0527 28.7598 17.1464 28.8536C17.2402 28.9473 17.3674 29 17.5 29H30.5C30.6326 29 30.7598 28.9473 30.8536 28.8536C30.9473 28.7598 31 28.6326 31 28.5V21.5C31 21.3674 30.9473 21.2402 30.8536 21.1464C30.7598 21.0527 30.6326 21 30.5 21ZM22.259 26.994C21.8769 27.2528 21.4195 27.3769 20.959 27.347H19.059V22.653H20.745C21.2274 22.6211 21.708 22.7369 22.123 22.985C22.3575 23.1674 22.5178 23.4288 22.5739 23.7206C22.63 24.0124 22.5781 24.3146 22.428 24.571C22.3095 24.7482 22.1364 24.882 21.935 24.952C22.1595 25.0025 22.3591 25.1303 22.499 25.313C22.6349 25.5001 22.7052 25.7268 22.699 25.958C22.7129 26.1528 22.6807 26.3481 22.6049 26.5281C22.5291 26.7082 22.412 26.8678 22.263 26.994M24.527 27.347H23.394V22.653H24.523L24.527 27.347ZM29.172 23.527H27.759V27.347H26.627V23.527H25.244V22.653H29.168L29.172 23.527Z" fill="white"/>
<path d="M20.9844 25.3493H20.1914V26.4753H20.9324C21.1013 26.4868 21.2686 26.4367 21.4034 26.3343C21.4598 26.2848 21.5039 26.2229 21.5326 26.1536C21.5612 26.0842 21.5734 26.0092 21.5684 25.9343C21.5797 25.8547 21.5725 25.7736 21.5473 25.6973C21.522 25.6209 21.4795 25.5515 21.4229 25.4943C21.3663 25.4372 21.2973 25.3939 21.2212 25.3679C21.1452 25.3419 21.0641 25.3338 20.9844 25.3443" fill="white"/>
</svg>
