<svg width="280" height="105" viewBox="0 0 280 105" fill="none" xmlns="http://www.w3.org/2000/svg">
<path d="M6.88953 11H1.47753V10.296L4.26053 7.623C4.4732 7.39567 4.66753 7.183 4.84353 6.985C5.02686 6.77967 5.18086 6.57433 5.30553 6.369C5.43753 6.16367 5.5402 5.95833 5.61353 5.753C5.68686 5.54033 5.72353 5.31667 5.72353 5.082C5.70886 4.598 5.5622 4.24233 5.28353 4.015C5.00486 3.78033 4.65653 3.663 4.23853 3.663C4.0112 3.663 3.79853 3.70333 3.60053 3.784C3.40253 3.85733 3.2302 3.96733 3.08353 4.114C2.9442 4.25333 2.8342 4.41833 2.75353 4.609C2.67286 4.79967 2.63253 5.01233 2.63253 5.247L1.64253 5.082C1.69386 4.708 1.79653 4.38167 1.95053 4.103C2.10453 3.817 2.2952 3.57867 2.52253 3.388C2.7572 3.19 3.02486 3.04333 3.32553 2.948C3.6262 2.84533 3.94886 2.794 4.29353 2.794C4.6382 2.794 4.9572 2.84533 5.25053 2.948C5.5512 3.05067 5.81153 3.201 6.03153 3.399C6.25153 3.58967 6.42386 3.82433 6.54853 4.103C6.6732 4.38167 6.73553 4.70067 6.73553 5.06C6.73553 5.36067 6.69153 5.63933 6.60353 5.896C6.51553 6.15267 6.39453 6.402 6.24053 6.644C6.08653 6.87867 5.90686 7.10967 5.70153 7.337C5.4962 7.557 5.27986 7.78067 5.05253 8.008L2.79753 10.241C2.95153 10.197 3.10553 10.164 3.25953 10.142C3.42086 10.12 3.5712 10.109 3.71053 10.109H6.88953V11ZM9.54827 5.94C9.9076 5.84467 10.2926 5.797 10.7033 5.797C11.1286 5.797 11.5026 5.85933 11.8253 5.984C12.1553 6.10867 12.4303 6.281 12.6503 6.501C12.8703 6.721 13.0353 6.98133 13.1453 7.282C13.2626 7.58267 13.3213 7.909 13.3213 8.261C13.3213 8.68633 13.2443 9.075 13.0903 9.427C12.9436 9.779 12.7383 10.0797 12.4743 10.329C12.2103 10.571 11.8986 10.7617 11.5393 10.901C11.1873 11.033 10.8059 11.099 10.3953 11.099C9.91127 11.099 9.47127 11.0147 9.07527 10.846C8.6866 10.67 8.3676 10.4647 8.11827 10.23L8.65727 9.493C8.89927 9.69833 9.17427 9.867 9.48227 9.999C9.79027 10.131 10.1093 10.197 10.4393 10.197C10.7179 10.197 10.9746 10.1567 11.2093 10.076C11.4439 9.988 11.6456 9.86333 11.8143 9.702C11.9829 9.54067 12.1149 9.34267 12.2103 9.108C12.3056 8.87333 12.3533 8.60933 12.3533 8.316C12.3533 7.788 12.1919 7.37733 11.8693 7.084C11.5466 6.79067 11.0956 6.644 10.5163 6.644C10.3036 6.644 10.0873 6.66967 9.86727 6.721C9.6546 6.765 9.43093 6.82733 9.19627 6.908L8.54727 6.721L9.20727 2.904H13.0683V3.828H9.91127L9.54827 5.94Z" fill="white" fill-opacity="0.6"/>
<path d="M6.88953 25.8008H1.47753V25.0968L4.26053 22.4238C4.4732 22.1964 4.66753 21.9838 4.84353 21.7858C5.02686 21.5804 5.18086 21.3751 5.30553 21.1698C5.43753 20.9644 5.5402 20.7591 5.61353 20.5538C5.68686 20.3411 5.72353 20.1174 5.72353 19.8828C5.70886 19.3988 5.5622 19.0431 5.28353 18.8158C5.00486 18.5811 4.65653 18.4638 4.23853 18.4638C4.0112 18.4638 3.79853 18.5041 3.60053 18.5848C3.40253 18.6581 3.2302 18.7681 3.08353 18.9148C2.9442 19.0541 2.8342 19.2191 2.75353 19.4098C2.67286 19.6004 2.63253 19.8131 2.63253 20.0478L1.64253 19.8828C1.69386 19.5088 1.79653 19.1824 1.95053 18.9038C2.10453 18.6178 2.2952 18.3794 2.52253 18.1888C2.7572 17.9908 3.02486 17.8441 3.32553 17.7488C3.6262 17.6461 3.94886 17.5948 4.29353 17.5948C4.6382 17.5948 4.9572 17.6461 5.25053 17.7488C5.5512 17.8514 5.81153 18.0018 6.03153 18.1998C6.25153 18.3904 6.42386 18.6251 6.54853 18.9038C6.6732 19.1824 6.73553 19.5014 6.73553 19.8608C6.73553 20.1614 6.69153 20.4401 6.60353 20.6968C6.51553 20.9534 6.39453 21.2028 6.24053 21.4448C6.08653 21.6794 5.90686 21.9104 5.70153 22.1378C5.4962 22.3578 5.27986 22.5814 5.05253 22.8088L2.79753 25.0418C2.95153 24.9978 3.10553 24.9648 3.25953 24.9428C3.42086 24.9208 3.5712 24.9098 3.71053 24.9098H6.88953V25.8008ZM13.7063 21.7858C13.7063 22.4971 13.6293 23.1168 13.4753 23.6448C13.3213 24.1654 13.1123 24.5981 12.8483 24.9428C12.5843 25.2874 12.2726 25.5441 11.9133 25.7128C11.5539 25.8741 11.1653 25.9548 10.7473 25.9548C10.3293 25.9548 9.9406 25.8741 9.58127 25.7128C9.22193 25.5441 8.9066 25.2874 8.63527 24.9428C8.37127 24.5981 8.16227 24.1654 8.00827 23.6448C7.8616 23.1168 7.78827 22.4971 7.78827 21.7858C7.78827 21.0671 7.8616 20.4474 8.00827 19.9268C8.16227 19.3988 8.37127 18.9624 8.63527 18.6178C8.9066 18.2731 9.22193 18.0201 9.58127 17.8588C9.9406 17.6901 10.3293 17.6058 10.7473 17.6058C11.1653 17.6058 11.5539 17.6901 11.9133 17.8588C12.2726 18.0201 12.5843 18.2731 12.8483 18.6178C13.1123 18.9624 13.3213 19.3988 13.4753 19.9268C13.6293 20.4474 13.7063 21.0671 13.7063 21.7858ZM12.6943 21.7858C12.6943 21.1551 12.6393 20.6271 12.5293 20.2018C12.4266 19.7691 12.2836 19.4244 12.1003 19.1678C11.9243 18.9038 11.7189 18.7168 11.4843 18.6068C11.2496 18.4894 11.0039 18.4308 10.7473 18.4308C10.4906 18.4308 10.2449 18.4894 10.0103 18.6068C9.7756 18.7168 9.57027 18.9038 9.39427 19.1678C9.21827 19.4244 9.07527 19.7691 8.96527 20.2018C8.8626 20.6271 8.81127 21.1551 8.81127 21.7858C8.81127 22.4091 8.8626 22.9371 8.96527 23.3698C9.07527 23.7951 9.21827 24.1398 9.39427 24.4038C9.57027 24.6678 9.7756 24.8584 10.0103 24.9758C10.2449 25.0858 10.4906 25.1408 10.7473 25.1408C11.0039 25.1408 11.2496 25.0858 11.4843 24.9758C11.7189 24.8584 11.9243 24.6678 12.1003 24.4038C12.2836 24.1398 12.4266 23.7951 12.5293 23.3698C12.6393 22.9371 12.6943 22.4091 12.6943 21.7858Z" fill="white" fill-opacity="0.6"/>
<path d="M6.68053 40.5996H2.32453V39.7856H4.11753V33.8236C4.11753 33.7796 4.1212 33.7393 4.12853 33.7026L2.66553 35.0116L2.12653 34.3626L4.29353 32.4926H5.09653V39.7856H6.68053V40.5996ZM9.54827 35.5396C9.9076 35.4443 10.2926 35.3966 10.7033 35.3966C11.1286 35.3966 11.5026 35.4589 11.8253 35.5836C12.1553 35.7083 12.4303 35.8806 12.6503 36.1006C12.8703 36.3206 13.0353 36.5809 13.1453 36.8816C13.2626 37.1823 13.3213 37.5086 13.3213 37.8606C13.3213 38.2859 13.2443 38.6746 13.0903 39.0266C12.9436 39.3786 12.7383 39.6793 12.4743 39.9286C12.2103 40.1706 11.8986 40.3613 11.5393 40.5006C11.1873 40.6326 10.8059 40.6986 10.3953 40.6986C9.91127 40.6986 9.47127 40.6143 9.07527 40.4456C8.6866 40.2696 8.3676 40.0643 8.11827 39.8296L8.65727 39.0926C8.89927 39.2979 9.17427 39.4666 9.48227 39.5986C9.79027 39.7306 10.1093 39.7966 10.4393 39.7966C10.7179 39.7966 10.9746 39.7563 11.2093 39.6756C11.4439 39.5876 11.6456 39.4629 11.8143 39.3016C11.9829 39.1403 12.1149 38.9423 12.2103 38.7076C12.3056 38.4729 12.3533 38.2089 12.3533 37.9156C12.3533 37.3876 12.1919 36.9769 11.8693 36.6836C11.5466 36.3903 11.0956 36.2436 10.5163 36.2436C10.3036 36.2436 10.0873 36.2693 9.86727 36.3206C9.6546 36.3646 9.43093 36.4269 9.19627 36.5076L8.54727 36.3206L9.20727 32.5036H13.0683V33.4276H9.91127L9.54827 35.5396Z" fill="white" fill-opacity="0.6"/>
<path d="M6.68053 55.4004H2.32453V54.5864H4.11753V48.6244C4.11753 48.5804 4.1212 48.5401 4.12853 48.5034L2.66553 49.8124L2.12653 49.1634L4.29353 47.2934H5.09653V54.5864H6.68053V55.4004ZM13.7063 51.3854C13.7063 52.0967 13.6293 52.7164 13.4753 53.2444C13.3213 53.7651 13.1123 54.1977 12.8483 54.5424C12.5843 54.8871 12.2726 55.1437 11.9133 55.3124C11.5539 55.4737 11.1653 55.5544 10.7473 55.5544C10.3293 55.5544 9.9406 55.4737 9.58127 55.3124C9.22193 55.1437 8.9066 54.8871 8.63527 54.5424C8.37127 54.1977 8.16227 53.7651 8.00827 53.2444C7.8616 52.7164 7.78827 52.0967 7.78827 51.3854C7.78827 50.6667 7.8616 50.0471 8.00827 49.5264C8.16227 48.9984 8.37127 48.5621 8.63527 48.2174C8.9066 47.8727 9.22193 47.6197 9.58127 47.4584C9.9406 47.2897 10.3293 47.2054 10.7473 47.2054C11.1653 47.2054 11.5539 47.2897 11.9133 47.4584C12.2726 47.6197 12.5843 47.8727 12.8483 48.2174C13.1123 48.5621 13.3213 48.9984 13.4753 49.5264C13.6293 50.0471 13.7063 50.6667 13.7063 51.3854ZM12.6943 51.3854C12.6943 50.7547 12.6393 50.2267 12.5293 49.8014C12.4266 49.3687 12.2836 49.0241 12.1003 48.7674C11.9243 48.5034 11.7189 48.3164 11.4843 48.2064C11.2496 48.0891 11.0039 48.0304 10.7473 48.0304C10.4906 48.0304 10.2449 48.0891 10.0103 48.2064C9.7756 48.3164 9.57027 48.5034 9.39427 48.7674C9.21827 49.0241 9.07527 49.3687 8.96527 49.8014C8.8626 50.2267 8.81127 50.7547 8.81127 51.3854C8.81127 52.0087 8.8626 52.5367 8.96527 52.9694C9.07527 53.3947 9.21827 53.7394 9.39427 54.0034C9.57027 54.2674 9.7756 54.4581 10.0103 54.5754C10.2449 54.6854 10.4906 54.7404 10.7473 54.7404C11.0039 54.7404 11.2496 54.6854 11.4843 54.5754C11.7189 54.4581 11.9243 54.2674 12.1003 54.0034C12.2836 53.7394 12.4266 53.3947 12.5293 52.9694C12.6393 52.5367 12.6943 52.0087 12.6943 51.3854Z" fill="white" fill-opacity="0.6"/>
<path d="M9.54827 65.1392C9.9076 65.0439 10.2926 64.9962 10.7033 64.9962C11.1286 64.9962 11.5026 65.0586 11.8253 65.1832C12.1553 65.3079 12.4303 65.4802 12.6503 65.7002C12.8703 65.9202 13.0353 66.1806 13.1453 66.4812C13.2626 66.7819 13.3213 67.1082 13.3213 67.4602C13.3213 67.8856 13.2443 68.2742 13.0903 68.6262C12.9436 68.9782 12.7383 69.2789 12.4743 69.5282C12.2103 69.7702 11.8986 69.9609 11.5393 70.1002C11.1873 70.2322 10.8059 70.2982 10.3953 70.2982C9.91127 70.2982 9.47127 70.2139 9.07527 70.0452C8.6866 69.8692 8.3676 69.6639 8.11827 69.4292L8.65727 68.6922C8.89927 68.8976 9.17427 69.0662 9.48227 69.1982C9.79027 69.3302 10.1093 69.3962 10.4393 69.3962C10.7179 69.3962 10.9746 69.3559 11.2093 69.2752C11.4439 69.1872 11.6456 69.0626 11.8143 68.9012C11.9829 68.7399 12.1149 68.5419 12.2103 68.3072C12.3056 68.0726 12.3533 67.8086 12.3533 67.5152C12.3533 66.9872 12.1919 66.5766 11.8693 66.2832C11.5466 65.9899 11.0956 65.8432 10.5163 65.8432C10.3036 65.8432 10.0873 65.8689 9.86727 65.9202C9.6546 65.9642 9.43093 66.0266 9.19627 66.1072L8.54727 65.9202L9.20727 62.1032H13.0683V63.0272H9.91127L9.54827 65.1392Z" fill="white" fill-opacity="0.6"/>
<path d="M13.7063 80.985C13.7063 81.6963 13.6293 82.316 13.4753 82.844C13.3213 83.3647 13.1123 83.7973 12.8483 84.142C12.5843 84.4867 12.2726 84.7433 11.9133 84.912C11.5539 85.0733 11.1653 85.154 10.7473 85.154C10.3293 85.154 9.9406 85.0733 9.58127 84.912C9.22193 84.7433 8.9066 84.4867 8.63527 84.142C8.37127 83.7973 8.16227 83.3647 8.00827 82.844C7.8616 82.316 7.78827 81.6963 7.78827 80.985C7.78827 80.2663 7.8616 79.6467 8.00827 79.126C8.16227 78.598 8.37127 78.1617 8.63527 77.817C8.9066 77.4723 9.22193 77.2193 9.58127 77.058C9.9406 76.8893 10.3293 76.805 10.7473 76.805C11.1653 76.805 11.5539 76.8893 11.9133 77.058C12.2726 77.2193 12.5843 77.4723 12.8483 77.817C13.1123 78.1617 13.3213 78.598 13.4753 79.126C13.6293 79.6467 13.7063 80.2663 13.7063 80.985ZM12.6943 80.985C12.6943 80.3543 12.6393 79.8263 12.5293 79.401C12.4266 78.9683 12.2836 78.6237 12.1003 78.367C11.9243 78.103 11.7189 77.916 11.4843 77.806C11.2496 77.6887 11.0039 77.63 10.7473 77.63C10.4906 77.63 10.2449 77.6887 10.0103 77.806C9.7756 77.916 9.57027 78.103 9.39427 78.367C9.21827 78.6237 9.07527 78.9683 8.96527 79.401C8.8626 79.8263 8.81127 80.3543 8.81127 80.985C8.81127 81.6083 8.8626 82.1363 8.96527 82.569C9.07527 82.9943 9.21827 83.339 9.39427 83.603C9.57027 83.867 9.7756 84.0577 10.0103 84.175C10.2449 84.285 10.4906 84.34 10.7473 84.34C11.0039 84.34 11.2496 84.285 11.4843 84.175C11.7189 84.0577 11.9243 83.867 12.1003 83.603C12.2836 83.339 12.4266 82.9943 12.5293 82.569C12.6393 82.1363 12.6943 81.6083 12.6943 80.985Z" fill="white" fill-opacity="0.6"/>
<path d="M22 88H21V89H22V88ZM280 87H22V89H280V87ZM23 88V0H21V88H23Z" fill="white" fill-opacity="0.2" mask="url(#path-7-inside-1_9_11796)"/>
<rect x="36" y="41" width="10" height="47" fill="#9DFFBE"/>
<rect x="72.668" y="76" width="10" height="12" fill="#16D9AB"/>
<rect x="109.332" y="56" width="10" height="32" fill="#27D4FF"/>
<rect x="146" y="52" width="10" height="36" fill="#0077FF"/>
<rect x="182.668" y="47" width="10" height="41" fill="#0E44E5"/>
<rect x="219.332" y="17" width="10" height="71" fill="#6734FF"/>
<rect x="256" y="79" width="10" height="9" fill="#8972FF"/>
<path d="M38.1084 92.958H39.0214V98.832H38.1084V96.247H36.1614V95.51H38.1084V92.958ZM36.2604 98.458C35.7104 98.26 35.2301 97.9667 34.8194 97.578C34.4088 97.1893 34.0971 96.742 33.8844 96.236C33.6718 96.808 33.3491 97.314 32.9164 97.754C32.4838 98.194 31.9778 98.524 31.3984 98.744L30.9254 98.029C31.2921 97.897 31.6258 97.7173 31.9264 97.49C32.2344 97.2627 32.4984 97.006 32.7184 96.72C32.9384 96.4267 33.1071 96.1113 33.2244 95.774C33.3491 95.4367 33.4114 95.092 33.4114 94.74V94.399H31.2114V93.673H36.4804V94.399H34.3134V94.74C34.3134 95.0553 34.3721 95.367 34.4894 95.675C34.6068 95.983 34.7681 96.2727 34.9734 96.544C35.1861 96.808 35.4391 97.0463 35.7324 97.259C36.0258 97.4643 36.3521 97.6293 36.7114 97.754L36.2604 98.458ZM35.7654 99.14C36.2714 99.14 36.7261 99.1803 37.1294 99.261C37.5328 99.3417 37.8774 99.4627 38.1634 99.624C38.4494 99.778 38.6658 99.9687 38.8124 100.196C38.9664 100.423 39.0434 100.684 39.0434 100.977C39.0434 101.27 38.9664 101.531 38.8124 101.758C38.6658 101.985 38.4494 102.176 38.1634 102.33C37.8774 102.491 37.5328 102.612 37.1294 102.693C36.7261 102.774 36.2714 102.814 35.7654 102.814C35.2594 102.814 34.8011 102.774 34.3904 102.693C33.9871 102.612 33.6424 102.491 33.3564 102.33C33.0778 102.176 32.8614 101.985 32.7074 101.758C32.5534 101.531 32.4764 101.27 32.4764 100.977C32.4764 100.684 32.5534 100.423 32.7074 100.196C32.8614 99.9687 33.0778 99.778 33.3564 99.624C33.6424 99.4627 33.9871 99.3417 34.3904 99.261C34.8011 99.1803 35.2594 99.14 35.7654 99.14ZM35.7654 102.11C36.5208 102.11 37.1074 102.011 37.5254 101.813C37.9434 101.615 38.1524 101.336 38.1524 100.977C38.1524 100.618 37.9434 100.339 37.5254 100.141C37.1074 99.9357 36.5208 99.833 35.7654 99.833C35.0101 99.833 34.4234 99.9357 34.0054 100.141C33.5874 100.339 33.3784 100.618 33.3784 100.977C33.3784 101.336 33.5874 101.615 34.0054 101.813C34.4234 102.011 35.0101 102.11 35.7654 102.11ZM49.0856 102.814H48.1836V92.958H49.0856V102.814ZM44.5316 95.961C44.5316 96.379 44.6012 96.7933 44.7406 97.204C44.8799 97.6147 45.0669 97.9997 45.3016 98.359C45.5436 98.711 45.8259 99.0263 46.1486 99.305C46.4712 99.5837 46.8122 99.8 47.1716 99.954L46.6656 100.68C46.3796 100.548 46.1046 100.379 45.8406 100.174C45.5839 99.9687 45.3419 99.7377 45.1146 99.481C44.8946 99.2243 44.6966 98.942 44.5206 98.634C44.3446 98.326 44.1979 98.0033 44.0806 97.666C43.9706 98.0253 43.8276 98.37 43.6516 98.7C43.4756 99.03 43.2776 99.338 43.0576 99.624C42.8376 99.91 42.5992 100.163 42.3426 100.383C42.0859 100.603 41.8182 100.783 41.5396 100.922L41.0116 100.196C41.3636 100.027 41.6972 99.7927 42.0126 99.492C42.3352 99.184 42.6139 98.843 42.8486 98.469C43.0906 98.0877 43.2812 97.6807 43.4206 97.248C43.5599 96.8153 43.6296 96.3863 43.6296 95.961V94.707H41.3416V93.959H46.8526V94.707H44.5316V95.961Z" fill="white" fill-opacity="0.6"/>
<path d="M70.8173 98.766H69.9043V97.347H67.4073C67.1727 97.6257 66.883 97.8457 66.5383 98.007C66.201 98.1683 65.8123 98.249 65.3723 98.249C65.013 98.249 64.6757 98.1903 64.3603 98.073C64.0523 97.9557 63.7847 97.7907 63.5573 97.578C63.3373 97.3653 63.1613 97.116 63.0293 96.83C62.9047 96.5367 62.8423 96.214 62.8423 95.862C62.8423 95.5173 62.9047 95.202 63.0293 94.916C63.1613 94.6227 63.3373 94.3733 63.5573 94.168C63.7847 93.9553 64.0523 93.7903 64.3603 93.673C64.6757 93.5557 65.013 93.497 65.3723 93.497C65.8123 93.497 66.2047 93.5777 66.5493 93.739C66.894 93.9003 67.1837 94.1203 67.4183 94.399H69.9043V92.958L70.8173 92.947V98.766ZM65.3723 97.479C65.6143 97.479 65.838 97.4387 66.0433 97.358C66.2487 97.2773 66.4247 97.1673 66.5713 97.028C66.7253 96.8813 66.8427 96.709 66.9233 96.511C67.0113 96.313 67.0553 96.0967 67.0553 95.862C67.0553 95.6273 67.0113 95.4147 66.9233 95.224C66.8427 95.026 66.7253 94.8573 66.5713 94.718C66.4247 94.5787 66.2487 94.4687 66.0433 94.388C65.838 94.3073 65.6143 94.267 65.3723 94.267C65.1303 94.267 64.9067 94.3073 64.7013 94.388C64.5033 94.4687 64.3273 94.5787 64.1733 94.718C64.0267 94.8573 63.9093 95.026 63.8213 95.224C63.7407 95.4147 63.7003 95.6273 63.7003 95.862C63.7003 96.0967 63.7407 96.313 63.8213 96.511C63.9093 96.709 64.0267 96.8813 64.1733 97.028C64.3273 97.1673 64.5033 97.2773 64.7013 97.358C64.9067 97.4387 65.1303 97.479 65.3723 97.479ZM69.9043 95.125H67.8033C67.8767 95.323 67.9133 95.5687 67.9133 95.862C67.9133 96.1627 67.8767 96.412 67.8033 96.61H69.9043V95.125ZM70.8173 99.305V102.825H69.9043V100.042H64.2173V99.305H70.8173ZM73.3465 97.028C73.7791 96.962 74.1971 96.8483 74.6005 96.687C75.0111 96.5183 75.3778 96.3167 75.7005 96.082C76.0231 95.84 76.2798 95.5723 76.4705 95.279C76.6685 94.9783 76.7675 94.6667 76.7675 94.344V94.289H73.6545V93.563H80.8595V94.289H77.7685V94.344C77.7685 94.6667 77.8638 94.9783 78.0545 95.279C78.2525 95.5723 78.5128 95.84 78.8355 96.082C79.1581 96.3167 79.5248 96.5183 79.9355 96.687C80.3535 96.8483 80.7788 96.962 81.2115 97.028L80.8595 97.743C80.4781 97.677 80.1041 97.578 79.7375 97.446C79.3708 97.314 79.0298 97.1527 78.7145 96.962C78.3991 96.764 78.1168 96.544 77.8675 96.302C77.6181 96.0527 77.4201 95.7813 77.2735 95.488C77.1195 95.7813 76.9178 96.0527 76.6685 96.302C76.4191 96.544 76.1368 96.764 75.8215 96.962C75.5135 97.1527 75.1761 97.314 74.8095 97.446C74.4501 97.578 74.0761 97.677 73.6875 97.743L73.3465 97.028ZM77.7025 99.305V102.814H76.8005V99.305H72.8185V98.568H81.7285L81.7395 99.305H77.7025ZM88.2726 98.843V93.145H89.1306V95.631H90.3846V92.947H91.2536V99.195H90.3846V96.368H89.1306V98.843H88.2726ZM82.8716 94.839V94.124H84.9396V93.024H85.8306V94.124H87.8876V94.839H82.8716ZM87.4916 97.039C87.4916 97.2957 87.4403 97.5303 87.3376 97.743C87.2349 97.9483 87.0919 98.1243 86.9086 98.271C86.7253 98.4177 86.5016 98.5313 86.2376 98.612C85.9809 98.6927 85.6986 98.733 85.3906 98.733C85.0826 98.733 84.7966 98.6927 84.5326 98.612C84.2759 98.5313 84.0523 98.4177 83.8616 98.271C83.6783 98.1243 83.5353 97.9483 83.4326 97.743C83.3299 97.5303 83.2786 97.2957 83.2786 97.039C83.2786 96.7823 83.3299 96.5513 83.4326 96.346C83.5353 96.1407 83.6783 95.9647 83.8616 95.818C84.0523 95.6713 84.2759 95.5577 84.5326 95.477C84.7966 95.3963 85.0826 95.356 85.3906 95.356C85.6986 95.356 85.9809 95.3963 86.2376 95.477C86.5016 95.5577 86.7253 95.6713 86.9086 95.818C87.0919 95.9647 87.2349 96.1407 87.3376 96.346C87.4403 96.5513 87.4916 96.7823 87.4916 97.039ZM84.0926 97.039C84.0926 97.347 84.2099 97.5963 84.4446 97.787C84.6793 97.9703 84.9946 98.062 85.3906 98.062C85.7866 98.062 86.1019 97.9703 86.3366 97.787C86.5713 97.5963 86.6886 97.347 86.6886 97.039C86.6886 96.731 86.5713 96.4853 86.3366 96.302C86.1019 96.1187 85.7866 96.027 85.3906 96.027C84.9946 96.027 84.6793 96.1187 84.4446 96.302C84.2099 96.4853 84.0926 96.731 84.0926 97.039ZM88.0086 99.36C88.5219 99.36 88.9803 99.4003 89.3836 99.481C89.7943 99.5543 90.1426 99.6643 90.4286 99.811C90.7146 99.9577 90.9309 100.137 91.0776 100.35C91.2316 100.563 91.3086 100.808 91.3086 101.087C91.3086 101.358 91.2316 101.604 91.0776 101.824C90.9309 102.037 90.7146 102.213 90.4286 102.352C90.1426 102.499 89.7943 102.609 89.3836 102.682C88.9803 102.763 88.5219 102.803 88.0086 102.803C87.4953 102.803 87.0333 102.763 86.6226 102.682C86.2193 102.609 85.8746 102.499 85.5886 102.352C85.3026 102.213 85.0826 102.037 84.9286 101.824C84.7819 101.604 84.7086 101.358 84.7086 101.087C84.7086 100.808 84.7819 100.563 84.9286 100.35C85.0826 100.137 85.3026 99.9577 85.5886 99.811C85.8746 99.6643 86.2193 99.5543 86.6226 99.481C87.0333 99.4003 87.4953 99.36 88.0086 99.36ZM88.0086 102.11C88.7639 102.11 89.3506 102.022 89.7686 101.846C90.1939 101.67 90.4066 101.417 90.4066 101.087C90.4066 100.757 90.1939 100.504 89.7686 100.328C89.3506 100.145 88.7639 100.053 88.0086 100.053C87.2533 100.053 86.6629 100.145 86.2376 100.328C85.8123 100.504 85.5996 100.757 85.5996 101.087C85.5996 101.417 85.8123 101.67 86.2376 101.846C86.6629 102.022 87.2533 102.11 88.0086 102.11Z" fill="white" fill-opacity="0.6"/>
<path d="M112.197 97.699V102.814H111.295V92.958H112.197V96.951H113.825V97.699H112.197ZM107.918 95.576C107.918 96.0087 107.984 96.4413 108.116 96.874C108.248 97.2993 108.428 97.699 108.655 98.073C108.883 98.447 109.147 98.7843 109.447 99.085C109.755 99.3857 110.082 99.624 110.426 99.8L109.865 100.515C109.601 100.376 109.348 100.203 109.106 99.998C108.864 99.7853 108.641 99.547 108.435 99.283C108.237 99.019 108.054 98.733 107.885 98.425C107.724 98.1097 107.588 97.7833 107.478 97.446C107.266 98.1793 106.943 98.832 106.51 99.404C106.078 99.9687 105.583 100.405 105.025 100.713L104.486 99.987C104.838 99.8037 105.168 99.5543 105.476 99.239C105.792 98.9237 106.063 98.5717 106.29 98.183C106.518 97.787 106.697 97.3653 106.829 96.918C106.961 96.4707 107.027 96.0233 107.027 95.576V93.805H107.918V95.576ZM115.672 94.674V93.937H122.591V94.916C122.591 95.224 122.588 95.543 122.58 95.873C122.58 96.1957 122.569 96.544 122.547 96.918C122.525 97.2847 122.489 97.6807 122.437 98.106C122.386 98.524 122.313 98.9823 122.217 99.481L121.315 99.382C121.506 98.4433 121.616 97.611 121.645 96.885C121.675 96.159 121.689 95.5027 121.689 94.916V94.674H115.672ZM123.658 101.428H114.737V100.691H118.202V97.16H119.104V100.691H123.658V101.428Z" fill="white" fill-opacity="0.6"/>
<path d="M142.53 94.179V93.453H149.251V94.289C149.251 94.685 149.24 95.092 149.218 95.51C149.196 95.928 149.115 96.39 148.976 96.896L148.096 96.797C148.228 96.291 148.305 95.8437 148.327 95.455C148.349 95.059 148.36 94.6703 148.36 94.289V94.179H142.53ZM150.362 98.282H141.485V97.545H145.126V95.653H146.028V97.545H150.362V98.282ZM145.885 99.184C146.413 99.184 146.886 99.2243 147.304 99.305C147.729 99.3857 148.092 99.5067 148.393 99.668C148.693 99.822 148.924 100.013 149.086 100.24C149.247 100.46 149.328 100.713 149.328 100.999C149.328 101.278 149.247 101.531 149.086 101.758C148.924 101.978 148.693 102.165 148.393 102.319C148.092 102.473 147.729 102.59 147.304 102.671C146.886 102.759 146.413 102.803 145.885 102.803C145.357 102.803 144.88 102.759 144.455 102.671C144.037 102.59 143.677 102.473 143.377 102.319C143.083 102.165 142.856 101.978 142.695 101.758C142.533 101.531 142.453 101.278 142.453 100.999C142.453 100.713 142.533 100.46 142.695 100.24C142.856 100.013 143.083 99.822 143.377 99.668C143.677 99.5067 144.037 99.3857 144.455 99.305C144.88 99.2243 145.357 99.184 145.885 99.184ZM145.885 102.099C146.662 102.099 147.278 102.004 147.733 101.813C148.195 101.622 148.426 101.351 148.426 100.999C148.426 100.647 148.195 100.372 147.733 100.174C147.278 99.976 146.662 99.877 145.885 99.877C145.115 99.877 144.499 99.976 144.037 100.174C143.582 100.372 143.355 100.647 143.355 100.999C143.355 101.344 143.582 101.615 144.037 101.813C144.499 102.004 145.115 102.099 145.885 102.099ZM159.172 97.699V102.814H158.27V92.958H159.172V96.951H160.8V97.699H159.172ZM154.893 95.576C154.893 96.0087 154.959 96.4413 155.091 96.874C155.223 97.2993 155.403 97.699 155.63 98.073C155.857 98.447 156.121 98.7843 156.422 99.085C156.73 99.3857 157.056 99.624 157.401 99.8L156.84 100.515C156.576 100.376 156.323 100.203 156.081 99.998C155.839 99.7853 155.615 99.547 155.41 99.283C155.212 99.019 155.029 98.733 154.86 98.425C154.699 98.1097 154.563 97.7833 154.453 97.446C154.24 98.1793 153.918 98.832 153.485 99.404C153.052 99.9687 152.557 100.405 152 100.713L151.461 99.987C151.813 99.8037 152.143 99.5543 152.451 99.239C152.766 98.9237 153.038 98.5717 153.265 98.183C153.492 97.787 153.672 97.3653 153.804 96.918C153.936 96.4707 154.002 96.0233 154.002 95.576V93.805H154.893V95.576Z" fill="white" fill-opacity="0.6"/>
<path d="M183.668 98.843V93.145H184.526V95.631H185.78V92.947H186.649V99.195H185.78V96.368H184.526V98.843H183.668ZM178.267 94.839V94.124H180.335V93.024H181.226V94.124H183.283V94.839H178.267ZM182.887 97.039C182.887 97.2957 182.836 97.5303 182.733 97.743C182.63 97.9483 182.487 98.1243 182.304 98.271C182.121 98.4177 181.897 98.5313 181.633 98.612C181.376 98.6927 181.094 98.733 180.786 98.733C180.478 98.733 180.192 98.6927 179.928 98.612C179.671 98.5313 179.448 98.4177 179.257 98.271C179.074 98.1243 178.931 97.9483 178.828 97.743C178.725 97.5303 178.674 97.2957 178.674 97.039C178.674 96.7823 178.725 96.5513 178.828 96.346C178.931 96.1407 179.074 95.9647 179.257 95.818C179.448 95.6713 179.671 95.5577 179.928 95.477C180.192 95.3963 180.478 95.356 180.786 95.356C181.094 95.356 181.376 95.3963 181.633 95.477C181.897 95.5577 182.121 95.6713 182.304 95.818C182.487 95.9647 182.63 96.1407 182.733 96.346C182.836 96.5513 182.887 96.7823 182.887 97.039ZM179.488 97.039C179.488 97.347 179.605 97.5963 179.84 97.787C180.075 97.9703 180.39 98.062 180.786 98.062C181.182 98.062 181.497 97.9703 181.732 97.787C181.967 97.5963 182.084 97.347 182.084 97.039C182.084 96.731 181.967 96.4853 181.732 96.302C181.497 96.1187 181.182 96.027 180.786 96.027C180.39 96.027 180.075 96.1187 179.84 96.302C179.605 96.4853 179.488 96.731 179.488 97.039ZM183.404 99.36C183.917 99.36 184.376 99.4003 184.779 99.481C185.19 99.5543 185.538 99.6643 185.824 99.811C186.11 99.9577 186.326 100.137 186.473 100.35C186.627 100.563 186.704 100.808 186.704 101.087C186.704 101.358 186.627 101.604 186.473 101.824C186.326 102.037 186.11 102.213 185.824 102.352C185.538 102.499 185.19 102.609 184.779 102.682C184.376 102.763 183.917 102.803 183.404 102.803C182.891 102.803 182.429 102.763 182.018 102.682C181.615 102.609 181.27 102.499 180.984 102.352C180.698 102.213 180.478 102.037 180.324 101.824C180.177 101.604 180.104 101.358 180.104 101.087C180.104 100.808 180.177 100.563 180.324 100.35C180.478 100.137 180.698 99.9577 180.984 99.811C181.27 99.6643 181.615 99.5543 182.018 99.481C182.429 99.4003 182.891 99.36 183.404 99.36ZM183.404 102.11C184.159 102.11 184.746 102.022 185.164 101.846C185.589 101.67 185.802 101.417 185.802 101.087C185.802 100.757 185.589 100.504 185.164 100.328C184.746 100.145 184.159 100.053 183.404 100.053C182.649 100.053 182.058 100.145 181.633 100.328C181.208 100.504 180.995 100.757 180.995 101.087C180.995 101.417 181.208 101.67 181.633 101.846C182.058 102.022 182.649 102.11 183.404 102.11ZM196.031 97.699V102.814H195.129V92.958H196.031V96.951H197.659V97.699H196.031ZM191.752 95.576C191.752 96.0087 191.818 96.4413 191.95 96.874C192.082 97.2993 192.262 97.699 192.489 98.073C192.717 98.447 192.981 98.7843 193.281 99.085C193.589 99.3857 193.916 99.624 194.26 99.8L193.699 100.515C193.435 100.376 193.182 100.203 192.94 99.998C192.698 99.7853 192.475 99.547 192.269 99.283C192.071 99.019 191.888 98.733 191.719 98.425C191.558 98.1097 191.422 97.7833 191.312 97.446C191.1 98.1793 190.777 98.832 190.344 99.404C189.912 99.9687 189.417 100.405 188.859 100.713L188.32 99.987C188.672 99.8037 189.002 99.5543 189.31 99.239C189.626 98.9237 189.897 98.5717 190.124 98.183C190.352 97.787 190.531 97.3653 190.663 96.918C190.795 96.4707 190.861 96.0233 190.861 95.576V93.805H191.752V95.576Z" fill="white" fill-opacity="0.6"/>
<path d="M223.274 102.814H222.372V92.947H223.274V102.814ZM220.381 94.014C220.381 94.7253 220.296 95.4147 220.128 96.082C219.959 96.742 219.688 97.369 219.314 97.963C218.947 98.5497 218.474 99.0997 217.895 99.613C217.315 100.119 216.615 100.574 215.794 100.977L215.31 100.24C216.637 99.6093 217.638 98.8283 218.313 97.897C218.987 96.9657 219.372 95.9133 219.468 94.74H215.761V94.014H220.381ZM234.416 96.247H232.953V98.931H232.051V92.958H232.953V95.499H234.416V96.247ZM230.522 98.293C229.986 98.095 229.513 97.8017 229.103 97.413C228.699 97.0243 228.388 96.577 228.168 96.071C227.962 96.6503 227.647 97.1563 227.222 97.589C226.804 98.0217 226.305 98.348 225.726 98.568L225.253 97.853C225.627 97.721 225.964 97.5413 226.265 97.314C226.565 97.0793 226.822 96.8153 227.035 96.522C227.255 96.2213 227.42 95.8987 227.53 95.554C227.647 95.202 227.706 94.839 227.706 94.465V93.453H228.608V94.542C228.608 94.872 228.666 95.1947 228.784 95.51C228.901 95.8253 229.062 96.1187 229.268 96.39C229.48 96.654 229.733 96.8923 230.027 97.105C230.32 97.3103 230.643 97.4717 230.995 97.589L230.522 98.293ZM229.818 99.206C230.316 99.206 230.764 99.2463 231.16 99.327C231.563 99.4077 231.904 99.525 232.183 99.679C232.469 99.833 232.685 100.024 232.832 100.251C232.986 100.471 233.063 100.724 233.063 101.01C233.063 101.296 232.986 101.553 232.832 101.78C232.685 102 232.469 102.183 232.183 102.33C231.904 102.484 231.563 102.601 231.16 102.682C230.764 102.763 230.316 102.803 229.818 102.803C229.312 102.803 228.857 102.763 228.454 102.682C228.058 102.601 227.717 102.484 227.431 102.33C227.152 102.183 226.936 102 226.782 101.78C226.635 101.553 226.562 101.296 226.562 101.01C226.562 100.724 226.635 100.471 226.782 100.251C226.936 100.024 227.152 99.833 227.431 99.679C227.717 99.525 228.058 99.4077 228.454 99.327C228.857 99.2463 229.312 99.206 229.818 99.206ZM229.818 102.099C230.551 102.099 231.123 102.007 231.534 101.824C231.952 101.633 232.161 101.362 232.161 101.01C232.161 100.658 231.952 100.387 231.534 100.196C231.123 100.005 230.551 99.91 229.818 99.91C229.084 99.91 228.509 100.005 228.091 100.196C227.673 100.387 227.464 100.658 227.464 101.01C227.464 101.362 227.673 101.633 228.091 101.824C228.509 102.007 229.084 102.099 229.818 102.099Z" fill="white" fill-opacity="0.6"/>
<path d="M260.133 102.814H259.231V92.947H260.133V102.814ZM257.24 94.014C257.24 94.7253 257.156 95.4147 256.987 96.082C256.818 96.742 256.547 97.369 256.173 97.963C255.806 98.5497 255.333 99.0997 254.754 99.613C254.175 100.119 253.474 100.574 252.653 100.977L252.169 100.24C253.496 99.6093 254.497 98.8283 255.172 97.897C255.847 96.9657 256.232 95.9133 256.327 94.74H252.62V94.014H257.24ZM269.746 97.666V102.803H268.844V92.947H269.746V96.907H271.374V97.666H269.746ZM263.487 99.701C263.927 99.701 264.334 99.6973 264.708 99.69C265.089 99.6753 265.456 99.657 265.808 99.635C266.16 99.6057 266.508 99.5727 266.853 99.536C267.198 99.492 267.553 99.4407 267.92 99.382L268.008 100.108C267.627 100.174 267.256 100.229 266.897 100.273C266.545 100.317 266.182 100.35 265.808 100.372C265.441 100.394 265.056 100.412 264.653 100.427C264.25 100.434 263.817 100.438 263.355 100.438H262.585V93.838H267.183V94.575H263.487V96.61H266.963V97.336H263.487V99.701Z" fill="white" fill-opacity="0.6"/>
</svg>
