<svg width="48" height="48" viewBox="0 0 48 48" fill="none" xmlns="http://www.w3.org/2000/svg">
<g id="Frame" clip-path="url(#clip0_3448_32084)">
<g id="&#234;&#183;&#184;&#235;&#163;&#185; 179294">
<g id="error selected">
<g id="&#237;&#131;&#128;&#236;&#155;&#144; 3942">
<path id="Vector" d="M24 9C15.7157 9 9 15.7157 9 24C9 32.2843 15.7157 39 24 39C32.2843 39 39 32.2843 39 24C39 15.7157 32.2843 9 24 9Z" fill="#0068E6"/>
<path id="Vector_2" d="M24 4.5C13.2304 4.5 4.5 13.2304 4.5 24C4.5 34.7696 13.2304 43.5 24 43.5C34.7696 43.5 43.5 34.7696 43.5 24C43.5 13.2304 34.7696 4.5 24 4.5Z" stroke="#338FFF" stroke-opacity="0.4" stroke-width="9"/>
</g>
<g id="&#237;&#131;&#128;&#236;&#155;&#144; 3941">
<path id="Vector_3" d="M24 9C15.7157 9 9 15.7157 9 24C9 32.2843 15.7157 39 24 39C32.2843 39 39 32.2843 39 24C39 15.7157 32.2843 9 24 9Z" fill="#0068E6"/>
<path id="Vector_4" d="M24 6.5C14.335 6.5 6.5 14.335 6.5 24C6.5 33.665 14.335 41.5 24 41.5C33.665 41.5 41.5 33.665 41.5 24C41.5 14.335 33.665 6.5 24 6.5Z" stroke="#338FFF" stroke-opacity="0.4" stroke-width="5"/>
</g>
<g id="&#237;&#131;&#128;&#236;&#155;&#144; 3701">
<path id="Vector_5" d="M24 9C15.7157 9 9 15.7157 9 24C9 32.2843 15.7157 39 24 39C32.2843 39 39 32.2843 39 24C39 15.7157 32.2843 9 24 9Z" fill="#008C69"/>
<path id="Vector_6" d="M24 8.5C15.4396 8.5 8.5 15.4396 8.5 24C8.5 32.5604 15.4396 39.5 24 39.5C32.5604 39.5 39.5 32.5604 39.5 24C39.5 15.4396 32.5604 8.5 24 8.5Z" stroke="#0068E6"/>
</g>
</g>
<path id="&#237;&#140;&#168;&#236;&#138;&#164; 92184" d="M22.724 24.508H21.484V19H22.724V24.508ZM19.684 21.808C19.6884 22.1482 19.6145 22.4849 19.468 22.792C19.3253 23.0863 19.123 23.3479 18.874 23.56C18.6067 23.783 18.2992 23.9527 17.968 24.06C17.6005 24.1825 17.2153 24.2433 16.828 24.24C16.4461 24.2449 16.0661 24.1854 15.704 24.064C15.3773 23.9548 15.074 23.7852 14.81 23.564C14.561 23.3519 14.3587 23.0903 14.216 22.796C14.0695 22.4889 13.9956 22.1522 14 21.812C13.9961 21.4699 14.0699 21.1314 14.216 20.822C14.3575 20.5252 14.5599 20.2615 14.81 20.048C15.074 19.8268 15.3773 19.6572 15.704 19.548C16.0672 19.4248 16.4485 19.364 16.832 19.368C17.2193 19.3647 17.6045 19.4255 17.972 19.548C18.3032 19.6553 18.6107 19.825 18.878 20.048C19.1281 20.2615 19.3305 20.5252 19.472 20.822C19.6161 21.1305 19.6886 21.4676 19.684 21.808ZM15.196 21.808C15.1932 22.011 15.2363 22.212 15.322 22.396C15.4032 22.5683 15.5197 22.7216 15.664 22.846C15.817 22.9748 15.9936 23.0727 16.184 23.134C16.393 23.2028 16.612 23.2365 16.832 23.234C17.262 23.2508 17.6836 23.1123 18.02 22.844C18.1716 22.7185 18.2924 22.5598 18.3728 22.3801C18.4533 22.2005 18.4913 22.0047 18.484 21.808C18.4911 21.6106 18.4526 21.4143 18.3715 21.2342C18.2903 21.0542 18.1686 20.8953 18.016 20.77C17.6796 20.5017 17.258 20.3632 16.828 20.38C16.608 20.3775 16.389 20.4112 16.18 20.48C15.991 20.5418 15.8158 20.6396 15.664 20.768C15.5197 20.8924 15.4032 21.0457 15.322 21.218C15.2373 21.4029 15.1956 21.6046 15.2 21.808H15.196ZM23.048 28.744V29.716H15.644V26.872H21.5V25.972H15.62V25H22.72V27.784H16.856V28.744H23.048ZM34.832 22.204V23.224H33.296V26.98H32.06V19.024H33.296V22.204H34.832ZM30.32 25.224H25.208V19.792H26.444V21.484H29.096V19.792H30.32V25.224ZM29.096 22.444H26.444V24.232H29.096V22.444ZM27.684 28.636H33.732V29.644H26.432V26.212H27.684V28.636Z" fill="white"/>
</g>
</g>
<defs>
<clipPath id="clip0_3448_32084">
<rect width="48" height="48" fill="white"/>
</clipPath>
</defs>
</svg>
