<svg width="48" height="48" viewBox="0 0 48 48" fill="none" xmlns="http://www.w3.org/2000/svg">
<path d="M24 40C32.8366 40 40 32.8366 40 24C40 15.1634 32.8366 8 24 8C15.1634 8 8 15.1634 8 24C8 32.8366 15.1634 40 24 40Z" fill="#D60000"/>
<path d="M39.5 24C39.5 32.5604 32.5604 39.5 24 39.5C15.4396 39.5 8.5 32.5604 8.5 24C8.5 15.4396 15.4396 8.5 24 8.5C32.5604 8.5 39.5 15.4396 39.5 24Z" stroke="black" stroke-opacity="0.3"/>
<rect x="19" y="19" width="10" height="10" rx="1" fill="white"/>
<path fill-rule="evenodd" clip-rule="evenodd" d="M24 15C22.8954 15 22 15.8954 22 17V18.25H26V17C26 15.8954 25.1046 15 24 15ZM24 17.5C24.4142 17.5 24.75 17.1642 24.75 16.75C24.75 16.3358 24.4142 16 24 16C23.5858 16 23.25 16.3358 23.25 16.75C23.25 17.1642 23.5858 17.5 24 17.5Z" fill="white"/>
<path fill-rule="evenodd" clip-rule="evenodd" d="M15 29C15 27.8954 15.8954 27 17 27H18.25V28.35C18.25 29.1232 18.8768 29.75 19.65 29.75H28.35C29.1232 29.75 29.75 29.1232 29.75 28.35V27H31C32.1046 27 33 27.8954 33 29C33 30.1046 32.1046 31 31 31H17C15.8954 31 15 30.1046 15 29ZM17.5 29C17.5 29.4142 17.1642 29.75 16.75 29.75C16.3358 29.75 16 29.4142 16 29C16 28.5858 16.3358 28.25 16.75 28.25C17.1642 28.25 17.5 28.5858 17.5 29ZM31.25 29.75C31.6642 29.75 32 29.4142 32 29C32 28.5858 31.6642 28.25 31.25 28.25C30.8358 28.25 30.5 28.5858 30.5 29C30.5 29.4142 30.8358 29.75 31.25 29.75Z" fill="white"/>
<rect x="21" y="31.75" width="6" height="1.25" fill="white"/>
</svg>
