<svg width="56" height="56" viewBox="0 0 56 56" fill="none" xmlns="http://www.w3.org/2000/svg">
<path d="M41.1373 42.002C41.691 42.0162 42.2385 41.8811 42.7223 41.6113C43.206 41.3416 43.6084 40.9473 43.8873 40.4688C44.1662 39.9902 44.3114 39.4445 44.3077 38.8906C44.304 38.3367 44.1516 37.7951 43.8663 37.3203L30.3932 15.502C30.102 15.0255 29.6877 14.6368 29.1935 14.377C28.7208 14.1293 28.1949 13.9999 27.6612 14C27.3961 14.0002 27.1319 14.0334 26.8751 14.0996C26.6175 14.1616 26.3689 14.2556 26.1344 14.3789C25.6404 14.639 25.2256 15.0277 24.9342 15.5039L11.4552 37.3223C11.1699 37.7971 11.0175 38.3387 11.0138 38.8926C11.0101 39.4465 11.1552 39.9922 11.4342 40.4707C11.7131 40.9493 12.1154 41.3435 12.5992 41.6133C13.083 41.883 13.6305 42.0182 14.1842 42.0039H41.1412M41.1412 47.0039H14.1842C12.6843 47.0069 11.2122 46.6005 9.92637 45.8281C8.71158 45.0955 7.70872 44.0589 7.01719 42.8203C6.31783 41.5735 5.96627 40.1616 5.99863 38.7324C6.031 37.3032 6.44619 35.9092 7.20127 34.6953L20.6803 12.877C21.443 11.64 22.5235 10.6304 23.8092 9.95312C24.9988 9.33115 26.3208 9.00477 27.6632 9.00195C29.005 9.00335 30.3267 9.32846 31.5162 9.94922H31.5221C32.8066 10.628 33.886 11.6381 34.648 12.875L48.1251 34.6914C48.8802 35.9053 49.2959 37.2993 49.3282 38.7285C49.3606 40.1577 49.0085 41.5696 48.3092 42.8164C47.6176 44.055 46.6153 45.0916 45.4005 45.8242C44.1134 46.5981 42.6391 47.0052 41.1373 47.002L41.1412 47.0039Z" fill="#338FFF" fill-opacity="0.4"/>
<path d="M41.1373 42.002C41.6911 42.0163 42.2385 41.8812 42.7223 41.6114C43.2061 41.3417 43.6084 40.9474 43.8873 40.4688C44.1663 39.9903 44.3114 39.4446 44.3077 38.8907C44.304 38.3368 44.1516 37.7952 43.8663 37.3204L30.3932 15.502C30.1021 15.0256 29.6877 14.6369 29.1935 14.377C28.4821 13.9999 27.6556 13.9001 26.8751 14.0977C26.6175 14.1597 26.3689 14.2537 26.1344 14.377C25.6404 14.6371 25.2256 15.0258 24.9342 15.502L11.4552 37.3204C11.1699 37.7952 11.0175 38.3368 11.0138 38.8907C11.0101 39.4446 11.1553 39.9903 11.4342 40.4688C11.7131 40.9474 12.1155 41.3417 12.5992 41.6114C13.083 41.8812 13.6305 42.0163 14.1842 42.002H41.1412M41.1412 51.002H14.1842C12.0132 51.0051 9.88085 50.4283 8.00695 49.3321C6.13305 48.2359 4.58533 46.6596 3.52404 44.7657C2.48241 42.8953 1.95879 40.7811 2.00695 38.6407C2.05512 36.5004 2.67374 34.4116 3.79846 32.5899L17.2775 10.7716C18.4163 8.92706 20.0289 7.42138 21.9474 6.4122L22.9474 5.88876L24.7862 5.34579C25.7279 5.11358 26.6944 4.99634 27.6642 5.00009C29.6524 5.00098 31.611 5.48161 33.3741 6.40048C35.2971 7.41339 36.9135 8.92356 38.0543 10.7735L51.5294 32.588C52.6541 34.4096 53.2723 36.4984 53.3204 38.6388C53.3686 40.7791 52.845 42.8933 51.8033 44.7638C50.7419 46.6591 49.1936 48.2353 47.3185 49.3321C45.4434 50.4289 43.3096 51.0059 41.1373 51.002H41.1412Z" fill="#338FFF" fill-opacity="0.4"/>
<path d="M41.1374 42.002C43.613 42.002 45.1399 39.3809 43.8669 37.3203L30.3884 15.502C30.0789 15 29.6628 14.625 29.1912 14.377C28.7141 14.127 28.1868 14 27.6589 14C27.3953 14 27.1316 14.0312 26.8728 14.0977C26.6194 14.1582 26.3655 14.2539 26.1321 14.377C25.6604 14.625 25.2395 15 24.9299 15.502L11.4514 37.3203C10.1785 39.3809 11.7053 42.002 14.1809 42.002H41.1374ZM41.1374 43.002H14.1809C12.6257 43.002 11.2522 42.2051 10.5076 40.8691C9.78735 39.5781 9.8225 38.0547 10.6008 36.7949L24.0793 14.9766C24.467 14.3477 25.0159 13.834 25.6667 13.4922C25.9685 13.332 26.3025 13.207 26.6326 13.127C26.9636 13.043 27.3088 13 27.6589 13C28.3518 13 29.0422 13.1699 29.6555 13.4922C30.3025 13.832 30.8498 14.3457 31.2395 14.9766L44.7175 36.7949C45.4958 38.0547 45.531 39.5781 44.8108 40.8691C44.0662 42.2051 42.6926 43.002 41.1374 43.002Z" fill="#0068E6"/>
<path d="M43.8724 37.32L30.3974 15.502C30.1059 15.0254 29.6914 14.636 29.1974 14.375C28.4856 14.004 27.6633 13.9041 26.8834 14.094C26.6246 14.1563 26.3747 14.2507 26.1394 14.375C25.6454 14.636 25.2308 15.0254 24.9394 15.502L11.4564 37.32C11.1714 37.7949 11.0192 38.3377 11.0157 38.8915C11.0122 39.4454 11.1575 39.99 11.4365 40.4685C11.7155 40.947 12.1179 41.3417 12.6016 41.6115C13.0854 41.8812 13.6327 42.0161 14.1864 42.002H41.1424C41.6961 42.0161 42.2434 41.8812 42.7271 41.6115C43.2108 41.3417 43.6132 40.947 43.8922 40.4685C44.1712 39.99 44.3165 39.4454 44.313 38.8915C44.3096 38.3377 44.1574 37.7949 43.8724 37.32ZM42.1974 39.407C42.0932 39.5936 41.9396 39.7479 41.7535 39.8528C41.5674 39.9578 41.3559 40.0094 41.1424 40.002H14.1864C13.9731 40.0092 13.762 39.9574 13.5763 39.8525C13.3905 39.7475 13.2373 39.5934 13.1334 39.407C13.0409 39.2491 12.9942 39.0686 12.9985 38.8856C13.0027 38.7027 13.0577 38.5245 13.1574 38.371L26.6354 16.554C26.7479 16.3843 26.9007 16.245 27.0802 16.1486C27.2597 16.0523 27.4602 16.0019 27.6639 16.0019C27.8676 16.0019 28.0681 16.0523 28.2475 16.1486C28.427 16.245 28.5798 16.3843 28.6924 16.554L42.1704 38.371C42.2702 38.5244 42.3254 38.7025 42.3298 38.8855C42.3342 39.0684 42.2877 39.249 42.1954 39.407" fill="black"/>
<path d="M28.6942 16.5521C28.5816 16.3824 28.4288 16.2431 28.2493 16.1468C28.0699 16.0504 27.8694 16 27.6657 16C27.462 16 27.2615 16.0504 27.082 16.1468C26.9025 16.2431 26.7497 16.3824 26.6372 16.5521L13.1592 38.3691C13.0595 38.5226 13.0045 38.7008 13.0003 38.8837C12.996 39.0667 13.0427 39.2472 13.1352 39.4051C13.2391 39.5915 13.3923 39.7456 13.5781 39.8506C13.7638 39.9555 13.9749 40.0073 14.1882 40.0001H41.1442C41.3574 40.007 41.5683 39.9551 41.754 39.8501C41.9397 39.7452 42.093 39.5913 42.1972 39.4051C42.2895 39.2471 42.336 39.0665 42.3316 38.8836C42.3272 38.7006 42.272 38.5225 42.1722 38.3691L28.6942 16.5521Z" fill="#FFE043"/>
<path d="M30.9545 31.831L29.4375 29.094C29.2894 28.8502 29.0659 28.6613 28.8008 28.5559C28.5357 28.4506 28.2435 28.4344 27.9685 28.51L21.0215 30.418C20.7464 30.4935 20.5034 30.6565 20.3292 30.8824C20.1551 31.1083 20.0594 31.3848 20.0565 31.67L20.1515 34.795C19.9057 34.9412 19.7146 35.1639 19.6073 35.429C19.5 35.6941 19.4825 35.987 19.5575 36.263L20.2525 38.794C20.3133 39.0152 20.4315 39.2165 20.5949 39.3775C20.7584 39.5384 20.9614 39.6535 21.1835 39.711L21.4055 40.52C21.4515 40.6878 21.5623 40.8303 21.7134 40.9164C21.8646 41.0025 22.0437 41.025 22.2115 40.979L22.8445 40.806C23.0123 40.7597 23.155 40.6488 23.2412 40.4976C23.3274 40.3463 23.3502 40.167 23.3045 39.999L23.1305 39.363L30.7245 37.279L30.8975 37.912C30.9437 38.0798 31.0547 38.2224 31.206 38.3085C31.3573 38.3945 31.5366 38.417 31.7045 38.371L32.3365 38.198C32.5045 38.152 32.6473 38.0411 32.7335 37.8898C32.8198 37.7384 32.8424 37.559 32.7965 37.391L32.5745 36.583C32.7363 36.4201 32.8524 36.2174 32.911 35.9953C32.9696 35.7732 32.9688 35.5396 32.9085 35.318L32.2145 32.787C32.138 32.5115 31.9734 32.2686 31.7459 32.0954C31.5184 31.9222 31.2404 31.8283 30.9545 31.828M21.8675 31.546L27.8205 29.913C27.9624 29.8742 28.1133 29.8841 28.2489 29.9412C28.3846 29.9983 28.4971 30.0993 28.5685 30.228L29.6265 32.14L21.4515 34.382L21.3855 32.202C21.3809 32.0549 21.4259 31.9105 21.5134 31.792C21.6008 31.6736 21.7255 31.588 21.8675 31.549M22.2925 37.557C22.1048 37.6084 21.9061 37.603 21.7215 37.5415C21.537 37.4799 21.3747 37.3651 21.2554 37.2114C21.1361 37.0577 21.065 36.8721 21.0512 36.678C21.0373 36.4839 21.0813 36.2901 21.1776 36.121C21.2739 35.952 21.4181 35.8152 21.5921 35.7281C21.7661 35.641 21.9619 35.6074 22.155 35.6316C22.3481 35.6558 22.5296 35.7366 22.6767 35.864C22.8238 35.9913 22.9299 36.1594 22.9815 36.347C23.0504 36.5989 23.0166 36.8678 22.8874 37.0946C22.7582 37.3215 22.5442 37.4878 22.2925 37.557ZM30.5195 35.302C30.3318 35.3536 30.1331 35.3484 29.9484 35.287C29.7638 35.2256 29.6014 35.1109 29.482 34.9573C29.3625 34.8036 29.2913 34.6181 29.2773 34.424C29.2633 34.2299 29.3072 34.036 29.4034 33.8668C29.4995 33.6977 29.6437 33.5608 29.8177 33.4736C29.9916 33.3864 30.1875 33.3527 30.3806 33.3768C30.5737 33.4009 30.7554 33.4817 30.9025 33.609C31.0497 33.7363 31.1558 33.9044 31.2075 34.092C31.2418 34.2167 31.2512 34.3468 31.2352 34.4751C31.2192 34.6033 31.178 34.7272 31.1141 34.8396C31.0503 34.9519 30.9649 35.0506 30.8628 35.13C30.7608 35.2093 30.6441 35.2678 30.5195 35.302Z" fill="black"/>
<path d="M29.9555 28.433L30.2945 26.207L31.2375 27.659L33.9965 26.208L32.6665 28.797L33.9975 29.497L32.5465 30.272L33.9965 32.208L31.7965 31.333L29.9555 28.433Z" fill="black"/>
</svg>
