<svg width="48" height="54" viewBox="0 0 48 54" fill="none" xmlns="http://www.w3.org/2000/svg">
<g clip-path="url(#clip0_3448_32024)">
<path d="M40.0001 24.0025C40.0003 19.7855 38.3358 15.7391 35.3684 12.7429C32.4011 9.74668 28.3709 8.04305 24.1541 8.00246C19.9303 7.97569 15.8661 9.61478 12.8426 12.5643C9.81909 15.5139 8.07993 19.5363 8.00213 23.7595C7.96772 25.8648 8.35056 27.9562 9.12858 29.9128C9.9066 31.8694 11.0644 33.6526 12.5351 35.1595L22.7551 45.4845C23.0852 45.8146 23.5329 46 23.9996 46C24.4664 46 24.9141 45.8146 25.2441 45.4845L35.4641 35.1595C38.3763 32.1763 40.0045 28.1714 40.0001 24.0025Z" fill="#00BD78"/>
<path d="M24.0013 8V9C15.8522 9 9.12351 15.6271 9.00191 23.7729C8.94186 27.7861 10.45 31.5809 13.2489 34.4589L23.4628 44.7773C23.6063 44.921 23.7972 45 24.0002 45C24.2031 45 24.3939 44.921 24.534 44.7808L34.7508 34.4595C37.4912 31.6418 39.0002 27.9282 39.0002 24.0022C39.0002 20.0202 37.4567 16.2697 34.6541 13.4417C31.8533 10.6155 28.121 9.03833 24.145 9.00067C24.0978 9.00024 24.0495 9 24.0025 9L24.0013 8ZM24.0025 8C24.0527 8 24.1041 8.00024 24.1543 8.00073C32.92 8.08368 40.0002 15.2161 40.0002 24.0022C40.0002 28.3426 38.2699 32.2768 35.4649 35.1596L25.2447 45.4843C24.5574 46.1719 23.4429 46.1719 22.7555 45.4843L12.5355 35.1596C9.67787 32.2229 7.93562 28.1949 8.00202 23.758C8.13207 15.0471 15.3097 7.99939 24.0025 8Z" fill="#0068E6"/>
<path d="M14.069 21.484C14.956 21.465 15.8329 21.2925 16.661 20.974C16.9147 20.8919 17.1467 20.7538 17.3398 20.57C17.533 20.3862 17.6824 20.1613 17.777 19.912H14.585V18.988H17.885V18.04H19.121V18.988H22.433V19.912H19.233C19.3272 20.1609 19.476 20.3855 19.6684 20.5693C19.8609 20.7531 20.0921 20.8914 20.345 20.974C21.1691 21.2918 22.042 21.4644 22.925 21.484L22.589 22.408C21.7317 22.3661 20.8849 22.2004 20.075 21.916C19.458 21.7137 18.9118 21.339 18.501 20.836C18.0913 21.3383 17.5466 21.7131 16.931 21.916C16.1261 22.2011 15.2839 22.3669 14.431 22.408L14.069 21.484ZM19.121 23.728V24.568H22.181V27.088H16.013V27.9H22.493V28.828H14.793V26.236H20.973V25.48H14.773V24.568H17.893V23.728H13.625V22.8H23.401V23.724L19.121 23.728ZM34.637 20.308V21.328H33.113V23.644H31.877V18.088H33.113V20.308H34.637ZM30.137 23.284H25.025V18.544H26.261V19.972H28.913V18.544H30.137V23.284ZM28.913 20.92H26.261V22.3H28.913V20.92ZM27.353 27.856H33.473V28.828H26.141V25.984H31.889V25.084H26.117V24.124H33.117V26.9H27.357L27.353 27.856Z" fill="white"/>
</g>
<path d="M24.1668 6.00036L24.1734 6.0004C28.9172 6.04608 33.4512 7.96267 36.7895 11.3334C40.1272 14.7036 41.9998 19.255 42.0001 23.9982L24.1668 6.00036ZM24.1668 6.00036C19.4167 5.97026 14.8462 7.81357 11.446 11.1306C8.0458 14.4476 6.08996 18.9711 6.00247 23.7205L6.0024 23.7247M24.1668 6.00036L6.0024 23.7247M6.0024 23.7247C5.96367 26.094 6.39452 28.4476 7.27011 30.6496C8.1457 32.8516 9.44867 34.8585 11.1039 36.5543L11.1038 36.5544M6.0024 23.7247L11.1038 36.5544M11.1038 36.5544L11.1137 36.5643M11.1038 36.5544L11.1137 36.5643M11.1137 36.5643L21.3337 46.8894L21.3409 46.8966M11.1137 36.5643L21.3409 46.8966M21.3409 46.8966C22.0461 47.6018 23.0025 47.9978 23.9996 47.9978C24.9967 47.9978 25.9531 47.6018 26.6584 46.8966L26.6656 46.8893M21.3409 46.8966L26.6656 46.8893M26.6656 46.8893L36.8856 36.5643L36.8856 36.5644M26.6656 46.8893L36.8856 36.5644M36.8856 36.5644L36.8953 36.5544M36.8856 36.5644L36.8953 36.5544M36.8953 36.5544C40.1721 33.1977 42.0045 28.6914 42.0001 24.0004L36.8953 36.5544Z" stroke="#338FFF" stroke-opacity="0.4" stroke-width="4"/>
<path d="M24.1926 4.00049V4.00051C29.4635 4.05124 34.5013 6.18079 38.2105 9.92602C41.9197 13.6713 44.0004 18.7294 44.0001 24.0005M24.1926 4.00049L44.0001 24.0005M24.1926 4.00049L24.1795 4.0004M24.1926 4.00049L24.1795 4.0004M44.0001 24.0005C44.0045 29.2135 41.968 34.2211 38.3264 37.9515M44.0001 24.0005L38.3264 37.9515M24.1795 4.0004C18.9031 3.96697 13.8263 6.01448 10.0494 9.69899C6.27251 13.3835 4.09999 18.4081 4.00281 23.6837H4.0028M24.1795 4.0004L4.0028 23.6837M4.0028 23.6837L4.00266 23.692M4.0028 23.6837L4.00266 23.692M4.00266 23.692C3.95962 26.3254 4.43849 28.9412 5.41165 31.3886C6.3848 33.836 7.83296 36.0665 9.67261 37.9513L9.68241 37.9613M4.00266 23.692L9.68241 37.9613M9.68241 37.9613L9.69228 37.9713M9.68241 37.9613L9.69228 37.9713M9.69228 37.9713L19.9123 48.2963L19.9195 48.3036M9.69228 37.9713L19.9195 48.3036M19.9195 48.3036L19.9267 48.3108M19.9195 48.3036L19.9267 48.3108M19.9267 48.3108C21.0071 49.3912 22.4722 49.9978 23.9996 49.9978C25.527 49.9978 26.9922 49.3912 28.0725 48.3108L28.0798 48.3036M19.9267 48.3108L28.0798 48.3036M28.0798 48.3036L28.087 48.2963M28.0798 48.3036L28.087 48.2963M28.087 48.2963L38.307 37.9713L38.3167 37.9614M28.087 48.2963L38.3167 37.9614M38.3167 37.9614L38.3264 37.9515M38.3167 37.9614L38.3264 37.9515" stroke="#338FFF" stroke-opacity="0.4" stroke-width="8"/>
<defs>
<clipPath id="clip0_3448_32024">
<rect width="32" height="38" fill="white" transform="translate(8 8)"/>
</clipPath>
</defs>
</svg>
