<svg width="70" height="70" viewBox="0 0 70 70" fill="none" xmlns="http://www.w3.org/2000/svg">
<path fill-rule="evenodd" clip-rule="evenodd" d="M53.958 36.0544L53.9483 36.0641L53.9099 36.1026L52.6926 37.0023L51.6148 37.8058C51.5667 37.8395 51.509 37.8587 51.4513 37.8491C51.3935 37.8443 51.3406 37.8154 51.3021 37.7673C51.2684 37.7288 51.254 37.6807 51.254 37.6326L51.254 36.6462L36.1123 36.6462L35.7677 36.6462L35.7677 51.1302L36.7985 51.1302C36.8488 51.1302 36.899 51.1453 36.9393 51.1805C36.9896 51.2207 37.0197 51.276 37.0248 51.3364C37.0348 51.3967 37.0147 51.457 36.9795 51.5073L36.1398 52.6336L35.1995 53.9058L35.1593 53.946L35.1492 53.9561L35.1442 53.9611C35.0989 53.9963 35.0386 54.0064 34.9833 53.9963C34.928 53.9862 34.8777 53.9561 34.8425 53.9108L33.8922 52.6387L33.0524 51.5123C33.0223 51.4721 33.0022 51.4168 33.0022 51.3665C33.0022 51.3012 33.0273 51.2458 33.0675 51.2006C33.1077 51.1553 33.1681 51.1302 33.2284 51.1302L34.2592 51.1302L34.2592 36.6462L18.746 36.6462L18.746 37.6326C18.746 37.6807 18.7316 37.7288 18.6979 37.7673C18.6594 37.8154 18.6065 37.8443 18.5487 37.8491C18.491 37.8587 18.4333 37.8395 18.3852 37.8058L17.3074 37.0023L16.0901 36.1026L16.0517 36.0641L16.042 36.0545L16.0372 36.0496C16.0035 36.0063 15.9939 35.9486 16.0035 35.8957C16.0132 35.8428 16.042 35.7946 16.0853 35.761L17.3026 34.8516L18.3803 34.0481C18.4188 34.0192 18.4718 34 18.5199 34C18.5824 34 18.6353 34.0241 18.6786 34.0625C18.722 34.101 18.746 34.1588 18.746 34.2165L18.746 35.2028L34.2592 35.2028L34.2592 34.3324L34.2553 34.3324L34.2553 18.8698L33.2245 18.8698C33.1642 18.8698 33.1038 18.8447 33.0636 18.7994C33.0234 18.7541 32.9982 18.6988 32.9982 18.6335C32.9982 18.5832 33.0184 18.5279 33.0485 18.4877L33.8882 17.3613L34.8386 16.0892C34.8738 16.0439 34.9241 16.0138 34.9794 16.0037C35.0347 15.9936 35.095 16.0037 35.1403 16.0389L35.1453 16.0439L35.1554 16.054L35.1956 16.0942L36.1359 17.3664L36.9756 18.4927C37.0108 18.543 37.0309 18.6033 37.0208 18.6636C37.0158 18.724 36.9857 18.7793 36.9354 18.8195C36.8951 18.8547 36.8449 18.8698 36.7946 18.8698L35.7638 18.8698L35.7638 32.9811L35.7677 32.9811L35.7677 35.2028L36.1123 35.2028L51.254 35.2028L51.254 34.2165C51.254 34.1588 51.278 34.101 51.3213 34.0625C51.3647 34.0241 51.4176 34 51.4801 34C51.5282 34 51.5812 34.0192 51.6197 34.0481L52.6974 34.8516L53.9147 35.761C53.958 35.7946 53.9868 35.8428 53.9965 35.8957C54.0061 35.9486 53.9965 36.0063 53.9628 36.0496L53.958 36.0544Z" fill="white" fill-opacity="0.6"/>
<path d="M37.358 5.764V8.842H31.904V5.764H32.822V6.592H36.44V5.764H37.358ZM36.44 8.104V7.303H32.822V8.104H36.44ZM38.312 10.246H35.081V11.074H37.403V13.693H36.476V11.812H31.769V11.074H34.154V10.246H30.941V9.499H38.312V10.246Z" fill="white" fill-opacity="0.6"/>
<path d="M38.456 58.366V59.131H37.304V61.156H36.377V56.566H37.304V58.366H38.456ZM35.63 59.518L35.747 60.274C35.057 60.412 34.406 60.505 33.794 60.553C33.182 60.601 32.576 60.625 31.976 60.625H31.319V56.962H32.246V59.86C32.792 59.848 33.341 59.818 33.893 59.77C34.451 59.722 35.03 59.638 35.63 59.518ZM32.111 64.594V61.57H37.304V64.594H32.111ZM33.02 62.308V63.847H36.395V62.308H33.02Z" fill="white" fill-opacity="0.6"/>
<path d="M61.599 35.49H64.812V36.246H57.468V35.49H60.672V34.68H58.377V31.926H63.912V32.664H59.295V33.933H63.966V34.68H61.599V35.49ZM61.113 36.741C61.989 36.741 62.673 36.87 63.165 37.128C63.663 37.386 63.912 37.749 63.912 38.217C63.912 38.691 63.669 39.057 63.183 39.315C62.703 39.573 62.013 39.702 61.113 39.702C60.681 39.702 60.291 39.669 59.943 39.603C59.595 39.537 59.301 39.441 59.061 39.315C58.821 39.189 58.635 39.033 58.503 38.847C58.377 38.661 58.314 38.451 58.314 38.217C58.314 37.983 58.377 37.776 58.503 37.596C58.635 37.41 58.821 37.254 59.061 37.128C59.301 37.002 59.595 36.906 59.943 36.84C60.291 36.774 60.681 36.741 61.113 36.741ZM61.113 38.982C61.713 38.982 62.172 38.919 62.49 38.793C62.814 38.661 62.976 38.469 62.976 38.217C62.976 37.965 62.814 37.776 62.49 37.65C62.172 37.518 61.713 37.452 61.113 37.452C60.513 37.452 60.054 37.518 59.736 37.65C59.418 37.776 59.259 37.965 59.259 38.217C59.259 38.469 59.418 38.661 59.736 38.793C60.054 38.919 60.513 38.982 61.113 38.982Z" fill="white" fill-opacity="0.6"/>
<path d="M10.273 31.548H11.209V39.702H10.273V34.977H8.536V34.221H10.273V31.548ZM7.402 32.223V33.564C7.402 33.942 7.447 34.314 7.537 34.68C7.633 35.04 7.768 35.379 7.942 35.697C8.116 36.009 8.326 36.291 8.572 36.543C8.824 36.789 9.106 36.984 9.418 37.128L8.869 37.875C8.401 37.647 8.005 37.32 7.681 36.894C7.363 36.468 7.117 35.982 6.943 35.436C6.763 36.018 6.508 36.534 6.178 36.984C5.854 37.428 5.458 37.77 4.99 38.01L4.405 37.272C4.723 37.116 5.008 36.906 5.26 36.642C5.518 36.378 5.734 36.084 5.908 35.76C6.088 35.43 6.226 35.076 6.322 34.698C6.418 34.32 6.466 33.942 6.466 33.564V32.223H7.402Z" fill="white" fill-opacity="0.6"/>
</svg>
