<svg width="121" height="40" viewBox="0 0 121 40" fill="none" xmlns="http://www.w3.org/2000/svg">
<g clip-path="url(#clip0_3_5)">
<mask id="mask0_3_5" style="mask-type:luminance" maskUnits="userSpaceOnUse" x="0" y="0" width="121" height="40">
<path d="M120.911 0H0.0859375V40H120.911V0Z" fill="white"/>
</mask>
<g mask="url(#mask0_3_5)">
<path fill-rule="evenodd" clip-rule="evenodd" d="M32.6872 23.1902C32.3516 22.7045 31.9725 22.2504 31.5547 21.8334L33.0181 21.331L38.1482 17.2275L38.4629 13.5797L38.3317 13.3172L38.3042 13.2227L38.2887 13.1705L38.2752 13.1077L38.2188 12.932L37.6967 11.5632L32.0423 10.0349L28.0996 8.76489L25.3408 2.40985L22.5693 1.28094L22.1707 1.23438L21.947 1.2633H20.7341L16.5501 5.60889L15.4022 9.87334L6.81119 10.7793L5.78883 12.9877L5.69922 13.3405L5.72391 15.0875L9.62782 19.9975L12.6131 21.5984C12.1071 22.0662 11.6525 22.5865 11.257 23.1507C4.59289 24.6874 5.9497 38.1426 14.1921 39.4246C16.7373 39.8121 19.3083 40.0041 21.8828 39.9989C24.7958 40.0076 27.7038 39.7597 30.5733 39.2581C38.2872 37.8745 39.256 24.7389 32.69 23.1902" fill="white"/>
<path fill-rule="evenodd" clip-rule="evenodd" d="M17.9727 18.5219C20.6184 17.8713 23.383 17.8772 26.026 18.5388L24.9966 14.4811L24.0165 14.4648L23.8543 15.6763H22.6922L22.556 14.4846L21.4511 14.4648L21.317 15.6763L20.1458 15.6636L20.0047 14.474H19.0105L17.9727 18.5219Z" fill="#FC9200"/>
<path fill-rule="evenodd" clip-rule="evenodd" d="M32.6881 23.1897C35.4031 27.1162 34.4633 31.9197 34.4633 31.9197C32.8533 32.1225 31.2189 31.9986 29.6579 31.5555C28.0968 31.1124 26.6411 30.3592 25.3777 29.3409C23.847 28.1123 22.6676 26.5016 21.9585 24.6714C21.2501 26.5022 20.0712 28.1136 18.5407 29.343C17.2773 30.3613 15.8216 31.1146 14.2606 31.5577C12.6995 32.0007 11.0652 32.1246 9.45516 31.9218C9.45516 31.9218 8.50688 27.0852 11.2565 23.1523C4.59239 24.6891 0.0859375 27.627 0.0859375 31.0074C0.0859375 35.4574 7.89656 39.1426 18.1619 39.8708V33.9285H19.8129V39.9604C20.2221 39.9759 20.6356 39.9879 21.0504 39.9942V31.5274H22.7015V39.9942C23.1211 39.9881 23.5376 39.9768 23.951 39.9604V33.9285H25.6006V39.8708C35.8702 39.1433 43.6836 35.4574 43.6836 31.0074C43.6836 27.6574 39.2555 24.7406 32.6867 23.1919" fill="#0055A5"/>
<path fill-rule="evenodd" clip-rule="evenodd" d="M14.8951 8.63896C11.5779 7.99546 8.14013 8.64037 5.28171 10.4424C5.31339 11.3731 5.4659 12.2957 5.73539 13.187C7.38767 11.8892 9.38537 11.1063 11.4795 10.9359C13.5737 10.7655 15.6717 11.2152 17.512 12.2289C17.0935 10.1603 17.2973 8.01401 18.0977 6.06115C18.8981 4.10828 20.2593 2.4364 22.0093 1.25661C21.2453 0.730061 20.4146 0.307483 19.5391 0C16.9472 2.18299 15.2862 5.27289 14.8951 8.63896ZM3.79297 15.1556C4.44368 16.7496 5.40662 18.1973 6.62511 19.4137C6.93415 19.7255 7.24813 20.0212 7.57622 20.3034C8.79164 21.3046 10.1721 22.0865 11.6558 22.6141C12.2793 21.8465 13.0134 21.1757 13.8339 20.6237C11.9378 20.2328 10.1833 19.3349 8.75714 18.0257C7.331 16.7165 6.28668 15.045 5.73539 13.1892C5.00694 13.7594 4.3542 14.4202 3.79297 15.1556ZM29.1228 8.63896C28.7334 5.27203 27.0715 2.18138 24.4774 0C23.6019 0.306937 22.7714 0.729553 22.0079 1.25661C23.7597 2.43473 25.1223 4.10638 25.923 6.05972C26.7238 8.01305 26.9266 10.1601 26.5059 12.2289C28.3475 11.2152 30.4466 10.7657 32.5418 10.9365C34.637 11.1072 36.6357 11.8907 38.2888 13.1892C38.5485 12.2957 38.6994 11.3741 38.7383 10.4445C35.8798 8.64277 32.4424 7.99717 29.1249 8.63896M38.2888 13.1892C37.7563 15.0133 36.7378 16.6583 35.3424 17.9482C33.8788 19.3119 32.0667 20.2444 30.1064 20.6428C30.9255 21.1987 31.6576 21.873 32.2788 22.6438C33.7944 22.117 35.204 21.3245 36.4417 20.3034C36.7683 20.0212 37.088 19.7255 37.3921 19.4137C38.6095 18.195 39.5744 16.748 40.2313 15.1556C39.6649 14.4245 39.0132 13.7642 38.2888 13.1892Z" fill="#D50037"/>
<path d="M80.1762 31.4702C80.156 31.8109 80.2068 32.1521 80.3254 32.4721C80.4439 32.7921 80.6276 33.084 80.8648 33.3294C81.3977 33.7968 82.0932 34.0358 82.8009 33.9947H95.0023V24.2734H80.1762V31.4702ZM83.661 26.2053H91.5189V32.0615H83.661V26.2053Z" fill="white"/>
<path d="M95.0016 10H91.5182V18.2495C90.9 18.4909 90.2676 18.6943 89.6245 18.8584C88.7822 19.0527 87.9199 19.1474 87.0555 19.1406H80.7633V10H77.2884V18.6785C77.263 19.0042 77.3058 19.3317 77.4142 19.6399C77.5226 19.9481 77.6941 20.2303 77.9177 20.4685C78.4444 20.9028 79.1177 21.1185 79.7988 21.071H86.9003C87.7835 21.0735 88.6612 20.9319 89.4989 20.6519C90.1979 20.4249 90.8739 20.1327 91.5182 19.7792V22.9782H95.0016V15.8209H98.8963V13.8891H95.0016V10Z" fill="white"/>
<path d="M120.911 10H117.418V33.9914H120.911V10Z" fill="white"/>
<path d="M67.1627 14.5328H62.2773V16.4668H67.1627V22.9792H70.6425V9.98828H67.1627V14.5328Z" fill="white"/>
<path d="M63.6452 23.5898C59.7194 23.5898 56.6445 26.0191 56.6445 29.1285C56.6445 32.238 59.7194 34.6665 63.6452 34.6665C67.5709 34.6665 70.6416 32.2366 70.6416 29.1285C70.6416 26.0205 67.566 23.5898 63.6423 23.5898M63.6423 32.7481C62.922 32.7689 62.2119 32.5743 61.6028 32.1892C60.9938 31.8041 60.5134 31.246 60.2233 30.5864C59.9332 29.9268 59.8465 29.1956 59.9744 28.4864C60.1022 27.7772 60.4387 27.1223 60.9408 26.6054C61.443 26.0886 62.0879 25.7333 62.7931 25.5851C63.4983 25.4369 64.2316 25.5024 64.8994 25.7734C65.5671 26.0443 66.1388 26.5083 66.5413 27.106C66.9438 27.7037 67.1589 28.4079 67.1589 29.1285C67.1745 29.5994 67.0949 30.0685 66.925 30.5079C66.7551 30.9473 66.4983 31.348 66.1701 31.6859C65.8418 32.0238 65.4487 32.292 65.0144 32.4745C64.5801 32.657 64.1134 32.7501 63.6423 32.7481Z" fill="white"/>
<path d="M61.0263 18.3144C59.7267 16.6831 59.029 14.6538 59.0507 12.5683V10H55.4848V12.5683C55.5099 14.6531 54.8148 16.6827 53.5169 18.3144C52.3839 19.4743 51.0935 20.4692 49.6836 21.27L51.245 22.7962C52.4264 22.1395 53.5583 21.3977 54.6317 20.5764C55.7181 19.6859 56.6155 18.5872 57.2713 17.345C57.9278 18.5869 58.8254 19.6855 59.9115 20.5764C60.9846 21.3982 62.1165 22.1401 63.2982 22.7962L64.8639 21.27C63.453 20.4696 62.1619 19.4747 61.0284 18.3144" fill="white"/>
<path d="M111.886 21.4097C110.142 19.3071 109.893 17.4451 109.821 14.6638V10H106.255V14.6638C106.185 17.4451 105.938 19.3071 104.198 21.4097C103.097 22.57 101.834 23.5659 100.449 24.3668L102.012 25.8922C103.201 25.2597 104.308 24.4842 105.308 23.5829C107.439 21.4662 107.949 20.3408 108.041 19.8949C108.129 20.3408 108.642 21.4633 110.768 23.5829C111.77 24.4844 112.878 25.2599 114.067 25.8922L115.632 24.3668C114.247 23.5664 112.986 22.5705 111.886 21.4097Z" fill="white"/>
</g>
</g>
<defs>
<clipPath id="clip0_3_5">
<rect width="120.826" height="40" fill="white" transform="translate(0.0859375)"/>
</clipPath>
</defs>
</svg>
