<svg width="48" height="48" viewBox="0 0 48 48" fill="none" xmlns="http://www.w3.org/2000/svg">
<path d="M24 40C32.8366 40 40 32.8366 40 24C40 15.1634 32.8366 8 24 8C15.1634 8 8 15.1634 8 24C8 32.8366 15.1634 40 24 40Z" fill="#0068E6"/>
<path d="M39.5 24C39.5 32.5604 32.5604 39.5 24 39.5C15.4396 39.5 8.5 32.5604 8.5 24C8.5 15.4396 15.4396 8.5 24 8.5C32.5604 8.5 39.5 15.4396 39.5 24Z" stroke="black" stroke-opacity="0.3"/>
<path fill-rule="evenodd" clip-rule="evenodd" d="M48 24C48 37.2548 37.2548 48 24 48C10.7452 48 0 37.2548 0 24C0 10.7452 10.7452 0 24 0C37.2548 0 48 10.7452 48 24ZM40 24C40 32.8366 32.8366 40 24 40C15.1634 40 8 32.8366 8 24C8 15.1634 15.1634 8 24 8C32.8366 8 40 15.1634 40 24Z" fill="#27D4FF" fill-opacity="0.4"/>
<path fill-rule="evenodd" clip-rule="evenodd" d="M44 24C44 35.0457 35.0457 44 24 44C12.9543 44 4 35.0457 4 24C4 12.9543 12.9543 4 24 4C35.0457 4 44 12.9543 44 24ZM40 24C40 32.8366 32.8366 40 24 40C15.1634 40 8 32.8366 8 24C8 15.1634 15.1634 8 24 8C32.8366 8 40 15.1634 40 24Z" fill="#27D4FF" fill-opacity="0.4"/>
<path fill-rule="evenodd" clip-rule="evenodd" d="M24 39C32.2843 39 39 32.2843 39 24C39 15.7157 32.2843 9 24 9C15.7157 9 9 15.7157 9 24C9 32.2843 15.7157 39 24 39ZM40 24C40 32.8366 32.8366 40 24 40C15.1634 40 8 32.8366 8 24C8 15.1634 15.1634 8 24 8C32.8366 8 40 15.1634 40 24Z" fill="#27D4FF"/>
<path d="M17.7697 28.4406L17.1767 28.7826C16.947 28.9152 16.674 28.9512 16.4179 28.8825C16.1617 28.8139 15.9433 28.6463 15.8107 28.4166L14.6887 26.4736C14.5561 26.2439 14.5201 25.971 14.5888 25.7148C14.6574 25.4587 14.825 25.2402 15.0547 25.1076L15.6477 24.7656L17.7697 28.4406Z" fill="white"/>
<path d="M25.4977 23.957L23.7656 24.957L25.4497 27.8738L27.1817 26.8737L25.4977 23.957Z" fill="white"/>
<path d="M28.414 26.5856C28.6938 26.8653 28.8843 27.2216 28.9615 27.6096C29.0387 27.9976 28.9992 28.3997 28.8478 28.7652C28.6965 29.1307 28.4401 29.4431 28.1112 29.6629C27.7823 29.8827 27.3956 30 27 30C26.6044 30 26.2177 29.8827 25.8888 29.6629C25.5599 29.4431 25.3035 29.1307 25.1522 28.7652C25.0008 28.3997 24.9613 27.9976 25.0385 27.6096C25.1157 27.2216 25.3062 26.8653 25.586 26.5856C25.9611 26.2106 26.4697 26 27 26C27.5303 26 28.0389 26.2106 28.414 26.5856Z" fill="white"/>
<path d="M33 27H27V29H33V27Z" fill="white"/>
<path d="M34 32H32C31.7348 32 31.4804 31.8946 31.2929 31.7071C31.1054 31.5196 31 31.2652 31 31V25C31 24.7348 31.1054 24.4804 31.2929 24.2929C31.4804 24.1054 31.7348 24 32 24H34V32Z" fill="white"/>
<path d="M20.0089 25.2992L16.4549 23.6372C16.2599 23.5452 16.0619 23.8012 16.1649 23.9802L18.4989 28.0202C18.5541 28.116 18.6277 28.2 18.7154 28.2673C18.8031 28.3347 18.9032 28.3841 19.01 28.4127C19.1169 28.4413 19.2283 28.4486 19.3379 28.4341C19.4475 28.4196 19.5532 28.3836 19.6489 28.3282L28.3989 23.2762C28.5925 23.1645 28.7337 22.9805 28.7917 22.7647C28.8496 22.5488 28.8195 22.3188 28.7079 22.1252L28.2699 21.3672L21.5699 25.2362C21.3342 25.3721 21.069 25.4488 20.7972 25.4598C20.5253 25.4708 20.2548 25.4157 20.0089 25.2992Z" fill="white"/>
<path d="M25.6321 15.1131L14.9661 21.2711C14.8998 21.3099 14.8454 21.3662 14.8088 21.4337C14.7721 21.5012 14.7547 21.5775 14.7583 21.6542C14.7619 21.731 14.7864 21.8053 14.8292 21.8691C14.872 21.9328 14.9315 21.9837 15.0011 22.0161L20.3721 24.5411C20.4949 24.599 20.6299 24.6263 20.7656 24.6207C20.9012 24.6152 21.0335 24.5769 21.1511 24.5091L28.5801 20.2181C28.7734 20.1064 28.9145 19.9226 28.9724 19.707C29.0303 19.4914 29.0004 19.2617 28.8891 19.0681L26.7821 15.4211C26.7269 15.3253 26.6534 15.2413 26.5657 15.174C26.478 15.1066 26.3778 15.0572 26.271 15.0286C26.1642 15 26.0528 14.9928 25.9432 15.0073C25.8335 15.0218 25.7278 15.0577 25.6321 15.1131Z" fill="white"/>
</svg>
