<svg width="210" height="107" viewBox="0 0 210 107" fill="none" xmlns="http://www.w3.org/2000/svg">
<path d="M151.921 5.715V4.978H153.549V3.944H151.921V3.207H153.549V1.458H154.462V7.53H153.549V5.715H151.921ZM152.185 6.617C151.708 6.69033 151.217 6.749 150.711 6.793C150.205 6.837 149.703 6.87 149.204 6.892C148.713 6.914 148.232 6.92867 147.763 6.936C147.294 6.94333 146.861 6.947 146.465 6.947L146.366 6.199H147.29C147.393 6.199 147.499 6.19533 147.609 6.188V2.921H146.63V2.195H151.822V2.921H150.843V6.078C151.063 6.06333 151.279 6.045 151.492 6.023C151.712 6.001 151.925 5.97533 152.13 5.946L152.185 6.617ZM148.478 6.177C148.72 6.16967 148.966 6.16233 149.215 6.155C149.464 6.14767 149.714 6.13667 149.963 6.122V2.921H148.478V6.177ZM151.206 7.739C152.225 7.739 153.025 7.893 153.604 8.201C154.191 8.50167 154.484 8.938 154.484 9.51C154.484 10.082 154.191 10.522 153.604 10.83C153.025 11.1453 152.225 11.303 151.206 11.303C150.157 11.303 149.347 11.1453 148.775 10.83C148.203 10.522 147.917 10.082 147.917 9.51C147.917 8.938 148.203 8.50167 148.775 8.201C149.347 7.893 150.157 7.739 151.206 7.739ZM151.206 10.599C151.961 10.599 152.548 10.5073 152.966 10.324C153.384 10.1333 153.593 9.862 153.593 9.51C153.593 9.17267 153.384 8.90867 152.966 8.718C152.548 8.52733 151.961 8.432 151.206 8.432C150.451 8.432 149.864 8.52733 149.446 8.718C149.028 8.90867 148.819 9.17267 148.819 9.51C148.819 9.862 149.028 10.1333 149.446 10.324C149.864 10.5073 150.451 10.599 151.206 10.599ZM165.406 6.419H162.92V8.795H162.04V6.419H160.302V8.795H159.422V6.419H156.452V5.682H163.118C163.243 5.05867 163.312 4.51233 163.327 4.043C163.349 3.56633 163.36 3.12633 163.36 2.723V2.712H157.574V1.975H164.251V2.723C164.251 3.12633 164.24 3.56633 164.218 4.043C164.203 4.51967 164.137 5.066 164.02 5.682H165.406V6.419ZM164.515 10.357V11.094H157.541V8.003H158.432V10.357H164.515ZM177.072 5.418C176.698 5.352 176.328 5.25667 175.961 5.132C175.602 5 175.265 4.846 174.949 4.67C174.634 4.48667 174.348 4.27767 174.091 4.043C173.842 3.801 173.64 3.537 173.486 3.251C173.332 3.537 173.131 3.801 172.881 4.043C172.632 4.27767 172.35 4.48667 172.034 4.67C171.719 4.846 171.378 5 171.011 5.132C170.652 5.25667 170.285 5.352 169.911 5.418L169.57 4.692C170.01 4.63333 170.436 4.52333 170.846 4.362C171.264 4.20067 171.635 4.00267 171.957 3.768C172.28 3.53333 172.537 3.26933 172.727 2.976C172.925 2.68267 173.024 2.371 173.024 2.041V1.601H173.948V2.041C173.948 2.371 174.044 2.68267 174.234 2.976C174.432 3.26933 174.693 3.53333 175.015 3.768C175.345 4.00267 175.716 4.20067 176.126 4.362C176.544 4.52333 176.973 4.63333 177.413 4.692L177.072 5.418ZM177.985 7.134H169.031V6.397H173.035V4.901H173.937V6.397H177.985V7.134ZM176.852 8.091V11.325H175.95V8.828H170.021V8.091H176.852ZM188.104 10.071H179.139V9.323H183.154V6.793H180.283V2.239H186.971V2.976H181.185V6.067H187.07V6.793H184.067V9.323H188.104V10.071Z" fill="white" fill-opacity="0.6"/>
<path d="M27.2425 7.343V1.645H28.1005V4.131H29.3545V1.447H30.2235V7.695H29.3545V4.868H28.1005V7.343H27.2425ZM21.8415 3.339V2.624H23.9095V1.524H24.8005V2.624H26.8575V3.339H21.8415ZM26.4615 5.539C26.4615 5.79567 26.4101 6.03033 26.3075 6.243C26.2048 6.44833 26.0618 6.62433 25.8785 6.771C25.6951 6.91767 25.4715 7.03133 25.2075 7.112C24.9508 7.19267 24.6685 7.233 24.3605 7.233C24.0525 7.233 23.7665 7.19267 23.5025 7.112C23.2458 7.03133 23.0221 6.91767 22.8315 6.771C22.6481 6.62433 22.5051 6.44833 22.4025 6.243C22.2998 6.03033 22.2485 5.79567 22.2485 5.539C22.2485 5.28233 22.2998 5.05133 22.4025 4.846C22.5051 4.64067 22.6481 4.46467 22.8315 4.318C23.0221 4.17133 23.2458 4.05767 23.5025 3.977C23.7665 3.89633 24.0525 3.856 24.3605 3.856C24.6685 3.856 24.9508 3.89633 25.2075 3.977C25.4715 4.05767 25.6951 4.17133 25.8785 4.318C26.0618 4.46467 26.2048 4.64067 26.3075 4.846C26.4101 5.05133 26.4615 5.28233 26.4615 5.539ZM23.0625 5.539C23.0625 5.847 23.1798 6.09633 23.4145 6.287C23.6491 6.47033 23.9645 6.562 24.3605 6.562C24.7565 6.562 25.0718 6.47033 25.3065 6.287C25.5411 6.09633 25.6585 5.847 25.6585 5.539C25.6585 5.231 25.5411 4.98533 25.3065 4.802C25.0718 4.61867 24.7565 4.527 24.3605 4.527C23.9645 4.527 23.6491 4.61867 23.4145 4.802C23.1798 4.98533 23.0625 5.231 23.0625 5.539ZM26.9785 7.86C27.4918 7.86 27.9501 7.90033 28.3535 7.981C28.7641 8.05433 29.1125 8.16433 29.3985 8.311C29.6845 8.45767 29.9008 8.63733 30.0475 8.85C30.2015 9.06267 30.2785 9.30833 30.2785 9.587C30.2785 9.85833 30.2015 10.104 30.0475 10.324C29.9008 10.5367 29.6845 10.7127 29.3985 10.852C29.1125 10.9987 28.7641 11.1087 28.3535 11.182C27.9501 11.2627 27.4918 11.303 26.9785 11.303C26.4651 11.303 26.0031 11.2627 25.5925 11.182C25.1891 11.1087 24.8445 10.9987 24.5585 10.852C24.2725 10.7127 24.0525 10.5367 23.8985 10.324C23.7518 10.104 23.6785 9.85833 23.6785 9.587C23.6785 9.30833 23.7518 9.06267 23.8985 8.85C24.0525 8.63733 24.2725 8.45767 24.5585 8.311C24.8445 8.16433 25.1891 8.05433 25.5925 7.981C26.0031 7.90033 26.4651 7.86 26.9785 7.86ZM26.9785 10.61C27.7338 10.61 28.3205 10.522 28.7385 10.346C29.1638 10.17 29.3765 9.917 29.3765 9.587C29.3765 9.257 29.1638 9.004 28.7385 8.828C28.3205 8.64467 27.7338 8.553 26.9785 8.553C26.2231 8.553 25.6328 8.64467 25.2075 8.828C24.7821 9.004 24.5695 9.257 24.5695 9.587C24.5695 9.917 24.7821 10.17 25.2075 10.346C25.6328 10.522 26.2231 10.61 26.9785 10.61ZM37.3066 5.154V4.417H39.2316V3.383H37.3066V2.657H39.2316V1.458H40.1446V6.628H39.2316V5.154H37.3066ZM37.2956 6.045C36.929 6.10367 36.577 6.15133 36.2396 6.188C35.9096 6.21733 35.576 6.243 35.2386 6.265C34.9086 6.27967 34.5713 6.29067 34.2266 6.298C33.8893 6.298 33.5263 6.298 33.1376 6.298H32.4336V3.724H35.7776V2.624H32.4006V1.92H36.6576V4.395H33.3136V5.594C33.673 5.594 34.014 5.59033 34.3366 5.583C34.6593 5.57567 34.9783 5.56467 35.2936 5.55C35.609 5.53533 35.9243 5.51333 36.2396 5.484C36.555 5.44733 36.885 5.40333 37.2296 5.352L37.2956 6.045ZM40.5296 11.237H33.7426V8.795H39.2536V7.816H33.7206V7.123H40.1336V9.455H34.6336V10.533H40.5296V11.237ZM51.7887 6.485V1.447H52.6907V6.485H51.7887ZM49.7427 1.931C49.7427 2.55433 49.6364 3.12267 49.4237 3.636C49.2111 4.14933 48.9031 4.604 48.4997 5C48.1037 5.396 47.6161 5.737 47.0367 6.023C46.4647 6.30167 45.8157 6.52167 45.0897 6.683L44.7597 5.957C46.0211 5.68567 46.9854 5.27133 47.6527 4.714C48.3201 4.14933 48.6904 3.46733 48.7637 2.668H45.2547V1.931H49.7427ZM53.0207 11.215H46.3217V8.685H51.7887V7.673H46.2997V6.958H52.6907V9.356H47.2237V10.5H53.0207V11.215ZM62.7879 11.336H61.8859V1.447H62.7879V11.336ZM57.5849 2.206C57.9515 2.206 58.2889 2.28667 58.5969 2.448C58.9049 2.60933 59.1689 2.84033 59.3889 3.141C59.6089 3.44167 59.7812 3.80467 59.9059 4.23C60.0305 4.648 60.0929 5.121 60.0929 5.649C60.0929 6.177 60.0305 6.65367 59.9059 7.079C59.7812 7.497 59.6089 7.85633 59.3889 8.157C59.1689 8.45767 58.9049 8.68867 58.5969 8.85C58.2889 9.01133 57.9515 9.092 57.5849 9.092C57.2182 9.092 56.8809 9.01133 56.5729 8.85C56.2649 8.68867 56.0009 8.45767 55.7809 8.157C55.5609 7.85633 55.3885 7.497 55.2639 7.079C55.1392 6.65367 55.0769 6.177 55.0769 5.649C55.0769 5.121 55.1392 4.648 55.2639 4.23C55.3885 3.80467 55.5609 3.44167 55.7809 3.141C56.0009 2.84033 56.2649 2.60933 56.5729 2.448C56.8809 2.28667 57.2182 2.206 57.5849 2.206ZM57.5849 3.02C57.3429 3.02 57.1192 3.08233 56.9139 3.207C56.7159 3.33167 56.5435 3.50767 56.3969 3.735C56.2502 3.96233 56.1365 4.241 56.0559 4.571C55.9752 4.89367 55.9349 5.253 55.9349 5.649C55.9349 6.05233 55.9752 6.41533 56.0559 6.738C56.1365 7.06067 56.2502 7.33933 56.3969 7.574C56.5435 7.80133 56.7159 7.97733 56.9139 8.102C57.1192 8.22667 57.3429 8.289 57.5849 8.289C57.8269 8.289 58.0469 8.22667 58.2449 8.102C58.4429 7.97733 58.6152 7.80133 58.7619 7.574C58.9085 7.33933 59.0222 7.06067 59.1029 6.738C59.1835 6.41533 59.2239 6.05233 59.2239 5.649C59.2239 5.253 59.1835 4.89367 59.1029 4.571C59.0222 4.241 58.9085 3.96233 58.7619 3.735C58.6152 3.50767 58.4429 3.33167 58.2449 3.207C58.0469 3.08233 57.8269 3.02 57.5849 3.02Z" fill="white" fill-opacity="0.6"/>
<path d="M146.861 97.121C147.323 97.077 147.756 97 148.159 96.89C148.57 96.7727 148.929 96.6297 149.237 96.461C149.545 96.2923 149.794 96.098 149.985 95.878C150.176 95.6507 150.282 95.4013 150.304 95.13H147.257V94.415H150.348V93.414H151.25V94.415H154.341V95.13H151.283C151.305 95.4013 151.408 95.6507 151.591 95.878C151.782 96.098 152.031 96.296 152.339 96.472C152.654 96.6407 153.017 96.78 153.428 96.89C153.839 97 154.275 97.077 154.737 97.121L154.462 97.825C154.059 97.781 153.666 97.7113 153.285 97.616C152.911 97.5207 152.563 97.4033 152.24 97.264C151.925 97.1173 151.642 96.9487 151.393 96.758C151.144 96.56 150.946 96.34 150.799 96.098C150.645 96.34 150.443 96.56 150.194 96.758C149.952 96.9487 149.67 97.1173 149.347 97.264C149.032 97.4033 148.687 97.5207 148.313 97.616C147.939 97.7113 147.547 97.781 147.136 97.825L146.861 97.121ZM155.254 99.288H146.333V98.562H150.348V97.341H151.25V98.562H155.254V99.288ZM150.788 100.025C151.881 100.025 152.717 100.164 153.296 100.443C153.875 100.722 154.165 101.129 154.165 101.664C154.165 102.199 153.875 102.606 153.296 102.885C152.717 103.164 151.881 103.303 150.788 103.303C149.695 103.303 148.859 103.164 148.28 102.885C147.701 102.606 147.411 102.199 147.411 101.664C147.411 101.129 147.701 100.722 148.28 100.443C148.859 100.164 149.695 100.025 150.788 100.025ZM150.788 102.621C151.565 102.621 152.17 102.54 152.603 102.379C153.036 102.21 153.252 101.972 153.252 101.664C153.252 101.356 153.036 101.118 152.603 100.949C152.17 100.78 151.565 100.696 150.788 100.696C149.989 100.696 149.376 100.78 148.951 100.949C148.533 101.118 148.324 101.356 148.324 101.664C148.324 101.972 148.533 102.21 148.951 102.379C149.376 102.54 149.989 102.621 150.788 102.621ZM159.836 95.174V94.437H166.788V95.526C166.788 95.8413 166.784 96.1603 166.777 96.483C166.777 96.8057 166.766 97.1467 166.744 97.506C166.722 97.858 166.685 98.232 166.634 98.628C166.59 99.024 166.524 99.453 166.436 99.915L165.545 99.805C165.684 99.0643 165.776 98.353 165.82 97.671C165.864 96.989 165.886 96.274 165.886 95.526V95.174H159.836ZM167.833 101.928H158.912V101.191H161.101V97.924H161.992V101.191H163.543V97.924H164.434V101.191H167.833V101.928ZM177.952 99.398H169.02V98.672H173.035V97.704H170.197V93.733H176.852V94.437H171.099V95.35H176.588V96.032H171.099V97H176.907V97.704H173.937V98.672H177.952V99.398ZM173.486 100.146C174.586 100.146 175.422 100.282 175.994 100.553C176.574 100.817 176.863 101.206 176.863 101.719C176.863 102.247 176.574 102.643 175.994 102.907C175.422 103.171 174.586 103.303 173.486 103.303C172.386 103.303 171.547 103.171 170.967 102.907C170.395 102.643 170.109 102.247 170.109 101.719C170.109 101.206 170.395 100.817 170.967 100.553C171.547 100.282 172.386 100.146 173.486 100.146ZM173.486 102.621C174.286 102.621 174.898 102.548 175.323 102.401C175.749 102.254 175.961 102.027 175.961 101.719C175.961 101.426 175.749 101.202 175.323 101.048C174.898 100.894 174.286 100.817 173.486 100.817C172.687 100.817 172.075 100.894 171.649 101.048C171.224 101.202 171.011 101.426 171.011 101.719C171.011 102.027 171.224 102.254 171.649 102.401C172.075 102.548 172.687 102.621 173.486 102.621ZM186.806 97.066H188.269V97.814H186.806V99.42H185.904V93.458H186.806V94.987H188.269V95.735H186.806V97.066ZM185.046 98.518C184.658 98.584 184.28 98.639 183.913 98.683C183.547 98.7197 183.176 98.7527 182.802 98.782C182.428 98.804 182.04 98.8187 181.636 98.826C181.24 98.8333 180.815 98.837 180.36 98.837H179.579V96.043H183.11V94.8H179.557V94.063H184.001V96.736H180.47V98.1C180.903 98.1 181.31 98.0963 181.691 98.089C182.073 98.0817 182.443 98.067 182.802 98.045C183.162 98.0157 183.517 97.9827 183.869 97.946C184.221 97.902 184.584 97.847 184.958 97.781L185.046 98.518ZM183.66 99.706C184.159 99.706 184.606 99.7463 185.002 99.827C185.406 99.9077 185.747 100.025 186.025 100.179C186.311 100.333 186.528 100.524 186.674 100.751C186.828 100.971 186.905 101.224 186.905 101.51C186.905 101.796 186.828 102.053 186.674 102.28C186.528 102.5 186.311 102.683 186.025 102.83C185.747 102.984 185.406 103.101 185.002 103.182C184.606 103.263 184.159 103.303 183.66 103.303C183.154 103.303 182.7 103.263 182.296 103.182C181.9 103.101 181.563 102.984 181.284 102.83C181.006 102.683 180.789 102.5 180.635 102.28C180.489 102.053 180.415 101.796 180.415 101.51C180.415 101.224 180.489 100.971 180.635 100.751C180.789 100.524 181.006 100.333 181.284 100.179C181.563 100.025 181.9 99.9077 182.296 99.827C182.7 99.7463 183.154 99.706 183.66 99.706ZM183.66 102.61C184.416 102.61 184.995 102.515 185.398 102.324C185.809 102.133 186.014 101.862 186.014 101.51C186.014 101.158 185.809 100.887 185.398 100.696C184.995 100.505 184.416 100.41 183.66 100.41C182.905 100.41 182.322 100.505 181.911 100.696C181.501 100.887 181.295 101.158 181.295 101.51C181.295 101.862 181.501 102.133 181.911 102.324C182.322 102.515 182.905 102.61 183.66 102.61Z" fill="white" fill-opacity="0.6"/>
<path d="M7.2462 97.715H8.8742V99.53H9.7872V93.458H8.8742V95.207H7.2462V95.944H8.8742V96.978H7.2462V97.715ZM7.5102 98.617L7.4552 97.946C7.0482 98.001 6.6082 98.045 6.1682 98.078V94.921H7.1472V94.195H1.9552V94.921H2.9342V98.188C2.7142 98.199 2.5052 98.199 2.2962 98.199H1.6912L1.7902 98.947C3.3852 98.947 5.6072 98.914 7.5102 98.617ZM3.8032 98.177V94.921H5.2882V98.122C4.7932 98.155 4.2872 98.166 3.8032 98.177ZM6.5312 99.739C4.4522 99.739 3.2422 100.366 3.2422 101.51C3.2422 102.654 4.4522 103.303 6.5312 103.303C8.5662 103.303 9.8092 102.654 9.8092 101.51C9.8092 100.366 8.5662 99.739 6.5312 99.739ZM6.5312 102.599C5.0242 102.599 4.1442 102.214 4.1442 101.51C4.1442 100.839 5.0242 100.432 6.5312 100.432C8.0382 100.432 8.9182 100.839 8.9182 101.51C8.9182 102.214 8.0382 102.599 6.5312 102.599ZM20.7313 98.419V97.682H19.3453C19.5763 96.45 19.5763 95.526 19.5763 94.723V93.975H12.8993V94.712H18.6853V94.723C18.6853 95.526 18.6963 96.439 18.4433 97.682H11.7773V98.419H14.7473V100.795H15.6273V98.419H17.3653V100.795H18.2453V98.419H20.7313ZM19.8403 102.357H13.7573V100.003H12.8663V103.094H19.8403V102.357ZM32.4304 103.314V93.458H31.5284V103.314H32.4304ZM27.8764 96.461V95.207H30.1974V94.459H24.6864V95.207H26.9744V96.461C26.9744 98.166 25.7754 100.014 24.3564 100.696L24.8844 101.422C25.9844 100.872 26.9854 99.596 27.4254 98.166C27.8984 99.519 28.8664 100.652 30.0104 101.18L30.5164 100.454C29.0644 99.838 27.8764 98.133 27.8764 96.461ZM42.8576 103.303V93.447H41.9886V103.303H42.8576ZM40.8666 93.678H40.0086V97.341H38.5016V98.089H40.0086V102.797H40.8666V93.678ZM37.3466 96.483V96.01H39.1726V95.262H37.3576V93.799H36.4886V95.262H34.6626V96.01H36.4886V96.483C36.4886 98.1 35.7296 99.827 34.3986 100.619L34.9266 101.29C35.8946 100.707 36.5876 99.64 36.9286 98.353C37.2916 99.541 37.9846 100.542 38.9526 101.081L39.4696 100.399C38.1386 99.695 37.3466 98.056 37.3466 96.483ZM52.6687 103.336V93.447H51.7667V103.336H52.6687ZM48.0927 96.076V94.305H47.2017V96.076C47.2017 97.968 45.9917 99.827 44.5507 100.531L45.1007 101.268C46.2557 100.652 47.2017 99.464 47.6527 97.957C48.1257 99.376 49.0497 100.52 50.1937 101.081L50.7327 100.355C49.2807 99.706 48.0927 97.88 48.0927 96.076ZM63.8329 97.198V96.45H62.3699V93.458H61.4679V100.663H62.3699V97.198H63.8329ZM59.7299 94.217H55.1319V94.954H58.7619C58.5859 96.692 57.0459 98.089 54.7359 98.815L55.0989 99.53C57.9479 98.65 59.7299 96.769 59.7299 94.217ZM62.7989 102.357H57.1229V99.926H56.2209V103.094H62.7989V102.357Z" fill="white" fill-opacity="0.6"/>
<circle cx="104.75" cy="53.5" r="26" stroke="white" stroke-opacity="0.2"/>
<circle cx="104.75" cy="53.5" r="52.5" stroke="white" stroke-opacity="0.2"/>
<rect x="51.75" y="53.1699" width="106" height="0.660436" fill="white" fill-opacity="0.2"/>
<rect x="104.418" y="106.5" width="106" height="0.6625" transform="rotate(-90 104.418 106.5)" fill="white" fill-opacity="0.2"/>
<rect x="67.5078" y="15.791" width="106" height="0.660436" transform="rotate(45 67.5078 15.791)" fill="white" fill-opacity="0.2"/>
<rect x="67.0391" y="90.7422" width="106" height="0.6625" transform="rotate(-45 67.0391 90.7422)" fill="white" fill-opacity="0.2"/>
<path d="M104.757 53.4942L125.787 32.0014C122.19 28.3075 117.652 25.6602 112.66 24.3438L104.757 53.4942Z" fill="#27D4FF"/>
<path d="M134.725 82.485C139.902 77.4958 143.626 71.2007 145.499 64.2696L104.768 53.4965L134.725 82.485Z" fill="#27D4FF"/>
<path d="M125.495 47.932C124.522 44.3168 122.612 41.0204 119.957 38.3738L104.755 53.4997L125.495 47.932Z" fill="#0077FF"/>
<path d="M126.127 74.7378L104.762 53.4941L112.545 82.5574C117.677 81.173 122.359 78.4782 126.127 74.7391" fill="#0077FF"/>
<path d="M87.8678 70.756C90.757 73.7226 94.4021 75.8486 98.4119 76.9059L104.761 53.4943L87.8678 70.756Z" fill="#27D4FF"/>
<path d="M104.759 53.4942L75.7761 61.274C77.1359 66.3262 79.805 70.9329 83.5154 74.6316L104.759 53.4942Z" fill="#0077FF"/>
<path d="M104.76 53.4928L93.6974 12.1835C86.4025 14.1514 79.7487 17.9822 74.3932 23.2976L104.76 53.4928Z" fill="#0068E6"/>
<path d="M104.762 53.4975L78.0783 27.6782C73.4668 32.1216 70.15 37.7283 68.4809 43.9016L104.762 53.4975Z" fill="#27D4FF"/>
<path d="M113.849 10.5H109.493V9.686H111.286V3.724C111.286 3.68 111.289 3.63967 111.296 3.603L109.834 4.912L109.295 4.263L111.462 2.393H112.265V9.686H113.849V10.5ZM120.874 6.485C120.874 7.19633 120.797 7.816 120.643 8.344C120.489 8.86467 120.28 9.29733 120.016 9.642C119.752 9.98667 119.441 10.2433 119.081 10.412C118.722 10.5733 118.333 10.654 117.915 10.654C117.497 10.654 117.109 10.5733 116.749 10.412C116.39 10.2433 116.075 9.98667 115.803 9.642C115.539 9.29733 115.33 8.86467 115.176 8.344C115.03 7.816 114.956 7.19633 114.956 6.485C114.956 5.76633 115.03 5.14667 115.176 4.626C115.33 4.098 115.539 3.66167 115.803 3.317C116.075 2.97233 116.39 2.71933 116.749 2.558C117.109 2.38933 117.497 2.305 117.915 2.305C118.333 2.305 118.722 2.38933 119.081 2.558C119.441 2.71933 119.752 2.97233 120.016 3.317C120.28 3.66167 120.489 4.098 120.643 4.626C120.797 5.14667 120.874 5.76633 120.874 6.485ZM119.862 6.485C119.862 5.85433 119.807 5.32633 119.697 4.901C119.595 4.46833 119.452 4.12367 119.268 3.867C119.092 3.603 118.887 3.416 118.652 3.306C118.418 3.18867 118.172 3.13 117.915 3.13C117.659 3.13 117.413 3.18867 117.178 3.306C116.944 3.416 116.738 3.603 116.562 3.867C116.386 4.12367 116.243 4.46833 116.133 4.901C116.031 5.32633 115.979 5.85433 115.979 6.485C115.979 7.10833 116.031 7.63633 116.133 8.069C116.243 8.49433 116.386 8.839 116.562 9.103C116.738 9.367 116.944 9.55767 117.178 9.675C117.413 9.785 117.659 9.84 117.915 9.84C118.172 9.84 118.418 9.785 118.652 9.675C118.887 9.55767 119.092 9.367 119.268 9.103C119.452 8.839 119.595 8.49433 119.697 8.069C119.807 7.63633 119.862 7.10833 119.862 6.485ZM127.427 6.485C127.427 7.19633 127.35 7.816 127.196 8.344C127.042 8.86467 126.833 9.29733 126.569 9.642C126.305 9.98667 125.993 10.2433 125.634 10.412C125.275 10.5733 124.886 10.654 124.468 10.654C124.05 10.654 123.661 10.5733 123.302 10.412C122.943 10.2433 122.627 9.98667 122.356 9.642C122.092 9.29733 121.883 8.86467 121.729 8.344C121.582 7.816 121.509 7.19633 121.509 6.485C121.509 5.76633 121.582 5.14667 121.729 4.626C121.883 4.098 122.092 3.66167 122.356 3.317C122.627 2.97233 122.943 2.71933 123.302 2.558C123.661 2.38933 124.05 2.305 124.468 2.305C124.886 2.305 125.275 2.38933 125.634 2.558C125.993 2.71933 126.305 2.97233 126.569 3.317C126.833 3.66167 127.042 4.098 127.196 4.626C127.35 5.14667 127.427 5.76633 127.427 6.485ZM126.415 6.485C126.415 5.85433 126.36 5.32633 126.25 4.901C126.147 4.46833 126.004 4.12367 125.821 3.867C125.645 3.603 125.44 3.416 125.205 3.306C124.97 3.18867 124.725 3.13 124.468 3.13C124.211 3.13 123.966 3.18867 123.731 3.306C123.496 3.416 123.291 3.603 123.115 3.867C122.939 4.12367 122.796 4.46833 122.686 4.901C122.583 5.32633 122.532 5.85433 122.532 6.485C122.532 7.10833 122.583 7.63633 122.686 8.069C122.796 8.49433 122.939 8.839 123.115 9.103C123.291 9.367 123.496 9.55767 123.731 9.675C123.966 9.785 124.211 9.84 124.468 9.84C124.725 9.84 124.97 9.785 125.205 9.675C125.44 9.55767 125.645 9.367 125.821 9.103C126.004 8.839 126.147 8.49433 126.25 8.069C126.36 7.63633 126.415 7.10833 126.415 6.485Z" fill="white"/>
<path d="M110.164 26.44C110.523 26.3447 110.908 26.297 111.319 26.297C111.744 26.297 112.118 26.3593 112.441 26.484C112.771 26.6087 113.046 26.781 113.266 27.001C113.486 27.221 113.651 27.4813 113.761 27.782C113.878 28.0827 113.937 28.409 113.937 28.761C113.937 29.1863 113.86 29.575 113.706 29.927C113.559 30.279 113.354 30.5797 113.09 30.829C112.826 31.071 112.514 31.2617 112.155 31.401C111.803 31.533 111.421 31.599 111.011 31.599C110.527 31.599 110.087 31.5147 109.691 31.346C109.302 31.17 108.983 30.9647 108.734 30.73L109.273 29.993C109.515 30.1983 109.79 30.367 110.098 30.499C110.406 30.631 110.725 30.697 111.055 30.697C111.333 30.697 111.59 30.6567 111.825 30.576C112.059 30.488 112.261 30.3633 112.43 30.202C112.598 30.0407 112.73 29.8427 112.826 29.608C112.921 29.3733 112.969 29.1093 112.969 28.816C112.969 28.288 112.807 27.8773 112.485 27.584C112.162 27.2907 111.711 27.144 111.132 27.144C110.919 27.144 110.703 27.1697 110.483 27.221C110.27 27.265 110.046 27.3273 109.812 27.408L109.163 27.221L109.823 23.404H113.684V24.328H110.527L110.164 26.44ZM120.874 27.485C120.874 28.1963 120.797 28.816 120.643 29.344C120.489 29.8647 120.28 30.2973 120.016 30.642C119.752 30.9867 119.441 31.2433 119.081 31.412C118.722 31.5733 118.333 31.654 117.915 31.654C117.497 31.654 117.109 31.5733 116.749 31.412C116.39 31.2433 116.075 30.9867 115.803 30.642C115.539 30.2973 115.33 29.8647 115.176 29.344C115.03 28.816 114.956 28.1963 114.956 27.485C114.956 26.7663 115.03 26.1467 115.176 25.626C115.33 25.098 115.539 24.6617 115.803 24.317C116.075 23.9723 116.39 23.7193 116.749 23.558C117.109 23.3893 117.497 23.305 117.915 23.305C118.333 23.305 118.722 23.3893 119.081 23.558C119.441 23.7193 119.752 23.9723 120.016 24.317C120.28 24.6617 120.489 25.098 120.643 25.626C120.797 26.1467 120.874 26.7663 120.874 27.485ZM119.862 27.485C119.862 26.8543 119.807 26.3263 119.697 25.901C119.595 25.4683 119.452 25.1237 119.268 24.867C119.092 24.603 118.887 24.416 118.652 24.306C118.418 24.1887 118.172 24.13 117.915 24.13C117.659 24.13 117.413 24.1887 117.178 24.306C116.944 24.416 116.738 24.603 116.562 24.867C116.386 25.1237 116.243 25.4683 116.133 25.901C116.031 26.3263 115.979 26.8543 115.979 27.485C115.979 28.1083 116.031 28.6363 116.133 29.069C116.243 29.4943 116.386 29.839 116.562 30.103C116.738 30.367 116.944 30.5577 117.178 30.675C117.413 30.785 117.659 30.84 117.915 30.84C118.172 30.84 118.418 30.785 118.652 30.675C118.887 30.5577 119.092 30.367 119.268 30.103C119.452 29.839 119.595 29.4943 119.697 29.069C119.807 28.6363 119.862 28.1083 119.862 27.485Z" fill="white"/>
<path d="M114.322 48.485C114.322 49.1963 114.245 49.816 114.091 50.344C113.937 50.8647 113.728 51.2973 113.464 51.642C113.2 51.9867 112.888 52.2433 112.529 52.412C112.169 52.5733 111.781 52.654 111.363 52.654C110.945 52.654 110.556 52.5733 110.197 52.412C109.837 52.2433 109.522 51.9867 109.251 51.642C108.987 51.2973 108.778 50.8647 108.624 50.344C108.477 49.816 108.404 49.1963 108.404 48.485C108.404 47.7663 108.477 47.1467 108.624 46.626C108.778 46.098 108.987 45.6617 109.251 45.317C109.522 44.9723 109.837 44.7193 110.197 44.558C110.556 44.3893 110.945 44.305 111.363 44.305C111.781 44.305 112.169 44.3893 112.529 44.558C112.888 44.7193 113.2 44.9723 113.464 45.317C113.728 45.6617 113.937 46.098 114.091 46.626C114.245 47.1467 114.322 47.7663 114.322 48.485ZM113.31 48.485C113.31 47.8543 113.255 47.3263 113.145 46.901C113.042 46.4683 112.899 46.1237 112.716 45.867C112.54 45.603 112.334 45.416 112.1 45.306C111.865 45.1887 111.619 45.13 111.363 45.13C111.106 45.13 110.86 45.1887 110.626 45.306C110.391 45.416 110.186 45.603 110.01 45.867C109.834 46.1237 109.691 46.4683 109.581 46.901C109.478 47.3263 109.427 47.8543 109.427 48.485C109.427 49.1083 109.478 49.6363 109.581 50.069C109.691 50.4943 109.834 50.839 110.01 51.103C110.186 51.367 110.391 51.5577 110.626 51.675C110.86 51.785 111.106 51.84 111.363 51.84C111.619 51.84 111.865 51.785 112.1 51.675C112.334 51.5577 112.54 51.367 112.716 51.103C112.899 50.839 113.042 50.4943 113.145 50.069C113.255 49.6363 113.31 49.1083 113.31 48.485Z" fill="white"/>
</svg>
