<svg width="32" height="32" viewBox="0 0 32 32" fill="none" xmlns="http://www.w3.org/2000/svg">
<path d="M16.665 16H15.332V25.333H16.665V16Z" fill="url(#paint0_linear_243_4268)"/>
<path d="M14.8633 22.8516C14.9884 22.7265 15.1581 22.6562 15.335 22.6562H16.668C16.8449 22.6562 17.0145 22.7265 17.1396 22.8516C17.2647 22.9767 17.335 23.1464 17.335 23.3232V24.6773C17.335 25.5613 16.9838 26.4092 16.3586 27.0344C15.7471 27.6459 14.9224 27.9953 14.0592 28.0103H13.9437C13.0805 27.9953 12.2559 27.6459 11.6443 27.0344C11.0192 26.4092 10.668 25.5613 10.668 24.6773C10.6682 24.5005 10.7386 24.3311 10.8637 24.2063C10.9887 24.0814 11.1582 24.0112 11.335 24.0112H12.668C12.7556 24.0111 12.8424 24.0283 12.9234 24.0618C13.0044 24.0952 13.0779 24.1444 13.1399 24.2063C13.2019 24.2683 13.251 24.3419 13.2845 24.4228C13.3179 24.5038 13.3351 24.5906 13.335 24.6782C13.334 24.6956 13.334 24.7129 13.335 24.7302C13.3419 24.907 13.4187 25.0738 13.5486 25.1939C13.6784 25.314 13.8507 25.3776 14.0275 25.3708C14.2042 25.3639 14.371 25.287 14.4911 25.1572C14.6113 25.0273 14.6749 24.855 14.668 24.6782V23.3232C14.668 23.1464 14.7382 22.9767 14.8633 22.8516Z" fill="url(#paint1_linear_243_4268)"/>
<path d="M26.6438 15.2793C26.4634 12.5831 25.2665 10.0556 23.2943 8.20754C21.3174 6.35507 18.7097 5.32422 16.0005 5.32422C13.2913 5.32422 10.6837 6.35507 8.70676 8.20754C6.72987 10.06 5.53191 12.5953 5.35604 15.2988C5.34872 15.4769 5.41244 15.6508 5.53319 15.782C5.65394 15.9133 5.82185 15.9912 6.00004 15.9988H25.97C26.0582 15.9993 26.1457 15.9824 26.2274 15.9491C26.309 15.9158 26.3833 15.8667 26.446 15.8047C26.5087 15.7427 26.5586 15.6689 26.5927 15.5875C26.6219 15.5181 26.6391 15.4444 26.6438 15.3694V15.2793Z" fill="url(#paint2_linear_243_4268)"/>
<path d="M16.265 4H15.732C15.5111 4 15.332 4.17909 15.332 4.4V6.267C15.332 6.48791 15.5111 6.667 15.732 6.667H16.265C16.4859 6.667 16.665 6.48791 16.665 6.267V4.4C16.665 4.17909 16.4859 4 16.265 4Z" fill="url(#paint3_linear_243_4268)"/>
<defs>
<linearGradient id="paint0_linear_243_4268" x1="15.9985" y1="15.8133" x2="15.9985" y2="25.333" gradientUnits="userSpaceOnUse">
<stop stop-color="#DCDCDC"/>
<stop offset="1" stop-color="white"/>
</linearGradient>
<linearGradient id="paint1_linear_243_4268" x1="15.8949" y1="31.2708" x2="15.8949" y2="23.272" gradientUnits="userSpaceOnUse">
<stop stop-color="#E1F9FF"/>
<stop offset="1" stop-color="#40CBFF"/>
</linearGradient>
<linearGradient id="paint2_linear_243_4268" x1="15.9938" y1="25.9912" x2="15.9938" y2="7.97405" gradientUnits="userSpaceOnUse">
<stop stop-color="#E1F9FF"/>
<stop offset="1" stop-color="#40CBFF"/>
</linearGradient>
<linearGradient id="paint3_linear_243_4268" x1="15.9985" y1="3.46927" x2="15.9985" y2="6.667" gradientUnits="userSpaceOnUse">
<stop stop-color="white"/>
<stop offset="1" stop-color="#CECECE"/>
</linearGradient>
</defs>
</svg>
