<svg width="32" height="32" viewBox="0 0 32 32" fill="none" xmlns="http://www.w3.org/2000/svg">
<mask id="mask0_243_8371" style="mask-type:luminance" maskUnits="userSpaceOnUse" x="10" y="11" width="7" height="12">
<path d="M15.393 12.3665L10.386 21.2555C10.3395 21.3378 10.3097 21.4285 10.2983 21.5224C10.2868 21.6162 10.294 21.7114 10.3193 21.8025C10.3447 21.8936 10.3877 21.9788 10.446 22.0533C10.5043 22.1277 10.5767 22.19 10.659 22.2365C10.7667 22.2965 10.8877 22.3285 11.011 22.3295C11.1386 22.3295 11.2639 22.2956 11.374 22.2313C11.4842 22.167 11.5753 22.0746 11.638 21.9635L16.646 13.0725C16.6991 12.9899 16.7346 12.8973 16.7506 12.8005C16.7665 12.7036 16.7624 12.6046 16.7386 12.5094C16.7148 12.4141 16.6717 12.3248 16.6121 12.2469C16.5524 12.1689 16.4774 12.104 16.3918 12.0562C16.3061 12.0083 16.2115 11.9785 16.1139 11.9685C16.0162 11.9586 15.9176 11.9688 15.824 11.9984C15.7304 12.028 15.6439 12.0765 15.5698 12.1408C15.4957 12.2052 15.4355 12.284 15.393 12.3725" fill="white"/>
</mask>
<g mask="url(#mask0_243_8371)">
<path d="M14.1902 27.5492L19.9972 16.1192L12.8422 6.78516L7.03516 18.2132L14.1902 27.5492Z" fill="url(#paint0_linear_243_8371)"/>
</g>
<mask id="mask1_243_8371" style="mask-type:luminance" maskUnits="userSpaceOnUse" x="17" y="21" width="8" height="7">
<path d="M22.2407 21.9799L21.8247 22.7249L21.6247 22.1629C21.6126 22.1246 21.5931 22.089 21.5672 22.0582C21.5414 22.0274 21.5097 22.002 21.4741 21.9834C21.4384 21.9648 21.3995 21.9534 21.3594 21.9499C21.3194 21.9464 21.279 21.9508 21.2407 21.9629C21.2023 21.975 21.1667 21.9945 21.1359 22.0203C21.1051 22.0462 21.0797 22.0778 21.0611 22.1135C21.0426 22.1492 21.0312 22.1881 21.0277 22.2282C21.0242 22.2682 21.0286 22.3086 21.0407 22.3469C21.0428 22.3552 21.0458 22.3633 21.0497 22.3709L21.4357 23.4319L20.9357 24.3159L20.4037 23.4039L20.7717 22.3769C20.7852 22.3392 20.7912 22.2991 20.7892 22.2591C20.7873 22.219 20.7774 22.1797 20.7603 22.1435C20.7432 22.1072 20.7191 22.0747 20.6894 22.0477C20.6596 22.0208 20.6249 21.9999 20.5872 21.9864C20.5494 21.9729 20.5094 21.9669 20.4693 21.9689C20.4293 21.9708 20.39 21.9807 20.3537 21.9978C20.3174 22.0149 20.2849 22.039 20.258 22.0687C20.231 22.0984 20.2102 22.1332 20.1967 22.1709L19.9967 22.7149L19.5717 21.9839C19.531 21.9139 19.4641 21.8629 19.3858 21.8422C19.3075 21.8215 19.2242 21.8327 19.1542 21.8734C19.0842 21.9141 19.0332 21.981 19.0125 22.0593C18.9917 22.1376 19.003 22.2209 19.0437 22.2909L19.4737 23.0279L18.8957 22.9229C18.8192 22.9152 18.7426 22.9366 18.6811 22.9828C18.6197 23.0289 18.5779 23.0966 18.564 23.1722C18.5501 23.2478 18.5652 23.3259 18.6063 23.3909C18.6474 23.4558 18.7114 23.503 18.7857 23.5229L19.8787 23.7229L20.3997 24.6129H19.4727L18.7657 23.7809C18.7394 23.7503 18.7074 23.7251 18.6714 23.7068C18.6354 23.6885 18.5961 23.6775 18.5559 23.6744C18.5156 23.6713 18.4751 23.6761 18.4368 23.6887C18.3984 23.7012 18.3628 23.7212 18.3322 23.7474C18.3015 23.7737 18.2763 23.8057 18.258 23.8417C18.2398 23.8777 18.2288 23.917 18.2256 23.9572C18.2225 23.9975 18.2274 24.038 18.2399 24.0763C18.2524 24.1147 18.2724 24.1503 18.2987 24.1809L18.6747 24.6229H17.8237C17.7457 24.6274 17.6723 24.6615 17.6187 24.7183C17.565 24.7751 17.5352 24.8503 17.5352 24.9284C17.5352 25.0065 17.565 25.0817 17.6187 25.1385C17.6723 25.1953 17.7457 25.2294 17.8237 25.2339H18.6757L18.2967 25.6839C18.2704 25.7145 18.2504 25.75 18.2379 25.7883C18.2253 25.8266 18.2204 25.867 18.2235 25.9072C18.2266 25.9475 18.2375 25.9867 18.2557 26.0226C18.2739 26.0586 18.2991 26.0907 18.3297 26.1169C18.3603 26.1432 18.3957 26.1632 18.4341 26.1757C18.4724 26.1883 18.5128 26.1932 18.553 26.1901C18.5932 26.187 18.6324 26.1761 18.6684 26.1579C18.7044 26.1396 18.7364 26.1145 18.7627 26.0839L19.4787 25.2379H20.4247L19.8957 26.1829L18.7657 26.3499C18.689 26.3607 18.6194 26.4003 18.5708 26.4605C18.5222 26.5208 18.4984 26.5973 18.5041 26.6745C18.5098 26.7517 18.5447 26.8238 18.6016 26.8762C18.6585 26.9287 18.7333 26.9575 18.8107 26.9569H18.8557L19.5157 26.8569L19.1307 27.5459C19.0942 27.6163 19.0865 27.6982 19.1092 27.7742C19.1319 27.8502 19.1832 27.9144 19.2523 27.9533C19.3214 27.9922 19.4029 28.0027 19.4797 27.9827C19.5564 27.9627 19.6224 27.9136 19.6637 27.8459L20.0097 27.2269L20.1597 27.6959C20.1797 27.7574 20.2186 27.811 20.2708 27.8491C20.3231 27.8871 20.386 27.9077 20.4507 27.9079C20.499 27.9079 20.5467 27.8966 20.5898 27.8747C20.6329 27.8529 20.6703 27.8213 20.6989 27.7823C20.7275 27.7434 20.7466 27.6983 20.7545 27.6506C20.7625 27.6029 20.7591 27.554 20.7447 27.5079L20.4187 26.4989L20.9467 25.5509L21.4597 26.4289L21.0897 27.4609C21.0761 27.4987 21.0702 27.5387 21.0721 27.5788C21.0741 27.6188 21.0839 27.6581 21.101 27.6944C21.1182 27.7306 21.1423 27.7632 21.172 27.7901C21.2017 27.8171 21.2364 27.8379 21.2742 27.8514C21.3504 27.8787 21.4344 27.8746 21.5076 27.84C21.5439 27.8229 21.5764 27.7988 21.6034 27.7691C21.6303 27.7394 21.6511 27.7047 21.6647 27.6669L21.8647 27.1139L22.2917 27.8429C22.3254 27.9012 22.3774 27.9467 22.4397 27.9723C22.5019 27.9979 22.5709 28.0022 22.6358 27.9845C22.7008 27.9668 22.7581 27.9281 22.7987 27.8745C22.8394 27.8208 22.8612 27.7552 22.8607 27.6879C22.8598 27.6342 22.8454 27.5815 22.8187 27.5349L22.4107 26.8349L22.9497 26.9469C22.9703 26.9518 22.9915 26.9542 23.0127 26.9539C23.0847 26.9491 23.1527 26.919 23.2047 26.8688C23.2566 26.8187 23.2892 26.7519 23.2966 26.6801C23.304 26.6082 23.2858 26.5361 23.2452 26.4764C23.2046 26.4168 23.1442 26.3734 23.0747 26.3539L21.9927 26.1219L21.4657 25.2219H22.6507L23.3387 26.0739C23.3897 26.1376 23.464 26.1783 23.5451 26.1872C23.6262 26.1961 23.7075 26.1725 23.7712 26.1214C23.8348 26.0704 23.8756 25.9961 23.8845 25.915C23.8934 25.8339 23.8697 25.7526 23.8187 25.6889L23.4387 25.2189H24.0687C24.1103 25.2213 24.1519 25.2152 24.191 25.2009C24.2302 25.1866 24.266 25.1645 24.2963 25.1359C24.3265 25.1073 24.3507 25.0728 24.3672 25.0345C24.3837 24.9963 24.3922 24.9551 24.3922 24.9134C24.3922 24.8718 24.3837 24.8305 24.3672 24.7923C24.3507 24.754 24.3265 24.7195 24.2963 24.6909C24.266 24.6623 24.2302 24.6402 24.191 24.6259C24.1519 24.6117 24.1103 24.6055 24.0687 24.6079V24.6039H23.4517L23.8117 24.1789C23.8647 24.1171 23.891 24.0368 23.8848 23.9556C23.8787 23.8744 23.8405 23.799 23.7787 23.7459C23.7169 23.6929 23.6365 23.6665 23.5553 23.6727C23.4741 23.6789 23.3987 23.7171 23.3457 23.7789L22.6457 24.6009H21.4727L21.9637 23.7229L23.0347 23.5229C23.0747 23.5157 23.1129 23.5006 23.1471 23.4785C23.1812 23.4563 23.2106 23.4276 23.2335 23.394C23.2564 23.3603 23.2723 23.3225 23.2804 23.2826C23.2885 23.2427 23.2886 23.2016 23.2806 23.1617C23.2726 23.1218 23.2568 23.0839 23.234 23.0502C23.2112 23.0165 23.1819 22.9877 23.1478 22.9655C23.1137 22.9432 23.0755 22.928 23.0355 22.9207C22.9955 22.9134 22.9544 22.9142 22.9147 22.9229L22.3547 23.0349L22.7737 22.2859C22.7929 22.2505 22.8049 22.2115 22.8087 22.1714C22.8126 22.1313 22.8084 22.0907 22.7962 22.0523C22.7841 22.0138 22.7643 21.9782 22.7381 21.9476C22.7119 21.9169 22.6798 21.8919 22.6437 21.8739C22.6002 21.8509 22.5518 21.8389 22.5027 21.8389C22.4501 21.8389 22.3983 21.8524 22.3525 21.8782C22.3066 21.9039 22.2681 21.941 22.2407 21.9859" fill="white"/>
</mask>
<g mask="url(#mask1_243_8371)">
<path d="M21.6402 31.0645L27.7772 24.2825L20.2502 18.7695L14.1172 25.5515L21.6402 31.0645Z" fill="url(#paint1_linear_243_8371)"/>
</g>
<mask id="mask2_243_8371" style="mask-type:luminance" maskUnits="userSpaceOnUse" x="24" y="19" width="4" height="3">
<path d="M25.0452 19.0371C24.9723 19.0761 24.9178 19.1425 24.8938 19.2216C24.8698 19.3008 24.8782 19.3862 24.9172 19.4591L24.9272 19.4771L25.1522 19.8771H24.6972C24.6562 19.8758 24.6154 19.8826 24.577 19.897C24.5386 19.9115 24.5035 19.9334 24.4736 19.9614C24.4437 19.9895 24.4196 20.0231 24.4027 20.0605C24.3858 20.0978 24.3765 20.1381 24.3752 20.1791C24.3738 20.2201 24.3806 20.2609 24.3951 20.2993C24.4095 20.3376 24.4314 20.3728 24.4595 20.4027C24.4875 20.4326 24.5212 20.4566 24.5585 20.4735C24.5959 20.4904 24.6362 20.4998 24.6772 20.5011H25.1522L24.9262 20.8941C24.9031 20.9297 24.8876 20.9695 24.8805 21.0112C24.8734 21.053 24.8748 21.0957 24.8848 21.1369C24.8947 21.178 24.9129 21.2168 24.9383 21.2507C24.9636 21.2845 24.9957 21.3129 25.0323 21.3341C25.069 21.3552 25.1096 21.3686 25.1517 21.3736C25.1937 21.3785 25.2364 21.3748 25.2769 21.3628C25.3175 21.3507 25.3552 21.3305 25.3878 21.3034C25.4203 21.2763 25.447 21.2429 25.4662 21.2051L25.6952 20.8051L25.9232 21.1991C25.9416 21.2367 25.9675 21.2701 25.9992 21.2975C26.0308 21.3248 26.0677 21.3455 26.1075 21.3584C26.1474 21.3712 26.1894 21.3759 26.2311 21.3721C26.2728 21.3684 26.3133 21.3563 26.3502 21.3365C26.3871 21.3168 26.4197 21.2898 26.4459 21.2573C26.4722 21.2247 26.4917 21.1871 26.5032 21.1469C26.5146 21.1066 26.5179 21.0645 26.5127 21.023C26.5076 20.9814 26.4941 20.9413 26.4732 20.9051L26.4632 20.8871L26.2332 20.5001H26.6882C26.7295 20.5005 26.7705 20.4927 26.8089 20.4772C26.8472 20.4616 26.882 20.4386 26.9114 20.4095C26.9408 20.3804 26.9641 20.3458 26.9801 20.3076C26.996 20.2694 27.0042 20.2285 27.0042 20.1871C27.0048 20.1455 26.9972 20.1041 26.9816 20.0655C26.966 20.0269 26.9429 19.9917 26.9135 19.9622C26.8842 19.9326 26.8492 19.9093 26.8106 19.8935C26.7721 19.8776 26.7308 19.8697 26.6892 19.8701H26.2352L26.4632 19.4761C26.5013 19.4047 26.5102 19.3213 26.488 19.2435C26.4657 19.1656 26.4141 19.0995 26.344 19.059C26.274 19.0185 26.1909 19.0068 26.1123 19.0264C26.0338 19.046 25.966 19.0954 25.9232 19.1641L25.6952 19.5641L25.4672 19.1651C25.4479 19.1289 25.4218 19.0969 25.3901 19.0709C25.3585 19.0448 25.322 19.0253 25.2828 19.0134C25.2436 19.0015 25.2024 18.9975 25.1616 19.0015C25.1208 19.0056 25.0812 19.0177 25.0452 19.0371Z" fill="white"/>
</mask>
<g mask="url(#mask2_243_8371)">
<path d="M24.6969 22.421L27.6969 21.107L26.6719 17.957L23.6719 19.271L24.6969 22.421Z" fill="url(#paint2_linear_243_8371)"/>
</g>
<mask id="mask3_243_8371" style="mask-type:luminance" maskUnits="userSpaceOnUse" x="7" y="23" width="4" height="4">
<path d="M8.95107 23.4689L7.51407 25.9159C7.45024 26.0252 7.41579 26.1492 7.41407 26.2759C7.41336 26.4338 7.46467 26.5875 7.56007 26.7134C7.65547 26.8393 7.78966 26.9302 7.94191 26.9722C8.09416 27.0142 8.25599 27.0049 8.40242 26.9457C8.54885 26.8865 8.67173 26.7808 8.75207 26.6449L10.1911 24.1979C10.2389 24.1163 10.2703 24.0261 10.2833 23.9325C10.2963 23.8388 10.2907 23.7435 10.2669 23.652C10.2431 23.5605 10.2015 23.4745 10.1445 23.3991C10.0874 23.3237 10.0161 23.2602 9.93457 23.2124C9.85302 23.1645 9.76284 23.1331 9.66918 23.1201C9.57552 23.1071 9.48021 23.1127 9.3887 23.1365C9.29718 23.1603 9.21126 23.2019 9.13583 23.259C9.0604 23.316 8.99694 23.3873 8.94907 23.4689" fill="white"/>
</mask>
<g mask="url(#mask3_243_8371)">
<path d="M9.20781 28.9726L11.8078 24.6626L8.60781 21.1406L6.00781 25.4506L9.20781 28.9726Z" fill="url(#paint3_linear_243_8371)"/>
</g>
<path d="M22.1154 9.2571C21.9338 9.26473 21.7528 9.28309 21.5734 9.3121L21.5664 9.2931C20.9357 7.80353 19.8101 6.57731 18.38 5.82156C16.9498 5.06581 15.3026 4.82686 13.7166 5.14507C12.1306 5.46328 10.703 6.31914 9.67505 7.56809C8.64708 8.81704 8.08168 10.3825 8.07438 12.0001V12.0441C7.18807 12.1484 6.37538 12.5882 5.80337 13.2732C5.23136 13.9582 4.94349 14.8363 4.99893 15.727C5.05438 16.6177 5.44893 17.4533 6.10147 18.0621C6.75402 18.6709 7.61498 19.0065 8.50738 19.0001H15.0554H15.0944H15.1334H22.0834H22.1164C23.4077 19.0001 24.6462 18.4871 25.5593 17.574C26.4724 16.6609 26.9854 15.4224 26.9854 14.1311C26.9854 12.8398 26.4724 11.6013 25.5593 10.6882C24.6462 9.77508 23.4077 9.2621 22.1164 9.2621" fill="url(#paint4_linear_243_8371)"/>
<path d="M8.583 12.0006C9.04519 11.9922 9.5045 12.075 9.9347 12.2442C10.3649 12.4133 10.7576 12.6656 11.0903 12.9865C11.423 13.3074 11.6892 13.6907 11.8738 14.1145C12.0584 14.5384 12.1577 14.9944 12.166 15.4566C12.1487 16.3897 11.7615 17.2777 11.0896 17.9254C10.4177 18.5731 9.51609 18.9274 8.583 18.9106C7.64991 18.9274 6.7483 18.5731 6.07641 17.9254C5.40452 17.2777 5.01735 16.3897 5 15.4566C5.00833 14.9944 5.10761 14.5384 5.29219 14.1145C5.47676 13.6907 5.743 13.3074 6.07572 12.9865C6.40843 12.6656 6.8011 12.4133 7.2313 12.2442C7.6615 12.075 8.12081 11.9922 8.583 12.0006Z" fill="url(#paint5_linear_243_8371)"/>
<mask id="mask4_243_8371" style="mask-type:luminance" maskUnits="userSpaceOnUse" x="11" y="14" width="8" height="13">
<path d="M17.487 15.3471L11.674 25.3941C11.6269 25.4758 11.5964 25.5659 11.5842 25.6594C11.572 25.7529 11.5783 25.8478 11.6028 25.9388C11.6273 26.0299 11.6696 26.1152 11.7271 26.1899C11.7846 26.2645 11.8563 26.3271 11.938 26.3741C12.0468 26.4394 12.1712 26.474 12.298 26.4741C12.4245 26.4747 12.5488 26.4417 12.6583 26.3784C12.7678 26.3152 12.8584 26.224 12.921 26.1141L18.735 16.0611C18.8235 15.8988 18.8461 15.7087 18.7983 15.5302C18.7504 15.3517 18.6358 15.1984 18.478 15.1021C18.3657 15.0327 18.2361 14.9959 18.104 14.9961C17.9806 14.9958 17.8592 15.0273 17.7515 15.0876C17.6438 15.1478 17.5534 15.2348 17.489 15.3401" fill="white"/>
</mask>
<g mask="url(#mask4_243_8371)">
<path d="M15.9488 32.2486L22.4628 19.5716L14.4398 9.22656L7.92578 21.9036L15.9488 32.2486Z" fill="url(#paint6_linear_243_8371)"/>
</g>
<mask id="mask5_243_8371" style="mask-type:luminance" maskUnits="userSpaceOnUse" x="6" y="14" width="6" height="10">
<path d="M10.1225 15.1355L6.10048 22.0415C6.00538 22.2062 5.97924 22.4019 6.02775 22.5858C6.07626 22.7697 6.1955 22.9271 6.35948 23.0235C6.4687 23.0885 6.59337 23.1231 6.72048 23.1235C6.8464 23.1227 6.96997 23.0893 7.07915 23.0266C7.18833 22.9638 7.2794 22.8739 7.34348 22.7655L11.3695 15.8605C11.3795 15.8455 11.3885 15.8285 11.3965 15.8135C11.4865 15.6451 11.506 15.4478 11.4506 15.265C11.3951 15.0823 11.2694 14.929 11.101 14.839C10.9326 14.7489 10.7353 14.7295 10.5525 14.7849C10.3698 14.8403 10.2165 14.9661 10.1265 15.1345" fill="white"/>
</mask>
<g mask="url(#mask5_243_8371)">
<path d="M9.31384 27.3749L14.2598 18.0909L8.16084 10.5039L3.21484 19.7889L9.31384 27.3749Z" fill="url(#paint7_linear_243_8371)"/>
</g>
<defs>
<linearGradient id="paint0_linear_243_8371" x1="3.62615" y1="34.1313" x2="20.1174" y2="23.1782" gradientUnits="userSpaceOnUse">
<stop stop-color="#E1F9FF"/>
<stop offset="1" stop-color="#40CBFF"/>
</linearGradient>
<linearGradient id="paint1_linear_243_8371" x1="18.3518" y1="29.6875" x2="22.4016" y2="20.7141" gradientUnits="userSpaceOnUse">
<stop stop-color="#E1F9FF"/>
<stop offset="1" stop-color="#40CBFF"/>
</linearGradient>
<linearGradient id="paint2_linear_243_8371" x1="24.8029" y1="21.8095" x2="26.555" y2="19.2212" gradientUnits="userSpaceOnUse">
<stop stop-color="#E1F9FF"/>
<stop offset="1" stop-color="#40CBFF"/>
</linearGradient>
<linearGradient id="paint3_linear_243_8371" x1="6.86621" y1="28.5027" x2="11.1449" y2="24.5775" gradientUnits="userSpaceOnUse">
<stop stop-color="#E1F9FF"/>
<stop offset="1" stop-color="#40CBFF"/>
</linearGradient>
<linearGradient id="paint4_linear_243_8371" x1="20.5414" y1="10.5628" x2="14.047" y2="23.5383" gradientUnits="userSpaceOnUse">
<stop stop-color="#FEFFFF"/>
<stop offset="1" stop-color="#D5D5D5"/>
</linearGradient>
<linearGradient id="paint5_linear_243_8371" x1="6.69834" y1="13.5481" x2="10.1146" y2="16.7813" gradientUnits="userSpaceOnUse">
<stop stop-color="white"/>
<stop offset="1" stop-color="white" stop-opacity="0.03"/>
</linearGradient>
<linearGradient id="paint6_linear_243_8371" x1="10.0336" y1="29.7392" x2="21.3334" y2="21.9777" gradientUnits="userSpaceOnUse">
<stop stop-color="#E1F9FF"/>
<stop offset="1" stop-color="#40CBFF"/>
</linearGradient>
<linearGradient id="paint7_linear_243_8371" x1="5.69997" y1="24.1863" x2="13.5885" y2="18.3404" gradientUnits="userSpaceOnUse">
<stop stop-color="#E1F9FF"/>
<stop offset="1" stop-color="#40CBFF"/>
</linearGradient>
</defs>
</svg>
