<svg width="280" height="170" viewBox="0 0 280 170" fill="none" xmlns="http://www.w3.org/2000/svg">
<path d="M5.753 12.937H1.1V21H2.123V17.381H5.203V16.523H2.123V13.795H5.753V12.937Z" fill="white" fill-opacity="0.6"/>
<path d="M5.753 33.7378H1.1V41.8008H5.874V40.9318H2.123V37.9948H5.181V37.1258H2.123V34.5958H5.753V33.7378Z" fill="white" fill-opacity="0.6"/>
<path d="M3.124 54.5366H1.1V62.5996H3.168C5.588 62.5996 6.93 61.0926 6.93 58.5406C6.93 55.9116 5.665 54.5366 3.124 54.5366ZM3.036 61.7636H2.123V55.3616H3.036C4.983 55.3616 5.874 56.4616 5.874 58.5406C5.874 60.5756 4.939 61.7636 3.036 61.7636Z" fill="white" fill-opacity="0.6"/>
<path d="M4.147 83.5434C5.203 83.5434 5.962 83.1364 6.622 82.3884L6.061 81.7504C5.544 82.3114 4.983 82.6524 4.191 82.6524C2.651 82.6524 1.683 81.3764 1.683 79.3414C1.683 77.3174 2.695 76.0744 4.224 76.0744C4.928 76.0744 5.445 76.3934 5.874 76.8444L6.424 76.1844C5.962 75.6674 5.192 75.1834 4.213 75.1834C2.156 75.1834 0.638 76.7674 0.638 79.3744C0.638 81.9814 2.156 83.5434 4.147 83.5434Z" fill="white" fill-opacity="0.6"/>
<path d="M3.498 96.1362H1.1V104.199H3.674C5.478 104.199 6.732 103.418 6.732 101.834C6.732 100.734 6.05 100.096 5.082 99.9092V99.8542C5.841 99.6012 6.27 98.9082 6.27 98.1052C6.27 96.6972 5.137 96.1362 3.498 96.1362ZM3.322 99.5682H2.123V96.9392H3.366C4.653 96.9392 5.269 97.2692 5.269 98.2372C5.269 99.0622 4.719 99.5682 3.322 99.5682ZM3.531 103.385H2.123V100.349H3.531C4.95 100.349 5.731 100.789 5.731 101.801C5.731 102.901 4.95 103.385 3.531 103.385Z" fill="white" fill-opacity="0.6"/>
<path d="M1.848 122.536H4.796L5.566 125H6.644L3.905 116.937H2.772L0.033 125H1.067L1.848 122.536ZM4.158 120.49L4.543 121.722H2.101L2.497 120.49C2.794 119.566 3.047 118.73 3.3 117.762H3.344C3.608 118.697 3.861 119.566 4.158 120.49Z" fill="white" fill-opacity="0.6"/>
<path d="M199.313 11.573L199.94 11.276C198.972 9.681 198.532 7.91 198.532 5.985C198.532 4.06 198.972 2.289 199.94 0.694L199.313 0.408C198.301 2.047 197.696 3.829 197.696 5.985C197.696 8.152 198.301 9.934 199.313 11.573ZM202.523 1.937H201.5V10H206.043V9.131H202.523V1.937ZM210.121 10.143C212.145 10.143 213.564 8.537 213.564 5.941C213.564 3.356 212.145 1.783 210.121 1.783C208.097 1.783 206.678 3.356 206.678 5.941C206.678 8.537 208.097 10.143 210.121 10.143ZM210.121 9.252C208.669 9.252 207.723 7.954 207.723 5.941C207.723 3.917 208.669 2.674 210.121 2.674C211.573 2.674 212.519 3.917 212.519 5.941C212.519 7.954 211.573 9.252 210.121 9.252ZM217.548 10.143C219.231 10.143 220.287 9.131 220.287 7.855C220.287 6.656 219.561 6.106 218.626 5.699L217.471 5.204C216.844 4.94 216.14 4.654 216.14 3.862C216.14 3.114 216.723 2.674 217.647 2.674C218.395 2.674 218.989 2.96 219.484 3.433L220.023 2.784C219.451 2.168 218.615 1.783 217.647 1.783C216.184 1.783 215.106 2.685 215.106 3.928C215.106 5.116 216.008 5.677 216.745 5.996L217.911 6.502C218.67 6.854 219.253 7.107 219.253 7.932C219.253 8.724 218.615 9.252 217.559 9.252C216.723 9.252 215.909 8.867 215.326 8.251L214.721 8.944C215.425 9.692 216.404 10.143 217.548 10.143ZM224.933 4.698H231.698V3.972H225.835V2.069H231.632V1.343H224.933V4.698ZM232.743 6.392V5.644H223.811V6.392H232.743ZM228.266 7.239C226.165 7.239 224.889 7.877 224.889 9.021C224.889 10.165 226.165 10.803 228.266 10.803C230.367 10.803 231.643 10.165 231.643 9.021C231.643 7.877 230.367 7.239 228.266 7.239ZM228.266 10.099C226.715 10.099 225.802 9.725 225.802 9.021C225.802 8.317 226.715 7.943 228.266 7.943C229.817 7.943 230.73 8.317 230.73 9.021C230.73 9.725 229.817 10.099 228.266 10.099ZM242.884 5.71V4.973H241.465C241.729 3.741 241.729 2.872 241.729 2.113V1.398H235.063V2.135H240.838C240.838 2.883 240.838 3.752 240.563 4.973H233.919V5.71H242.884ZM241.718 6.601H240.827V7.899H235.976V6.601H235.085V10.682H241.718V6.601ZM235.976 8.603H240.827V9.956H235.976V8.603ZM244.544 5.71H248.988V4.852H251.265V6.106H252.167V0.958H251.265V2.355H248.988V1.42H248.097V2.817H245.435V1.409H244.544V5.71ZM248.988 4.148V3.059H251.265V4.148H248.988ZM245.435 3.521H248.097V4.984H245.435V3.521ZM252.541 10.682V9.967H246.722V8.922H252.167V6.579H245.809V7.294H251.276V8.24H245.831V10.682H252.541ZM264.999 10.814V0.947H264.13V4.918H262.788V1.211H261.941V10.319H262.788V5.655H264.13V10.814H264.999ZM260.852 2.223H257.002V2.96H259.961C259.818 5.017 258.905 6.766 256.628 8.053L257.156 8.702C259.972 7.118 260.852 4.764 260.852 2.223ZM274.865 5.435L275.239 4.709C273.446 4.445 271.686 3.224 271.686 1.849V1.299H270.74V1.849C270.74 3.268 269.013 4.445 267.209 4.709L267.572 5.435C269.101 5.171 270.597 4.324 271.213 3.125C271.862 4.324 273.325 5.171 274.865 5.435ZM271.642 7.25H275.679L275.668 6.502H266.758V7.25H270.74V10.825H271.642V7.25ZM276.756 11.21L277.372 11.507C278.395 9.868 279 8.086 279 5.919C279 3.763 278.395 1.981 277.372 0.342L276.756 0.627999C277.724 2.223 278.164 3.994 278.164 5.919C278.164 7.844 277.724 9.615 276.756 11.21Z" fill="white" fill-opacity="0.6"/>
<rect x="20" y="17" width="260" height="1" fill="white" fill-opacity="0.2"/>
<rect x="117" y="13" width="33" height="9" fill="#27D4FF"/>
<rect width="22" height="9" transform="translate(150 13)" fill="#0077FF"/>
<rect x="20" y="37.8008" width="260" height="1" fill="white" fill-opacity="0.2"/>
<rect x="127" y="33.8008" width="23" height="9" fill="#27D4FF"/>
<rect width="17" height="9" transform="translate(150 33.8008)" fill="#0077FF"/>
<rect x="20" y="58.5996" width="260" height="1" fill="white" fill-opacity="0.2"/>
<rect x="124" y="54.5996" width="26" height="9" fill="#27D4FF"/>
<rect width="45" height="9" transform="translate(150 54.5996)" fill="#0077FF"/>
<rect x="20" y="79.4004" width="260" height="1" fill="white" fill-opacity="0.2"/>
<rect x="102" y="75.4004" width="48" height="9" fill="#27D4FF"/>
<rect width="58" height="9" transform="translate(150 75.4004)" fill="#0077FF"/>
<rect x="20" y="100.199" width="260" height="1" fill="white" fill-opacity="0.2"/>
<rect x="82" y="96.1992" width="68" height="9" fill="#27D4FF"/>
<rect width="64" height="9" transform="translate(150 96.1992)" fill="#0077FF"/>
<rect x="20" y="121" width="260" height="1" fill="white" fill-opacity="0.2"/>
<rect x="66" y="117" width="84" height="9" fill="#27D4FF"/>
<rect width="84" height="9" transform="translate(150 117)" fill="#0077FF"/>
<path d="M66 118.44L84.5 98.2638L101 78.088L124 57.9122L127.5 38.2968L117 17.5605" stroke="#8972FF" stroke-width="2" stroke-linecap="round"/>
<path d="M171.5 17L167 37.1758L195 57.9121L207 78.0879L214 98.2637L233.5 119" stroke="#8972FF" stroke-width="2" stroke-linecap="round"/>
<path d="M43.6537 142V141.109H40.4747C40.1997 141.109 39.8697 141.153 39.5617 141.241L41.8167 139.008C42.7297 138.095 43.4997 137.259 43.4997 136.06C43.4997 134.63 42.4327 133.794 41.0577 133.794C39.6827 133.794 38.6157 134.597 38.4067 136.082L39.3967 136.247C39.3967 135.323 40.0787 134.663 41.0027 134.663C41.8387 134.663 42.4547 135.114 42.4877 136.082C42.4877 137.028 41.8717 137.721 41.0247 138.623L38.2417 141.296V142H43.6537ZM46.4664 138.667C47.6104 138.667 48.3254 137.842 48.3254 136.203C48.3254 134.564 47.6104 133.772 46.4664 133.772C45.3554 133.772 44.6294 134.564 44.6294 136.203C44.6294 137.842 45.3554 138.667 46.4664 138.667ZM51.9334 133.772H51.0644L46.6094 142.132H47.4894L51.9334 133.772ZM46.4664 137.985C45.8614 137.985 45.4434 137.468 45.4434 136.203C45.4434 134.96 45.8504 134.454 46.4664 134.454C47.0824 134.454 47.5004 134.938 47.5004 136.203C47.5004 137.479 47.0824 137.985 46.4664 137.985ZM52.0544 142.11C53.1654 142.11 53.9024 141.296 53.9024 139.657C53.9024 138.018 53.1654 137.226 52.0544 137.226C50.9434 137.226 50.1954 138.018 50.1954 139.657C50.1954 141.296 50.9434 142.11 52.0544 142.11ZM52.0544 141.428C51.4384 141.428 51.0204 140.922 51.0204 139.657C51.0204 138.392 51.4384 137.897 52.0544 137.897C52.6704 137.897 53.0774 138.392 53.0774 139.657C53.0774 140.933 52.6704 141.428 52.0544 141.428Z" fill="white" fill-opacity="0.6"/>
<path d="M95.4447 142V141.186H93.8607V133.893H93.0577L90.8907 135.763L91.4297 136.412L92.8927 135.103C92.8817 135.18 92.8817 135.279 92.8817 135.378V141.186H91.0887V142H95.4447ZM98.4664 138.667C99.6104 138.667 100.325 137.842 100.325 136.203C100.325 134.564 99.6104 133.772 98.4664 133.772C97.3554 133.772 96.6294 134.564 96.6294 136.203C96.6294 137.842 97.3554 138.667 98.4664 138.667ZM103.933 133.772H103.064L98.6094 142.132H99.4894L103.933 133.772ZM98.4664 137.985C97.8614 137.985 97.4434 137.468 97.4434 136.203C97.4434 134.96 97.8504 134.454 98.4664 134.454C99.0824 134.454 99.5004 134.938 99.5004 136.203C99.5004 137.479 99.0824 137.985 98.4664 137.985ZM104.054 142.11C105.165 142.11 105.902 141.296 105.902 139.657C105.902 138.018 105.165 137.226 104.054 137.226C102.943 137.226 102.195 138.018 102.195 139.657C102.195 141.296 102.943 142.11 104.054 142.11ZM104.054 141.428C103.438 141.428 103.02 140.922 103.02 139.657C103.02 138.392 103.438 137.897 104.054 137.897C104.67 137.897 105.077 138.392 105.077 139.657C105.077 140.933 104.67 141.428 104.054 141.428Z" fill="white" fill-opacity="0.6"/>
<path d="M147.918 137.985C147.918 135.114 146.62 133.805 144.959 133.805C143.287 133.805 142 135.114 142 137.985C142 140.845 143.287 142.154 144.959 142.154C146.62 142.154 147.918 140.845 147.918 137.985ZM146.906 137.985C146.906 140.493 145.982 141.34 144.959 141.34C143.936 141.34 143.023 140.493 143.023 137.985C143.023 135.466 143.936 134.63 144.959 134.63C145.982 134.63 146.906 135.466 146.906 137.985ZM150.466 138.667C151.61 138.667 152.325 137.842 152.325 136.203C152.325 134.564 151.61 133.772 150.466 133.772C149.355 133.772 148.629 134.564 148.629 136.203C148.629 137.842 149.355 138.667 150.466 138.667ZM155.933 133.772H155.064L150.609 142.132H151.489L155.933 133.772ZM150.466 137.985C149.861 137.985 149.443 137.468 149.443 136.203C149.443 134.96 149.85 134.454 150.466 134.454C151.082 134.454 151.5 134.938 151.5 136.203C151.5 137.479 151.082 137.985 150.466 137.985ZM156.054 142.11C157.165 142.11 157.902 141.296 157.902 139.657C157.902 138.018 157.165 137.226 156.054 137.226C154.943 137.226 154.195 138.018 154.195 139.657C154.195 141.296 154.943 142.11 156.054 142.11ZM156.054 141.428C155.438 141.428 155.02 140.922 155.02 139.657C155.02 138.392 155.438 137.897 156.054 137.897C156.67 137.897 157.077 138.392 157.077 139.657C157.077 140.933 156.67 141.428 156.054 141.428Z" fill="white" fill-opacity="0.6"/>
<path d="M199.445 142V141.186H197.861V133.893H197.058L194.891 135.763L195.43 136.412L196.893 135.103C196.882 135.18 196.882 135.279 196.882 135.378V141.186H195.089V142H199.445ZM202.466 138.667C203.61 138.667 204.325 137.842 204.325 136.203C204.325 134.564 203.61 133.772 202.466 133.772C201.355 133.772 200.629 134.564 200.629 136.203C200.629 137.842 201.355 138.667 202.466 138.667ZM207.933 133.772H207.064L202.609 142.132H203.489L207.933 133.772ZM202.466 137.985C201.861 137.985 201.443 137.468 201.443 136.203C201.443 134.96 201.85 134.454 202.466 134.454C203.082 134.454 203.5 134.938 203.5 136.203C203.5 137.479 203.082 137.985 202.466 137.985ZM208.054 142.11C209.165 142.11 209.902 141.296 209.902 139.657C209.902 138.018 209.165 137.226 208.054 137.226C206.943 137.226 206.195 138.018 206.195 139.657C206.195 141.296 206.943 142.11 208.054 142.11ZM208.054 141.428C207.438 141.428 207.02 140.922 207.02 139.657C207.02 138.392 207.438 137.897 208.054 137.897C208.67 137.897 209.077 138.392 209.077 139.657C209.077 140.933 208.67 141.428 208.054 141.428Z" fill="white" fill-opacity="0.6"/>
<path d="M251.654 142V141.109H248.475C248.2 141.109 247.87 141.153 247.562 141.241L249.817 139.008C250.73 138.095 251.5 137.259 251.5 136.06C251.5 134.63 250.433 133.794 249.058 133.794C247.683 133.794 246.616 134.597 246.407 136.082L247.397 136.247C247.397 135.323 248.079 134.663 249.003 134.663C249.839 134.663 250.455 135.114 250.488 136.082C250.488 137.028 249.872 137.721 249.025 138.623L246.242 141.296V142H251.654ZM254.466 138.667C255.61 138.667 256.325 137.842 256.325 136.203C256.325 134.564 255.61 133.772 254.466 133.772C253.355 133.772 252.629 134.564 252.629 136.203C252.629 137.842 253.355 138.667 254.466 138.667ZM259.933 133.772H259.064L254.609 142.132H255.489L259.933 133.772ZM254.466 137.985C253.861 137.985 253.443 137.468 253.443 136.203C253.443 134.96 253.85 134.454 254.466 134.454C255.082 134.454 255.5 134.938 255.5 136.203C255.5 137.479 255.082 137.985 254.466 137.985ZM260.054 142.11C261.165 142.11 261.902 141.296 261.902 139.657C261.902 138.018 261.165 137.226 260.054 137.226C258.943 137.226 258.195 138.018 258.195 139.657C258.195 141.296 258.943 142.11 260.054 142.11ZM260.054 141.428C259.438 141.428 259.02 140.922 259.02 139.657C259.02 138.392 259.438 137.897 260.054 137.897C260.67 137.897 261.077 138.392 261.077 139.657C261.077 140.933 260.67 141.428 260.054 141.428Z" fill="white" fill-opacity="0.6"/>
<rect x="10.5" y="158.5" width="10" height="10" fill="#27D4FF"/>
<path d="M28.007 159.674H34.057V160.026C34.057 161.522 33.991 162.82 33.716 164.305L34.607 164.415C34.959 162.567 34.959 161.28 34.959 160.026V158.937H28.007V159.674ZM36.004 166.428V165.691H32.605V162.424H31.714V165.691H30.163V162.424H29.272V165.691H27.083V166.428H36.004ZM44.7921 162.754H46.4201V162.006H44.7921V157.947H43.8901V167.814H44.7921V162.754ZM40.5021 161.148V160.378H42.6911V159.652H40.5021V158.123H39.6001V159.652H37.3781V160.378H39.6111V161.148C39.6111 162.864 38.5551 164.525 37.1141 165.229L37.6201 165.911C38.7641 165.35 39.6331 164.239 40.0621 162.864C40.4911 164.151 41.2941 165.207 42.3941 165.735L42.9001 165.031C41.4811 164.349 40.5021 162.721 40.5021 161.148ZM56.2753 166.593V165.856H52.2383V163.997H55.3953V163.271H49.3233V161.676H55.1643V158.673H48.4103V159.41H54.2843V160.95H48.4323V163.997H51.3253V165.856H47.3103V166.593H56.2753ZM59.4864 168.573L60.1134 168.276C59.1454 166.681 58.7054 164.91 58.7054 162.985C58.7054 161.06 59.1454 159.289 60.1134 157.694L59.4864 157.408C58.4744 159.047 57.8694 160.829 57.8694 162.985C57.8694 165.152 58.4744 166.934 59.4864 168.573ZM61.1792 159.883H66.7012V159.157H64.4352V157.947H63.5332V159.157H61.1792V159.883ZM68.3732 157.958V160.576H66.7012V161.313H68.3732V162.644H66.7012V163.381H68.3732V165.471H69.2862V157.958H68.3732ZM66.2062 162.303C66.2062 161.181 65.2822 160.433 63.9732 160.433C62.6642 160.433 61.7402 161.181 61.7402 162.303C61.7402 163.436 62.6642 164.195 63.9732 164.195C65.2822 164.195 66.2062 163.436 66.2062 162.303ZM62.5982 162.303C62.5982 161.599 63.1372 161.137 63.9732 161.137C64.8092 161.137 65.3482 161.599 65.3482 162.303C65.3482 163.007 64.8092 163.491 63.9732 163.491C63.1372 163.491 62.5982 163.007 62.5982 162.303ZM69.5172 167.594V166.857H63.8412V164.833H62.9392V167.594H69.5172ZM79.6914 167.814V157.936H78.8224V161.929H77.5244V158.167H76.6774V167.33H77.5244V162.677H78.8224V167.814H79.6914ZM74.1914 160.62V159.85H75.9844V159.113H71.4084V159.85H73.3224V160.62C73.3224 162.611 72.5854 164.305 71.1774 165.097L71.7274 165.779C72.7504 165.163 73.4324 164.151 73.7734 162.776C74.1254 163.964 74.8074 164.899 75.7754 165.438L76.3034 164.745C74.8954 164.008 74.1914 162.435 74.1914 160.62ZM89.4915 167.814V157.947H88.5895V167.814H89.4915ZM86.5985 159.014H81.9785V159.74H85.6855C85.4985 162.083 84.1785 163.975 81.5275 165.24L82.0115 165.977C85.3005 164.36 86.5985 161.863 86.5985 159.014ZM92.0536 161.588L92.3946 162.314C93.9786 162.083 95.4526 161.269 95.9806 160.136C96.5086 161.269 97.9606 162.083 99.5666 162.314L99.8966 161.588C98.1586 161.357 96.5636 160.389 96.5636 159.179V159.168H99.6326V158.442H92.3286V159.168H95.3976V159.179C95.3976 160.378 93.8136 161.357 92.0536 161.588ZM100.447 163.755V163.029H91.4926V163.755H95.5956V165.757H96.4976V163.755H100.447ZM99.4566 166.857H93.5386V164.8H92.6366V167.594H99.4566V166.857ZM101.524 168.21L102.14 168.507C103.163 166.868 103.768 165.086 103.768 162.919C103.768 160.763 103.163 158.981 102.14 157.342L101.524 157.628C102.492 159.223 102.932 160.994 102.932 162.919C102.932 164.844 102.492 166.615 101.524 168.21Z" fill="white" fill-opacity="0.87"/>
<rect x="121.5" y="158.5" width="10" height="10" fill="#0077FF"/>
<path d="M147.037 166.571V165.823H143V163.293H146.003V162.567H140.118V159.476H145.904V158.739H139.216V163.293H142.087V165.823H138.072V166.571H147.037ZM157.156 166.593V165.856H153.119V163.997H156.276V163.271H150.204V161.676H156.045V158.673H149.291V159.41H155.165V160.95H149.313V163.997H152.206V165.856H148.191V166.593H157.156ZM160.367 168.573L160.994 168.276C160.026 166.681 159.586 164.91 159.586 162.985C159.586 161.06 160.026 159.289 160.994 157.694L160.367 157.408C159.355 159.047 158.75 160.829 158.75 162.985C158.75 165.152 159.355 166.934 160.367 168.573ZM162.06 159.883H167.582V159.157H165.316V157.947H164.414V159.157H162.06V159.883ZM169.254 157.958V160.576H167.582V161.313H169.254V162.644H167.582V163.381H169.254V165.471H170.167V157.958H169.254ZM167.087 162.303C167.087 161.181 166.163 160.433 164.854 160.433C163.545 160.433 162.621 161.181 162.621 162.303C162.621 163.436 163.545 164.195 164.854 164.195C166.163 164.195 167.087 163.436 167.087 162.303ZM163.479 162.303C163.479 161.599 164.018 161.137 164.854 161.137C165.69 161.137 166.229 161.599 166.229 162.303C166.229 163.007 165.69 163.491 164.854 163.491C164.018 163.491 163.479 163.007 163.479 162.303ZM170.398 167.594V166.857H164.722V164.833H163.82V167.594H170.398ZM180.572 167.814V157.936H179.703V161.929H178.405V158.167H177.558V167.33H178.405V162.677H179.703V167.814H180.572ZM175.072 160.62V159.85H176.865V159.113H172.289V159.85H174.203V160.62C174.203 162.611 173.466 164.305 172.058 165.097L172.608 165.779C173.631 165.163 174.313 164.151 174.654 162.776C175.006 163.964 175.688 164.899 176.656 165.438L177.184 164.745C175.776 164.008 175.072 162.435 175.072 160.62ZM190.372 167.814V157.947H189.47V167.814H190.372ZM187.479 159.014H182.859V159.74H186.566C186.379 162.083 185.059 163.975 182.408 165.24L182.892 165.977C186.181 164.36 187.479 161.863 187.479 159.014ZM192.935 161.588L193.276 162.314C194.86 162.083 196.334 161.269 196.862 160.136C197.39 161.269 198.842 162.083 200.448 162.314L200.778 161.588C199.04 161.357 197.445 160.389 197.445 159.179V159.168H200.514V158.442H193.21V159.168H196.279V159.179C196.279 160.378 194.695 161.357 192.935 161.588ZM201.328 163.755V163.029H192.374V163.755H196.477V165.757H197.379V163.755H201.328ZM200.338 166.857H194.42V164.8H193.518V167.594H200.338V166.857ZM202.405 168.21L203.021 168.507C204.044 166.868 204.649 165.086 204.649 162.919C204.649 160.763 204.044 158.981 203.021 157.342L202.405 157.628C203.373 159.223 203.813 160.994 203.813 162.919C203.813 164.844 203.373 166.615 202.405 168.21Z" fill="white" fill-opacity="0.87"/>
<rect x="222.5" y="162.5" width="10" height="2" fill="#8972FF"/>
<path d="M246.277 163.007H247.179V157.947H246.277V163.007ZM244.407 160.499C244.407 159.19 243.318 158.299 241.855 158.299C240.392 158.299 239.314 159.19 239.314 160.499C239.314 161.786 240.392 162.677 241.855 162.677C243.318 162.677 244.407 161.786 244.407 160.499ZM240.183 160.499C240.183 159.652 240.898 159.036 241.855 159.036C242.823 159.036 243.527 159.652 243.527 160.499C243.527 161.335 242.823 161.951 241.855 161.951C240.898 161.951 240.183 161.335 240.183 160.499ZM247.509 167.682V166.967H241.701V165.878H247.179V163.491H240.788V164.206H246.288V165.207H240.81V167.682H247.509ZM257.298 167.814V157.947H256.396V167.814H257.298ZM254.405 159.014H249.785V159.74H253.492C253.305 162.083 251.985 163.975 249.334 165.24L249.818 165.977C253.107 164.36 254.405 161.863 254.405 159.014ZM259.86 161.588L260.201 162.314C261.785 162.083 263.259 161.269 263.787 160.136C264.315 161.269 265.767 162.083 267.373 162.314L267.703 161.588C265.965 161.357 264.37 160.389 264.37 159.179V159.168H267.439V158.442H260.135V159.168H263.204V159.179C263.204 160.378 261.62 161.357 259.86 161.588ZM268.253 163.755V163.029H259.299V163.755H263.402V165.757H264.304V163.755H268.253ZM267.263 166.857H261.345V164.8H260.443V167.594H267.263V166.857Z" fill="white" fill-opacity="0.87"/>
</svg>
