<svg width="32" height="32" viewBox="0 0 32 32" fill="none" xmlns="http://www.w3.org/2000/svg">
<path d="M22.1232 9.24928C21.9416 9.25692 21.7606 9.27528 21.5812 9.30428L21.5742 9.28528C20.9435 7.79572 19.8179 6.5695 18.3878 5.81375C16.9576 5.058 15.3104 4.81905 13.7244 5.13726C12.1384 5.45547 10.7108 6.31133 9.68287 7.56028C8.65489 8.80923 8.0895 10.3747 8.08219 11.9923V12.0363C7.19588 12.1406 6.38319 12.5804 5.81118 13.2654C5.23917 13.9504 4.9513 14.8285 5.00675 15.7192C5.06219 16.6099 5.45674 17.4455 6.10928 18.0543C6.76183 18.6631 7.62279 18.9987 8.51519 18.9923H22.1242C23.4155 18.9923 24.654 18.4793 25.5671 17.5662C26.4802 16.6531 26.9932 15.4146 26.9932 14.1233C26.9932 12.8319 26.4802 11.5935 25.5671 10.6804C24.654 9.76727 23.4155 9.25428 22.1242 9.25428" fill="url(#paint0_linear_243_5559)"/>
<path d="M8.59072 11.9923C9.05291 11.9839 9.51222 12.0667 9.94242 12.2359C10.3726 12.405 10.7653 12.6573 11.098 12.9782C11.4307 13.2991 11.697 13.6824 11.8815 14.1063C12.0661 14.5301 12.1654 14.9861 12.1737 15.4483C12.1564 16.3814 11.7692 17.2694 11.0973 17.9171C10.4254 18.5648 9.43309 19.0169 8.5 19C7.56691 19.0169 6.75533 18.6776 6.08344 18.0299C5.41155 17.3822 5.02506 16.3814 5.00772 15.4483C5.01605 14.9861 5.11533 14.5301 5.2999 14.1063C5.48448 13.6824 5.75072 13.2991 6.08344 12.9782C6.41615 12.6573 6.80882 12.405 7.23902 12.2359C7.66922 12.0667 8.12853 11.9839 8.59072 11.9923Z" fill="url(#paint1_linear_243_5559)"/>
<path d="M10.0855 21.0054L14.7295 12.7664V12.7684C14.7716 12.6916 14.8284 12.6238 14.8967 12.5689C14.965 12.5141 15.0434 12.4732 15.1275 12.4486C15.2116 12.4241 15.2997 12.4163 15.3868 12.4258C15.4738 12.4353 15.5582 12.4618 15.635 12.5039C15.7119 12.546 15.7796 12.6028 15.8345 12.6711C15.8894 12.7394 15.9303 12.8178 15.9548 12.9019C15.9794 12.986 15.9871 13.0741 15.9776 13.1612C15.9682 13.2482 15.9416 13.3326 15.8995 13.4094L15.8915 13.4234L11.2465 21.6594C11.1891 21.7627 11.1049 21.8486 11.0029 21.9082C10.9009 21.9679 10.7847 21.999 10.6665 21.9984C10.5519 21.9982 10.4392 21.9693 10.3385 21.9144C10.1848 21.8271 10.0719 21.6824 10.0245 21.5121C9.97709 21.3418 9.99904 21.1596 10.0855 21.0054Z" fill="url(#paint2_linear_243_5559)"/>
<path d="M17.3863 21.0052L21.5213 13.6712L21.5253 13.6672C21.567 13.5885 21.6241 13.5189 21.6932 13.4626C21.7622 13.4063 21.8419 13.3644 21.9274 13.3393C22.0129 13.3143 22.1026 13.3067 22.1911 13.3169C22.2796 13.3271 22.3652 13.355 22.4428 13.3988C22.5204 13.4426 22.5884 13.5016 22.6428 13.5721C22.6973 13.6427 22.737 13.7234 22.7597 13.8096C22.7824 13.8958 22.7876 13.9856 22.775 14.0738C22.7624 14.162 22.7322 14.2468 22.6863 14.3232L18.5483 21.6592C18.49 21.7622 18.4054 21.8478 18.3032 21.9074C18.2009 21.967 18.0847 21.9983 17.9663 21.9982C17.852 21.9981 17.7395 21.9692 17.6393 21.9142C17.4856 21.8269 17.3727 21.6822 17.3253 21.5119C17.2779 21.3416 17.2998 21.1594 17.3863 21.0052Z" fill="url(#paint3_linear_243_5559)"/>
<path d="M7.09091 25.9994L8.42391 23.7284H8.42691C8.48599 23.6279 8.57032 23.5446 8.67153 23.4867C8.77274 23.4288 8.88732 23.3984 9.00391 23.3984C9.12215 23.3983 9.23825 23.43 9.33991 23.4904C9.49264 23.5801 9.60351 23.7268 9.64814 23.8982C9.69278 24.0696 9.66751 24.2517 9.57791 24.4044L8.24491 26.6714C8.17034 26.7974 8.05639 26.8954 7.92063 26.9502C7.78487 27.005 7.63484 27.0136 7.4937 26.9747C7.35255 26.9359 7.22812 26.8516 7.13961 26.735C7.05109 26.6184 7.00341 26.4758 7.00391 26.3294C7.00452 26.2139 7.03445 26.1003 7.09091 25.9994Z" fill="url(#paint4_linear_243_5559)"/>
<path d="M14.7296 25.9994L16.0626 23.7284C16.1214 23.6279 16.2055 23.5445 16.3066 23.4866C16.4077 23.4287 16.5221 23.3983 16.6386 23.3984C16.7572 23.3981 16.8737 23.4299 16.9756 23.4904C17.1284 23.5801 17.2392 23.7268 17.2839 23.8982C17.3285 24.0696 17.3032 24.2517 17.2136 24.4044L15.8806 26.6714C15.8063 26.7977 15.6925 26.896 15.5567 26.951C15.4209 27.006 15.2708 27.0147 15.1295 26.9757C14.9883 26.9368 14.8639 26.8523 14.7755 26.7355C14.6871 26.6187 14.6397 26.4759 14.6406 26.3294C14.6404 26.2135 14.6711 26.0996 14.7296 25.9994Z" fill="url(#paint5_linear_243_5559)"/>
<path d="M19.9216 23.0135L23.7496 16.0135L23.7486 16.0155C23.7906 15.9386 23.8473 15.8707 23.9155 15.8157C23.9836 15.7607 24.062 15.7197 24.146 15.695C24.2301 15.6703 24.3181 15.6624 24.4052 15.6718C24.4923 15.6811 24.5767 15.7075 24.6536 15.7495C24.7305 15.7914 24.7984 15.8481 24.8534 15.9163C24.9083 15.9845 24.9494 16.0628 24.9741 16.1469C24.9988 16.2309 25.0067 16.319 24.9973 16.4061C24.988 16.4932 24.9616 16.5776 24.9196 16.6545L21.0906 23.6545C21.0335 23.7596 20.9489 23.8473 20.8459 23.9083C20.7429 23.9692 20.6253 24.0011 20.5056 24.0005C20.3899 24.0003 20.2763 23.97 20.1759 23.9126C20.0755 23.8552 19.9917 23.7727 19.9328 23.6731C19.8739 23.5736 19.8419 23.4604 19.8399 23.3448C19.838 23.2291 19.8661 23.115 19.9216 23.0135Z" fill="url(#paint6_linear_243_5559)"/>
<path d="M11.3704 24.9954L16.7554 15.6754L16.7564 15.6764C16.8483 15.5298 16.9935 15.4246 17.1614 15.383C17.3293 15.3413 17.5068 15.3664 17.6566 15.4529C17.8063 15.5395 17.9167 15.6807 17.9644 15.847C18.0121 16.0133 17.9935 16.1916 17.9124 16.3444L12.5244 25.6614C12.4807 25.7371 12.4225 25.8035 12.3531 25.8568C12.2837 25.9101 12.2045 25.9492 12.12 25.9718C11.9493 26.0176 11.7675 25.9937 11.6144 25.9054C11.4614 25.817 11.3497 25.6716 11.304 25.5009C11.2813 25.4164 11.2755 25.3283 11.2869 25.2415C11.2983 25.1548 11.3267 25.0711 11.3704 24.9954Z" fill="url(#paint7_linear_243_5559)"/>
<path d="M6.08835 21.9979L9.82035 15.5979C9.87823 15.4935 9.96303 15.4066 10.0659 15.3461C10.1688 15.2856 10.286 15.2538 10.4053 15.2539C10.5181 15.2539 10.629 15.2828 10.7273 15.3379C10.8821 15.4237 10.9965 15.5674 11.0454 15.7374C11.0944 15.9075 11.0738 16.09 10.9883 16.2449C10.987 16.2471 10.9856 16.2494 10.9842 16.2516C10.9805 16.2577 10.9767 16.2641 10.9723 16.2699L7.24235 22.6699C7.1828 22.7696 7.09846 22.8523 6.99753 22.9097C6.89659 22.9672 6.7825 22.9976 6.66635 22.9979C6.54942 22.9976 6.43463 22.9666 6.33342 22.9081C6.23222 22.8495 6.14817 22.7654 6.08966 22.6642C6.03115 22.563 6.00023 22.4481 6 22.3312C5.99977 22.2143 6.03023 22.0994 6.08835 21.9979Z" fill="url(#paint8_linear_243_5559)"/>
<defs>
<linearGradient id="paint0_linear_243_5559" x1="20.5492" y1="13.7339" x2="8.15107" y2="29.489" gradientUnits="userSpaceOnUse">
<stop stop-color="#FEFFFF"/>
<stop offset="1" stop-color="#D5D5D5"/>
</linearGradient>
<linearGradient id="paint1_linear_243_5559" x1="6.70615" y1="18.4276" x2="11.4599" y2="21.2891" gradientUnits="userSpaceOnUse">
<stop stop-color="white"/>
<stop offset="1" stop-color="white" stop-opacity="0.03"/>
</linearGradient>
<linearGradient id="paint2_linear_243_5559" x1="-6.11663" y1="40.688" x2="25.1625" y2="5.74909" gradientUnits="userSpaceOnUse">
<stop stop-color="#E1F9FF"/>
<stop offset="1" stop-color="#40CBFF"/>
</linearGradient>
<linearGradient id="paint3_linear_243_5559" x1="0.290459" y1="33.2518" x2="25.4319" y2="5.51577" gradientUnits="userSpaceOnUse">
<stop stop-color="#E8F9FF"/>
<stop offset="1" stop-color="#40CBFF"/>
</linearGradient>
<linearGradient id="paint4_linear_243_5559" x1="-2.91529" y1="39.5481" x2="23.6947" y2="5.72772" gradientUnits="userSpaceOnUse">
<stop stop-color="#E1F9FF"/>
<stop offset="1" stop-color="#40CBFF"/>
</linearGradient>
<linearGradient id="paint5_linear_243_5559" x1="1.76229" y1="33.1548" x2="24.2422" y2="5.9534" gradientUnits="userSpaceOnUse">
<stop stop-color="#E1F9FF"/>
<stop offset="1" stop-color="#40CBFF"/>
</linearGradient>
<linearGradient id="paint6_linear_243_5559" x1="3.19455" y1="30.6488" x2="25.2591" y2="5.5135" gradientUnits="userSpaceOnUse">
<stop stop-color="#E1F9FF"/>
<stop offset="1" stop-color="#40CBFF"/>
</linearGradient>
<linearGradient id="paint7_linear_243_5559" x1="-0.0427647" y1="34.2432" x2="25.5223" y2="5.67158" gradientUnits="userSpaceOnUse">
<stop stop-color="#E1F9FF"/>
<stop offset="1" stop-color="#40CBFF"/>
</linearGradient>
<linearGradient id="paint8_linear_243_5559" x1="4.45511" y1="25.936" x2="13.2409" y2="19.6453" gradientUnits="userSpaceOnUse">
<stop stop-color="#E1F9FF"/>
<stop offset="1" stop-color="#40CBFF"/>
</linearGradient>
</defs>
</svg>
