<svg width="28" height="28" viewBox="0 0 28 28" fill="none" xmlns="http://www.w3.org/2000/svg">
<g id="traffic_jam">
<g id="light">
<g id="identity_32px">
<path id="Polygon 2" d="M12.2763 3.99616C13.0462 2.66795 14.9552 2.66795 15.725 3.99616L26.7271 22.9785C27.5021 24.3158 26.5424 25.9941 25.0027 25.9941H2.99863C1.45893 25.9941 0.499224 24.3158 1.27427 22.9786L12.2763 3.99616Z" fill="#FFE043"/>
<path id="Polygon 2 (Stroke)" fill-rule="evenodd" clip-rule="evenodd" d="M11.4135 3.49424C12.5682 1.50192 15.4318 1.50192 16.5865 3.49424L27.5886 22.4766C28.7512 24.4825 27.3116 27 25.0021 27H2.99795C0.6884 27 -0.751165 24.4825 0.411411 22.4766L11.4135 3.49424ZM14.8622 4.50395C14.4773 3.83984 13.5227 3.83984 13.1378 4.50395L2.13577 23.4863C1.74824 24.155 2.2281 24.9941 2.99795 24.9941H25.0021C25.7719 24.9941 26.2518 24.155 25.8642 23.4863L14.8622 4.50395Z" fill="black"/>
<path id="&#237;&#140;&#168;&#236;&#138;&#164; 88629" d="M12.3058 18.8183L12.7449 16.6055C12.8026 16.3635 12.9066 16.1351 13.0511 15.9326H9.73081L10.1699 13.7374C10.1856 13.657 10.2288 13.5846 10.2921 13.5325C10.3554 13.4805 10.4348 13.452 10.5167 13.452H14.8622C14.9441 13.452 15.0235 13.4805 15.0867 13.5325C15.15 13.5846 15.1932 13.657 15.209 13.7374L15.5043 15.2225H16.5876L16.1881 13.2259C16.154 13.0043 16.0456 12.801 15.8806 12.6492C15.7157 12.4974 15.504 12.4062 15.2804 12.3906H10.0919C9.8683 12.4062 9.65661 12.4974 9.49166 12.6492C9.3267 12.801 9.21828 13.0043 9.1842 13.2259L8.64636 15.9326H8.43452C8.24694 15.9332 8.0672 16.008 7.93456 16.1406C7.80192 16.2733 7.72714 16.453 7.72656 16.6406V19.4746C7.72714 19.6622 7.80192 19.842 7.93456 19.9746C8.0672 20.1072 8.24694 20.182 8.43452 20.1826H9.14249V20.8906C9.14249 21.0785 9.21713 21.2587 9.35 21.3916C9.48288 21.5244 9.66309 21.5991 9.851 21.5991C10.0389 21.5991 10.2191 21.5244 10.352 21.3916C10.4849 21.2587 10.5595 21.0785 10.5595 20.8906V20.1837H11.2675C11.2679 19.8743 11.3693 19.5735 11.5564 19.3271C11.7434 19.0806 12.0058 18.9019 12.3036 18.8183M9.49592 18.4121C9.3559 18.4121 9.21902 18.3706 9.1026 18.2928C8.98617 18.215 8.89543 18.1045 8.84185 17.9751C8.78826 17.8457 8.77424 17.7034 8.80156 17.5661C8.82888 17.4287 8.8963 17.3026 8.99531 17.2036C9.09432 17.1046 9.22047 17.0371 9.3578 17.0098C9.49513 16.9825 9.63748 16.9965 9.76684 17.0501C9.89621 17.1037 10.0068 17.1944 10.0846 17.3109C10.1624 17.4273 10.2039 17.5642 10.2039 17.7042C10.2039 17.8919 10.1293 18.072 9.99652 18.2048C9.86375 18.3376 9.68368 18.4121 9.49592 18.4121Z" fill="black"/>
<path id="&#237;&#140;&#168;&#236;&#138;&#164; 88630" d="M21.1895 19.4717H20.9809L20.4431 16.765C20.4089 16.5431 20.3002 16.3394 20.1348 16.1876C19.9694 16.0357 19.7572 15.9448 19.5332 15.9297H14.3458C14.1222 15.9453 13.9105 16.0364 13.7456 16.1882C13.5806 16.34 13.4722 16.5434 13.4381 16.765L12.9003 19.4717H12.6884C12.5008 19.4723 12.3211 19.547 12.1885 19.6797C12.0558 19.8123 11.981 19.9921 11.9805 20.1797V23.0137C11.981 23.2013 12.0558 23.381 12.1885 23.5137C12.3211 23.6463 12.5008 23.7211 12.6884 23.7217H13.3964V24.4296C13.4036 24.6127 13.4814 24.7859 13.6135 24.9129C13.7456 25.0399 13.9217 25.1108 14.1049 25.1108C14.2881 25.1108 14.4642 25.0399 14.5963 24.9129C14.7284 24.7859 14.8062 24.6127 14.8134 24.4296V23.7228H19.0634V24.4307C19.0706 24.6138 19.1484 24.787 19.2805 24.914C19.4126 25.041 19.5887 25.1119 19.7719 25.1119C19.9551 25.1119 20.1312 25.041 20.2633 24.914C20.3954 24.787 20.4732 24.6138 20.4804 24.4307V23.7228H21.1884C21.3759 23.7222 21.5557 23.6474 21.6883 23.5148C21.821 23.3821 21.8957 23.2024 21.8963 23.0148V20.1797C21.8957 19.9921 21.821 19.8123 21.6883 19.6797C21.5557 19.547 21.3759 19.4723 21.1884 19.4717M13.752 21.9468C13.612 21.9468 13.4751 21.9053 13.3587 21.8275C13.2423 21.7497 13.1515 21.6391 13.0979 21.5098C13.0444 21.3804 13.0303 21.2381 13.0577 21.1007C13.085 20.9634 13.1524 20.8373 13.2514 20.7382C13.3504 20.6392 13.4766 20.5718 13.6139 20.5445C13.7512 20.5172 13.8936 20.5312 14.0229 20.5848C14.1523 20.6384 14.2629 20.7291 14.3407 20.8455C14.4185 20.962 14.46 21.0988 14.46 21.2389C14.46 21.4266 14.3854 21.6067 14.2526 21.7395C14.1199 21.8722 13.9398 21.9468 13.752 21.9468ZM17.6486 19.4673H13.9836L14.4227 17.2721C14.4384 17.1917 14.4817 17.1193 14.5449 17.0672C14.6082 17.0151 14.6876 16.9867 14.7695 16.9867H19.115C19.1969 16.9867 19.2763 17.0151 19.3396 17.0672C19.4028 17.1193 19.446 17.1917 19.4618 17.2721L19.9009 19.4673H17.6486ZM20.1281 21.9468C19.988 21.9468 19.8512 21.9053 19.7347 21.8275C19.6183 21.7497 19.5276 21.6391 19.474 21.5098C19.4204 21.3804 19.4064 21.2381 19.4337 21.1007C19.461 20.9634 19.5285 20.8373 19.6275 20.7382C19.7265 20.6392 19.8526 20.5718 19.9899 20.5445C20.1273 20.5172 20.2696 20.5312 20.399 20.5848C20.5284 20.6384 20.6389 20.7291 20.7167 20.8455C20.7945 20.962 20.836 21.0988 20.836 21.2389C20.836 21.4266 20.7614 21.6067 20.6287 21.7395C20.4959 21.8722 20.3158 21.9468 20.1281 21.9468Z" fill="black"/>
</g>
</g>
</g>
</svg>
