<svg width="32" height="32" viewBox="0 0 32 32" fill="none" xmlns="http://www.w3.org/2000/svg">
<path d="M22.1154 9.2571C21.9338 9.26473 21.7528 9.28309 21.5734 9.3121L21.5664 9.2931C20.9357 7.80353 19.8101 6.57731 18.38 5.82156C16.9498 5.06581 15.3026 4.82686 13.7166 5.14507C12.1306 5.46328 10.703 6.31914 9.67505 7.56809C8.64708 8.81704 8.08168 10.3825 8.07438 12.0001V12.0441C7.18807 12.1484 6.37538 12.5882 5.80337 13.2732C5.23136 13.9582 4.94349 14.8363 4.99893 15.727C5.05438 16.6177 5.44893 17.4533 6.10147 18.0621C6.75402 18.6709 7.61498 19.0065 8.50738 19.0001H15.0554H15.0944H15.1334H22.0834H22.1164C23.4077 19.0001 24.6462 18.4871 25.5593 17.574C26.4724 16.6609 26.9854 15.4224 26.9854 14.1311C26.9854 12.8398 26.4724 11.6013 25.5593 10.6882C24.6462 9.77508 23.4077 9.2621 22.1164 9.2621" fill="url(#paint0_linear_243_8353)"/>
<path d="M8.583 12.0006C9.04519 11.9922 9.5045 12.075 9.9347 12.2442C10.3649 12.4133 10.7576 12.6656 11.0903 12.9865C11.423 13.3074 11.6892 13.6907 11.8738 14.1145C12.0584 14.5384 12.1577 14.9944 12.166 15.4566C12.1487 16.3897 11.7615 17.2777 11.0896 17.9254C10.4177 18.5731 9.51609 18.9274 8.583 18.9106C7.64991 18.9274 6.7483 18.5731 6.07641 17.9254C5.40452 17.2777 5.01735 16.3897 5 15.4566C5.00833 14.9944 5.10761 14.5384 5.29219 14.1145C5.47676 13.6907 5.743 13.3074 6.07572 12.9865C6.40843 12.6656 6.8011 12.4133 7.2313 12.2442C7.6615 12.075 8.12081 11.9922 8.583 12.0006Z" fill="url(#paint1_linear_243_8353)"/>
<mask id="mask0_243_8353" style="mask-type:luminance" maskUnits="userSpaceOnUse" x="8" y="20" width="10" height="9">
<path d="M15.2608 20C15.1836 20.0014 15.1082 20.0227 15.0417 20.062C14.9753 20.1012 14.9202 20.1571 14.8818 20.224L14.2728 21.315L13.9768 20.5C13.9599 20.4432 13.9318 20.3904 13.8943 20.3445C13.8567 20.2987 13.8104 20.2608 13.758 20.2331C13.7057 20.2054 13.6483 20.1884 13.5893 20.183C13.5303 20.1777 13.4708 20.1842 13.4143 20.2022C13.3578 20.2201 13.3055 20.2491 13.2604 20.2875C13.2152 20.3259 13.1782 20.3729 13.1514 20.4258C13.1247 20.4786 13.1087 20.5363 13.1045 20.5954C13.1002 20.6545 13.1078 20.7139 13.1268 20.77C13.1268 20.781 13.1348 20.792 13.1388 20.803L13.7018 22.345L12.9718 23.634L12.2018 22.307L12.7378 20.807C12.7713 20.6973 12.7613 20.579 12.7098 20.4765C12.6584 20.374 12.5694 20.2953 12.4614 20.2567C12.3535 20.2181 12.2348 20.2226 12.13 20.2692C12.0252 20.3158 11.9424 20.4009 11.8988 20.507L11.6098 21.3L10.9858 20.231C10.9563 20.1805 10.9172 20.1363 10.8706 20.1009C10.8241 20.0656 10.771 20.0397 10.7144 20.0249C10.6002 19.9949 10.4788 20.0115 10.3768 20.071C10.2748 20.1305 10.2007 20.2282 10.1707 20.3424C10.1407 20.4566 10.1573 20.578 10.2168 20.68L10.8448 21.756L10.0018 21.6C9.94414 21.5896 9.885 21.5906 9.82774 21.603C9.77049 21.6154 9.71624 21.639 9.66809 21.6724C9.57085 21.7398 9.50438 21.8431 9.48329 21.9595C9.47285 22.0172 9.47387 22.0763 9.48629 22.1335C9.4987 22.1908 9.52228 22.2451 9.55566 22.2932C9.58904 22.3414 9.63158 22.3825 9.68085 22.4142C9.73011 22.4459 9.78514 22.4676 9.84279 22.478L11.4428 22.767L12.2008 24.067H10.8348L9.80179 22.855C9.72992 22.761 9.62364 22.6994 9.50634 22.6837C9.38903 22.668 9.27031 22.6996 9.17629 22.7715C9.08227 22.8434 9.02066 22.9497 9.005 23.067C8.98934 23.1843 9.02092 23.303 9.09279 23.397L9.12279 23.431L9.66879 24.076H8.42879C8.31429 24.0814 8.20627 24.1307 8.12716 24.2137C8.04804 24.2966 8.00391 24.4069 8.00391 24.5215C8.00391 24.6361 8.04804 24.7464 8.12716 24.8293C8.20627 24.9123 8.31429 24.9616 8.42879 24.967H9.67079L9.11679 25.62C9.04313 25.7105 9.00788 25.8263 9.0186 25.9425C9.02933 26.0587 9.08517 26.1661 9.17415 26.2416C9.26314 26.3171 9.37817 26.3547 9.49458 26.3464C9.61098 26.338 9.71948 26.2844 9.79679 26.197L10.8428 24.967H12.2238L11.4508 26.342L9.81079 26.58C9.69968 26.5968 9.599 26.6549 9.52887 26.7427C9.45875 26.8305 9.42435 26.9415 9.43256 27.0536C9.44078 27.1657 9.49099 27.2705 9.57317 27.3472C9.65534 27.4238 9.76342 27.4666 9.87579 27.467H9.94079L10.9018 27.323L10.3438 28.329C10.2914 28.4317 10.2808 28.5508 10.3143 28.6612C10.3478 28.7716 10.4228 28.8647 10.5234 28.921C10.6241 28.9772 10.7427 28.9923 10.8542 28.9631C10.9658 28.9338 11.0617 28.8625 11.1218 28.764L11.6268 27.864L11.8458 28.548C11.8747 28.6375 11.9312 28.7156 12.0071 28.7711C12.0831 28.8266 12.1747 28.8567 12.2688 28.857C12.314 28.856 12.3589 28.8482 12.4018 28.834C12.5141 28.7978 12.6075 28.7185 12.6615 28.6135C12.7155 28.5085 12.7257 28.3865 12.6898 28.274L12.2198 26.792L12.9858 25.428L13.7388 26.71L13.2018 28.222C13.1574 28.3317 13.1583 28.4545 13.2045 28.5634C13.2506 28.6724 13.3381 28.7586 13.4478 28.803C13.5575 28.8474 13.6803 28.8465 13.7892 28.8003C13.8982 28.7542 13.9844 28.6667 14.0288 28.557L14.0418 28.522L14.3298 27.716L14.9498 28.779C14.9992 28.8636 15.0752 28.9295 15.1658 28.9666C15.2565 29.0037 15.3568 29.01 15.4514 28.9844C15.5459 28.9588 15.6294 28.9027 15.6889 28.825C15.7485 28.7472 15.7808 28.652 15.7808 28.554C15.7809 28.4749 15.7598 28.3972 15.7198 28.329L15.1198 27.306L15.9018 27.47C15.9321 27.476 15.9629 27.479 15.9938 27.479C16.1036 27.4781 16.2092 27.4367 16.2903 27.3627C16.3715 27.2888 16.4225 27.1875 16.4337 27.0783C16.4448 26.9691 16.4153 26.8596 16.3507 26.7708C16.2862 26.682 16.1911 26.6201 16.0838 26.597L14.5118 26.269L13.7448 24.954L15.4738 24.947L16.4798 26.19C16.5554 26.278 16.6623 26.333 16.7779 26.3435C16.8934 26.3539 17.0085 26.3189 17.0986 26.2459C17.1888 26.1729 17.247 26.0677 17.2608 25.9525C17.2747 25.8373 17.2431 25.7213 17.1728 25.629L16.6178 24.943H17.5438C17.6583 24.9376 17.7663 24.8883 17.8454 24.8053C17.9245 24.7224 17.9687 24.6121 17.9687 24.4975C17.9687 24.3829 17.9245 24.2726 17.8454 24.1897C17.7663 24.1067 17.6583 24.0574 17.5438 24.052V24.043H16.6438L17.1718 23.424C17.2096 23.3794 17.2383 23.3278 17.2562 23.2722C17.274 23.2165 17.2808 23.1579 17.276 23.0996C17.2712 23.0413 17.255 22.9846 17.2283 22.9326C17.2016 22.8806 17.1649 22.8343 17.1203 22.7965C17.0757 22.7587 17.0241 22.73 16.9685 22.7121C16.9128 22.6942 16.8541 22.6875 16.7959 22.6923C16.7376 22.6971 16.6809 22.7133 16.6288 22.74C16.5768 22.7667 16.5306 22.8034 16.4928 22.848L15.4738 24.048L13.7608 24.055L14.4798 22.773L16.0468 22.455C16.1041 22.4436 16.1586 22.421 16.2072 22.3885C16.2558 22.356 16.2975 22.3142 16.33 22.2656C16.3624 22.217 16.385 22.1625 16.3964 22.1052C16.4077 22.0478 16.4077 21.9888 16.3963 21.9315C16.3849 21.8742 16.3623 21.8197 16.3298 21.7711C16.2973 21.7225 16.2555 21.6808 16.2069 21.6483C16.1583 21.6159 16.1038 21.5933 16.0465 21.5819C15.9891 21.5706 15.9301 21.5706 15.8728 21.582L15.0538 21.746L15.6598 20.661C15.6968 20.5938 15.7158 20.5182 15.7151 20.4415C15.7143 20.3648 15.6938 20.2896 15.6555 20.2232C15.6172 20.1567 15.5624 20.1013 15.4964 20.0622C15.4304 20.0231 15.3555 20.0017 15.2788 20H15.2608Z" fill="white"/>
</mask>
<g mask="url(#mask0_243_8353)">
<path d="M14.0025 33.4543L22.9025 23.5712L11.9725 15.5312L3.0625 25.4142L14.0025 33.4543Z" fill="url(#paint2_linear_243_8353)"/>
</g>
<mask id="mask1_243_8353" style="mask-type:luminance" maskUnits="userSpaceOnUse" x="23" y="21" width="3" height="4">
<path d="M24.0127 21.6737C23.9398 21.7127 23.8854 21.7791 23.8614 21.8582C23.8374 21.9374 23.8458 22.0228 23.8847 22.0957C23.8873 22.1021 23.8906 22.1082 23.8947 22.1137L24.1207 22.5137H23.6687C23.6267 22.5104 23.5844 22.5156 23.5444 22.5291C23.5045 22.5425 23.4677 22.5639 23.4362 22.592C23.4048 22.6201 23.3793 22.6543 23.3615 22.6925C23.3436 22.7307 23.3336 22.7721 23.3322 22.8142C23.3308 22.8564 23.3379 22.8984 23.3532 22.9377C23.3685 22.977 23.3915 23.0128 23.421 23.0429C23.4505 23.0731 23.4858 23.0969 23.5248 23.113C23.5637 23.1292 23.6056 23.1372 23.6477 23.1367H24.1247L23.8977 23.5307C23.8756 23.5662 23.8608 23.6058 23.8543 23.6472C23.8478 23.6885 23.8497 23.7307 23.8598 23.7713C23.87 23.8119 23.8882 23.8501 23.9134 23.8835C23.9385 23.9169 23.9702 23.9449 24.0064 23.9659C24.0427 23.9868 24.0827 24.0002 24.1243 24.0054C24.1658 24.0105 24.2079 24.0072 24.2482 23.9957C24.2884 23.9842 24.3259 23.9648 24.3585 23.9385C24.3911 23.9122 24.418 23.8796 24.4377 23.8427L24.6657 23.4427L24.8937 23.8357C24.9326 23.9088 24.9989 23.9634 25.078 23.9876C25.1571 24.0118 25.2427 24.0036 25.3157 23.9647C25.3888 23.9259 25.4434 23.8596 25.4676 23.7804C25.4918 23.7013 25.4836 23.6158 25.4447 23.5427L25.4347 23.5247L25.2047 23.1337H25.6597C25.7417 23.1332 25.8201 23.1003 25.878 23.0423C25.9358 22.9842 25.9685 22.9057 25.9687 22.8237C25.9687 22.7828 25.9606 22.7423 25.9449 22.7045C25.9293 22.6667 25.9063 22.6324 25.8773 22.6035C25.8483 22.5746 25.8139 22.5517 25.776 22.5361C25.7382 22.5205 25.6976 22.5126 25.6567 22.5127H25.2027L25.4307 22.1177C25.4689 22.0463 25.4778 21.9629 25.4555 21.8851C25.4333 21.8072 25.3817 21.7411 25.3116 21.7006C25.2415 21.6601 25.1584 21.6484 25.0799 21.668C25.0014 21.6876 24.9335 21.737 24.8907 21.8057L24.6627 22.2007L24.4357 21.8067C24.4094 21.7559 24.3696 21.7132 24.3208 21.6832C24.272 21.6533 24.216 21.6372 24.1587 21.6367C24.1077 21.6364 24.0574 21.6492 24.0127 21.6737Z" fill="white"/>
</mask>
<g mask="url(#mask1_243_8353)">
<path d="M23.6686 25.0558L26.6686 23.7418L25.6406 20.5898L22.6406 21.9038L23.6686 25.0558Z" fill="url(#paint3_linear_243_8353)"/>
</g>
<mask id="mask2_243_8353" style="mask-type:luminance" maskUnits="userSpaceOnUse" x="19" y="25" width="4" height="4">
<path d="M21.5334 25.9949C21.5289 26.0016 21.5248 26.0086 21.5214 26.0159L21.2124 26.5489L20.9044 26.0159C20.8795 25.9646 20.8444 25.9188 20.8014 25.8814C20.7583 25.8439 20.7081 25.8156 20.6538 25.798C20.5995 25.7804 20.5422 25.7739 20.4854 25.779C20.4285 25.7841 20.3733 25.8006 20.323 25.8276C20.2727 25.8545 20.2283 25.8913 20.1926 25.9358C20.1568 25.9803 20.1304 26.0316 20.115 26.0865C20.0995 26.1415 20.0953 26.1989 20.1026 26.2556C20.1099 26.3122 20.1286 26.3667 20.1574 26.4159L20.1704 26.4369L20.4784 26.9699H19.8604C19.7517 26.9752 19.6491 27.0221 19.574 27.101C19.4989 27.1798 19.457 27.2845 19.457 27.3934C19.457 27.5023 19.4989 27.607 19.574 27.6859C19.6491 27.7647 19.7517 27.8116 19.8604 27.8169H20.4794L20.1714 28.3519C20.1166 28.4475 20.1012 28.5607 20.1284 28.6675C20.1556 28.7743 20.2233 28.8662 20.3172 28.924C20.4111 28.9817 20.5237 29.0006 20.6313 28.9767C20.7388 28.9528 20.8329 28.888 20.8934 28.7959L20.9044 28.7759L21.2124 28.2419L21.5214 28.7759C21.5492 28.8241 21.5861 28.8664 21.6301 28.9003C21.6742 28.9342 21.7245 28.9592 21.7781 28.9736C21.8318 28.9881 21.8878 28.9919 21.9429 28.9847C21.9981 28.9776 22.0513 28.9596 22.0994 28.9319C22.1476 28.9042 22.1899 28.8673 22.2238 28.8232C22.2578 28.7792 22.2827 28.7289 22.2972 28.6752C22.3116 28.6216 22.3154 28.5656 22.3083 28.5104C22.3011 28.4553 22.2832 28.4021 22.2554 28.3539L21.9484 27.8199H22.5664C22.6739 27.8125 22.7745 27.7647 22.848 27.686C22.9214 27.6073 22.9623 27.5036 22.9623 27.3959C22.9623 27.2883 22.9214 27.1846 22.848 27.1059C22.7745 27.0272 22.6739 26.9793 22.5664 26.9719H21.9514L22.2584 26.4379C22.2879 26.3906 22.3077 26.3379 22.3167 26.2828C22.3257 26.2278 22.3238 26.1715 22.3109 26.1172C22.2981 26.0629 22.2747 26.0117 22.242 25.9666C22.2093 25.9214 22.168 25.8831 22.1204 25.8539C22.0731 25.8247 22.0204 25.8051 21.9654 25.7962C21.9104 25.7874 21.8542 25.7894 21.8001 25.8024C21.7459 25.8153 21.6948 25.8388 21.6498 25.8715C21.6047 25.9042 21.5665 25.9454 21.5374 25.9929" fill="white"/>
</mask>
<g mask="url(#mask2_243_8353)">
<path d="M17.668 27.7343L21.568 30.6403L24.757 27.0593L20.855 24.1523L17.668 27.7343Z" fill="url(#paint4_linear_243_8353)"/>
</g>
<defs>
<linearGradient id="paint0_linear_243_8353" x1="20.5414" y1="10.5628" x2="14.047" y2="23.5383" gradientUnits="userSpaceOnUse">
<stop stop-color="#FEFFFF"/>
<stop offset="1" stop-color="#D5D5D5"/>
</linearGradient>
<linearGradient id="paint1_linear_243_8353" x1="6.69834" y1="13.5481" x2="10.1146" y2="16.7813" gradientUnits="userSpaceOnUse">
<stop stop-color="white"/>
<stop offset="1" stop-color="white" stop-opacity="0.03"/>
</linearGradient>
<linearGradient id="paint2_linear_243_8353" x1="9.94698" y1="29.9413" x2="14.7561" y2="19.3503" gradientUnits="userSpaceOnUse">
<stop stop-color="#E1F9FF"/>
<stop offset="1" stop-color="#40CBFF"/>
</linearGradient>
<linearGradient id="paint3_linear_243_8353" x1="22.6406" y1="26.2259" x2="26.5012" y2="20.9571" gradientUnits="userSpaceOnUse">
<stop stop-color="#E1F9FF"/>
<stop offset="1" stop-color="#40CBFF"/>
</linearGradient>
<linearGradient id="paint4_linear_243_8353" x1="17.668" y1="30.9647" x2="22.6455" y2="24.2844" gradientUnits="userSpaceOnUse">
<stop stop-color="#E1F9FF"/>
<stop offset="1" stop-color="#40CBFF"/>
</linearGradient>
</defs>
</svg>
