<svg width="280" height="147" viewBox="0 0 280 147" fill="none" xmlns="http://www.w3.org/2000/svg">
<path d="M7.777 8.185H8.679V0.947H7.777V8.185ZM6.05 6.579L6.523 5.864C5.071 5.336 4.059 3.983 4.059 2.498V1.497H3.157V2.498C3.157 4.038 2.178 5.479 0.682 6.04L1.155 6.777C2.31 6.293 3.19 5.336 3.619 4.137C4.059 5.281 4.906 6.15 6.05 6.579ZM8.976 10.594V9.857H3.234V7.514H2.332V10.594H8.976ZM19.0731 10.803V0.947H18.2041V4.962H16.8071V1.167H15.9601V10.308H16.8071V5.71H18.2041V10.803H19.0731ZM12.0881 7.47V2.146H11.1861V8.251H11.8131C12.8801 8.251 14.0131 8.196 15.3441 7.943L15.2561 7.162C14.0681 7.393 13.0561 7.459 12.0881 7.47ZM28.4113 5.699H30.0393V4.951H28.4113V0.958H27.5093V10.814H28.4113V5.699ZM24.1323 3.576V1.805H23.2413V3.576C23.2413 5.369 22.1193 7.25 20.7003 7.987L21.2393 8.713C22.3503 8.097 23.2633 6.909 23.6923 5.446C24.1323 6.81 25.0233 7.954 26.0793 8.515L26.6403 7.8C25.2653 7.096 24.1323 5.303 24.1323 3.576ZM39.0584 10.814V0.958H38.1564V4.907H35.8464V5.644H38.1564V10.814H39.0584ZM35.8684 2.014H31.3694V2.74H34.9664C34.7904 5.05 33.5804 6.931 30.9294 8.229L31.4244 8.933C34.7134 7.316 35.8684 4.819 35.8684 2.014ZM49.1556 10.825V0.935999H48.2536V10.825H49.1556ZM42.5336 7.69V5.391H46.1746V1.86H41.5986V2.597H45.2616V4.654H41.6316V8.438H42.4456C44.1506 8.438 45.6246 8.372 47.4176 8.075L47.3296 7.338C45.6136 7.602 44.1506 7.69 42.5336 7.69ZM61.9767 5.446H53.4957V6.194H61.9767C61.4157 6.634 60.7007 7.316 60.1947 7.998L60.8547 8.383C61.5807 7.426 62.6917 6.436 63.6707 5.82C62.6917 5.204 61.5807 4.214 60.8547 3.257L60.1947 3.642C60.7007 4.324 61.4157 5.006 61.9767 5.446ZM8.173 18.633H9.757V17.885H8.173V13.947H7.271V23.814H8.173V18.633ZM1.87 20.558V14.904H0.979V21.317H1.76C3.267 21.317 4.774 21.207 6.457 20.866L6.347 20.118C4.752 20.437 3.289 20.558 1.87 20.558ZM11.8901 17.269H18.5671V16.543H12.7921V15.003H18.4681V14.277H11.8901V17.269ZM19.6341 18.798V18.061H10.7021V18.798H19.6341ZM18.7761 22.989H12.6821V21.977H18.4791V19.656H11.7691V20.36H17.5881V21.306H11.8021V23.693H18.7761V22.989ZM29.7423 19.678V18.952H25.7383V17.698H28.5983V14.354H21.9653V17.698H24.8363V18.952H20.8103V19.678H29.7423ZM27.7073 16.983H22.8453V15.069H27.7073V16.983ZM28.6423 20.701H21.8113V21.427H27.7403V23.825H28.6423V20.701ZM38.5304 18.699H40.1584V17.951H38.5304V13.958H37.6284V23.814H38.5304V18.699ZM34.2514 16.576V14.805H33.3604V16.576C33.3604 18.369 32.2384 20.25 30.8194 20.987L31.3584 21.713C32.4694 21.097 33.3824 19.909 33.8114 18.446C34.2514 19.81 35.1424 20.954 36.1984 21.515L36.7594 20.8C35.3844 20.096 34.2514 18.303 34.2514 16.576ZM49.1776 23.814V13.958H48.2756V17.907H45.9656V18.644H48.2756V23.814H49.1776ZM45.9876 15.014H41.4886V15.74H45.0856C44.9096 18.05 43.6996 19.931 41.0486 21.229L41.5436 21.933C44.8326 20.316 45.9876 17.819 45.9876 15.014ZM59.2747 23.825V13.936H58.3727V23.825H59.2747ZM52.6527 20.69V18.391H56.2937V14.86H51.7177V15.597H55.3807V17.654H51.7507V21.438H52.5647C54.2697 21.438 55.7437 21.372 57.5367 21.075L57.4487 20.338C55.7327 20.602 54.2697 20.69 52.6527 20.69Z" fill="white" fill-opacity="0.6"/>
<rect x="96" y="4.5" width="89" height="6" fill="#27D4FF"/>
<path d="M198.995 11V10.109H195.816C195.541 10.109 195.211 10.153 194.903 10.241L197.158 8.008C198.071 7.095 198.841 6.259 198.841 5.06C198.841 3.63 197.774 2.794 196.399 2.794C195.024 2.794 193.957 3.597 193.748 5.082L194.738 5.247C194.738 4.323 195.42 3.663 196.344 3.663C197.18 3.663 197.796 4.114 197.829 5.082C197.829 6.028 197.213 6.721 196.366 7.623L193.583 10.296V11H198.995ZM200.334 5.104L201.335 5.269C201.335 4.367 202.006 3.685 202.93 3.685C203.777 3.685 204.371 4.136 204.371 5.06C204.371 5.896 203.865 6.479 202.446 6.512V7.238C204.173 7.238 204.536 7.876 204.536 8.745C204.536 9.46 203.975 10.274 202.82 10.274C201.984 10.274 201.489 9.845 201.148 9.141C201.06 8.932 201.005 8.767 200.983 8.646L200.081 9.02C200.466 10.208 201.093 11.143 202.831 11.143C204.338 11.143 205.559 10.197 205.559 8.723C205.559 7.711 205.009 7.04 203.953 6.776C204.833 6.479 205.372 5.951 205.372 4.895C205.372 3.663 204.382 2.805 202.985 2.805C201.61 2.805 200.543 3.641 200.334 5.104ZM207.568 10.12H206.567V11.154H207.568V10.12ZM210.742 5.94L211.105 3.828H214.262V2.904H210.401L209.741 6.721L210.39 6.908C210.863 6.743 211.281 6.644 211.71 6.644C212.865 6.644 213.547 7.26 213.547 8.316C213.547 9.504 212.744 10.197 211.633 10.197C210.973 10.197 210.335 9.9 209.851 9.493L209.312 10.23C209.807 10.703 210.621 11.099 211.589 11.099C213.228 11.099 214.515 9.977 214.515 8.261C214.515 6.853 213.602 5.797 211.897 5.797C211.501 5.797 211.116 5.841 210.742 5.94Z" fill="white" fill-opacity="0.6"/>
<rect x="96" y="15.5" width="35" height="6" fill="#0077FF"/>
<path d="M144.786 22V21.186H143.202V13.893H142.399L140.232 15.763L140.771 16.412L142.234 15.103C142.223 15.18 142.223 15.279 142.223 15.378V21.186H140.43V22H144.786ZM150.008 17.798C150.888 17.479 151.328 16.841 151.328 15.906C151.328 14.718 150.305 13.739 148.831 13.739C147.302 13.739 146.334 14.718 146.334 15.906C146.334 16.83 146.796 17.479 147.632 17.798C146.62 18.073 146.037 18.777 146.037 19.833C146.037 21.274 147.181 22.187 148.831 22.187C150.459 22.187 151.603 21.274 151.603 19.833C151.603 18.777 151.031 18.073 150.008 17.798ZM148.831 14.542C149.821 14.542 150.305 15.169 150.305 15.939C150.305 16.676 149.92 17.413 148.831 17.413C147.72 17.413 147.335 16.676 147.335 15.939C147.335 15.169 147.819 14.542 148.831 14.542ZM148.831 21.362C147.731 21.362 147.104 20.746 147.104 19.822C147.104 18.689 147.907 18.216 148.831 18.216C149.744 18.216 150.536 18.689 150.536 19.822C150.536 20.746 149.931 21.362 148.831 21.362ZM153.568 21.12H152.567V22.154H153.568V21.12ZM160.427 22V21.186H158.843V13.893H158.04L155.873 15.763L156.412 16.412L157.875 15.103C157.864 15.18 157.864 15.279 157.864 15.378V21.186H156.071V22H160.427Z" fill="white" fill-opacity="0.6"/>
<path d="M8.965 50.303V40.447H8.107V50.303H8.965ZM6.985 40.711H6.127V43.197H4.664C4.752 42.702 4.796 42.196 4.796 41.701H1.012V42.438H3.905C3.74 44.539 2.728 46.255 0.572 47.542L1.1 48.18C2.981 47.069 4.026 45.595 4.499 43.923H6.127V45.661H4.345V46.398H6.127V49.808H6.985V40.711ZM18.3581 44.022V42.658H19.7991V41.921H18.3581V40.458H17.4561V46.299H18.3581V44.77H19.7991V44.022H18.3581ZM16.0371 43.351C16.0371 41.987 14.9481 41.041 13.4631 41.041C11.9671 41.041 10.8891 41.987 10.8891 43.351C10.8891 44.726 11.9671 45.683 13.4631 45.683C14.9481 45.683 16.0371 44.726 16.0371 43.351ZM11.7691 43.351C11.7691 42.427 12.4731 41.789 13.4631 41.789C14.4421 41.789 15.1571 42.427 15.1571 43.351C15.1571 44.275 14.4421 44.924 13.4631 44.924C12.4731 44.924 11.7691 44.275 11.7691 43.351ZM15.2231 46.607C13.2211 46.607 11.9671 47.267 11.9671 48.455C11.9671 49.621 13.2211 50.303 15.2231 50.303C17.2141 50.303 18.4681 49.621 18.4681 48.455C18.4681 47.267 17.2141 46.607 15.2231 46.607ZM15.2231 49.588C13.7601 49.588 12.8691 49.159 12.8691 48.455C12.8691 47.74 13.7601 47.322 15.2231 47.322C16.6861 47.322 17.5661 47.74 17.5661 48.455C17.5661 49.159 16.6861 49.588 15.2231 49.588ZM28.9503 50.325V40.447H28.0483V43.791H25.7603V44.528H28.0483V50.325H28.9503ZM24.2753 43.065V41.294H23.3733V43.065C23.3733 44.88 22.2513 46.805 20.8213 47.509L21.3713 48.224C22.4823 47.641 23.3843 46.387 23.8243 44.924C24.2753 46.299 25.1993 47.487 26.2993 48.048L26.8273 47.333C25.3973 46.662 24.2753 44.847 24.2753 43.065ZM38.1564 40.458V43.01H36.2094V43.747H38.1564V46.332H39.0694V40.458H38.1564ZM36.3084 45.958L36.7594 45.254C35.3294 44.759 34.3614 43.505 34.3614 42.24V41.899H36.5284V41.173H31.2594V41.899H33.4594V42.24C33.4594 43.648 32.4364 45.001 30.9734 45.529L31.4464 46.244C32.6014 45.804 33.5034 44.88 33.9324 43.736C34.3614 44.748 35.2084 45.562 36.3084 45.958ZM35.8134 46.64C33.7894 46.64 32.5244 47.3 32.5244 48.477C32.5244 49.654 33.7894 50.314 35.8134 50.314C37.8374 50.314 39.0914 49.654 39.0914 48.477C39.0914 47.3 37.8374 46.64 35.8134 46.64ZM35.8134 49.61C34.3064 49.61 33.4264 49.192 33.4264 48.477C33.4264 47.762 34.3064 47.333 35.8134 47.333C37.3204 47.333 38.2004 47.762 38.2004 48.477C38.2004 49.192 37.3204 49.61 35.8134 49.61ZM42.2036 44.374H48.8366V40.909H42.2036V44.374ZM43.0836 41.635H47.9456V43.648H43.0836V41.635ZM50.0026 46.222V45.496H41.0376V46.222H45.1406V48.213H46.0426V46.222H50.0026ZM49.0016 49.357H43.0836V47.278H42.1816V50.094H49.0016V49.357Z" fill="white" fill-opacity="0.6"/>
<rect x="96" y="37.5" width="116" height="6" fill="#27D4FF"/>
<path d="M225.995 44V43.109H222.816C222.541 43.109 222.211 43.153 221.903 43.241L224.158 41.008C225.071 40.095 225.841 39.259 225.841 38.06C225.841 36.63 224.774 35.794 223.399 35.794C222.024 35.794 220.957 36.597 220.748 38.082L221.738 38.247C221.738 37.323 222.42 36.663 223.344 36.663C224.18 36.663 224.796 37.114 224.829 38.082C224.829 39.028 224.213 39.721 223.366 40.623L220.583 43.296V44H225.995ZM229.204 38.94L231.635 35.893H230.37L228.126 38.918C227.422 39.842 227.125 40.656 227.125 41.371C227.125 43.043 228.192 44.143 229.831 44.143C231.481 44.143 232.625 42.977 232.625 41.481C232.625 39.93 231.525 39.05 230.205 39.05C229.666 39.05 229.215 39.204 228.819 39.468C228.896 39.38 229.017 39.204 229.204 38.94ZM229.809 43.296C228.709 43.296 228.104 42.592 228.104 41.536C228.104 40.623 228.797 39.831 229.875 39.831C230.876 39.831 231.613 40.491 231.613 41.558C231.613 42.559 230.876 43.296 229.809 43.296ZM234.568 43.12H233.567V44.154H234.568V43.12ZM241.636 44V43.109H238.457C238.182 43.109 237.852 43.153 237.544 43.241L239.799 41.008C240.712 40.095 241.482 39.259 241.482 38.06C241.482 36.63 240.415 35.794 239.04 35.794C237.665 35.794 236.598 36.597 236.389 38.082L237.379 38.247C237.379 37.323 238.061 36.663 238.985 36.663C239.821 36.663 240.437 37.114 240.47 38.082C240.47 39.028 239.854 39.721 239.007 40.623L236.224 43.296V44H241.636Z" fill="white" fill-opacity="0.6"/>
<rect x="96" y="48.5" width="82" height="6" fill="#0077FF"/>
<path d="M191.995 55V54.109H188.816C188.541 54.109 188.211 54.153 187.903 54.241L190.158 52.008C191.071 51.095 191.841 50.259 191.841 49.06C191.841 47.63 190.774 46.794 189.399 46.794C188.024 46.794 186.957 47.597 186.748 49.082L187.738 49.247C187.738 48.323 188.42 47.663 189.344 47.663C190.18 47.663 190.796 48.114 190.829 49.082C190.829 50.028 190.213 50.721 189.366 51.623L186.583 54.296V55H191.995ZM198.548 55V54.109H195.369C195.094 54.109 194.764 54.153 194.456 54.241L196.711 52.008C197.624 51.095 198.394 50.259 198.394 49.06C198.394 47.63 197.327 46.794 195.952 46.794C194.577 46.794 193.51 47.597 193.301 49.082L194.291 49.247C194.291 48.323 194.973 47.663 195.897 47.663C196.733 47.663 197.349 48.114 197.382 49.082C197.382 50.028 196.766 50.721 195.919 51.623L193.136 54.296V55H198.548ZM200.568 54.12H199.567V55.154H200.568V54.12ZM206.096 50.798C206.976 50.479 207.416 49.841 207.416 48.906C207.416 47.718 206.393 46.739 204.919 46.739C203.39 46.739 202.422 47.718 202.422 48.906C202.422 49.83 202.884 50.479 203.72 50.798C202.708 51.073 202.125 51.777 202.125 52.833C202.125 54.274 203.269 55.187 204.919 55.187C206.547 55.187 207.691 54.274 207.691 52.833C207.691 51.777 207.119 51.073 206.096 50.798ZM204.919 47.542C205.909 47.542 206.393 48.169 206.393 48.939C206.393 49.676 206.008 50.413 204.919 50.413C203.808 50.413 203.423 49.676 203.423 48.939C203.423 48.169 203.907 47.542 204.919 47.542ZM204.919 54.362C203.819 54.362 203.192 53.746 203.192 52.822C203.192 51.689 203.995 51.216 204.919 51.216C205.832 51.216 206.624 51.689 206.624 52.822C206.624 53.746 206.019 54.362 204.919 54.362Z" fill="white" fill-opacity="0.6"/>
<path d="M7.777 79.685H8.679V72.447H7.777V79.685ZM6.05 78.079L6.523 77.364C5.071 76.836 4.059 75.483 4.059 73.998V72.997H3.157V73.998C3.157 75.538 2.178 76.979 0.682 77.54L1.155 78.277C2.31 77.793 3.19 76.836 3.619 75.637C4.059 76.781 4.906 77.65 6.05 78.079ZM8.976 82.094V81.357H3.234V79.014H2.332V82.094H8.976ZM19.0731 82.303V72.447H18.2041V76.462H16.8071V72.667H15.9601V81.808H16.8071V77.21H18.2041V82.303H19.0731ZM12.0881 78.97V73.646H11.1861V79.751H11.8131C12.8801 79.751 14.0131 79.696 15.3441 79.443L15.2561 78.662C14.0681 78.893 13.0561 78.959 12.0881 78.97ZM28.4113 77.199H30.0393V76.451H28.4113V72.458H27.5093V82.314H28.4113V77.199ZM24.1323 75.076V73.305H23.2413V75.076C23.2413 76.869 22.1193 78.75 20.7003 79.487L21.2393 80.213C22.3503 79.597 23.2633 78.409 23.6923 76.946C24.1323 78.31 25.0233 79.454 26.0793 80.015L26.6403 79.3C25.2653 78.596 24.1323 76.803 24.1323 75.076ZM39.0584 82.314V72.458H38.1564V76.407H35.8464V77.144H38.1564V82.314H39.0584ZM35.8684 73.514H31.3694V74.24H34.9664C34.7904 76.55 33.5804 78.431 30.9294 79.729L31.4244 80.433C34.7134 78.816 35.8684 76.319 35.8684 73.514ZM49.1556 82.325V72.436H48.2536V82.325H49.1556ZM42.5336 79.19V76.891H46.1746V73.36H41.5986V74.097H45.2616V76.154H41.6316V79.938H42.4456C44.1506 79.938 45.6246 79.872 47.4176 79.575L47.3296 78.838C45.6136 79.102 44.1506 79.19 42.5336 79.19Z" fill="white" fill-opacity="0.6"/>
<rect x="96" y="69.5" width="55" height="6" fill="#27D4FF"/>
<path d="M164.995 76V75.109H161.816C161.541 75.109 161.211 75.153 160.903 75.241L163.158 73.008C164.071 72.095 164.841 71.259 164.841 70.06C164.841 68.63 163.774 67.794 162.399 67.794C161.024 67.794 159.957 68.597 159.748 70.082L160.738 70.247C160.738 69.323 161.42 68.663 162.344 68.663C163.18 68.663 163.796 69.114 163.829 70.082C163.829 71.028 163.213 71.721 162.366 72.623L159.583 75.296V76H164.995ZM171.812 71.985C171.812 69.114 170.514 67.805 168.853 67.805C167.181 67.805 165.894 69.114 165.894 71.985C165.894 74.845 167.181 76.154 168.853 76.154C170.514 76.154 171.812 74.845 171.812 71.985ZM170.8 71.985C170.8 74.493 169.876 75.34 168.853 75.34C167.83 75.34 166.917 74.493 166.917 71.985C166.917 69.466 167.83 68.63 168.853 68.63C169.876 68.63 170.8 69.466 170.8 71.985ZM173.568 75.12H172.567V76.154H173.568V75.12ZM180.427 76V75.186H178.843V67.893H178.04L175.873 69.763L176.412 70.412L177.875 69.103C177.864 69.18 177.864 69.279 177.864 69.378V75.186H176.071V76H180.427Z" fill="white" fill-opacity="0.6"/>
<rect x="96" y="80.5" width="83" height="6" fill="#0077FF"/>
<path d="M192.995 87V86.109H189.816C189.541 86.109 189.211 86.153 188.903 86.241L191.158 84.008C192.071 83.095 192.841 82.259 192.841 81.06C192.841 79.63 191.774 78.794 190.399 78.794C189.024 78.794 187.957 79.597 187.748 81.082L188.738 81.247C188.738 80.323 189.42 79.663 190.344 79.663C191.18 79.663 191.796 80.114 191.829 81.082C191.829 82.028 191.213 82.721 190.366 83.623L187.583 86.296V87H192.995ZM194.334 81.104L195.335 81.269C195.335 80.367 196.006 79.685 196.93 79.685C197.777 79.685 198.371 80.136 198.371 81.06C198.371 81.896 197.865 82.479 196.446 82.512V83.238C198.173 83.238 198.536 83.876 198.536 84.745C198.536 85.46 197.975 86.274 196.82 86.274C195.984 86.274 195.489 85.845 195.148 85.141C195.06 84.932 195.005 84.767 194.983 84.646L194.081 85.02C194.466 86.208 195.093 87.143 196.831 87.143C198.338 87.143 199.559 86.197 199.559 84.723C199.559 83.711 199.009 83.04 197.953 82.776C198.833 82.479 199.372 81.951 199.372 80.895C199.372 79.663 198.382 78.805 196.985 78.805C195.61 78.805 194.543 79.641 194.334 81.104ZM201.568 86.12H200.567V87.154H201.568V86.12ZM206.656 83.799L204.148 87H205.413L207.624 83.953C208.24 83.106 208.592 82.369 208.592 81.412C208.592 79.839 207.547 78.739 205.963 78.739C204.357 78.739 203.224 79.894 203.224 81.335C203.224 82.864 204.28 83.7 205.545 83.7C206.15 83.7 206.667 83.524 207.096 83.183C207.019 83.282 206.887 83.491 206.656 83.799ZM204.247 81.258C204.247 80.279 204.929 79.608 205.952 79.608C206.898 79.608 207.613 80.235 207.613 81.291C207.613 82.138 206.975 82.908 205.875 82.908C204.863 82.908 204.247 82.325 204.247 81.258Z" fill="white" fill-opacity="0.6"/>
<path d="M8.239 107.791H9.702V107.043H8.239V104.458H7.337V110.398H8.239V107.791ZM5.852 109.98L6.314 109.276C4.862 108.77 3.916 107.56 3.916 106.251V105.866H6.094V105.14H0.803V105.866H3.014V106.262C3.014 107.681 2.035 108.935 0.539 109.463L1.012 110.178C2.167 109.749 3.047 108.88 3.476 107.78C3.905 108.792 4.752 109.595 5.852 109.98ZM8.239 110.926H1.815V111.652H7.337V114.325H8.239V110.926ZM17.9181 104.458V107.175H15.9381V107.912H17.9181V111.685H18.8311V104.458H17.9181ZM16.0701 110.2L16.5211 109.496C15.0911 109.001 14.1231 107.747 14.1231 106.471V105.987H16.2901V105.25H11.0211V105.987H13.2211V106.482C13.2211 107.879 12.1981 109.188 10.7351 109.716L11.2081 110.42C12.3631 109.991 13.2651 109.111 13.6941 107.967C14.1231 108.979 14.9701 109.804 16.0701 110.2ZM19.1061 114.094V113.357H13.4301V111.047H12.5171V114.094H19.1061ZM28.9503 110.266V104.447L28.0373 104.458V105.899H25.5513C25.0783 105.338 24.3853 104.997 23.5053 104.997C22.0533 104.997 20.9753 105.987 20.9753 107.362C20.9753 108.759 22.0533 109.749 23.5053 109.749C24.3853 109.749 25.0673 109.408 25.5403 108.847H28.0373V110.266H28.9503ZM23.5053 108.979C22.5483 108.979 21.8333 108.297 21.8333 107.362C21.8333 106.438 22.5483 105.767 23.5053 105.767C24.4733 105.767 25.1883 106.438 25.1883 107.362C25.1883 108.297 24.4733 108.979 23.5053 108.979ZM28.0373 106.625V108.11H25.9363C26.0133 107.901 26.0463 107.648 26.0463 107.362C26.0463 107.087 26.0133 106.834 25.9363 106.625H28.0373ZM28.9503 110.805H22.3503V111.542H28.0373V114.325H28.9503V110.805ZM38.5304 109.199H40.1584V108.451H38.5304V104.458H37.6284V114.314H38.5304V109.199ZM34.2514 107.076V105.305H33.3604V107.076C33.3604 108.869 32.2384 110.75 30.8194 111.487L31.3584 112.213C32.4694 111.597 33.3824 110.409 33.8114 108.946C34.2514 110.31 35.1424 111.454 36.1984 112.015L36.7594 111.3C35.3844 110.596 34.2514 108.803 34.2514 107.076ZM49.1776 114.314V104.458H48.2756V108.407H45.9656V109.144H48.2756V114.314H49.1776ZM45.9876 105.514H41.4886V106.24H45.0856C44.9096 108.55 43.6996 110.431 41.0486 111.729L41.5436 112.433C44.8326 110.816 45.9876 108.319 45.9876 105.514ZM59.2747 114.325V104.436H58.3727V114.325H59.2747ZM52.6527 111.19V108.891H56.2937V105.36H51.7177V106.097H55.3807V108.154H51.7507V111.938H52.5647C54.2697 111.938 55.7437 111.872 57.5367 111.575L57.4487 110.838C55.7327 111.102 54.2697 111.19 52.6527 111.19Z" fill="white" fill-opacity="0.6"/>
<rect x="96" y="101.5" width="149" height="6" fill="#27D4FF"/>
<path d="M258.995 108V107.109H255.816C255.541 107.109 255.211 107.153 254.903 107.241L257.158 105.008C258.071 104.095 258.841 103.259 258.841 102.06C258.841 100.63 257.774 99.794 256.399 99.794C255.024 99.794 253.957 100.597 253.748 102.082L254.738 102.247C254.738 101.323 255.42 100.663 256.344 100.663C257.18 100.663 257.796 101.114 257.829 102.082C257.829 103.028 257.213 103.721 256.366 104.623L253.583 107.296V108H258.995ZM263.568 104.799L261.06 108H262.325L264.536 104.953C265.152 104.106 265.504 103.369 265.504 102.412C265.504 100.839 264.459 99.739 262.875 99.739C261.269 99.739 260.136 100.894 260.136 102.335C260.136 103.864 261.192 104.7 262.457 104.7C263.062 104.7 263.579 104.524 264.008 104.183C263.931 104.282 263.799 104.491 263.568 104.799ZM261.159 102.258C261.159 101.279 261.841 100.608 262.864 100.608C263.81 100.608 264.525 101.235 264.525 102.291C264.525 103.138 263.887 103.908 262.787 103.908C261.775 103.908 261.159 103.325 261.159 102.258ZM267.568 107.12H266.567V108.154H267.568V107.12ZM270.742 102.94L271.105 100.828H274.262V99.904H270.401L269.741 103.721L270.39 103.908C270.863 103.743 271.281 103.644 271.71 103.644C272.865 103.644 273.547 104.26 273.547 105.316C273.547 106.504 272.744 107.197 271.633 107.197C270.973 107.197 270.335 106.9 269.851 106.493L269.312 107.23C269.807 107.703 270.621 108.099 271.589 108.099C273.228 108.099 274.515 106.977 274.515 105.261C274.515 103.853 273.602 102.797 271.897 102.797C271.501 102.797 271.116 102.841 270.742 102.94Z" fill="white" fill-opacity="0.6"/>
<rect x="96" y="112.5" width="105" height="6" fill="#0077FF"/>
<path d="M214.995 119V118.109H211.816C211.541 118.109 211.211 118.153 210.903 118.241L213.158 116.008C214.071 115.095 214.841 114.259 214.841 113.06C214.841 111.63 213.774 110.794 212.399 110.794C211.024 110.794 209.957 111.597 209.748 113.082L210.738 113.247C210.738 112.323 211.42 111.663 212.344 111.663C213.18 111.663 213.796 112.114 213.829 113.082C213.829 114.028 213.213 114.721 212.366 115.623L209.583 118.296V119H214.995ZM217.654 113.94L218.017 111.828H221.174V110.904H217.313L216.653 114.721L217.302 114.908C217.775 114.743 218.193 114.644 218.622 114.644C219.777 114.644 220.459 115.26 220.459 116.316C220.459 117.504 219.656 118.197 218.545 118.197C217.885 118.197 217.247 117.9 216.763 117.493L216.224 118.23C216.719 118.703 217.533 119.099 218.501 119.099C220.14 119.099 221.427 117.977 221.427 116.261C221.427 114.853 220.514 113.797 218.809 113.797C218.413 113.797 218.028 113.841 217.654 113.94ZM223.568 118.12H222.567V119.154H223.568V118.12ZM230.427 119V118.186H228.843V110.893H228.04L225.873 112.763L226.412 113.412L227.875 112.103C227.864 112.18 227.864 112.279 227.864 112.378V118.186H226.071V119H230.427Z" fill="white" fill-opacity="0.6"/>
<path d="M2.629 145.573L3.256 145.276C2.288 143.681 1.848 141.91 1.848 139.985C1.848 138.06 2.288 136.289 3.256 134.694L2.629 134.408C1.617 136.047 1.012 137.829 1.012 139.985C1.012 142.152 1.617 143.934 2.629 145.573ZM9.8878 139.215H11.5158V141.03H12.4288V134.958H11.5158V136.707H9.8878V137.444H11.5158V138.478H9.8878V139.215ZM10.1518 140.117L10.0968 139.446C9.6898 139.501 9.2498 139.545 8.8098 139.578V136.421H9.7888V135.695H4.5968V136.421H5.5758V139.688C5.3558 139.699 5.1468 139.699 4.9378 139.699H4.3328L4.4318 140.447C6.0268 140.447 8.2488 140.414 10.1518 140.117ZM6.4448 139.677V136.421H7.9298V139.622C7.4348 139.655 6.9288 139.666 6.4448 139.677ZM9.1728 141.239C7.0938 141.239 5.8838 141.866 5.8838 143.01C5.8838 144.154 7.0938 144.803 9.1728 144.803C11.2078 144.803 12.4508 144.154 12.4508 143.01C12.4508 141.866 11.2078 141.239 9.1728 141.239ZM9.1728 144.099C7.6658 144.099 6.7858 143.714 6.7858 143.01C6.7858 142.339 7.6658 141.932 9.1728 141.932C10.6798 141.932 11.5598 142.339 11.5598 143.01C11.5598 143.714 10.6798 144.099 9.1728 144.099ZM23.3729 139.919V139.182H21.9869C22.2179 137.95 22.2179 137.026 22.2179 136.223V135.475H15.5409V136.212H21.3269V136.223C21.3269 137.026 21.3379 137.939 21.0849 139.182H14.4189V139.919H17.3889V142.295H18.2689V139.919H20.0069V142.295H20.8869V139.919H23.3729ZM22.4819 143.857H16.3989V141.503H15.5079V144.594H22.4819V143.857ZM32.5791 138.918L32.9201 138.192C31.1601 137.961 29.4551 136.85 29.4551 135.541V135.101H28.5311V135.541C28.5311 136.85 26.8371 137.961 25.0771 138.192L25.4181 138.918C26.9251 138.654 28.3771 137.895 28.9931 136.751C29.6091 137.895 31.0831 138.654 32.5791 138.918ZM33.4921 140.634V139.897H29.4441V138.401H28.5421V139.897H24.5381V140.634H33.4921ZM32.3591 141.591H25.5281V142.328H31.4571V144.825H32.3591V141.591ZM43.6112 143.571V142.823H39.5742V140.293H42.5772V139.567H36.6922V136.476H42.4782V135.739H35.7902V140.293H38.6612V142.823H34.6462V143.571H43.6112ZM48.6553 135.244H47.6653V144H48.6553V142.427L49.7773 141.118L51.5263 144H52.6153L50.3493 140.425L52.3513 138.027H51.2403L48.6773 141.184H48.6553V135.244ZM54.5597 138.027H53.7347V144H54.7357V139.666C55.2747 139.061 55.7807 138.753 56.2427 138.753C57.0017 138.753 57.3537 139.204 57.3537 140.348V144H58.3547V139.666C58.9157 139.061 59.4217 138.753 59.8617 138.753C60.6207 138.753 60.9727 139.204 60.9727 140.348V144H61.9737V140.216C61.9737 138.665 61.4017 137.873 60.1587 137.873C59.4107 137.873 58.8057 138.346 58.1897 139.017C57.9367 138.313 57.4637 137.873 56.5397 137.873C55.8247 137.873 55.1977 138.324 54.6807 138.896H54.6477L54.5597 138.027ZM67.0533 134.727H66.3273L63.0273 145.419H63.7643L67.0533 134.727ZM69.2269 135.244H68.2259V144H69.2269V139.666C69.8319 139.061 70.2499 138.753 70.8659 138.753C71.6579 138.753 71.9989 139.204 71.9989 140.348V144H72.9999V140.216C72.9999 138.665 72.4609 137.873 71.1739 137.873C70.3489 137.873 69.7549 138.313 69.1939 138.874L69.2269 137.642V135.244ZM74.3685 145.21L74.9845 145.507C76.0075 143.868 76.6125 142.086 76.6125 139.919C76.6125 137.763 76.0075 135.981 74.9845 134.342L74.3685 134.628C75.3365 136.223 75.7765 137.994 75.7765 139.919C75.7765 141.844 75.3365 143.615 74.3685 145.21Z" fill="white" fill-opacity="0.87"/>
<rect x="190" y="135.5" width="10" height="10" fill="#27D4FF"/>
<path d="M207.727 138.995H214.503V138.258H208.64V135.453H207.727V138.995ZM211.478 141.217H215.537V140.48H206.572V141.217H210.576V144.814H211.478V141.217ZM224.82 140.854V134.947H223.918V137.521H221.993V138.258H223.918V140.854H224.82ZM222.07 140.469L222.521 139.765C221.091 139.27 220.123 138.016 220.123 136.751V136.355H222.29V135.618H217.021V136.355H219.221V136.751C219.221 138.159 218.198 139.457 216.735 139.985L217.208 140.7C218.363 140.271 219.254 139.38 219.683 138.236C220.123 139.259 220.97 140.073 222.07 140.469ZM224.82 141.393H218.231V142.119H223.918V144.825H224.82V141.393Z" fill="white" fill-opacity="0.87"/>
<rect x="243" y="135.5" width="10" height="10" fill="#0077FF"/>
<path d="M259.605 136.883H265.127V136.157H262.861V134.947H261.959V136.157H259.605V136.883ZM266.799 134.958V137.576H265.127V138.313H266.799V139.644H265.127V140.381H266.799V142.471H267.712V134.958H266.799ZM264.632 139.303C264.632 138.181 263.708 137.433 262.399 137.433C261.09 137.433 260.166 138.181 260.166 139.303C260.166 140.436 261.09 141.195 262.399 141.195C263.708 141.195 264.632 140.436 264.632 139.303ZM261.024 139.303C261.024 138.599 261.563 138.137 262.399 138.137C263.235 138.137 263.774 138.599 263.774 139.303C263.774 140.007 263.235 140.491 262.399 140.491C261.563 140.491 261.024 140.007 261.024 139.303ZM267.943 144.594V143.857H262.267V141.833H261.365V144.594H267.943ZM278.117 144.814V134.936H277.248V138.929H275.95V135.167H275.103V144.33H275.95V139.677H277.248V144.814H278.117ZM272.617 137.62V136.85H274.41V136.113H269.834V136.85H271.748V137.62C271.748 139.611 271.011 141.305 269.603 142.097L270.153 142.779C271.176 142.163 271.858 141.151 272.199 139.776C272.551 140.964 273.233 141.899 274.201 142.438L274.729 141.745C273.321 141.008 272.617 139.435 272.617 137.62Z" fill="white" fill-opacity="0.87"/>
</svg>
