<svg width="48" height="48" viewBox="0 0 48 48" fill="none" xmlns="http://www.w3.org/2000/svg">
<path d="M24 8C15.1634 8 8 15.1634 8 24C8 32.8366 15.1634 40 24 40C32.8366 40 40 32.8366 40 24C40 15.1634 32.8366 8 24 8Z" fill="#0068E6"/>
<path d="M8.5 24C8.5 15.4396 15.4396 8.5 24 8.5C32.5604 8.5 39.5 15.4396 39.5 24C39.5 32.5604 32.5604 39.5 24 39.5C15.4396 39.5 8.5 32.5604 8.5 24Z" stroke="black" stroke-opacity="0.3"/>
<path d="M32 19H27V17H29C29.1326 17 29.2598 16.9473 29.3536 16.8536C29.4473 16.7598 29.5 16.6326 29.5 16.5C29.5 16.3674 29.4473 16.2402 29.3536 16.1464C29.2598 16.0527 29.1326 16 29 16H19C18.8674 16 18.7402 16.0527 18.6464 16.1464C18.5527 16.2402 18.5 16.3674 18.5 16.5C18.5 16.6326 18.5527 16.7598 18.6464 16.8536C18.7402 16.9473 18.8674 17 19 17H21V19H16C15.7348 19 15.4804 19.1054 15.2929 19.2929C15.1054 19.4804 15 19.7348 15 20V30C15 30.2652 15.1054 30.5196 15.2929 30.7071C15.4804 30.8946 15.7348 31 16 31H32C32.2652 31 32.5196 30.8946 32.7071 30.7071C32.8946 30.5196 33 30.2652 33 30V20C33 19.7348 32.8946 19.4804 32.7071 19.2929C32.5196 19.1054 32.2652 19 32 19ZM22 17H26V19H22V17ZM32 29.5C32 29.6326 31.9473 29.7598 31.8536 29.8536C31.7598 29.9473 31.6326 30 31.5 30H16.5C16.3674 30 16.2402 29.9473 16.1464 29.8536C16.0527 29.7598 16 29.6326 16 29.5V20.5C16 20.3674 16.0527 20.2402 16.1464 20.1464C16.2402 20.0527 16.3674 20 16.5 20H31.5C31.6326 20 31.7598 20.0527 31.8536 20.1464C31.9473 20.2402 32 20.3674 32 20.5V29.5Z" fill="white"/>
<path d="M30.5 21H17.5C17.3674 21 17.2402 21.0527 17.1464 21.1464C17.0527 21.2402 17 21.3674 17 21.5V28.5C17 28.6326 17.0527 28.7598 17.1464 28.8536C17.2402 28.9473 17.3674 29 17.5 29H30.5C30.6326 29 30.7598 28.9473 30.8536 28.8536C30.9473 28.7598 31 28.6326 31 28.5V21.5C31 21.3674 30.9473 21.2402 30.8536 21.1464C30.7598 21.0527 30.6326 21 30.5 21ZM20.587 26.955H19.556L18.251 23.045H19.3L20.075 25.891L20.855 23.045H21.9L20.587 26.955ZM26.41 26.955H25.465V26.042L25.556 24.173L24.611 26.955H23.987L23.039 24.17L23.131 26.042V26.955H22.188V23.045H23.426L24.299 25.766L25.169 23.045H26.41V26.955ZM27.882 24.37C28.0565 24.4831 28.2474 24.5684 28.448 24.623C28.6792 24.6929 28.9024 24.7867 29.114 24.903C29.3038 24.9941 29.4639 25.137 29.5761 25.3151C29.6883 25.4933 29.7478 25.6995 29.748 25.91C29.7541 26.0657 29.722 26.2206 29.6545 26.361C29.5871 26.5015 29.4863 26.6234 29.361 26.716C29.0493 26.9272 28.6769 27.0301 28.301 27.009C28.0052 27.0133 27.7117 26.955 27.44 26.838C27.2053 26.7422 27.0037 26.5799 26.86 26.371C26.7284 26.1675 26.6605 25.9293 26.665 25.687H27.611C27.6039 25.7712 27.6146 25.856 27.6425 25.9358C27.6704 26.0156 27.7149 26.0886 27.773 26.15C27.9243 26.2637 28.1125 26.3171 28.301 26.3C28.4315 26.3071 28.5609 26.272 28.67 26.2C28.7141 26.1676 28.7496 26.1248 28.7733 26.0755C28.797 26.0261 28.8083 25.9717 28.806 25.917C28.809 25.8555 28.7972 25.7942 28.7716 25.7382C28.746 25.6821 28.7074 25.6331 28.659 25.595C28.5017 25.4879 28.3281 25.4069 28.145 25.355C27.94 25.2886 27.7395 25.2087 27.545 25.116C27.3305 25.0405 27.1434 24.9026 27.008 24.7199C26.8725 24.5372 26.7949 24.3182 26.785 24.091C26.7822 23.8838 26.8491 23.6816 26.975 23.517C27.1147 23.3414 27.3002 23.2078 27.511 23.131C27.7589 23.0349 28.0231 22.9877 28.289 22.992C28.5488 22.9876 28.8066 23.0388 29.045 23.142C29.2558 23.2324 29.4362 23.3813 29.565 23.571C29.6895 23.7591 29.754 23.9805 29.75 24.206H28.81C28.8141 24.1373 28.8032 24.0684 28.778 24.0044C28.7528 23.9403 28.7139 23.8825 28.664 23.835C28.5522 23.7421 28.4091 23.6952 28.264 23.704C28.1221 23.6961 27.9815 23.7351 27.864 23.815C27.8179 23.8459 27.7804 23.888 27.7549 23.9373C27.7294 23.9867 27.7168 24.0416 27.7183 24.0971C27.7198 24.1526 27.7354 24.2068 27.7634 24.2547C27.7915 24.3026 27.8313 24.3426 27.879 24.371" fill="white"/>
</svg>
